<?xml version="1.0" encoding="UTF-8" standalone="no"?>
<!DOCTYPE svg PUBLIC "-//W3C//DTD SVG 1.1//EN"
 "http://www.w3.org/Graphics/SVG/1.1/DTD/svg11.dtd">
<!-- Generated by graphviz version 2.43.0 (0)
 -->
<!-- Title: %3 Pages: 1 -->
<svg width="338pt" height="290pt"
 viewBox="0.00 0.00 338.50 289.56" xmlns="http://www.w3.org/2000/svg" xmlns:xlink="http://www.w3.org/1999/xlink">
<g id="graph0" class="graph" transform="scale(1 1) rotate(0) translate(4 285.56)">
<title>%3</title>
<polygon fill="white" stroke="transparent" points="-4,4 -4,-285.56 334.5,-285.56 334.5,4 -4,4"/>
<!-- x_diff -->
<g id="node1" class="node">
<title>x_diff</title>
<polygon fill="lightgray" stroke="black" points="112.75,-211.81 70.75,-211.81 70.75,-193.81 112.75,-193.81 112.75,-211.81"/>
<text text-anchor="middle" x="91.75" y="-200.61" font-family="Times,serif" font-size="9.00">x_diff</text>
</g>
<!-- 193 -->
<g id="node5" class="node">
<title>193</title>
<ellipse fill="white" stroke="black" cx="225.75" cy="-117.32" rx="25" ry="25"/>
<text text-anchor="middle" x="225.75" y="-115.12" font-family="Times,serif" font-size="9.00">193</text>
</g>
<!-- x_diff&#45;&gt;193 -->
<g id="edge3" class="edge">
<title>x_diff&#45;&gt;193</title>
<path fill="none" stroke="red" stroke-width="1.5" d="M101.11,-193.6C106.85,-188.77 114.48,-182.72 121.75,-178.07 151.55,-158.99 162.52,-160.45 192.75,-142.07 194.42,-141.05 196.12,-139.97 197.82,-138.86"/>
<polygon fill="red" stroke="red" stroke-width="1.5" points="199.91,-141.67 206.19,-133.14 195.96,-135.89 199.91,-141.67"/>
</g>
<!-- 194 -->
<g id="node6" class="node">
<title>194</title>
<ellipse fill="white" stroke="black" cx="91.75" cy="-117.32" rx="25" ry="25"/>
<text text-anchor="middle" x="91.75" y="-115.12" font-family="Times,serif" font-size="9.00">194</text>
</g>
<!-- x_diff&#45;&gt;194 -->
<g id="edge4" class="edge">
<title>x_diff&#45;&gt;194</title>
<path fill="none" stroke="red" stroke-width="0.66" d="M91.75,-193.81C91.75,-184.26 91.75,-167.67 91.75,-152.47"/>
<polygon fill="red" stroke="red" stroke-width="0.66" points="95.25,-152.27 91.75,-142.27 88.25,-152.27 95.25,-152.27"/>
</g>
<!-- 192 -->
<g id="node7" class="node">
<title>192</title>
<ellipse fill="white" stroke="black" cx="158.75" cy="-117.32" rx="25" ry="25"/>
<text text-anchor="middle" x="158.75" y="-115.12" font-family="Times,serif" font-size="9.00">192</text>
</g>
<!-- x_diff&#45;&gt;192 -->
<g id="edge2" class="edge">
<title>x_diff&#45;&gt;192</title>
<path fill="none" stroke="green" stroke-width="1.4" d="M98.17,-193.81C107.12,-182.65 123.78,-161.9 137.36,-144.97"/>
<polygon fill="green" stroke="green" stroke-width="1.4" points="140.21,-147.02 143.73,-137.03 134.75,-142.64 140.21,-147.02"/>
</g>
<!-- 195 -->
<g id="node8" class="node">
<title>195</title>
<ellipse fill="white" stroke="black" cx="24.75" cy="-117.32" rx="25" ry="25"/>
<text text-anchor="middle" x="24.75" y="-115.12" font-family="Times,serif" font-size="9.00">195</text>
</g>
<!-- x_diff&#45;&gt;195 -->
<g id="edge5" class="edge">
<title>x_diff&#45;&gt;195</title>
<path fill="none" stroke="red" stroke-width="2.19" d="M85.32,-193.81C76.37,-182.65 59.72,-161.9 46.14,-144.97"/>
<polygon fill="red" stroke="red" stroke-width="2.19" points="48.75,-142.64 39.76,-137.03 43.29,-147.02 48.75,-142.64"/>
</g>
<!-- 191 -->
<g id="node10" class="node">
<title>191</title>
<ellipse fill="white" stroke="black" cx="292.75" cy="-117.32" rx="25" ry="25"/>
<text text-anchor="middle" x="292.75" y="-115.12" font-family="Times,serif" font-size="9.00">191</text>
</g>
<!-- x_diff&#45;&gt;191 -->
<g id="edge1" class="edge">
<title>x_diff&#45;&gt;191</title>
<path fill="none" stroke="green" stroke-width="1.88" d="M100.01,-193.71C105.7,-188.55 113.66,-182.1 121.75,-178.07 178.48,-149.79 202.39,-169.04 259.75,-142.07 261.57,-141.21 263.39,-140.25 265.2,-139.22"/>
<polygon fill="green" stroke="green" stroke-width="1.88" points="267.4,-141.97 273.95,-133.64 263.63,-136.07 267.4,-141.97"/>
</g>
<!-- object_y -->
<g id="node2" class="node">
<title>object_y</title>
<polygon fill="lightgray" stroke="black" points="186.25,-211.81 131.25,-211.81 131.25,-193.81 186.25,-193.81 186.25,-211.81"/>
<text text-anchor="middle" x="158.75" y="-200.61" font-family="Times,serif" font-size="9.00">object_y</text>
</g>
<!-- object_y&#45;&gt;193 -->
<g id="edge8" class="edge">
<title>object_y&#45;&gt;193</title>
<path fill="none" stroke="red" stroke-width="1.19" d="M165.17,-193.81C174.12,-182.65 190.78,-161.9 204.36,-144.97"/>
<polygon fill="red" stroke="red" stroke-width="1.19" points="207.21,-147.02 210.73,-137.03 201.75,-142.64 207.21,-147.02"/>
</g>
<!-- object_y&#45;&gt;194 -->
<g id="edge9" class="edge">
<title>object_y&#45;&gt;194</title>
<path fill="none" stroke="green" stroke-width="1.83" d="M152.32,-193.81C143.37,-182.65 126.72,-161.9 113.14,-144.97"/>
<polygon fill="green" stroke="green" stroke-width="1.83" points="115.75,-142.64 106.76,-137.03 110.29,-147.02 115.75,-142.64"/>
</g>
<!-- object_y&#45;&gt;192 -->
<g id="edge7" class="edge">
<title>object_y&#45;&gt;192</title>
<path fill="none" stroke="red" stroke-width="0.45" d="M158.75,-193.81C158.75,-184.26 158.75,-167.67 158.75,-152.47"/>
<polygon fill="red" stroke="red" stroke-width="0.45" points="162.25,-152.27 158.75,-142.27 155.25,-152.27 162.25,-152.27"/>
</g>
<!-- object_y&#45;&gt;195 -->
<g id="edge10" class="edge">
<title>object_y&#45;&gt;195</title>
<path fill="none" stroke="green" stroke-width="2.34" d="M146.53,-193.72C139.37,-189.04 130.12,-183.1 121.75,-178.07 93.78,-161.24 85.26,-159.62 57.75,-142.07 56.1,-141.01 54.42,-139.91 52.73,-138.78"/>
<polygon fill="green" stroke="green" stroke-width="2.34" points="54.61,-135.82 44.39,-133 50.62,-141.57 54.61,-135.82"/>
</g>
<!-- object_y&#45;&gt;191 -->
<g id="edge6" class="edge">
<title>object_y&#45;&gt;191</title>
<path fill="none" stroke="green" stroke-width="0.12" d="M173.38,-193.71C193.25,-182.57 229.74,-161.69 259.75,-142.07 261.39,-140.99 263.06,-139.88 264.74,-138.73"/>
<polygon fill="green" stroke="green" stroke-width="0.12" points="266.86,-141.52 273.06,-132.93 262.85,-135.78 266.86,-141.52"/>
</g>
<!-- object_height -->
<g id="node3" class="node">
<title>object_height</title>
<polygon fill="lightgray" stroke="black" points="254.75,-281.56 174.75,-281.56 174.75,-263.56 254.75,-263.56 254.75,-281.56"/>
<text text-anchor="middle" x="214.75" y="-270.36" font-family="Times,serif" font-size="9.00">object_height</text>
</g>
<!-- object_height&#45;&gt;193 -->
<g id="edge12" class="edge">
<title>object_height&#45;&gt;193</title>
<path fill="none" stroke="green" stroke-width="0.78" d="M218.22,-263.31C221.68,-254.61 226.76,-240.4 228.75,-227.56 232.65,-202.43 231.64,-173.66 229.8,-151.95"/>
<polygon fill="green" stroke="green" stroke-width="0.78" points="233.27,-151.54 228.84,-141.91 226.31,-152.2 233.27,-151.54"/>
</g>
<!-- object_height&#45;&gt;194 -->
<g id="edge13" class="edge">
<title>object_height&#45;&gt;194</title>
<path fill="none" stroke="green" stroke-width="0.52" d="M174.58,-265.55C133.98,-258.56 75.34,-245.61 61.75,-227.56 43.81,-203.74 57.65,-169.81 71.91,-146.11"/>
<polygon fill="green" stroke="green" stroke-width="0.52" points="74.93,-147.88 77.33,-137.56 69.02,-144.13 74.93,-147.88"/>
</g>
<!-- object_height&#45;&gt;192 -->
<g id="edge11" class="edge">
<title>object_height&#45;&gt;192</title>
<path fill="none" stroke="green" stroke-width="0.01" d="M213.94,-263.55C212.08,-247.06 206.71,-208.32 194.75,-178.07 190.45,-167.2 184.28,-156.04 178.26,-146.35"/>
<polygon fill="green" stroke="green" stroke-width="0.01" points="181.19,-144.43 172.83,-137.91 175.3,-148.22 181.19,-144.43"/>
</g>
<!-- object_height&#45;&gt;195 -->
<g id="edge14" class="edge">
<title>object_height&#45;&gt;195</title>
<path fill="none" stroke="red" stroke-width="0.1" d="M174.66,-271.96C137.15,-270.07 82.17,-261.16 49.75,-227.56 30.57,-207.68 24.97,-176.25 23.79,-152.19"/>
<polygon fill="red" stroke="red" stroke-width="0.1" points="27.29,-151.97 23.53,-142.06 20.29,-152.15 27.29,-151.97"/>
</g>
<!-- 577 -->
<g id="node9" class="node">
<title>577</title>
<ellipse fill="white" stroke="black" cx="305.75" cy="-202.81" rx="25" ry="25"/>
<text text-anchor="middle" x="305.75" y="-200.61" font-family="Times,serif" font-size="9.00">577</text>
</g>
<!-- object_height&#45;&gt;577 -->
<g id="edge20" class="edge">
<title>object_height&#45;&gt;577</title>
<path fill="none" stroke="green" stroke-width="0.65" d="M225.54,-263.53C238.41,-253.95 260.39,-237.58 278.09,-224.4"/>
<polygon fill="green" stroke="green" stroke-width="0.65" points="280.45,-227.01 286.38,-218.24 276.27,-221.4 280.45,-227.01"/>
</g>
<!-- jump -->
<g id="node4" class="node">
<title>jump</title>
<ellipse fill="lightblue" stroke="black" cx="158.75" cy="-28.28" rx="28.07" ry="28.07"/>
<text text-anchor="middle" x="158.75" y="-26.08" font-family="Times,serif" font-size="9.00">jump</text>
</g>
<!-- 193&#45;&gt;jump -->
<g id="edge17" class="edge">
<title>193&#45;&gt;jump</title>
<path fill="none" stroke="red" stroke-width="0.02" d="M210.88,-97C202.34,-85.91 191.43,-71.74 181.81,-59.24"/>
<polygon fill="red" stroke="red" stroke-width="0.02" points="184.58,-57.1 175.7,-51.31 179.03,-61.37 184.58,-57.1"/>
</g>
<!-- 194&#45;&gt;jump -->
<g id="edge18" class="edge">
<title>194&#45;&gt;jump</title>
<path fill="none" stroke="green" stroke-width="2" d="M106.62,-97C115.16,-85.91 126.06,-71.74 135.69,-59.24"/>
<polygon fill="green" stroke="green" stroke-width="2" points="138.47,-61.37 141.8,-51.31 132.92,-57.1 138.47,-61.37"/>
</g>
<!-- 192&#45;&gt;jump -->
<g id="edge16" class="edge">
<title>192&#45;&gt;jump</title>
<path fill="none" stroke="red" stroke-width="0.13" d="M158.75,-92.54C158.75,-84.58 158.75,-75.5 158.75,-66.76"/>
<polygon fill="red" stroke="red" stroke-width="0.13" points="162.25,-66.73 158.75,-56.73 155.25,-66.73 162.25,-66.73"/>
</g>
<!-- 195&#45;&gt;jump -->
<g id="edge19" class="edge">
<title>195&#45;&gt;jump</title>
<path fill="none" stroke="red" stroke-width="0.29" d="M44.5,-101.79C48.83,-98.7 53.41,-95.48 57.75,-92.57 80.24,-77.45 106.15,-61.24 126.09,-49.01"/>
<polygon fill="red" stroke="red" stroke-width="0.29" points="128.09,-51.89 134.8,-43.69 124.44,-45.92 128.09,-51.89"/>
</g>
<!-- 577&#45;&gt;191 -->
<g id="edge21" class="edge">
<title>577&#45;&gt;191</title>
<path fill="none" stroke="red" stroke-width="0.31" d="M302.06,-178.11C300.8,-170 299.36,-160.77 298,-152.02"/>
<polygon fill="red" stroke="red" stroke-width="0.31" points="301.45,-151.42 296.45,-142.08 294.53,-152.5 301.45,-151.42"/>
</g>
<!-- 191&#45;&gt;jump -->
<g id="edge15" class="edge">
<title>191&#45;&gt;jump</title>
<path fill="none" stroke="green" stroke-width="1.52" d="M273,-101.79C268.67,-98.7 264.08,-95.48 259.75,-92.57 237.26,-77.45 211.35,-61.24 191.41,-49.01"/>
<polygon fill="green" stroke="green" stroke-width="1.52" points="193.05,-45.92 182.7,-43.69 189.41,-51.89 193.05,-45.92"/>
</g>
</g>
</svg>
