<?xml version="1.0" encoding="UTF-8" standalone="no"?>
<!DOCTYPE svg PUBLIC "-//W3C//DTD SVG 1.1//EN"
 "http://www.w3.org/Graphics/SVG/1.1/DTD/svg11.dtd">
<!-- Generated by graphviz version 2.43.0 (0)
 -->
<!-- Title: %3 Pages: 1 -->
<svg width="526pt" height="204pt"
 viewBox="0.00 0.00 526.50 204.07" xmlns="http://www.w3.org/2000/svg" xmlns:xlink="http://www.w3.org/1999/xlink">
<g id="graph0" class="graph" transform="scale(1 1) rotate(0) translate(4 200.07)">
<title>%3</title>
<polygon fill="white" stroke="transparent" points="-4,4 -4,-200.07 522.5,-200.07 522.5,4 -4,4"/>
<!-- x_diff -->
<g id="node1" class="node">
<title>x_diff</title>
<polygon fill="lightgray" stroke="black" points="313.75,-196.07 271.75,-196.07 271.75,-178.07 313.75,-178.07 313.75,-196.07"/>
<text text-anchor="middle" x="292.75" y="-184.87" font-family="Times,serif" font-size="9.00">x_diff</text>
</g>
<!-- 897 -->
<g id="node6" class="node">
<title>897</title>
<ellipse fill="white" stroke="black" cx="158.75" cy="-117.32" rx="25" ry="25"/>
<text text-anchor="middle" x="158.75" y="-115.12" font-family="Times,serif" font-size="9.00">897</text>
</g>
<!-- x_diff&#45;&gt;897 -->
<g id="edge1" class="edge">
<title>x_diff&#45;&gt;897</title>
<path fill="none" stroke="red" stroke-width="1.36" d="M271.62,-178.38C250.74,-170.44 218.18,-157.11 191.75,-142.07 190,-141.07 188.23,-140 186.47,-138.89"/>
<polygon fill="red" stroke="red" stroke-width="1.36" points="188.09,-135.76 177.84,-133.09 184.19,-141.57 188.09,-135.76"/>
</g>
<!-- 898 -->
<g id="node7" class="node">
<title>898</title>
<ellipse fill="white" stroke="black" cx="225.75" cy="-117.32" rx="25" ry="25"/>
<text text-anchor="middle" x="225.75" y="-115.12" font-family="Times,serif" font-size="9.00">898</text>
</g>
<!-- x_diff&#45;&gt;898 -->
<g id="edge2" class="edge">
<title>x_diff&#45;&gt;898</title>
<path fill="none" stroke="red" stroke-width="1.54" d="M284.8,-178.03C276.25,-169.38 262.22,-155.19 249.98,-142.82"/>
<polygon fill="red" stroke="red" stroke-width="1.54" points="252.18,-140.07 242.66,-135.42 247.2,-144.99 252.18,-140.07"/>
</g>
<!-- 899 -->
<g id="node8" class="node">
<title>899</title>
<ellipse fill="white" stroke="black" cx="292.75" cy="-117.32" rx="25" ry="25"/>
<text text-anchor="middle" x="292.75" y="-115.12" font-family="Times,serif" font-size="9.00">899</text>
</g>
<!-- x_diff&#45;&gt;899 -->
<g id="edge3" class="edge">
<title>x_diff&#45;&gt;899</title>
<path fill="none" stroke="red" stroke-width="0.05" d="M292.75,-178.03C292.75,-171.59 292.75,-162.1 292.75,-152.56"/>
<polygon fill="red" stroke="red" stroke-width="0.05" points="296.25,-152.34 292.75,-142.34 289.25,-152.34 296.25,-152.34"/>
</g>
<!-- 900 -->
<g id="node9" class="node">
<title>900</title>
<ellipse fill="white" stroke="black" cx="359.75" cy="-117.32" rx="25" ry="25"/>
<text text-anchor="middle" x="359.75" y="-115.12" font-family="Times,serif" font-size="9.00">900</text>
</g>
<!-- x_diff&#45;&gt;900 -->
<g id="edge4" class="edge">
<title>x_diff&#45;&gt;900</title>
<path fill="none" stroke="red" stroke-width="0.94" d="M300.7,-178.03C309.25,-169.38 323.28,-155.19 335.52,-142.82"/>
<polygon fill="red" stroke="red" stroke-width="0.94" points="338.29,-144.99 342.84,-135.42 333.32,-140.07 338.29,-144.99"/>
</g>
<!-- 901 -->
<g id="node10" class="node">
<title>901</title>
<ellipse fill="white" stroke="black" cx="426.75" cy="-117.32" rx="25" ry="25"/>
<text text-anchor="middle" x="426.75" y="-115.12" font-family="Times,serif" font-size="9.00">901</text>
</g>
<!-- x_diff&#45;&gt;901 -->
<g id="edge5" class="edge">
<title>x_diff&#45;&gt;901</title>
<path fill="none" stroke="green" stroke-width="2.52" d="M313.88,-178.38C334.76,-170.44 367.32,-157.11 393.75,-142.07 395.5,-141.07 397.27,-140 399.03,-138.89"/>
<polygon fill="green" stroke="green" stroke-width="2.52" points="401.31,-141.57 407.66,-133.09 397.41,-135.76 401.31,-141.57"/>
</g>
<!-- 902 -->
<g id="node11" class="node">
<title>902</title>
<ellipse fill="white" stroke="black" cx="493.75" cy="-117.32" rx="25" ry="25"/>
<text text-anchor="middle" x="493.75" y="-115.12" font-family="Times,serif" font-size="9.00">902</text>
</g>
<!-- x_diff&#45;&gt;902 -->
<g id="edge6" class="edge">
<title>x_diff&#45;&gt;902</title>
<path fill="none" stroke="green" stroke-width="0.49" d="M313.77,-180.61C358.48,-169.01 459.05,-142.86 460.75,-142.07 462.57,-141.21 464.39,-140.25 466.2,-139.22"/>
<polygon fill="green" stroke="green" stroke-width="0.49" points="468.4,-141.97 474.95,-133.64 464.63,-136.07 468.4,-141.97"/>
</g>
<!-- 903 -->
<g id="node12" class="node">
<title>903</title>
<ellipse fill="white" stroke="black" cx="24.75" cy="-117.32" rx="25" ry="25"/>
<text text-anchor="middle" x="24.75" y="-115.12" font-family="Times,serif" font-size="9.00">903</text>
</g>
<!-- x_diff&#45;&gt;903 -->
<g id="edge7" class="edge">
<title>x_diff&#45;&gt;903</title>
<path fill="none" stroke="red" stroke-width="0.43" d="M271.5,-180.16C268.57,-179.41 265.59,-178.69 262.75,-178.07 172.42,-158.13 142.99,-177.99 57.75,-142.07 55.89,-141.28 54.04,-140.38 52.22,-139.4"/>
<polygon fill="red" stroke="red" stroke-width="0.43" points="53.76,-136.23 43.42,-133.94 50.07,-142.18 53.76,-136.23"/>
</g>
<!-- 904 -->
<g id="node13" class="node">
<title>904</title>
<ellipse fill="white" stroke="black" cx="91.75" cy="-117.32" rx="25" ry="25"/>
<text text-anchor="middle" x="91.75" y="-115.12" font-family="Times,serif" font-size="9.00">904</text>
</g>
<!-- x_diff&#45;&gt;904 -->
<g id="edge8" class="edge">
<title>x_diff&#45;&gt;904</title>
<path fill="none" stroke="red" stroke-width="0.08" d="M271.45,-180.37C268.53,-179.59 265.56,-178.81 262.75,-178.07 201.46,-161.9 182.11,-169.04 124.75,-142.07 122.93,-141.21 121.1,-140.25 119.3,-139.22"/>
<polygon fill="red" stroke="red" stroke-width="0.08" points="120.86,-136.07 110.55,-133.64 117.1,-141.97 120.86,-136.07"/>
</g>
<!-- object_y -->
<g id="node2" class="node">
<title>object_y</title>
<polygon fill="lightgray" stroke="black" points="387.25,-196.07 332.25,-196.07 332.25,-178.07 387.25,-178.07 387.25,-196.07"/>
<text text-anchor="middle" x="359.75" y="-184.87" font-family="Times,serif" font-size="9.00">object_y</text>
</g>
<!-- object_y&#45;&gt;897 -->
<g id="edge9" class="edge">
<title>object_y&#45;&gt;897</title>
<path fill="none" stroke="red" stroke-width="2.6" d="M331.97,-180.09C291.01,-171.06 216.57,-153.75 191.75,-142.07 189.93,-141.21 188.1,-140.25 186.3,-139.22"/>
<polygon fill="red" stroke="red" stroke-width="2.6" points="187.87,-136.07 177.55,-133.64 184.1,-141.97 187.87,-136.07"/>
</g>
<!-- object_y&#45;&gt;898 -->
<g id="edge10" class="edge">
<title>object_y&#45;&gt;898</title>
<path fill="none" stroke="green" stroke-width="0.5" d="M337.43,-177.92C316.51,-169.93 284.68,-156.82 258.75,-142.07 257,-141.07 255.23,-140 253.47,-138.89"/>
<polygon fill="green" stroke="green" stroke-width="0.5" points="255.09,-135.76 244.84,-133.09 251.19,-141.57 255.09,-135.76"/>
</g>
<!-- object_y&#45;&gt;899 -->
<g id="edge11" class="edge">
<title>object_y&#45;&gt;899</title>
<path fill="none" stroke="red" stroke-width="0.99" d="M351.8,-178.03C343.25,-169.38 329.22,-155.19 316.98,-142.82"/>
<polygon fill="red" stroke="red" stroke-width="0.99" points="319.18,-140.07 309.66,-135.42 314.2,-144.99 319.18,-140.07"/>
</g>
<!-- object_y&#45;&gt;900 -->
<g id="edge12" class="edge">
<title>object_y&#45;&gt;900</title>
<path fill="none" stroke="green" stroke-width="1.22" d="M359.75,-178.03C359.75,-171.59 359.75,-162.1 359.75,-152.56"/>
<polygon fill="green" stroke="green" stroke-width="1.22" points="363.25,-152.34 359.75,-142.34 356.25,-152.34 363.25,-152.34"/>
</g>
<!-- object_y&#45;&gt;901 -->
<g id="edge13" class="edge">
<title>object_y&#45;&gt;901</title>
<path fill="none" stroke="red" stroke-width="0.2" d="M367.7,-178.03C376.25,-169.38 390.28,-155.19 402.52,-142.82"/>
<polygon fill="red" stroke="red" stroke-width="0.2" points="405.29,-144.99 409.84,-135.42 400.32,-140.07 405.29,-144.99"/>
</g>
<!-- object_y&#45;&gt;902 -->
<g id="edge14" class="edge">
<title>object_y&#45;&gt;902</title>
<path fill="none" stroke="green" stroke-width="0.18" d="M382.07,-177.92C402.98,-169.93 434.82,-156.82 460.75,-142.07 462.5,-141.07 464.27,-140 466.03,-138.89"/>
<polygon fill="green" stroke="green" stroke-width="0.18" points="468.31,-141.57 474.66,-133.09 464.41,-135.76 468.31,-141.57"/>
</g>
<!-- object_y&#45;&gt;903 -->
<g id="edge15" class="edge">
<title>object_y&#45;&gt;903</title>
<path fill="none" stroke="green" stroke-width="1.27" d="M331.91,-179.8C328.83,-179.18 325.73,-178.59 322.75,-178.07 205.68,-157.49 168.16,-186.09 57.75,-142.07 55.88,-141.32 54.02,-140.45 52.19,-139.48"/>
<polygon fill="green" stroke="green" stroke-width="1.27" points="53.72,-136.32 43.36,-134.08 50.06,-142.29 53.72,-136.32"/>
</g>
<!-- object_y&#45;&gt;904 -->
<g id="edge16" class="edge">
<title>object_y&#45;&gt;904</title>
<path fill="none" stroke="red" stroke-width="0.25" d="M331.89,-179.94C328.81,-179.29 325.71,-178.66 322.75,-178.07 235.03,-160.61 207.07,-177.05 124.75,-142.07 122.9,-141.28 121.05,-140.37 119.23,-139.38"/>
<polygon fill="red" stroke="red" stroke-width="0.25" points="120.77,-136.22 110.43,-133.92 117.07,-142.17 120.77,-136.22"/>
</g>
<!-- object_height -->
<g id="node3" class="node">
<title>object_height</title>
<polygon fill="lightgray" stroke="black" points="187.75,-196.07 107.75,-196.07 107.75,-178.07 187.75,-178.07 187.75,-196.07"/>
<text text-anchor="middle" x="147.75" y="-184.87" font-family="Times,serif" font-size="9.00">object_height</text>
</g>
<!-- object_height&#45;&gt;897 -->
<g id="edge17" class="edge">
<title>object_height&#45;&gt;897</title>
<path fill="none" stroke="red" stroke-width="3.65" d="M149.05,-178.03C150.12,-171.47 151.7,-161.74 153.28,-152.02"/>
<polygon fill="red" stroke="red" stroke-width="3.65" points="156.75,-152.47 154.9,-142.04 149.84,-151.35 156.75,-152.47"/>
</g>
<!-- object_height&#45;&gt;898 -->
<g id="edge18" class="edge">
<title>object_height&#45;&gt;898</title>
<path fill="none" stroke="red" stroke-width="0.94" d="M157,-178.03C167.42,-168.98 184.81,-153.87 199.5,-141.12"/>
<polygon fill="red" stroke="red" stroke-width="0.94" points="202.06,-143.53 207.31,-134.33 197.47,-138.24 202.06,-143.53"/>
</g>
<!-- object_height&#45;&gt;899 -->
<g id="edge19" class="edge">
<title>object_height&#45;&gt;899</title>
<path fill="none" stroke="red" stroke-width="0.19" d="M173.47,-178.01C196.71,-170.26 231.5,-157.46 259.75,-142.07 261.52,-141.1 263.3,-140.06 265.07,-138.97"/>
<polygon fill="red" stroke="red" stroke-width="0.19" points="267.33,-141.67 273.73,-133.22 263.46,-135.83 267.33,-141.67"/>
</g>
<!-- object_height&#45;&gt;900 -->
<g id="edge20" class="edge">
<title>object_height&#45;&gt;900</title>
<path fill="none" stroke="red" stroke-width="0.95" d="M188.01,-178.04C232.88,-168.76 302.34,-153.33 326.75,-142.07 328.58,-141.22 330.4,-140.27 332.21,-139.25"/>
<polygon fill="red" stroke="red" stroke-width="0.95" points="334.4,-142.01 340.97,-133.7 330.65,-136.1 334.4,-142.01"/>
</g>
<!-- object_height&#45;&gt;901 -->
<g id="edge21" class="edge">
<title>object_height&#45;&gt;901</title>
<path fill="none" stroke="green" stroke-width="0.81" d="M187.81,-179.38C255.07,-168.08 384.32,-146.06 393.75,-142.07 395.6,-141.28 397.45,-140.38 399.27,-139.39"/>
<polygon fill="green" stroke="green" stroke-width="0.81" points="401.42,-142.18 408.07,-133.93 397.73,-136.23 401.42,-142.18"/>
</g>
<!-- object_height&#45;&gt;902 -->
<g id="edge22" class="edge">
<title>object_height&#45;&gt;902</title>
<path fill="none" stroke="green" stroke-width="0.14" d="M187.85,-179.43C190.86,-178.96 193.85,-178.5 196.75,-178.07 313.86,-160.52 350.76,-185.95 460.75,-142.07 462.62,-141.32 464.48,-140.45 466.31,-139.48"/>
<polygon fill="green" stroke="green" stroke-width="0.14" points="468.43,-142.29 475.14,-134.08 464.78,-136.32 468.43,-142.29"/>
</g>
<!-- object_height&#45;&gt;903 -->
<g id="edge23" class="edge">
<title>object_height&#45;&gt;903</title>
<path fill="none" stroke="green" stroke-width="0.56" d="M129,-178.02C110.45,-169.8 81.48,-156.27 57.75,-142.07 56.07,-141.06 54.36,-139.99 52.66,-138.89"/>
<polygon fill="green" stroke="green" stroke-width="0.56" points="54.51,-135.92 44.27,-133.19 50.58,-141.71 54.51,-135.92"/>
</g>
<!-- object_height&#45;&gt;904 -->
<g id="edge24" class="edge">
<title>object_height&#45;&gt;904</title>
<path fill="none" stroke="green" stroke-width="1.5" d="M141.1,-178.03C134.33,-169.83 123.43,-156.65 113.6,-144.76"/>
<polygon fill="green" stroke="green" stroke-width="1.5" points="116.1,-142.29 107.03,-136.81 110.71,-146.75 116.1,-142.29"/>
</g>
<!-- is_bird -->
<g id="node4" class="node">
<title>is_bird</title>
<polygon fill="lightgray" stroke="black" points="253.75,-196.07 205.75,-196.07 205.75,-178.07 253.75,-178.07 253.75,-196.07"/>
<text text-anchor="middle" x="229.75" y="-184.87" font-family="Times,serif" font-size="9.00">is_bird</text>
</g>
<!-- is_bird&#45;&gt;897 -->
<g id="edge25" class="edge">
<title>is_bird&#45;&gt;897</title>
<path fill="none" stroke="green" stroke-width="0.52" d="M221.33,-178.03C212.11,-169.24 196.91,-154.73 183.8,-142.22"/>
<polygon fill="green" stroke="green" stroke-width="0.52" points="186.03,-139.51 176.38,-135.14 181.2,-144.58 186.03,-139.51"/>
</g>
<!-- is_bird&#45;&gt;898 -->
<g id="edge26" class="edge">
<title>is_bird&#45;&gt;898</title>
<path fill="none" stroke="red" stroke-width="0.89" d="M229.27,-178.03C228.89,-171.47 228.31,-161.74 227.74,-152.02"/>
<polygon fill="red" stroke="red" stroke-width="0.89" points="231.23,-151.82 227.15,-142.04 224.24,-152.23 231.23,-151.82"/>
</g>
<!-- is_bird&#45;&gt;899 -->
<g id="edge27" class="edge">
<title>is_bird&#45;&gt;899</title>
<path fill="none" stroke="red" stroke-width="1.29" d="M237.22,-178.03C245.16,-169.49 258.1,-155.57 269.5,-143.32"/>
<polygon fill="red" stroke="red" stroke-width="1.29" points="272.09,-145.68 276.33,-135.97 266.96,-140.91 272.09,-145.68"/>
</g>
<!-- is_bird&#45;&gt;900 -->
<g id="edge28" class="edge">
<title>is_bird&#45;&gt;900</title>
<path fill="none" stroke="red" stroke-width="1.13" d="M250.78,-177.94C270.83,-169.87 301.62,-156.61 326.75,-142.07 328.49,-141.06 330.25,-139.98 332.01,-138.86"/>
<polygon fill="red" stroke="red" stroke-width="1.13" points="334.3,-141.54 340.63,-133.04 330.39,-135.73 334.3,-141.54"/>
</g>
<!-- is_bird&#45;&gt;901 -->
<g id="edge29" class="edge">
<title>is_bird&#45;&gt;901</title>
<path fill="none" stroke="green" stroke-width="0.24" d="M253.97,-180.08C296.44,-169.51 381.06,-148.08 393.75,-142.07 395.57,-141.2 397.39,-140.24 399.19,-139.21"/>
<polygon fill="green" stroke="green" stroke-width="0.24" points="401.39,-141.95 407.94,-133.62 397.62,-136.05 401.39,-141.95"/>
</g>
<!-- is_bird&#45;&gt;902 -->
<g id="edge30" class="edge">
<title>is_bird&#45;&gt;902</title>
<path fill="none" stroke="green" stroke-width="0.81" d="M253.86,-180.05C256.85,-179.35 259.87,-178.68 262.75,-178.07 350.25,-159.52 378.43,-177.05 460.75,-142.07 462.6,-141.28 464.45,-140.37 466.27,-139.38"/>
<polygon fill="green" stroke="green" stroke-width="0.81" points="468.42,-142.17 475.07,-133.92 464.73,-136.22 468.42,-142.17"/>
</g>
<!-- is_bird&#45;&gt;903 -->
<g id="edge31" class="edge">
<title>is_bird&#45;&gt;903</title>
<path fill="none" stroke="red" stroke-width="1.27" d="M205.56,-180.13C159.8,-168.87 64.52,-145.23 57.75,-142.07 55.93,-141.21 54.1,-140.26 52.29,-139.23"/>
<polygon fill="red" stroke="red" stroke-width="1.27" points="53.86,-136.08 43.54,-133.66 50.1,-141.98 53.86,-136.08"/>
</g>
<!-- is_bird&#45;&gt;904 -->
<g id="edge32" class="edge">
<title>is_bird&#45;&gt;904</title>
<path fill="none" stroke="red" stroke-width="1.65" d="M206.52,-178.06C184.76,-170.17 151.65,-157.13 124.75,-142.07 122.99,-141.08 121.22,-140.03 119.45,-138.92"/>
<polygon fill="red" stroke="red" stroke-width="1.65" points="121.07,-135.79 110.81,-133.14 117.18,-141.61 121.07,-135.79"/>
</g>
<!-- jump -->
<g id="node5" class="node">
<title>jump</title>
<ellipse fill="lightblue" stroke="black" cx="258.75" cy="-28.28" rx="28.07" ry="28.07"/>
<text text-anchor="middle" x="258.75" y="-26.08" font-family="Times,serif" font-size="9.00">jump</text>
</g>
<!-- 897&#45;&gt;jump -->
<g id="edge33" class="edge">
<title>897&#45;&gt;jump</title>
<path fill="none" stroke="red" stroke-width="0.48" d="M177.09,-100.35C191.82,-87.53 212.78,-69.29 229.77,-54.5"/>
<polygon fill="red" stroke="red" stroke-width="0.48" points="232.51,-56.76 237.75,-47.56 227.91,-51.48 232.51,-56.76"/>
</g>
<!-- 898&#45;&gt;jump -->
<g id="edge34" class="edge">
<title>898&#45;&gt;jump</title>
<path fill="none" stroke="red" stroke-width="0.07" d="M234.25,-93.9C237.63,-84.99 241.6,-74.52 245.35,-64.63"/>
<polygon fill="red" stroke="red" stroke-width="0.07" points="248.72,-65.6 248.99,-55.01 242.18,-63.12 248.72,-65.6"/>
</g>
<!-- 899&#45;&gt;jump -->
<g id="edge35" class="edge">
<title>899&#45;&gt;jump</title>
<path fill="none" stroke="red" stroke-width="1.09" d="M283.99,-93.9C280.51,-84.99 276.42,-74.52 272.56,-64.63"/>
<polygon fill="red" stroke="red" stroke-width="1.09" points="275.7,-63.05 268.8,-55.01 269.18,-65.6 275.7,-63.05"/>
</g>
<!-- 900&#45;&gt;jump -->
<g id="edge36" class="edge">
<title>900&#45;&gt;jump</title>
<path fill="none" stroke="green" stroke-width="1.27" d="M341.22,-100.35C326.21,-87.42 304.79,-68.96 287.55,-54.1"/>
<polygon fill="green" stroke="green" stroke-width="1.27" points="289.81,-51.43 279.95,-47.56 285.24,-56.74 289.81,-51.43"/>
</g>
<!-- 901&#45;&gt;jump -->
<g id="edge37" class="edge">
<title>901&#45;&gt;jump</title>
<path fill="none" stroke="red" stroke-width="0.92" d="M407.26,-101.39C402.91,-98.31 398.25,-95.21 393.75,-92.57 361.2,-73.45 321.94,-55.58 294.16,-43.74"/>
<polygon fill="red" stroke="red" stroke-width="0.92" points="295.42,-40.47 284.85,-39.81 292.7,-46.92 295.42,-40.47"/>
</g>
<!-- 902&#45;&gt;jump -->
<g id="edge38" class="edge">
<title>902&#45;&gt;jump</title>
<path fill="none" stroke="red" stroke-width="1.86" d="M474.86,-101.16C470.4,-98.04 465.55,-94.97 460.75,-92.57 406.36,-65.37 337.88,-46.89 296.26,-37.22"/>
<polygon fill="red" stroke="red" stroke-width="1.86" points="296.8,-33.76 286.28,-34.96 295.25,-40.59 296.8,-33.76"/>
</g>
<!-- 903&#45;&gt;jump -->
<g id="edge39" class="edge">
<title>903&#45;&gt;jump</title>
<path fill="none" stroke="green" stroke-width="1.27" d="M43.64,-101.17C48.1,-98.04 52.95,-94.97 57.75,-92.57 111.72,-65.53 179.63,-47.05 221.08,-37.34"/>
<polygon fill="green" stroke="green" stroke-width="1.27" points="222.06,-40.7 231.03,-35.06 220.5,-33.88 222.06,-40.7"/>
</g>
<!-- 904&#45;&gt;jump -->
<g id="edge40" class="edge">
<title>904&#45;&gt;jump</title>
<path fill="none" stroke="red" stroke-width="0.29" d="M111.25,-101.4C115.59,-98.32 120.25,-95.22 124.75,-92.57 157.07,-73.52 196.04,-55.64 223.6,-43.78"/>
<polygon fill="red" stroke="red" stroke-width="0.29" points="225.02,-46.98 232.85,-39.84 222.28,-40.54 225.02,-46.98"/>
</g>
</g>
</svg>
