<?xml version="1.0" encoding="UTF-8" standalone="no"?>
<!DOCTYPE svg PUBLIC "-//W3C//DTD SVG 1.1//EN"
 "http://www.w3.org/Graphics/SVG/1.1/DTD/svg11.dtd">
<!-- Generated by graphviz version 2.43.0 (0)
 -->
<!-- Title: %3 Pages: 1 -->
<svg width="539pt" height="298pt"
 viewBox="0.00 0.00 538.74 298.05" xmlns="http://www.w3.org/2000/svg" xmlns:xlink="http://www.w3.org/1999/xlink">
<g id="graph0" class="graph" transform="scale(1 1) rotate(0) translate(4 294.05)">
<title>%3</title>
<polygon fill="white" stroke="transparent" points="-4,4 -4,-294.05 534.74,-294.05 534.74,4 -4,4"/>
<!-- x_diff -->
<g id="node1" class="node">
<title>x_diff</title>
<polygon fill="lightgray" stroke="black" points="228.75,-216.06 186.75,-216.06 186.75,-198.06 228.75,-198.06 228.75,-216.06"/>
<text text-anchor="middle" x="207.75" y="-204.86" font-family="Times,serif" font-size="9.00">x_diff</text>
</g>
<!-- 864 -->
<g id="node6" class="node">
<title>864</title>
<ellipse fill="white" stroke="black" cx="359.75" cy="-117.32" rx="25" ry="25"/>
<text text-anchor="middle" x="359.75" y="-115.12" font-family="Times,serif" font-size="9.00">864</text>
</g>
<!-- x_diff&#45;&gt;864 -->
<g id="edge7" class="edge">
<title>x_diff&#45;&gt;864</title>
<path fill="none" stroke="red" stroke-width="0.09" d="M224.3,-198.02C247.64,-186.49 291.34,-164.2 326.75,-142.07 328.41,-141.03 330.1,-139.94 331.79,-138.81"/>
<polygon fill="red" stroke="red" stroke-width="0.09" points="333.89,-141.62 340.14,-133.06 329.92,-135.85 333.89,-141.62"/>
</g>
<!-- 857 -->
<g id="node8" class="node">
<title>857</title>
<ellipse fill="white" stroke="black" cx="91.75" cy="-117.32" rx="25" ry="25"/>
<text text-anchor="middle" x="91.75" y="-115.12" font-family="Times,serif" font-size="9.00">857</text>
</g>
<!-- x_diff&#45;&gt;857 -->
<g id="edge1" class="edge">
<title>x_diff&#45;&gt;857</title>
<path fill="none" stroke="red" stroke-width="0.54" d="M199.65,-197.86C193.78,-192.08 185.54,-184.29 177.75,-178.07 155.49,-160.3 148.09,-158.38 124.75,-142.07 123.14,-140.94 121.5,-139.79 119.84,-138.61"/>
<polygon fill="red" stroke="red" stroke-width="0.54" points="121.75,-135.68 111.58,-132.72 117.69,-141.38 121.75,-135.68"/>
</g>
<!-- 858 -->
<g id="node9" class="node">
<title>858</title>
<ellipse fill="white" stroke="black" cx="225.75" cy="-117.32" rx="25" ry="25"/>
<text text-anchor="middle" x="225.75" y="-115.12" font-family="Times,serif" font-size="9.00">858</text>
</g>
<!-- x_diff&#45;&gt;858 -->
<g id="edge2" class="edge">
<title>x_diff&#45;&gt;858</title>
<path fill="none" stroke="red" stroke-width="1.23" d="M209.41,-197.96C211.56,-187.49 215.43,-168.61 218.87,-151.86"/>
<polygon fill="red" stroke="red" stroke-width="1.23" points="222.35,-152.3 220.93,-141.8 215.49,-150.89 222.35,-152.3"/>
</g>
<!-- 859 -->
<g id="node10" class="node">
<title>859</title>
<ellipse fill="white" stroke="black" cx="292.75" cy="-117.32" rx="25" ry="25"/>
<text text-anchor="middle" x="292.75" y="-115.12" font-family="Times,serif" font-size="9.00">859</text>
</g>
<!-- x_diff&#45;&gt;859 -->
<g id="edge3" class="edge">
<title>x_diff&#45;&gt;859</title>
<path fill="none" stroke="red" stroke-width="0.45" d="M215.59,-197.96C227.53,-185.64 250.76,-161.66 268.63,-143.22"/>
<polygon fill="red" stroke="red" stroke-width="0.45" points="271.46,-145.32 275.9,-135.7 266.43,-140.45 271.46,-145.32"/>
</g>
<!-- 861 -->
<g id="node11" class="node">
<title>861</title>
<ellipse fill="white" stroke="black" cx="158.75" cy="-117.32" rx="25" ry="25"/>
<text text-anchor="middle" x="158.75" y="-115.12" font-family="Times,serif" font-size="9.00">861</text>
</g>
<!-- x_diff&#45;&gt;861 -->
<g id="edge4" class="edge">
<title>x_diff&#45;&gt;861</title>
<path fill="none" stroke="red" stroke-width="0.26" d="M203.23,-197.96C196.93,-186.69 185.19,-165.67 175.36,-148.05"/>
<polygon fill="red" stroke="red" stroke-width="0.26" points="178.35,-146.25 170.42,-139.22 172.24,-149.66 178.35,-146.25"/>
</g>
<!-- 862 -->
<g id="node12" class="node">
<title>862</title>
<ellipse fill="white" stroke="black" cx="426.75" cy="-117.32" rx="25" ry="25"/>
<text text-anchor="middle" x="426.75" y="-115.12" font-family="Times,serif" font-size="9.00">862</text>
</g>
<!-- x_diff&#45;&gt;862 -->
<g id="edge5" class="edge">
<title>x_diff&#45;&gt;862</title>
<path fill="none" stroke="green" stroke-width="1.05" d="M226.32,-198.01C240.12,-192.16 259.45,-184.22 276.75,-178.07 328,-159.82 345.03,-166.28 393.75,-142.07 395.55,-141.17 397.36,-140.18 399.15,-139.13"/>
<polygon fill="green" stroke="green" stroke-width="1.05" points="401.38,-141.86 407.87,-133.49 397.57,-135.98 401.38,-141.86"/>
</g>
<!-- 863 -->
<g id="node13" class="node">
<title>863</title>
<ellipse fill="white" stroke="black" cx="24.75" cy="-117.32" rx="25" ry="25"/>
<text text-anchor="middle" x="24.75" y="-115.12" font-family="Times,serif" font-size="9.00">863</text>
</g>
<!-- x_diff&#45;&gt;863 -->
<g id="edge6" class="edge">
<title>x_diff&#45;&gt;863</title>
<path fill="none" stroke="red" stroke-width="1.65" d="M200.89,-197.86C195.26,-191.62 186.77,-183.24 177.75,-178.07 129.46,-150.35 107.7,-166.67 57.75,-142.07 55.94,-141.18 54.13,-140.19 52.34,-139.14"/>
<polygon fill="red" stroke="red" stroke-width="1.65" points="53.91,-135.99 43.61,-133.51 50.12,-141.88 53.91,-135.99"/>
</g>
<!-- object_y -->
<g id="node2" class="node">
<title>object_y</title>
<polygon fill="lightgray" stroke="black" points="340.25,-216.06 285.25,-216.06 285.25,-198.06 340.25,-198.06 340.25,-216.06"/>
<text text-anchor="middle" x="312.75" y="-204.86" font-family="Times,serif" font-size="9.00">object_y</text>
</g>
<!-- object_y&#45;&gt;864 -->
<g id="edge13" class="edge">
<title>object_y&#45;&gt;864</title>
<path fill="none" stroke="red" stroke-width="0.21" d="M317.09,-197.96C323.03,-186.86 334.04,-166.32 343.38,-148.88"/>
<polygon fill="red" stroke="red" stroke-width="0.21" points="346.72,-150.05 348.36,-139.58 340.55,-146.75 346.72,-150.05"/>
</g>
<!-- object_y&#45;&gt;857 -->
<g id="edge8" class="edge">
<title>object_y&#45;&gt;857</title>
<path fill="none" stroke="green" stroke-width="1.32" d="M291.83,-197.94C276.84,-192.2 256.14,-184.42 237.75,-178.07 187.93,-160.85 171.84,-165.75 124.75,-142.07 122.95,-141.16 121.15,-140.16 119.36,-139.11"/>
<polygon fill="green" stroke="green" stroke-width="1.32" points="120.94,-135.96 110.64,-133.45 117.13,-141.83 120.94,-135.96"/>
</g>
<!-- object_y&#45;&gt;858 -->
<g id="edge9" class="edge">
<title>object_y&#45;&gt;858</title>
<path fill="none" stroke="red" stroke-width="1.18" d="M304.72,-197.96C292.5,-185.64 268.72,-161.66 250.44,-143.22"/>
<polygon fill="red" stroke="red" stroke-width="1.18" points="252.52,-140.34 242.99,-135.7 247.54,-145.27 252.52,-140.34"/>
</g>
<!-- object_y&#45;&gt;859 -->
<g id="edge10" class="edge">
<title>object_y&#45;&gt;859</title>
<path fill="none" stroke="red" stroke-width="0.07" d="M310.9,-197.96C308.52,-187.49 304.21,-168.61 300.39,-151.86"/>
<polygon fill="red" stroke="red" stroke-width="0.07" points="303.74,-150.77 298.1,-141.8 296.91,-152.33 303.74,-150.77"/>
</g>
<!-- object_y&#45;&gt;861 -->
<g id="edge11" class="edge">
<title>object_y&#45;&gt;861</title>
<path fill="none" stroke="red" stroke-width="0.6" d="M295.5,-197.87C271.65,-186.34 227.49,-164.23 191.75,-142.07 190.08,-141.03 188.39,-139.95 186.7,-138.83"/>
<polygon fill="red" stroke="red" stroke-width="0.6" points="188.56,-135.86 178.34,-133.09 184.6,-141.63 188.56,-135.86"/>
</g>
<!-- object_y&#45;&gt;862 -->
<g id="edge12" class="edge">
<title>object_y&#45;&gt;862</title>
<path fill="none" stroke="red" stroke-width="0.24" d="M323.27,-197.96C340.43,-184.75 374.97,-158.17 399.42,-139.35"/>
<polygon fill="red" stroke="red" stroke-width="0.24" points="401.81,-141.93 407.6,-133.05 397.54,-136.38 401.81,-141.93"/>
</g>
<!-- object_height -->
<g id="node3" class="node">
<title>object_height</title>
<polygon fill="lightgray" stroke="black" points="168.75,-216.06 88.75,-216.06 88.75,-198.06 168.75,-198.06 168.75,-216.06"/>
<text text-anchor="middle" x="128.75" y="-204.86" font-family="Times,serif" font-size="9.00">object_height</text>
</g>
<!-- object_height&#45;&gt;864 -->
<g id="edge20" class="edge">
<title>object_height&#45;&gt;864</title>
<path fill="none" stroke="green" stroke-width="0.57" d="M140.75,-197.92C150.39,-191.71 164.45,-183.35 177.75,-178.07 241.07,-152.92 264.84,-170.49 326.75,-142.07 328.58,-141.23 330.41,-140.28 332.22,-139.26"/>
<polygon fill="green" stroke="green" stroke-width="0.57" points="334.4,-142.02 340.98,-133.71 330.66,-136.1 334.4,-142.02"/>
</g>
<!-- object_height&#45;&gt;857 -->
<g id="edge14" class="edge">
<title>object_height&#45;&gt;857</title>
<path fill="none" stroke="green" stroke-width="0.02" d="M125.33,-197.96C120.72,-187.01 112.21,-166.85 104.92,-149.55"/>
<polygon fill="green" stroke="green" stroke-width="0.02" points="108.14,-148.17 101.03,-140.32 101.69,-150.89 108.14,-148.17"/>
</g>
<!-- object_height&#45;&gt;858 -->
<g id="edge15" class="edge">
<title>object_height&#45;&gt;858</title>
<path fill="none" stroke="green" stroke-width="0.62" d="M137.7,-197.96C151.76,-185.25 179.53,-160.13 200.14,-141.48"/>
<polygon fill="green" stroke="green" stroke-width="0.62" points="202.58,-144 207.65,-134.69 197.88,-138.8 202.58,-144"/>
</g>
<!-- object_height&#45;&gt;859 -->
<g id="edge16" class="edge">
<title>object_height&#45;&gt;859</title>
<path fill="none" stroke="green" stroke-width="1.02" d="M142.27,-197.82C151.99,-192.03 165.5,-184.23 177.75,-178.07 213.3,-160.17 225.18,-161.8 259.75,-142.07 261.5,-141.07 263.26,-140 265.02,-138.89"/>
<polygon fill="green" stroke="green" stroke-width="1.02" points="267.31,-141.57 273.66,-133.08 263.4,-135.76 267.31,-141.57"/>
</g>
<!-- object_height&#45;&gt;861 -->
<g id="edge17" class="edge">
<title>object_height&#45;&gt;861</title>
<path fill="none" stroke="red" stroke-width="0.5" d="M131.52,-197.96C135.18,-187.25 141.85,-167.74 147.67,-150.71"/>
<polygon fill="red" stroke="red" stroke-width="0.5" points="151.05,-151.65 150.97,-141.06 144.43,-149.39 151.05,-151.65"/>
</g>
<!-- object_height&#45;&gt;862 -->
<g id="edge18" class="edge">
<title>object_height&#45;&gt;862</title>
<path fill="none" stroke="green" stroke-width="0.35" d="M140.26,-197.91C149.85,-191.53 164.09,-182.93 177.75,-178.07 269.43,-145.42 303.9,-179.47 393.75,-142.07 395.61,-141.29 397.46,-140.4 399.28,-139.42"/>
<polygon fill="green" stroke="green" stroke-width="0.35" points="401.43,-142.21 408.09,-133.97 397.75,-136.25 401.43,-142.21"/>
</g>
<!-- object_height&#45;&gt;863 -->
<g id="edge19" class="edge">
<title>object_height&#45;&gt;863</title>
<path fill="none" stroke="red" stroke-width="0.75" d="M119.15,-197.96C103.83,-185.04 73.33,-159.3 51.13,-140.58"/>
<polygon fill="red" stroke="red" stroke-width="0.75" points="53.27,-137.8 43.37,-134.03 48.76,-143.15 53.27,-137.8"/>
</g>
<!-- is_bird -->
<g id="node4" class="node">
<title>is_bird</title>
<polygon fill="lightgray" stroke="black" points="336.75,-290.05 288.75,-290.05 288.75,-272.05 336.75,-272.05 336.75,-290.05"/>
<text text-anchor="middle" x="312.75" y="-278.85" font-family="Times,serif" font-size="9.00">is_bird</text>
</g>
<!-- is_bird&#45;&gt;864 -->
<g id="edge27" class="edge">
<title>is_bird&#45;&gt;864</title>
<path fill="none" stroke="red" stroke-width="0.82" d="M329.11,-271.94C341.99,-264.56 359.02,-252.32 366.75,-236.05 379.36,-209.51 375.63,-175.73 369.92,-151.17"/>
<polygon fill="red" stroke="red" stroke-width="0.82" points="373.26,-150.08 367.39,-141.25 366.47,-151.81 373.26,-150.08"/>
</g>
<!-- 1031 -->
<g id="node7" class="node">
<title>1031</title>
<ellipse fill="white" stroke="black" cx="501.75" cy="-207.06" rx="28.98" ry="28.98"/>
<text text-anchor="middle" x="501.75" y="-204.86" font-family="Times,serif" font-size="9.00">1031</text>
</g>
<!-- is_bird&#45;&gt;1031 -->
<g id="edge34" class="edge">
<title>is_bird&#45;&gt;1031</title>
<path fill="none" stroke="green" stroke-width="1" d="M336.77,-275.03C366.34,-268.35 417.69,-255.12 458.75,-236.05 462.37,-234.37 466.04,-232.41 469.64,-230.34"/>
<polygon fill="green" stroke="green" stroke-width="1" points="471.64,-233.22 478.34,-225.01 467.98,-227.25 471.64,-233.22"/>
</g>
<!-- is_bird&#45;&gt;857 -->
<g id="edge21" class="edge">
<title>is_bird&#45;&gt;857</title>
<path fill="none" stroke="red" stroke-width="0.71" d="M288.61,-279.52C232.13,-277.71 94.07,-269.86 65.75,-236.05 44.83,-211.07 58.96,-172.95 73.25,-146.89"/>
<polygon fill="red" stroke="red" stroke-width="0.71" points="76.29,-148.63 78.26,-138.22 70.23,-145.13 76.29,-148.63"/>
</g>
<!-- is_bird&#45;&gt;858 -->
<g id="edge22" class="edge">
<title>is_bird&#45;&gt;858</title>
<path fill="none" stroke="green" stroke-width="1.24" d="M304.82,-271.82C296.97,-263.35 284.97,-249.53 276.75,-236.05 260.04,-208.63 245.98,-174.76 236.88,-150.4"/>
<polygon fill="green" stroke="green" stroke-width="1.24" points="240.13,-149.1 233.41,-140.92 233.56,-151.51 240.13,-149.1"/>
</g>
<!-- is_bird&#45;&gt;859 -->
<g id="edge23" class="edge">
<title>is_bird&#45;&gt;859</title>
<path fill="none" stroke="red" stroke-width="1.61" d="M322.83,-271.85C331.84,-263.82 344.42,-250.68 349.75,-236.05 358.58,-211.84 359.33,-201.99 349.75,-178.07 343.69,-162.93 331.76,-149.45 320.37,-139.14"/>
<polygon fill="red" stroke="red" stroke-width="1.61" points="322.53,-136.37 312.66,-132.53 317.97,-141.69 322.53,-136.37"/>
</g>
<!-- is_bird&#45;&gt;861 -->
<g id="edge24" class="edge">
<title>is_bird&#45;&gt;861</title>
<path fill="none" stroke="green" stroke-width="0.48" d="M288.36,-279.22C234.09,-276.82 106.08,-267.82 79.75,-236.05 63.3,-216.21 68.27,-201.14 79.75,-178.07 81.2,-175.15 108.65,-154.73 130.79,-138.56"/>
<polygon fill="green" stroke="green" stroke-width="0.48" points="132.92,-141.33 138.95,-132.62 128.8,-135.67 132.92,-141.33"/>
</g>
<!-- is_bird&#45;&gt;862 -->
<g id="edge25" class="edge">
<title>is_bird&#45;&gt;862</title>
<path fill="none" stroke="green" stroke-width="1.49" d="M333.41,-272C349.44,-264.79 371.17,-252.76 384.75,-236.05 404.6,-211.63 415.44,-177.09 421.1,-151.74"/>
<polygon fill="green" stroke="green" stroke-width="1.49" points="424.55,-152.34 423.16,-141.84 417.7,-150.92 424.55,-152.34"/>
</g>
<!-- is_bird&#45;&gt;863 -->
<g id="edge26" class="edge">
<title>is_bird&#45;&gt;863</title>
<path fill="none" stroke="red" stroke-width="0.44" d="M288.61,-279.3C230.63,-277.01 85.76,-268.13 51.75,-236.05 29.26,-214.84 23.72,-179.01 23.06,-152.44"/>
<polygon fill="red" stroke="red" stroke-width="0.44" points="26.56,-152.39 23.03,-142.4 19.56,-152.41 26.56,-152.39"/>
</g>
<!-- jump -->
<g id="node5" class="node">
<title>jump</title>
<ellipse fill="lightblue" stroke="black" cx="191.75" cy="-28.28" rx="28.07" ry="28.07"/>
<text text-anchor="middle" x="191.75" y="-26.08" font-family="Times,serif" font-size="9.00">jump</text>
</g>
<!-- 1031&#45;&gt;862 -->
<g id="edge35" class="edge">
<title>1031&#45;&gt;862</title>
<path fill="none" stroke="green" stroke-width="1.5" d="M483.21,-184.37C472.96,-172.38 460.15,-157.39 449.32,-144.72"/>
<polygon fill="green" stroke="green" stroke-width="1.5" points="451.7,-142.12 442.54,-136.79 446.38,-146.67 451.7,-142.12"/>
</g>
<!-- 857&#45;&gt;jump -->
<g id="edge28" class="edge">
<title>857&#45;&gt;jump</title>
<path fill="none" stroke="green" stroke-width="0.96" d="M110.09,-100.35C124.82,-87.53 145.78,-69.29 162.77,-54.5"/>
<polygon fill="green" stroke="green" stroke-width="0.96" points="165.51,-56.76 170.75,-47.56 160.91,-51.48 165.51,-56.76"/>
</g>
<!-- 858&#45;&gt;jump -->
<g id="edge29" class="edge">
<title>858&#45;&gt;jump</title>
<path fill="none" stroke="red" stroke-width="2.28" d="M216.99,-93.9C213.51,-84.99 209.42,-74.52 205.56,-64.63"/>
<polygon fill="red" stroke="red" stroke-width="2.28" points="208.7,-63.05 201.8,-55.01 202.18,-65.6 208.7,-63.05"/>
</g>
<!-- 859&#45;&gt;jump -->
<g id="edge30" class="edge">
<title>859&#45;&gt;jump</title>
<path fill="none" stroke="green" stroke-width="0.52" d="M274.22,-100.35C259.21,-87.42 237.79,-68.96 220.55,-54.1"/>
<polygon fill="green" stroke="green" stroke-width="0.52" points="222.81,-51.43 212.95,-47.56 218.24,-56.74 222.81,-51.43"/>
</g>
<!-- 861&#45;&gt;jump -->
<g id="edge31" class="edge">
<title>861&#45;&gt;jump</title>
<path fill="none" stroke="green" stroke-width="0.75" d="M167.25,-93.9C170.63,-84.99 174.6,-74.52 178.35,-64.63"/>
<polygon fill="green" stroke="green" stroke-width="0.75" points="181.72,-65.6 181.99,-55.01 175.18,-63.12 181.72,-65.6"/>
</g>
<!-- 862&#45;&gt;jump -->
<g id="edge32" class="edge">
<title>862&#45;&gt;jump</title>
<path fill="none" stroke="red" stroke-width="1.68" d="M407.86,-101.16C403.4,-98.04 398.55,-94.97 393.75,-92.57 339.36,-65.37 270.88,-46.89 229.26,-37.22"/>
<polygon fill="red" stroke="red" stroke-width="1.68" points="229.8,-33.76 219.28,-34.96 228.25,-40.59 229.8,-33.76"/>
</g>
<!-- 863&#45;&gt;jump -->
<g id="edge33" class="edge">
<title>863&#45;&gt;jump</title>
<path fill="none" stroke="green" stroke-width="0.45" d="M44.25,-101.4C48.59,-98.32 53.25,-95.22 57.75,-92.57 90.07,-73.52 129.04,-55.64 156.6,-43.78"/>
<polygon fill="green" stroke="green" stroke-width="0.45" points="158.02,-46.98 165.85,-39.84 155.28,-40.54 158.02,-46.98"/>
</g>
</g>
</svg>
