<?xml version="1.0" encoding="UTF-8" standalone="no"?>
<!DOCTYPE svg PUBLIC "-//W3C//DTD SVG 1.1//EN"
 "http://www.w3.org/Graphics/SVG/1.1/DTD/svg11.dtd">
<!-- Generated by graphviz version 2.43.0 (0)
 -->
<!-- Title: %3 Pages: 1 -->
<svg width="560pt" height="392pt"
 viewBox="0.00 0.00 559.98 392.03" xmlns="http://www.w3.org/2000/svg" xmlns:xlink="http://www.w3.org/1999/xlink">
<g id="graph0" class="graph" transform="scale(1 1) rotate(0) translate(4 388.03)">
<title>%3</title>
<polygon fill="white" stroke="transparent" points="-4,4 -4,-388.03 555.98,-388.03 555.98,4 -4,4"/>
<!-- x_diff -->
<g id="node1" class="node">
<title>x_diff</title>
<polygon fill="lightgray" stroke="black" points="197.23,-310.04 155.23,-310.04 155.23,-292.04 197.23,-292.04 197.23,-310.04"/>
<text text-anchor="middle" x="176.23" y="-298.84" font-family="Times,serif" font-size="9.00">x_diff</text>
</g>
<!-- 545 -->
<g id="node6" class="node">
<title>545</title>
<ellipse fill="white" stroke="black" cx="316.23" cy="-207.06" rx="25" ry="25"/>
<text text-anchor="middle" x="316.23" y="-204.86" font-family="Times,serif" font-size="9.00">545</text>
</g>
<!-- x_diff&#45;&gt;545 -->
<g id="edge1" class="edge">
<title>x_diff&#45;&gt;545</title>
<path fill="none" stroke="green" stroke-width="0.17" d="M183.55,-291.95C189.3,-285.93 197.73,-277.79 206.23,-272.05 237.53,-250.9 251.43,-256.45 283.23,-236.05 285.66,-234.49 288.1,-232.77 290.5,-230.97"/>
<polygon fill="green" stroke="green" stroke-width="0.17" points="292.77,-233.64 298.4,-224.66 288.4,-228.16 292.77,-233.64"/>
</g>
<!-- 546 -->
<g id="node7" class="node">
<title>546</title>
<ellipse fill="white" stroke="black" cx="460.23" cy="-207.06" rx="25" ry="25"/>
<text text-anchor="middle" x="460.23" y="-204.86" font-family="Times,serif" font-size="9.00">546</text>
</g>
<!-- x_diff&#45;&gt;546 -->
<g id="edge2" class="edge">
<title>x_diff&#45;&gt;546</title>
<path fill="none" stroke="red" stroke-width="0.16" d="M182.47,-292.04C187.99,-285.56 196.64,-276.76 206.23,-272.05 295.16,-228.38 335.98,-276.94 426.23,-236.05 429.22,-234.69 432.17,-233 435,-231.13"/>
<polygon fill="red" stroke="red" stroke-width="0.16" points="437.16,-233.89 443.08,-225.1 432.97,-228.27 437.16,-233.89"/>
</g>
<!-- 548 -->
<g id="node9" class="node">
<title>548</title>
<ellipse fill="white" stroke="black" cx="249.23" cy="-207.06" rx="25" ry="25"/>
<text text-anchor="middle" x="249.23" y="-204.86" font-family="Times,serif" font-size="9.00">548</text>
</g>
<!-- x_diff&#45;&gt;548 -->
<g id="edge3" class="edge">
<title>x_diff&#45;&gt;548</title>
<path fill="none" stroke="green" stroke-width="2.21" d="M182.71,-291.88C192.72,-279.26 212.41,-254.45 227.78,-235.08"/>
<polygon fill="green" stroke="green" stroke-width="2.21" points="230.59,-237.17 234.06,-227.17 225.11,-232.82 230.59,-237.17"/>
</g>
<!-- 549 -->
<g id="node10" class="node">
<title>549</title>
<ellipse fill="white" stroke="black" cx="147.23" cy="-117.32" rx="25" ry="25"/>
<text text-anchor="middle" x="147.23" y="-115.12" font-family="Times,serif" font-size="9.00">549</text>
</g>
<!-- x_diff&#45;&gt;549 -->
<g id="edge4" class="edge">
<title>x_diff&#45;&gt;549</title>
<path fill="none" stroke="green" stroke-width="0.58" d="M156.53,-292C120.9,-277.28 48.83,-246.52 42.23,-236.05 28.48,-214.25 29.27,-200.34 42.23,-178.07 57.52,-151.77 89.18,-136.1 113.76,-127.44"/>
<polygon fill="green" stroke="green" stroke-width="0.58" points="115.04,-130.71 123.45,-124.26 112.86,-124.06 115.04,-130.71"/>
</g>
<!-- 551 -->
<g id="node12" class="node">
<title>551</title>
<ellipse fill="white" stroke="black" cx="76.23" cy="-207.06" rx="25" ry="25"/>
<text text-anchor="middle" x="76.23" y="-204.86" font-family="Times,serif" font-size="9.00">551</text>
</g>
<!-- x_diff&#45;&gt;551 -->
<g id="edge5" class="edge">
<title>x_diff&#45;&gt;551</title>
<path fill="none" stroke="red" stroke-width="0.16" d="M167.35,-291.88C152.79,-278.48 123.31,-251.36 101.81,-231.58"/>
<polygon fill="red" stroke="red" stroke-width="0.16" points="104.02,-228.86 94.29,-224.67 99.28,-234.02 104.02,-228.86"/>
</g>
<!-- 552 -->
<g id="node13" class="node">
<title>552</title>
<ellipse fill="white" stroke="black" cx="143.23" cy="-207.06" rx="25" ry="25"/>
<text text-anchor="middle" x="143.23" y="-204.86" font-family="Times,serif" font-size="9.00">552</text>
</g>
<!-- x_diff&#45;&gt;552 -->
<g id="edge6" class="edge">
<title>x_diff&#45;&gt;552</title>
<path fill="none" stroke="green" stroke-width="1.4" d="M173.3,-291.88C169.15,-280.32 161.34,-258.55 154.72,-240.09"/>
<polygon fill="green" stroke="green" stroke-width="1.4" points="157.96,-238.77 151.29,-230.54 151.38,-241.13 157.96,-238.77"/>
</g>
<!-- object_y -->
<g id="node2" class="node">
<title>object_y</title>
<polygon fill="lightgray" stroke="black" points="252.73,-384.03 197.73,-384.03 197.73,-366.03 252.73,-366.03 252.73,-384.03"/>
<text text-anchor="middle" x="225.23" y="-372.83" font-family="Times,serif" font-size="9.00">object_y</text>
</g>
<!-- object_y&#45;&gt;545 -->
<g id="edge7" class="edge">
<title>object_y&#45;&gt;545</title>
<path fill="none" stroke="green" stroke-width="0.84" d="M252.92,-366.01C270.64,-359.35 292.44,-348.02 304.23,-330.03 321.25,-304.07 322.77,-268.08 320.92,-241.93"/>
<polygon fill="green" stroke="green" stroke-width="0.84" points="324.39,-241.38 320,-231.73 317.42,-242.01 324.39,-241.38"/>
</g>
<!-- object_y&#45;&gt;546 -->
<g id="edge8" class="edge">
<title>object_y&#45;&gt;546</title>
<path fill="none" stroke="green" stroke-width="1.37" d="M252.81,-374.73C291.89,-374.26 363.56,-367.8 408.23,-330.03 434.57,-307.76 447.89,-269.77 454.41,-242.09"/>
<polygon fill="green" stroke="green" stroke-width="1.37" points="457.89,-242.56 456.59,-232.04 451.05,-241.07 457.89,-242.56"/>
</g>
<!-- 547 -->
<g id="node8" class="node">
<title>547</title>
<ellipse fill="white" stroke="black" cx="527.23" cy="-207.06" rx="25" ry="25"/>
<text text-anchor="middle" x="527.23" y="-204.86" font-family="Times,serif" font-size="9.00">547</text>
</g>
<!-- object_y&#45;&gt;547 -->
<g id="edge9" class="edge">
<title>object_y&#45;&gt;547</title>
<path fill="none" stroke="red" stroke-width="1.28" d="M252.74,-374.62C296.1,-374.26 381.46,-368.25 440.23,-330.03 474.32,-307.87 499.22,-267.29 513.44,-239.05"/>
<polygon fill="red" stroke="red" stroke-width="1.28" points="516.62,-240.51 517.85,-229.99 510.32,-237.45 516.62,-240.51"/>
</g>
<!-- object_y&#45;&gt;549 -->
<g id="edge10" class="edge">
<title>object_y&#45;&gt;549</title>
<path fill="none" stroke="green" stroke-width="0.31" d="M197.55,-371.75C149.38,-367.15 53.26,-355 32.23,-330.03 -11.3,-278.34 -8.35,-235.52 27.23,-178.07 45.83,-148.02 84.59,-132.6 113.04,-125.02"/>
<polygon fill="green" stroke="green" stroke-width="0.31" points="114.13,-128.36 123,-122.57 112.46,-121.56 114.13,-128.36"/>
</g>
<!-- object_y&#45;&gt;552 -->
<g id="edge11" class="edge">
<title>object_y&#45;&gt;552</title>
<path fill="none" stroke="red" stroke-width="1.55" d="M197.49,-366.42C179.51,-359.91 157.43,-348.57 146.23,-330.03 130.24,-303.58 131.5,-267.66 135.55,-241.66"/>
<polygon fill="red" stroke="red" stroke-width="1.55" points="139.04,-241.98 137.34,-231.53 132.15,-240.76 139.04,-241.98"/>
</g>
<!-- 1113 -->
<g id="node14" class="node">
<title>1113</title>
<ellipse fill="white" stroke="black" cx="70.23" cy="-301.04" rx="28.98" ry="28.98"/>
<text text-anchor="middle" x="70.23" y="-298.84" font-family="Times,serif" font-size="9.00">1113</text>
</g>
<!-- object_y&#45;&gt;1113 -->
<g id="edge32" class="edge">
<title>object_y&#45;&gt;1113</title>
<path fill="none" stroke="green" stroke-width="0.34" d="M200.57,-365.97C177.45,-358.03 142.2,-344.96 113.23,-330.03 109.68,-328.2 106.05,-326.15 102.48,-324.02"/>
<polygon fill="green" stroke="green" stroke-width="0.34" points="104.16,-320.94 93.82,-318.62 100.45,-326.88 104.16,-320.94"/>
</g>
<!-- object_height -->
<g id="node3" class="node">
<title>object_height</title>
<polygon fill="lightgray" stroke="black" points="295.23,-310.04 215.23,-310.04 215.23,-292.04 295.23,-292.04 295.23,-310.04"/>
<text text-anchor="middle" x="255.23" y="-298.84" font-family="Times,serif" font-size="9.00">object_height</text>
</g>
<!-- object_height&#45;&gt;545 -->
<g id="edge12" class="edge">
<title>object_height&#45;&gt;545</title>
<path fill="none" stroke="green" stroke-width="1.5" d="M260.64,-291.88C268.78,-279.6 284.58,-255.78 297.26,-236.66"/>
<polygon fill="green" stroke="green" stroke-width="1.5" points="300.21,-238.54 302.82,-228.27 294.38,-234.67 300.21,-238.54"/>
</g>
<!-- object_height&#45;&gt;546 -->
<g id="edge13" class="edge">
<title>object_height&#45;&gt;546</title>
<path fill="none" stroke="green" stroke-width="0.37" d="M279.88,-291.94C320.72,-278.33 400.49,-250.9 426.23,-236.05 428.92,-234.49 431.62,-232.73 434.25,-230.85"/>
<polygon fill="green" stroke="green" stroke-width="0.37" points="436.54,-233.5 442.34,-224.64 432.28,-227.95 436.54,-233.5"/>
</g>
<!-- object_height&#45;&gt;547 -->
<g id="edge14" class="edge">
<title>object_height&#45;&gt;547</title>
<path fill="none" stroke="red" stroke-width="0.03" d="M278.71,-291.93C296.13,-286.05 320.53,-278.1 342.23,-272.05 409.1,-253.4 432.27,-267.37 494.23,-236.05 496.96,-234.67 499.65,-233.02 502.25,-231.23"/>
<polygon fill="red" stroke="red" stroke-width="0.03" points="504.39,-234 510.18,-225.13 500.12,-228.45 504.39,-234"/>
</g>
<!-- object_height&#45;&gt;548 -->
<g id="edge15" class="edge">
<title>object_height&#45;&gt;548</title>
<path fill="none" stroke="red" stroke-width="0.3" d="M254.7,-291.88C253.97,-280.78 252.63,-260.25 251.46,-242.28"/>
<polygon fill="red" stroke="red" stroke-width="0.3" points="254.94,-241.84 250.8,-232.09 247.95,-242.3 254.94,-241.84"/>
</g>
<!-- object_height&#45;&gt;549 -->
<g id="edge16" class="edge">
<title>object_height&#45;&gt;549</title>
<path fill="none" stroke="red" stroke-width="0.37" d="M249.96,-291.81C242.22,-279.69 227.38,-256.26 215.23,-236.05 197.41,-206.4 177.71,-172.12 164.12,-148.22"/>
<polygon fill="red" stroke="red" stroke-width="0.37" points="167.03,-146.26 159.05,-139.29 160.94,-149.71 167.03,-146.26"/>
</g>
<!-- object_height&#45;&gt;551 -->
<g id="edge17" class="edge">
<title>object_height&#45;&gt;551</title>
<path fill="none" stroke="green" stroke-width="1.47" d="M242.23,-291.84C232.53,-285.91 218.83,-277.94 206.23,-272.05 164.57,-252.58 148.92,-259.27 109.23,-236.05 106.74,-234.59 104.25,-232.94 101.82,-231.19"/>
<polygon fill="green" stroke="green" stroke-width="1.47" points="103.9,-228.37 93.87,-224.96 99.59,-233.88 103.9,-228.37"/>
</g>
<!-- object_height&#45;&gt;552 -->
<g id="edge18" class="edge">
<title>object_height&#45;&gt;552</title>
<path fill="none" stroke="red" stroke-width="1.12" d="M245.29,-291.88C228.55,-278.13 194.2,-249.92 169.98,-230.03"/>
<polygon fill="red" stroke="red" stroke-width="1.12" points="172.15,-227.28 162.2,-223.64 167.71,-232.69 172.15,-227.28"/>
</g>
<!-- is_bird -->
<g id="node4" class="node">
<title>is_bird</title>
<polygon fill="lightgray" stroke="black" points="399.23,-310.04 351.23,-310.04 351.23,-292.04 399.23,-292.04 399.23,-310.04"/>
<text text-anchor="middle" x="375.23" y="-298.84" font-family="Times,serif" font-size="9.00">is_bird</text>
</g>
<!-- is_bird&#45;&gt;545 -->
<g id="edge19" class="edge">
<title>is_bird&#45;&gt;545</title>
<path fill="none" stroke="red" stroke-width="0.3" d="M369.99,-291.88C362.15,-279.66 346.98,-256 334.74,-236.92"/>
<polygon fill="red" stroke="red" stroke-width="0.3" points="337.54,-234.8 329.19,-228.27 331.65,-238.58 337.54,-234.8"/>
</g>
<!-- is_bird&#45;&gt;546 -->
<g id="edge20" class="edge">
<title>is_bird&#45;&gt;546</title>
<path fill="none" stroke="green" stroke-width="1.12" d="M382.77,-291.88C394.82,-278.84 418.91,-252.77 437.04,-233.15"/>
<polygon fill="green" stroke="green" stroke-width="1.12" points="439.69,-235.44 443.9,-225.72 434.54,-230.69 439.69,-235.44"/>
</g>
<!-- is_bird&#45;&gt;547 -->
<g id="edge21" class="edge">
<title>is_bird&#45;&gt;547</title>
<path fill="none" stroke="green" stroke-width="3.25" d="M392.83,-292.01C416.66,-280.83 460.12,-259.31 494.23,-236.05 496.61,-234.42 499.03,-232.65 501.41,-230.82"/>
<polygon fill="green" stroke="green" stroke-width="3.25" points="503.69,-233.47 509.27,-224.46 499.29,-228.03 503.69,-233.47"/>
</g>
<!-- is_bird&#45;&gt;548 -->
<g id="edge22" class="edge">
<title>is_bird&#45;&gt;548</title>
<path fill="none" stroke="red" stroke-width="1.05" d="M362.61,-291.94C344.46,-280.16 310.09,-257.37 282.23,-236.05 279.93,-234.29 277.59,-232.44 275.25,-230.54"/>
<polygon fill="red" stroke="red" stroke-width="1.05" points="277.39,-227.77 267.46,-224.09 272.92,-233.16 277.39,-227.77"/>
</g>
<!-- 1284 -->
<g id="node11" class="node">
<title>1284</title>
<ellipse fill="white" stroke="black" cx="388.23" cy="-207.06" rx="28.98" ry="28.98"/>
<text text-anchor="middle" x="388.23" y="-204.86" font-family="Times,serif" font-size="9.00">1284</text>
</g>
<!-- is_bird&#45;&gt;1284 -->
<g id="edge35" class="edge">
<title>is_bird&#45;&gt;1284</title>
<path fill="none" stroke="green" stroke-width="1" d="M376.38,-291.88C377.83,-281.61 380.42,-263.27 382.81,-246.36"/>
<polygon fill="green" stroke="green" stroke-width="1" points="386.33,-246.49 384.27,-236.1 379.4,-245.51 386.33,-246.49"/>
</g>
<!-- is_bird&#45;&gt;551 -->
<g id="edge23" class="edge">
<title>is_bird&#45;&gt;551</title>
<path fill="none" stroke="red" stroke-width="0.6" d="M357.47,-291.93C343.3,-285.73 322.82,-277.38 304.23,-272.05 219.51,-247.77 188.85,-273.83 109.23,-236.05 106.56,-234.78 103.92,-233.24 101.39,-231.54"/>
<polygon fill="red" stroke="red" stroke-width="0.6" points="103.26,-228.57 93.18,-225.32 99.03,-234.15 103.26,-228.57"/>
</g>
<!-- is_bird&#45;&gt;552 -->
<g id="edge24" class="edge">
<title>is_bird&#45;&gt;552</title>
<path fill="none" stroke="red" stroke-width="1.14" d="M355.05,-292.04C314.72,-276.05 223.89,-240.04 175.31,-220.78"/>
<polygon fill="red" stroke="red" stroke-width="1.14" points="176.49,-217.48 165.9,-217.05 173.91,-223.99 176.49,-217.48"/>
</g>
<!-- jump -->
<g id="node5" class="node">
<title>jump</title>
<ellipse fill="lightblue" stroke="black" cx="249.23" cy="-28.28" rx="28.07" ry="28.07"/>
<text text-anchor="middle" x="249.23" y="-26.08" font-family="Times,serif" font-size="9.00">jump</text>
</g>
<!-- 545&#45;&gt;jump -->
<g id="edge25" class="edge">
<title>545&#45;&gt;jump</title>
<path fill="none" stroke="red" stroke-width="1.33" d="M307.74,-183.67C296.35,-153.61 275.99,-99.88 262.54,-64.41"/>
<polygon fill="red" stroke="red" stroke-width="1.33" points="265.76,-63.03 258.94,-54.92 259.22,-65.51 265.76,-63.03"/>
</g>
<!-- 546&#45;&gt;jump -->
<g id="edge26" class="edge">
<title>546&#45;&gt;jump</title>
<path fill="none" stroke="red" stroke-width="2.97" d="M441.5,-190.37C404.66,-159.51 322.53,-90.69 278.48,-53.79"/>
<polygon fill="red" stroke="red" stroke-width="2.97" points="280.63,-51.02 270.71,-47.28 276.13,-56.39 280.63,-51.02"/>
</g>
<!-- 547&#45;&gt;jump -->
<g id="edge27" class="edge">
<title>547&#45;&gt;jump</title>
<path fill="none" stroke="red" stroke-width="2.63" d="M509.01,-190.01C504.28,-186 499.13,-181.79 494.23,-178.07 440.35,-137.12 426.19,-127.51 368.23,-92.57 340.28,-75.72 307.46,-58.44 283.37,-46.21"/>
<polygon fill="red" stroke="red" stroke-width="2.63" points="284.78,-43 274.27,-41.61 281.62,-49.25 284.78,-43"/>
</g>
<!-- 548&#45;&gt;jump -->
<g id="edge28" class="edge">
<title>548&#45;&gt;jump</title>
<path fill="none" stroke="red" stroke-width="1.43" d="M249.23,-182.22C249.23,-152.67 249.23,-101.95 249.23,-67.08"/>
<polygon fill="red" stroke="red" stroke-width="1.43" points="252.73,-66.8 249.23,-56.81 245.73,-66.81 252.73,-66.8"/>
</g>
<!-- 549&#45;&gt;jump -->
<g id="edge29" class="edge">
<title>549&#45;&gt;jump</title>
<path fill="none" stroke="green" stroke-width="1.45" d="M165.94,-100.35C181.2,-87.33 203.01,-68.72 220.49,-53.81"/>
<polygon fill="green" stroke="green" stroke-width="1.45" points="222.84,-56.4 228.17,-47.25 218.3,-51.08 222.84,-56.4"/>
</g>
<!-- 1284&#45;&gt;549 -->
<g id="edge36" class="edge">
<title>1284&#45;&gt;549</title>
<path fill="none" stroke="red" stroke-width="0.51" d="M366.15,-187.82C361.13,-184.24 355.66,-180.76 350.23,-178.07 294.25,-150.29 223.05,-133.05 181.56,-124.6"/>
<polygon fill="red" stroke="red" stroke-width="0.51" points="182.17,-121.16 171.68,-122.65 180.81,-128.02 182.17,-121.16"/>
</g>
<!-- 551&#45;&gt;jump -->
<g id="edge30" class="edge">
<title>551&#45;&gt;jump</title>
<path fill="none" stroke="green" stroke-width="1.24" d="M78.46,-182.02C81.95,-156.95 90.82,-117.85 113.23,-92.57 139.07,-63.42 181.15,-46.72 211.66,-37.89"/>
<polygon fill="green" stroke="green" stroke-width="1.24" points="212.81,-41.2 221.53,-35.18 210.96,-34.45 212.81,-41.2"/>
</g>
<!-- 551&#45;&gt;549 -->
<g id="edge34" class="edge">
<title>551&#45;&gt;549</title>
<path fill="none" stroke="red" stroke-width="0.13" d="M91.63,-187.02C101.56,-174.75 114.62,-158.61 125.59,-145.06"/>
<polygon fill="red" stroke="red" stroke-width="0.13" points="128.53,-146.99 132.1,-137.02 123.08,-142.59 128.53,-146.99"/>
</g>
<!-- 552&#45;&gt;jump -->
<g id="edge31" class="edge">
<title>552&#45;&gt;jump</title>
<path fill="none" stroke="red" stroke-width="0.94" d="M155.6,-185.43C173.87,-154.96 208.26,-97.61 229.88,-61.54"/>
<polygon fill="red" stroke="red" stroke-width="0.94" points="232.95,-63.24 235.09,-52.86 226.95,-59.64 232.95,-63.24"/>
</g>
<!-- 1113&#45;&gt;551 -->
<g id="edge33" class="edge">
<title>1113&#45;&gt;551</title>
<path fill="none" stroke="green" stroke-width="0.56" d="M72.06,-271.94C72.67,-262.55 73.36,-251.98 74,-242.19"/>
<polygon fill="green" stroke="green" stroke-width="0.56" points="77.51,-242.16 74.67,-231.95 70.53,-241.7 77.51,-242.16"/>
</g>
</g>
</svg>
