<?xml version="1.0" encoding="UTF-8" standalone="no"?>
<!DOCTYPE svg PUBLIC "-//W3C//DTD SVG 1.1//EN"
 "http://www.w3.org/Graphics/SVG/1.1/DTD/svg11.dtd">
<!-- Generated by graphviz version 2.43.0 (0)
 -->
<!-- Title: %3 Pages: 1 -->
<svg width="570pt" height="290pt"
 viewBox="0.00 0.00 570.33 289.56" xmlns="http://www.w3.org/2000/svg" xmlns:xlink="http://www.w3.org/1999/xlink">
<g id="graph0" class="graph" transform="scale(1 1) rotate(0) translate(4 285.56)">
<title>%3</title>
<polygon fill="white" stroke="transparent" points="-4,4 -4,-285.56 566.33,-285.56 566.33,4 -4,4"/>
<!-- x_diff -->
<g id="node1" class="node">
<title>x_diff</title>
<polygon fill="lightgray" stroke="black" points="266.35,-281.56 224.35,-281.56 224.35,-263.56 266.35,-263.56 266.35,-281.56"/>
<text text-anchor="middle" x="245.35" y="-270.36" font-family="Times,serif" font-size="9.00">x_diff</text>
</g>
<!-- 640 -->
<g id="node6" class="node">
<title>640</title>
<ellipse fill="white" stroke="black" cx="485.35" cy="-202.81" rx="25" ry="25"/>
<text text-anchor="middle" x="485.35" y="-200.61" font-family="Times,serif" font-size="9.00">640</text>
</g>
<!-- x_diff&#45;&gt;640 -->
<g id="edge8" class="edge">
<title>x_diff&#45;&gt;640</title>
<path fill="none" stroke="green" stroke-width="0.84" d="M266.66,-265.91C269.9,-265.1 273.21,-264.29 276.35,-263.56 354.14,-245.58 379.22,-259.59 452.35,-227.56 454.2,-226.76 456.04,-225.83 457.86,-224.83"/>
<polygon fill="green" stroke="green" stroke-width="0.84" points="460.02,-227.61 466.64,-219.34 456.31,-221.67 460.02,-227.61"/>
</g>
<!-- 633 -->
<g id="node7" class="node">
<title>633</title>
<ellipse fill="white" stroke="black" cx="245.35" cy="-202.81" rx="25" ry="25"/>
<text text-anchor="middle" x="245.35" y="-200.61" font-family="Times,serif" font-size="9.00">633</text>
</g>
<!-- x_diff&#45;&gt;633 -->
<g id="edge1" class="edge">
<title>x_diff&#45;&gt;633</title>
<path fill="none" stroke="green" stroke-width="1.21" d="M245.35,-263.53C245.35,-257.09 245.35,-247.59 245.35,-238.06"/>
<polygon fill="green" stroke="green" stroke-width="1.21" points="248.85,-237.84 245.35,-227.84 241.85,-237.84 248.85,-237.84"/>
</g>
<!-- 634 -->
<g id="node8" class="node">
<title>634</title>
<ellipse fill="white" stroke="black" cx="312.35" cy="-202.81" rx="25" ry="25"/>
<text text-anchor="middle" x="312.35" y="-200.61" font-family="Times,serif" font-size="9.00">634</text>
</g>
<!-- x_diff&#45;&gt;634 -->
<g id="edge2" class="edge">
<title>x_diff&#45;&gt;634</title>
<path fill="none" stroke="green" stroke-width="0.75" d="M253.3,-263.53C261.86,-254.88 275.88,-240.69 288.12,-228.32"/>
<polygon fill="green" stroke="green" stroke-width="0.75" points="290.9,-230.49 295.44,-220.91 285.92,-225.56 290.9,-230.49"/>
</g>
<!-- 635 -->
<g id="node9" class="node">
<title>635</title>
<ellipse fill="white" stroke="black" cx="359.35" cy="-117.32" rx="25" ry="25"/>
<text text-anchor="middle" x="359.35" y="-115.12" font-family="Times,serif" font-size="9.00">635</text>
</g>
<!-- x_diff&#45;&gt;635 -->
<g id="edge3" class="edge">
<title>x_diff&#45;&gt;635</title>
<path fill="none" stroke="green" stroke-width="0.75" d="M266.75,-265.02C293.34,-256.45 336.43,-240.92 346.35,-227.56 362.26,-206.16 364.69,-175.61 363.6,-152.25"/>
<polygon fill="green" stroke="green" stroke-width="0.75" points="367.08,-151.82 362.89,-142.09 360.1,-152.31 367.08,-151.82"/>
</g>
<!-- 636 -->
<g id="node10" class="node">
<title>636</title>
<ellipse fill="white" stroke="black" cx="418.35" cy="-202.81" rx="25" ry="25"/>
<text text-anchor="middle" x="418.35" y="-200.61" font-family="Times,serif" font-size="9.00">636</text>
</g>
<!-- x_diff&#45;&gt;636 -->
<g id="edge4" class="edge">
<title>x_diff&#45;&gt;636</title>
<path fill="none" stroke="green" stroke-width="1.44" d="M266.6,-265.24C298.95,-255.5 358.95,-236.97 379.35,-227.56 382.72,-226.01 386.16,-224.23 389.53,-222.37"/>
<polygon fill="green" stroke="green" stroke-width="1.44" points="391.33,-225.37 398.2,-217.3 387.8,-219.32 391.33,-225.37"/>
</g>
<!-- 637 -->
<g id="node11" class="node">
<title>637</title>
<ellipse fill="white" stroke="black" cx="44.35" cy="-202.81" rx="25" ry="25"/>
<text text-anchor="middle" x="44.35" y="-200.61" font-family="Times,serif" font-size="9.00">637</text>
</g>
<!-- x_diff&#45;&gt;637 -->
<g id="edge5" class="edge">
<title>x_diff&#45;&gt;637</title>
<path fill="none" stroke="green" stroke-width="0.76" d="M224.05,-265.87C221.13,-265.09 218.17,-264.31 215.35,-263.56 154.06,-247.4 134.72,-254.53 77.35,-227.56 75.53,-226.71 73.71,-225.75 71.9,-224.72"/>
<polygon fill="green" stroke="green" stroke-width="0.76" points="73.47,-221.56 63.16,-219.14 69.71,-227.47 73.47,-221.56"/>
</g>
<!-- 638 -->
<g id="node12" class="node">
<title>638</title>
<ellipse fill="white" stroke="black" cx="111.35" cy="-202.81" rx="25" ry="25"/>
<text text-anchor="middle" x="111.35" y="-200.61" font-family="Times,serif" font-size="9.00">638</text>
</g>
<!-- x_diff&#45;&gt;638 -->
<g id="edge6" class="edge">
<title>x_diff&#45;&gt;638</title>
<path fill="none" stroke="red" stroke-width="0.67" d="M224.23,-263.88C203.35,-255.93 170.79,-242.6 144.35,-227.56 142.61,-226.57 140.84,-225.5 139.08,-224.39"/>
<polygon fill="red" stroke="red" stroke-width="0.67" points="140.69,-221.26 130.44,-218.59 136.79,-227.07 140.69,-221.26"/>
</g>
<!-- 639 -->
<g id="node13" class="node">
<title>639</title>
<ellipse fill="white" stroke="black" cx="178.35" cy="-202.81" rx="25" ry="25"/>
<text text-anchor="middle" x="178.35" y="-200.61" font-family="Times,serif" font-size="9.00">639</text>
</g>
<!-- x_diff&#45;&gt;639 -->
<g id="edge7" class="edge">
<title>x_diff&#45;&gt;639</title>
<path fill="none" stroke="green" stroke-width="1.13" d="M237.41,-263.53C228.85,-254.88 214.82,-240.69 202.59,-228.32"/>
<polygon fill="green" stroke="green" stroke-width="1.13" points="204.79,-225.56 195.27,-220.91 199.81,-230.49 204.79,-225.56"/>
</g>
<!-- object_y -->
<g id="node2" class="node">
<title>object_y</title>
<polygon fill="lightgray" stroke="black" points="339.85,-281.56 284.85,-281.56 284.85,-263.56 339.85,-263.56 339.85,-281.56"/>
<text text-anchor="middle" x="312.35" y="-270.36" font-family="Times,serif" font-size="9.00">object_y</text>
</g>
<!-- object_y&#45;&gt;640 -->
<g id="edge16" class="edge">
<title>object_y&#45;&gt;640</title>
<path fill="none" stroke="green" stroke-width="0.38" d="M339.92,-265.66C368.9,-258.83 415.33,-246.1 452.35,-227.56 454.15,-226.66 455.96,-225.67 457.75,-224.61"/>
<polygon fill="green" stroke="green" stroke-width="0.38" points="459.98,-227.34 466.47,-218.97 456.17,-221.47 459.98,-227.34"/>
</g>
<!-- object_y&#45;&gt;633 -->
<g id="edge9" class="edge">
<title>object_y&#45;&gt;633</title>
<path fill="none" stroke="red" stroke-width="0.37" d="M304.41,-263.53C295.85,-254.88 281.82,-240.69 269.59,-228.32"/>
<polygon fill="red" stroke="red" stroke-width="0.37" points="271.79,-225.56 262.27,-220.91 266.81,-230.49 271.79,-225.56"/>
</g>
<!-- object_y&#45;&gt;634 -->
<g id="edge10" class="edge">
<title>object_y&#45;&gt;634</title>
<path fill="none" stroke="green" stroke-width="0.3" d="M312.35,-263.53C312.35,-257.09 312.35,-247.59 312.35,-238.06"/>
<polygon fill="green" stroke="green" stroke-width="0.3" points="315.85,-237.84 312.35,-227.84 308.85,-237.84 315.85,-237.84"/>
</g>
<!-- object_y&#45;&gt;635 -->
<g id="edge11" class="edge">
<title>object_y&#45;&gt;635</title>
<path fill="none" stroke="red" stroke-width="0.53" d="M340.23,-265.52C343.31,-264.86 346.4,-264.2 349.35,-263.56 424.88,-247.4 470.73,-287.56 519.35,-227.56 533.2,-210.47 531.9,-196.14 519.35,-178.07 491.31,-137.65 432.42,-124.53 394.44,-120.29"/>
<polygon fill="red" stroke="red" stroke-width="0.53" points="394.61,-116.79 384.32,-119.32 393.94,-123.76 394.61,-116.79"/>
</g>
<!-- object_y&#45;&gt;636 -->
<g id="edge12" class="edge">
<title>object_y&#45;&gt;636</title>
<path fill="none" stroke="green" stroke-width="0.16" d="M324.93,-263.53C340.67,-253.47 368.12,-235.92 389.2,-222.45"/>
<polygon fill="green" stroke="green" stroke-width="0.16" points="391.26,-225.29 397.8,-216.95 387.49,-219.39 391.26,-225.29"/>
</g>
<!-- object_y&#45;&gt;637 -->
<g id="edge13" class="edge">
<title>object_y&#45;&gt;637</title>
<path fill="none" stroke="green" stroke-width="0.76" d="M284.49,-265.44C281.41,-264.79 278.32,-264.15 275.35,-263.56 187.63,-246.11 159.67,-262.54 77.35,-227.56 75.5,-226.78 73.65,-225.87 71.83,-224.88"/>
<polygon fill="green" stroke="green" stroke-width="0.76" points="73.37,-221.72 63.03,-219.42 69.68,-227.67 73.37,-221.72"/>
</g>
<!-- object_y&#45;&gt;638 -->
<g id="edge14" class="edge">
<title>object_y&#45;&gt;638</title>
<path fill="none" stroke="green" stroke-width="0.93" d="M284.58,-265.59C243.62,-256.56 169.18,-239.25 144.35,-227.56 142.53,-226.71 140.71,-225.75 138.91,-224.72"/>
<polygon fill="green" stroke="green" stroke-width="0.93" points="140.47,-221.56 130.16,-219.14 136.71,-227.47 140.47,-221.56"/>
</g>
<!-- object_y&#45;&gt;639 -->
<g id="edge15" class="edge">
<title>object_y&#45;&gt;639</title>
<path fill="none" stroke="red" stroke-width="0.76" d="M290.03,-263.42C269.12,-255.43 237.29,-242.32 211.35,-227.56 209.61,-226.57 207.84,-225.5 206.08,-224.39"/>
<polygon fill="red" stroke="red" stroke-width="0.76" points="207.69,-221.26 197.44,-218.59 203.79,-227.07 207.69,-221.26"/>
</g>
<!-- object_height -->
<g id="node3" class="node">
<title>object_height</title>
<polygon fill="lightgray" stroke="black" points="206.35,-281.56 126.35,-281.56 126.35,-263.56 206.35,-263.56 206.35,-281.56"/>
<text text-anchor="middle" x="166.35" y="-270.36" font-family="Times,serif" font-size="9.00">object_height</text>
</g>
<!-- object_height&#45;&gt;640 -->
<g id="edge24" class="edge">
<title>object_height&#45;&gt;640</title>
<path fill="none" stroke="red" stroke-width="1.71" d="M206.46,-264.98C209.47,-264.5 212.46,-264.02 215.35,-263.56 320.6,-246.98 353.7,-267.8 452.35,-227.56 454.22,-226.8 456.07,-225.92 457.9,-224.95"/>
<polygon fill="red" stroke="red" stroke-width="1.71" points="460.04,-227.74 466.72,-219.52 456.37,-221.78 460.04,-227.74"/>
</g>
<!-- object_height&#45;&gt;633 -->
<g id="edge17" class="edge">
<title>object_height&#45;&gt;633</title>
<path fill="none" stroke="green" stroke-width="0.32" d="M175.73,-263.53C186.35,-254.42 204.13,-239.17 219.06,-226.37"/>
<polygon fill="green" stroke="green" stroke-width="0.32" points="221.68,-228.72 227,-219.56 217.13,-223.41 221.68,-228.72"/>
</g>
<!-- object_height&#45;&gt;634 -->
<g id="edge18" class="edge">
<title>object_height&#45;&gt;634</title>
<path fill="none" stroke="red" stroke-width="0.43" d="M192.31,-263.54C215.76,-255.82 250.86,-243.04 279.35,-227.56 281.12,-226.6 282.9,-225.56 284.68,-224.47"/>
<polygon fill="red" stroke="red" stroke-width="0.43" points="286.94,-227.17 293.34,-218.73 283.07,-221.34 286.94,-227.17"/>
</g>
<!-- object_height&#45;&gt;635 -->
<g id="edge19" class="edge">
<title>object_height&#45;&gt;635</title>
<path fill="none" stroke="red" stroke-width="0.95" d="M126.17,-265.79C84.75,-258.92 24.32,-246.02 10.35,-227.56 -2.92,-210.02 -3.83,-194.88 10.35,-178.07 50.32,-130.68 243.95,-120.87 324.3,-118.85"/>
<polygon fill="red" stroke="red" stroke-width="0.95" points="324.49,-122.34 334.41,-118.62 324.33,-115.34 324.49,-122.34"/>
</g>
<!-- object_height&#45;&gt;636 -->
<g id="edge20" class="edge">
<title>object_height&#45;&gt;636</title>
<path fill="none" stroke="red" stroke-width="0.96" d="M202.78,-263.55C239.29,-255.3 297.03,-241.7 346.35,-227.56 359.2,-223.88 373.19,-219.38 385.39,-215.29"/>
<polygon fill="red" stroke="red" stroke-width="0.96" points="386.8,-218.51 395.15,-211.98 384.56,-211.88 386.8,-218.51"/>
</g>
<!-- object_height&#45;&gt;637 -->
<g id="edge21" class="edge">
<title>object_height&#45;&gt;637</title>
<path fill="none" stroke="green" stroke-width="0.3" d="M147.82,-263.48C129.48,-255.24 100.84,-241.69 77.35,-227.56 75.68,-226.55 73.97,-225.48 72.27,-224.38"/>
<polygon fill="green" stroke="green" stroke-width="0.3" points="74.13,-221.41 63.89,-218.68 70.19,-227.19 74.13,-221.41"/>
</g>
<!-- object_height&#45;&gt;638 -->
<g id="edge22" class="edge">
<title>object_height&#45;&gt;638</title>
<path fill="none" stroke="red" stroke-width="0.48" d="M159.83,-263.53C153.22,-255.38 142.62,-242.33 133.02,-230.5"/>
<polygon fill="red" stroke="red" stroke-width="0.48" points="135.61,-228.14 126.59,-222.59 130.18,-232.56 135.61,-228.14"/>
</g>
<!-- object_height&#45;&gt;639 -->
<g id="edge23" class="edge">
<title>object_height&#45;&gt;639</title>
<path fill="none" stroke="red" stroke-width="0.8" d="M167.78,-263.53C168.95,-256.92 170.69,-247.08 172.42,-237.29"/>
<polygon fill="red" stroke="red" stroke-width="0.8" points="175.91,-237.7 174.21,-227.24 169.01,-236.47 175.91,-237.7"/>
</g>
<!-- is_bird -->
<g id="node4" class="node">
<title>is_bird</title>
<polygon fill="lightgray" stroke="black" points="406.35,-281.56 358.35,-281.56 358.35,-263.56 406.35,-263.56 406.35,-281.56"/>
<text text-anchor="middle" x="382.35" y="-270.36" font-family="Times,serif" font-size="9.00">is_bird</text>
</g>
<!-- is_bird&#45;&gt;640 -->
<g id="edge32" class="edge">
<title>is_bird&#45;&gt;640</title>
<path fill="none" stroke="green" stroke-width="0.11" d="M395.67,-263.53C409.87,-254.89 432.94,-240.63 452.35,-227.56 453.98,-226.47 455.64,-225.33 457.31,-224.18"/>
<polygon fill="green" stroke="green" stroke-width="0.11" points="459.44,-226.96 465.6,-218.33 455.41,-221.23 459.44,-226.96"/>
</g>
<!-- is_bird&#45;&gt;633 -->
<g id="edge25" class="edge">
<title>is_bird&#45;&gt;633</title>
<path fill="none" stroke="green" stroke-width="0.81" d="M359.35,-263.53C337.8,-255.61 305.02,-242.55 278.35,-227.56 276.6,-226.58 274.83,-225.52 273.06,-224.41"/>
<polygon fill="green" stroke="green" stroke-width="0.81" points="274.68,-221.28 264.42,-218.63 270.79,-227.1 274.68,-221.28"/>
</g>
<!-- is_bird&#45;&gt;634 -->
<g id="edge26" class="edge">
<title>is_bird&#45;&gt;634</title>
<path fill="none" stroke="red" stroke-width="0.25" d="M374.05,-263.53C364.97,-254.74 349.98,-240.23 337.05,-227.72"/>
<polygon fill="red" stroke="red" stroke-width="0.25" points="339.36,-225.08 329.74,-220.64 334.49,-230.11 339.36,-225.08"/>
</g>
<!-- is_bird&#45;&gt;635 -->
<g id="edge27" class="edge">
<title>is_bird&#45;&gt;635</title>
<path fill="none" stroke="red" stroke-width="0.35" d="M406.55,-268.91C449.12,-263.68 534.58,-250.53 552.35,-227.56 565.82,-210.17 565.41,-195.77 552.35,-178.07 516.03,-128.8 439.54,-118.94 394.53,-117.65"/>
<polygon fill="red" stroke="red" stroke-width="0.35" points="394.4,-114.15 384.35,-117.49 394.29,-121.15 394.4,-114.15"/>
</g>
<!-- is_bird&#45;&gt;636 -->
<g id="edge28" class="edge">
<title>is_bird&#45;&gt;636</title>
<path fill="none" stroke="green" stroke-width="0.61" d="M386.63,-263.53C390.52,-256.19 396.54,-244.87 402.29,-234.04"/>
<polygon fill="green" stroke="green" stroke-width="0.61" points="405.4,-235.65 407.01,-225.17 399.22,-232.36 405.4,-235.65"/>
</g>
<!-- is_bird&#45;&gt;637 -->
<g id="edge29" class="edge">
<title>is_bird&#45;&gt;637</title>
<path fill="none" stroke="green" stroke-width="0.56" d="M358.27,-265.41C355.28,-264.74 352.25,-264.1 349.35,-263.56 229.49,-241.17 190.7,-272.53 77.35,-227.56 75.48,-226.82 73.62,-225.95 71.79,-224.99"/>
<polygon fill="green" stroke="green" stroke-width="0.56" points="73.32,-221.82 62.96,-219.59 69.67,-227.79 73.32,-221.82"/>
</g>
<!-- is_bird&#45;&gt;638 -->
<g id="edge30" class="edge">
<title>is_bird&#45;&gt;638</title>
<path fill="none" stroke="green" stroke-width="0.12" d="M358.24,-265.53C355.26,-264.84 352.24,-264.17 349.35,-263.56 258.8,-244.66 229.6,-263.49 144.35,-227.56 142.5,-226.78 140.65,-225.88 138.83,-224.9"/>
<polygon fill="green" stroke="green" stroke-width="0.12" points="140.37,-221.73 130.02,-219.44 136.68,-227.68 140.37,-221.73"/>
</g>
<!-- is_bird&#45;&gt;639 -->
<g id="edge31" class="edge">
<title>is_bird&#45;&gt;639</title>
<path fill="none" stroke="green" stroke-width="0.7" d="M358.31,-265.63C312.82,-254.36 218.09,-230.72 211.35,-227.56 209.53,-226.71 207.71,-225.75 205.9,-224.73"/>
<polygon fill="green" stroke="green" stroke-width="0.7" points="207.46,-221.57 197.15,-219.15 203.71,-227.48 207.46,-221.57"/>
</g>
<!-- jump -->
<g id="node5" class="node">
<title>jump</title>
<ellipse fill="lightblue" stroke="black" cx="266.35" cy="-28.28" rx="28.07" ry="28.07"/>
<text text-anchor="middle" x="266.35" y="-26.08" font-family="Times,serif" font-size="9.00">jump</text>
</g>
<!-- 640&#45;&gt;jump -->
<g id="edge40" class="edge">
<title>640&#45;&gt;jump</title>
<path fill="none" stroke="red" stroke-width="0.81" d="M476.32,-179.28C465.55,-154.94 445.42,-116.47 417.35,-92.57 384.11,-64.26 336.4,-47.14 303.55,-37.97"/>
<polygon fill="red" stroke="red" stroke-width="0.81" points="304.42,-34.58 293.86,-35.38 302.61,-41.34 304.42,-34.58"/>
</g>
<!-- 633&#45;&gt;jump -->
<g id="edge33" class="edge">
<title>633&#45;&gt;jump</title>
<path fill="none" stroke="red" stroke-width="1.88" d="M248.23,-178.19C251.73,-149.42 257.69,-100.48 261.81,-66.6"/>
<polygon fill="red" stroke="red" stroke-width="1.88" points="265.29,-66.95 263.03,-56.6 258.35,-66.11 265.29,-66.95"/>
</g>
<!-- 634&#45;&gt;jump -->
<g id="edge34" class="edge">
<title>634&#45;&gt;jump</title>
<path fill="none" stroke="red" stroke-width="0" d="M306.15,-178.55C298.44,-149.62 285.19,-99.92 276.11,-65.88"/>
<polygon fill="red" stroke="red" stroke-width="0" points="279.4,-64.61 273.44,-55.85 272.63,-66.42 279.4,-64.61"/>
</g>
<!-- 634&#45;&gt;635 -->
<g id="edge41" class="edge">
<title>634&#45;&gt;635</title>
<path fill="none" stroke="green" stroke-width="1.19" d="M324.21,-180.74C329.78,-170.86 336.51,-158.9 342.59,-148.1"/>
<polygon fill="green" stroke="green" stroke-width="1.19" points="345.64,-149.81 347.5,-139.38 339.54,-146.38 345.64,-149.81"/>
</g>
<!-- 635&#45;&gt;jump -->
<g id="edge35" class="edge">
<title>635&#45;&gt;jump</title>
<path fill="none" stroke="red" stroke-width="0.57" d="M341.42,-99.54C328.12,-87.09 309.72,-69.87 294.47,-55.59"/>
<polygon fill="red" stroke="red" stroke-width="0.57" points="296.51,-52.72 286.82,-48.44 291.73,-57.83 296.51,-52.72"/>
</g>
<!-- 636&#45;&gt;jump -->
<g id="edge36" class="edge">
<title>636&#45;&gt;jump</title>
<path fill="none" stroke="green" stroke-width="0.26" d="M418.58,-178.02C417.62,-154.05 412.73,-117.19 393.35,-92.57 370.94,-64.08 332.33,-47.43 303.55,-38.43"/>
<polygon fill="green" stroke="green" stroke-width="0.26" points="304.41,-35.03 293.82,-35.55 302.42,-41.74 304.41,-35.03"/>
</g>
<!-- 637&#45;&gt;jump -->
<g id="edge37" class="edge">
<title>637&#45;&gt;jump</title>
<path fill="none" stroke="red" stroke-width="1.66" d="M60.98,-183.91C82.61,-161.16 122.16,-121.41 160.35,-92.57 183.15,-75.35 210.94,-58.91 232.35,-47.1"/>
<polygon fill="red" stroke="red" stroke-width="1.66" points="234.28,-50.03 241.39,-42.18 230.94,-43.88 234.28,-50.03"/>
</g>
<!-- 638&#45;&gt;jump -->
<g id="edge38" class="edge">
<title>638&#45;&gt;jump</title>
<path fill="none" stroke="green" stroke-width="1.22" d="M126.68,-183.37C145.03,-161.43 176.88,-123.83 205.35,-92.57 216.37,-80.47 228.87,-67.4 239.67,-56.3"/>
<polygon fill="green" stroke="green" stroke-width="1.22" points="242.35,-58.56 246.83,-48.96 237.34,-53.67 242.35,-58.56"/>
</g>
<!-- 639&#45;&gt;jump -->
<g id="edge39" class="edge">
<title>639&#45;&gt;jump</title>
<path fill="none" stroke="green" stroke-width="0.65" d="M189.32,-180.31C204.31,-150.92 231.37,-97.88 249.09,-63.13"/>
<polygon fill="green" stroke="green" stroke-width="0.65" points="252.4,-64.34 253.83,-53.85 246.16,-61.16 252.4,-64.34"/>
</g>
</g>
</svg>
