<?xml version="1.0" encoding="UTF-8" standalone="no"?>
<!DOCTYPE svg PUBLIC "-//W3C//DTD SVG 1.1//EN"
 "http://www.w3.org/Graphics/SVG/1.1/DTD/svg11.dtd">
<!-- Generated by graphviz version 2.43.0 (0)
 -->
<!-- Title: %3 Pages: 1 -->
<svg width="556pt" height="392pt"
 viewBox="0.00 0.00 556.50 392.03" xmlns="http://www.w3.org/2000/svg" xmlns:xlink="http://www.w3.org/1999/xlink">
<g id="graph0" class="graph" transform="scale(1 1) rotate(0) translate(4 388.03)">
<title>%3</title>
<polygon fill="white" stroke="transparent" points="-4,4 -4,-388.03 552.5,-388.03 552.5,4 -4,4"/>
<!-- x_diff -->
<g id="node1" class="node">
<title>x_diff</title>
<polygon fill="lightgray" stroke="black" points="235.75,-384.03 193.75,-384.03 193.75,-366.03 235.75,-366.03 235.75,-384.03"/>
<text text-anchor="middle" x="214.75" y="-372.83" font-family="Times,serif" font-size="9.00">x_diff</text>
</g>
<!-- 241 -->
<g id="node6" class="node">
<title>241</title>
<ellipse fill="white" stroke="black" cx="326.75" cy="-117.32" rx="25" ry="25"/>
<text text-anchor="middle" x="326.75" y="-115.12" font-family="Times,serif" font-size="9.00">241</text>
</g>
<!-- x_diff&#45;&gt;241 -->
<g id="edge1" class="edge">
<title>x_diff&#45;&gt;241</title>
<path fill="none" stroke="green" stroke-width="1.38" d="M235.88,-372.86C267.1,-370.11 325.93,-360.9 363.75,-330.03 400.4,-300.12 402.3,-281.96 413.75,-236.05 419.99,-211.04 426.19,-200.64 413.75,-178.07 399.29,-151.82 381.2,-159.39 356.75,-142.07 355.71,-141.33 354.66,-140.57 353.61,-139.8"/>
<polygon fill="green" stroke="green" stroke-width="1.38" points="355.64,-136.95 345.56,-133.7 351.42,-142.53 355.64,-136.95"/>
</g>
<!-- 243 -->
<g id="node8" class="node">
<title>243</title>
<ellipse fill="white" stroke="black" cx="91.75" cy="-207.06" rx="25" ry="25"/>
<text text-anchor="middle" x="91.75" y="-204.86" font-family="Times,serif" font-size="9.00">243</text>
</g>
<!-- x_diff&#45;&gt;243 -->
<g id="edge2" class="edge">
<title>x_diff&#45;&gt;243</title>
<path fill="none" stroke="green" stroke-width="1.38" d="M193.51,-371.21C169.47,-366.83 131.01,-356 110.75,-330.03 91.31,-305.12 87.96,-268.45 88.62,-241.82"/>
<polygon fill="green" stroke="green" stroke-width="1.38" points="92.11,-241.95 89.06,-231.8 85.12,-241.64 92.11,-241.95"/>
</g>
<!-- 247 -->
<g id="node11" class="node">
<title>247</title>
<ellipse fill="white" stroke="black" cx="523.75" cy="-207.06" rx="25" ry="25"/>
<text text-anchor="middle" x="523.75" y="-204.86" font-family="Times,serif" font-size="9.00">247</text>
</g>
<!-- x_diff&#45;&gt;247 -->
<g id="edge3" class="edge">
<title>x_diff&#45;&gt;247</title>
<path fill="none" stroke="green" stroke-width="1.05" d="M235.77,-374.33C298.45,-374.72 482.01,-372.18 519.75,-330.03 541.05,-306.24 538.65,-268.17 533.08,-240.89"/>
<polygon fill="green" stroke="green" stroke-width="1.05" points="536.46,-239.99 530.83,-231.02 529.64,-241.55 536.46,-239.99"/>
</g>
<!-- 248 -->
<g id="node12" class="node">
<title>248</title>
<ellipse fill="white" stroke="black" cx="24.75" cy="-207.06" rx="25" ry="25"/>
<text text-anchor="middle" x="24.75" y="-204.86" font-family="Times,serif" font-size="9.00">248</text>
</g>
<!-- x_diff&#45;&gt;248 -->
<g id="edge4" class="edge">
<title>x_diff&#45;&gt;248</title>
<path fill="none" stroke="green" stroke-width="2.21" d="M193.73,-371.71C166.2,-367.67 117.78,-357.02 86.75,-330.03 59.61,-306.43 42.89,-268.08 33.75,-240.68"/>
<polygon fill="green" stroke="green" stroke-width="2.21" points="37.08,-239.61 30.72,-231.13 30.41,-241.72 37.08,-239.61"/>
</g>
<!-- 1529 -->
<g id="node13" class="node">
<title>1529</title>
<ellipse fill="white" stroke="black" cx="214.75" cy="-301.04" rx="28.98" ry="28.98"/>
<text text-anchor="middle" x="214.75" y="-298.84" font-family="Times,serif" font-size="9.00">1529</text>
</g>
<!-- x_diff&#45;&gt;1529 -->
<g id="edge22" class="edge">
<title>x_diff&#45;&gt;1529</title>
<path fill="none" stroke="green" stroke-width="1" d="M214.75,-365.77C214.75,-359.3 214.75,-349.8 214.75,-340.1"/>
<polygon fill="green" stroke="green" stroke-width="1" points="218.25,-340.03 214.75,-330.03 211.25,-340.03 218.25,-340.03"/>
</g>
<!-- object_y -->
<g id="node2" class="node">
<title>object_y</title>
<polygon fill="lightgray" stroke="black" points="354.25,-310.04 299.25,-310.04 299.25,-292.04 354.25,-292.04 354.25,-310.04"/>
<text text-anchor="middle" x="326.75" y="-298.84" font-family="Times,serif" font-size="9.00">object_y</text>
</g>
<!-- object_y&#45;&gt;241 -->
<g id="edge5" class="edge">
<title>object_y&#45;&gt;241</title>
<path fill="none" stroke="red" stroke-width="0.47" d="M326.75,-291.76C326.75,-267.51 326.75,-195.66 326.75,-152.42"/>
<polygon fill="red" stroke="red" stroke-width="0.47" points="330.25,-152.35 326.75,-142.35 323.25,-152.35 330.25,-152.35"/>
</g>
<!-- 242 -->
<g id="node7" class="node">
<title>242</title>
<ellipse fill="white" stroke="black" cx="273.75" cy="-207.06" rx="25" ry="25"/>
<text text-anchor="middle" x="273.75" y="-204.86" font-family="Times,serif" font-size="9.00">242</text>
</g>
<!-- object_y&#45;&gt;242 -->
<g id="edge6" class="edge">
<title>object_y&#45;&gt;242</title>
<path fill="none" stroke="green" stroke-width="1.11" d="M322.05,-291.88C315.12,-279.86 301.83,-256.79 290.94,-237.89"/>
<polygon fill="green" stroke="green" stroke-width="1.11" points="293.85,-235.94 285.83,-229.02 287.79,-239.43 293.85,-235.94"/>
</g>
<!-- object_y&#45;&gt;243 -->
<g id="edge7" class="edge">
<title>object_y&#45;&gt;243</title>
<path fill="none" stroke="red" stroke-width="1.16" d="M306.31,-292.04C265.46,-276.05 173.46,-240.04 124.25,-220.78"/>
<polygon fill="red" stroke="red" stroke-width="1.16" points="125.31,-217.43 114.72,-217.05 122.75,-223.95 125.31,-217.43"/>
</g>
<!-- 244 -->
<g id="node9" class="node">
<title>244</title>
<ellipse fill="white" stroke="black" cx="379.75" cy="-207.06" rx="25" ry="25"/>
<text text-anchor="middle" x="379.75" y="-204.86" font-family="Times,serif" font-size="9.00">244</text>
</g>
<!-- object_y&#45;&gt;244 -->
<g id="edge8" class="edge">
<title>object_y&#45;&gt;244</title>
<path fill="none" stroke="red" stroke-width="1.04" d="M331.45,-291.88C338.38,-279.86 351.67,-256.79 362.56,-237.89"/>
<polygon fill="red" stroke="red" stroke-width="1.04" points="365.71,-239.43 367.67,-229.02 359.65,-235.94 365.71,-239.43"/>
</g>
<!-- object_y&#45;&gt;247 -->
<g id="edge9" class="edge">
<title>object_y&#45;&gt;247</title>
<path fill="none" stroke="green" stroke-width="2.34" d="M343.89,-292.04C376.97,-276.59 450.1,-242.45 492.21,-222.78"/>
<polygon fill="green" stroke="green" stroke-width="2.34" points="493.87,-225.87 501.45,-218.47 490.91,-219.53 493.87,-225.87"/>
</g>
<!-- object_height -->
<g id="node3" class="node">
<title>object_height</title>
<polygon fill="lightgray" stroke="black" points="510.75,-310.04 430.75,-310.04 430.75,-292.04 510.75,-292.04 510.75,-310.04"/>
<text text-anchor="middle" x="470.75" y="-298.84" font-family="Times,serif" font-size="9.00">object_height</text>
</g>
<!-- object_height&#45;&gt;241 -->
<g id="edge10" class="edge">
<title>object_height&#45;&gt;241</title>
<path fill="none" stroke="red" stroke-width="1.11" d="M471.45,-291.94C472.82,-270.86 473.71,-213.42 446.75,-178.07 425.72,-150.5 388.53,-134.78 361.11,-126.46"/>
<polygon fill="red" stroke="red" stroke-width="1.11" points="361.71,-122.99 351.13,-123.62 359.8,-129.72 361.71,-122.99"/>
</g>
<!-- object_height&#45;&gt;242 -->
<g id="edge11" class="edge">
<title>object_height&#45;&gt;242</title>
<path fill="none" stroke="red" stroke-width="1.18" d="M453.61,-292.04C420.52,-276.59 347.4,-242.45 305.29,-222.78"/>
<polygon fill="red" stroke="red" stroke-width="1.18" points="306.58,-219.53 296.04,-218.47 303.62,-225.87 306.58,-219.53"/>
</g>
<!-- is_bird -->
<g id="node4" class="node">
<title>is_bird</title>
<polygon fill="lightgray" stroke="black" points="167.75,-310.04 119.75,-310.04 119.75,-292.04 167.75,-292.04 167.75,-310.04"/>
<text text-anchor="middle" x="143.75" y="-298.84" font-family="Times,serif" font-size="9.00">is_bird</text>
</g>
<!-- jump -->
<g id="node5" class="node">
<title>jump</title>
<ellipse fill="lightblue" stroke="black" cx="144.75" cy="-28.28" rx="28.07" ry="28.07"/>
<text text-anchor="middle" x="144.75" y="-26.08" font-family="Times,serif" font-size="9.00">jump</text>
</g>
<!-- is_bird&#45;&gt;jump -->
<g id="edge19" class="edge">
<title>is_bird&#45;&gt;jump</title>
<path fill="none" stroke="red" stroke-width="0.61" d="M143.78,-291.94C143.9,-258.68 144.37,-131.39 144.61,-67.03"/>
<polygon fill="red" stroke="red" stroke-width="0.61" points="148.11,-66.9 144.65,-56.89 141.11,-66.88 148.11,-66.9"/>
</g>
<!-- is_bird&#45;&gt;242 -->
<g id="edge12" class="edge">
<title>is_bird&#45;&gt;242</title>
<path fill="none" stroke="red" stroke-width="2.82" d="M152.36,-291.97C158.81,-286.11 168.01,-278.17 176.75,-272.05 203.16,-253.54 213.2,-254.36 239.75,-236.05 242.23,-234.34 244.75,-232.49 247.24,-230.59"/>
<polygon fill="red" stroke="red" stroke-width="2.82" points="249.83,-233 255.49,-224.05 245.48,-227.52 249.83,-233"/>
</g>
<!-- is_bird&#45;&gt;243 -->
<g id="edge13" class="edge">
<title>is_bird&#45;&gt;243</title>
<path fill="none" stroke="red" stroke-width="0.35" d="M139.13,-291.88C132.34,-279.86 119.3,-256.79 108.62,-237.89"/>
<polygon fill="red" stroke="red" stroke-width="0.35" points="111.57,-236 103.6,-229.02 105.47,-239.45 111.57,-236"/>
</g>
<!-- 1364 -->
<g id="node10" class="node">
<title>1364</title>
<ellipse fill="white" stroke="black" cx="201.75" cy="-207.06" rx="28.98" ry="28.98"/>
<text text-anchor="middle" x="201.75" y="-204.86" font-family="Times,serif" font-size="9.00">1364</text>
</g>
<!-- is_bird&#45;&gt;1364 -->
<g id="edge20" class="edge">
<title>is_bird&#45;&gt;1364</title>
<path fill="none" stroke="green" stroke-width="0.73" d="M148.9,-291.88C156.09,-280.47 169.57,-259.09 181.12,-240.78"/>
<polygon fill="green" stroke="green" stroke-width="0.73" points="184.22,-242.42 186.59,-232.09 178.3,-238.68 184.22,-242.42"/>
</g>
<!-- is_bird&#45;&gt;248 -->
<g id="edge14" class="edge">
<title>is_bird&#45;&gt;248</title>
<path fill="none" stroke="green" stroke-width="2.03" d="M132.44,-291.98C115.84,-280.06 83.97,-256.89 57.75,-236.05 55.49,-234.25 53.16,-232.36 50.84,-230.45"/>
<polygon fill="green" stroke="green" stroke-width="2.03" points="52.99,-227.69 43.08,-223.96 48.5,-233.06 52.99,-227.69"/>
</g>
<!-- 241&#45;&gt;jump -->
<g id="edge15" class="edge">
<title>241&#45;&gt;jump</title>
<path fill="none" stroke="red" stroke-width="1.12" d="M304.8,-105.82C273.64,-90.92 216.28,-63.49 179.36,-45.84"/>
<polygon fill="red" stroke="red" stroke-width="1.12" points="180.52,-42.51 169.99,-41.35 177.5,-48.83 180.52,-42.51"/>
</g>
<!-- 243&#45;&gt;jump -->
<g id="edge16" class="edge">
<title>243&#45;&gt;jump</title>
<path fill="none" stroke="red" stroke-width="0.62" d="M98.68,-182.95C107.64,-153.05 123.36,-100.64 133.91,-65.45"/>
<polygon fill="red" stroke="red" stroke-width="0.62" points="137.35,-66.15 136.87,-55.57 130.64,-64.14 137.35,-66.15"/>
</g>
<!-- 1364&#45;&gt;241 -->
<g id="edge21" class="edge">
<title>1364&#45;&gt;241</title>
<path fill="none" stroke="red" stroke-width="1.16" d="M224.57,-189.06C229.55,-185.4 234.81,-181.58 239.75,-178.07 259.07,-164.32 281.1,-149.2 298.15,-137.61"/>
<polygon fill="red" stroke="red" stroke-width="1.16" points="300.26,-140.4 306.58,-131.89 296.34,-134.61 300.26,-140.4"/>
</g>
<!-- 247&#45;&gt;jump -->
<g id="edge17" class="edge">
<title>247&#45;&gt;jump</title>
<path fill="none" stroke="green" stroke-width="0.7" d="M505.43,-190.28C476.5,-166.1 417.66,-119.82 360.75,-92.57 301.37,-64.13 226.58,-45.71 182.39,-36.44"/>
<polygon fill="green" stroke="green" stroke-width="0.7" points="182.88,-32.97 172.38,-34.39 181.47,-39.83 182.88,-32.97"/>
</g>
<!-- 248&#45;&gt;jump -->
<g id="edge18" class="edge">
<title>248&#45;&gt;jump</title>
<path fill="none" stroke="red" stroke-width="1.78" d="M38.28,-186.12C58.96,-155.66 98.62,-97.23 123.27,-60.93"/>
<polygon fill="red" stroke="red" stroke-width="1.78" points="126.47,-62.45 129.19,-52.21 120.67,-58.52 126.47,-62.45"/>
</g>
<!-- 1529&#45;&gt;1364 -->
<g id="edge23" class="edge">
<title>1529&#45;&gt;1364</title>
<path fill="none" stroke="red" stroke-width="0.23" d="M210.78,-271.94C209.62,-263.74 208.33,-254.64 207.1,-245.94"/>
<polygon fill="red" stroke="red" stroke-width="0.23" points="210.56,-245.39 205.7,-235.98 203.63,-246.37 210.56,-245.39"/>
</g>
</g>
</svg>
