<?xml version="1.0" encoding="UTF-8" standalone="no"?>
<!DOCTYPE svg PUBLIC "-//W3C//DTD SVG 1.1//EN"
 "http://www.w3.org/Graphics/SVG/1.1/DTD/svg11.dtd">
<!-- Generated by graphviz version 2.43.0 (0)
 -->
<!-- Title: %3 Pages: 1 -->
<svg width="492pt" height="298pt"
 viewBox="0.00 0.00 492.02 298.05" xmlns="http://www.w3.org/2000/svg" xmlns:xlink="http://www.w3.org/1999/xlink">
<g id="graph0" class="graph" transform="scale(1 1) rotate(0) translate(4 294.05)">
<title>%3</title>
<polygon fill="white" stroke="transparent" points="-4,4 -4,-294.05 488.02,-294.05 488.02,4 -4,4"/>
<!-- x_diff -->
<g id="node1" class="node">
<title>x_diff</title>
<polygon fill="lightgray" stroke="black" points="212.28,-216.06 170.28,-216.06 170.28,-198.06 212.28,-198.06 212.28,-216.06"/>
<text text-anchor="middle" x="191.28" y="-204.86" font-family="Times,serif" font-size="9.00">x_diff</text>
</g>
<!-- 386 -->
<g id="node6" class="node">
<title>386</title>
<ellipse fill="white" stroke="black" cx="392.28" cy="-117.32" rx="25" ry="25"/>
<text text-anchor="middle" x="392.28" y="-115.12" font-family="Times,serif" font-size="9.00">386</text>
</g>
<!-- x_diff&#45;&gt;386 -->
<g id="edge1" class="edge">
<title>x_diff&#45;&gt;386</title>
<path fill="none" stroke="red" stroke-width="0.38" d="M197.86,-198.03C203.46,-191.71 212.04,-183.15 221.28,-178.07 276.81,-147.51 301.91,-169.04 359.28,-142.07 361.1,-141.21 362.92,-140.25 364.73,-139.22"/>
<polygon fill="red" stroke="red" stroke-width="0.38" points="366.92,-141.97 373.47,-133.64 363.16,-136.07 366.92,-141.97"/>
</g>
<!-- 387 -->
<g id="node7" class="node">
<title>387</title>
<ellipse fill="white" stroke="black" cx="325.28" cy="-117.32" rx="25" ry="25"/>
<text text-anchor="middle" x="325.28" y="-115.12" font-family="Times,serif" font-size="9.00">387</text>
</g>
<!-- x_diff&#45;&gt;387 -->
<g id="edge2" class="edge">
<title>x_diff&#45;&gt;387</title>
<path fill="none" stroke="green" stroke-width="3.89" d="M198.65,-198.05C204.43,-192.06 212.87,-183.94 221.28,-178.07 250.27,-157.8 262.05,-160.45 292.28,-142.07 293.95,-141.05 295.65,-139.97 297.35,-138.86"/>
<polygon fill="green" stroke="green" stroke-width="3.89" points="299.44,-141.67 305.72,-133.14 295.49,-135.89 299.44,-141.67"/>
</g>
<!-- 388 -->
<g id="node8" class="node">
<title>388</title>
<ellipse fill="white" stroke="black" cx="258.28" cy="-117.32" rx="25" ry="25"/>
<text text-anchor="middle" x="258.28" y="-115.12" font-family="Times,serif" font-size="9.00">388</text>
</g>
<!-- x_diff&#45;&gt;388 -->
<g id="edge3" class="edge">
<title>x_diff&#45;&gt;388</title>
<path fill="none" stroke="green" stroke-width="2.21" d="M197.46,-197.96C206.51,-186.11 223.77,-163.5 237.6,-145.39"/>
<polygon fill="green" stroke="green" stroke-width="2.21" points="240.39,-147.51 243.68,-137.44 234.83,-143.26 240.39,-147.51"/>
</g>
<!-- 390 -->
<g id="node10" class="node">
<title>390</title>
<ellipse fill="white" stroke="black" cx="124.28" cy="-117.32" rx="25" ry="25"/>
<text text-anchor="middle" x="124.28" y="-115.12" font-family="Times,serif" font-size="9.00">390</text>
</g>
<!-- x_diff&#45;&gt;390 -->
<g id="edge4" class="edge">
<title>x_diff&#45;&gt;390</title>
<path fill="none" stroke="green" stroke-width="1.04" d="M185.09,-197.96C176.05,-186.11 158.78,-163.5 144.95,-145.39"/>
<polygon fill="green" stroke="green" stroke-width="1.04" points="147.73,-143.26 138.88,-137.44 142.16,-147.51 147.73,-143.26"/>
</g>
<!-- 391 -->
<g id="node11" class="node">
<title>391</title>
<ellipse fill="white" stroke="black" cx="191.28" cy="-117.32" rx="25" ry="25"/>
<text text-anchor="middle" x="191.28" y="-115.12" font-family="Times,serif" font-size="9.00">391</text>
</g>
<!-- x_diff&#45;&gt;391 -->
<g id="edge5" class="edge">
<title>x_diff&#45;&gt;391</title>
<path fill="none" stroke="green" stroke-width="0.66" d="M191.28,-197.96C191.28,-187.56 191.28,-168.86 191.28,-152.2"/>
<polygon fill="green" stroke="green" stroke-width="0.66" points="194.78,-152.18 191.28,-142.18 187.78,-152.18 194.78,-152.18"/>
</g>
<!-- 392 -->
<g id="node12" class="node">
<title>392</title>
<ellipse fill="white" stroke="black" cx="57.28" cy="-117.32" rx="25" ry="25"/>
<text text-anchor="middle" x="57.28" y="-115.12" font-family="Times,serif" font-size="9.00">392</text>
</g>
<!-- x_diff&#45;&gt;392 -->
<g id="edge6" class="edge">
<title>x_diff&#45;&gt;392</title>
<path fill="none" stroke="red" stroke-width="0.48" d="M178.04,-198.02C158.59,-186.12 121.23,-162.99 90.28,-142.07 88.65,-140.97 86.99,-139.83 85.33,-138.67"/>
<polygon fill="red" stroke="red" stroke-width="0.48" points="87.22,-135.73 77.04,-132.83 83.19,-141.45 87.22,-135.73"/>
</g>
<!-- object_y -->
<g id="node2" class="node">
<title>object_y</title>
<polygon fill="lightgray" stroke="black" points="169.78,-290.05 114.78,-290.05 114.78,-272.05 169.78,-272.05 169.78,-290.05"/>
<text text-anchor="middle" x="142.28" y="-278.85" font-family="Times,serif" font-size="9.00">object_y</text>
</g>
<!-- object_y&#45;&gt;386 -->
<g id="edge7" class="edge">
<title>object_y&#45;&gt;386</title>
<path fill="none" stroke="red" stroke-width="0.71" d="M170.04,-280.37C237.51,-280.49 407.17,-276.68 442.28,-236.05 459.12,-216.55 451.07,-202.29 442.28,-178.07 437.27,-164.29 427.54,-151.47 417.99,-141.26"/>
<polygon fill="red" stroke="red" stroke-width="0.71" points="420.32,-138.64 410.8,-134 415.34,-143.57 420.32,-138.64"/>
</g>
<!-- object_y&#45;&gt;387 -->
<g id="edge8" class="edge">
<title>object_y&#45;&gt;387</title>
<path fill="none" stroke="red" stroke-width="1" d="M170.18,-280.06C234.64,-279.43 390.85,-273.94 423.28,-236.05 440.03,-216.47 436.36,-200.27 423.28,-178.07 406.51,-149.61 386.17,-159.74 358.28,-142.07 356.62,-141.02 354.94,-139.92 353.25,-138.79"/>
<polygon fill="red" stroke="red" stroke-width="1" points="355.12,-135.83 344.91,-133.02 351.14,-141.59 355.12,-135.83"/>
</g>
<!-- object_y&#45;&gt;388 -->
<g id="edge9" class="edge">
<title>object_y&#45;&gt;388</title>
<path fill="none" stroke="red" stroke-width="1.54" d="M169.86,-280.69C203.81,-279.81 260.25,-272.5 287.28,-236.05 306.6,-210 292.15,-172.66 277.59,-147.05"/>
<polygon fill="red" stroke="red" stroke-width="1.54" points="280.43,-144.97 272.29,-138.19 274.42,-148.57 280.43,-144.97"/>
</g>
<!-- object_y&#45;&gt;390 -->
<g id="edge10" class="edge">
<title>object_y&#45;&gt;390</title>
<path fill="none" stroke="green" stroke-width="0.9" d="M138.89,-271.78C135.51,-263.07 130.49,-248.85 128.28,-236.05 123.48,-208.26 122.69,-176.25 122.98,-152.63"/>
<polygon fill="green" stroke="green" stroke-width="0.9" points="126.48,-152.48 123.18,-142.41 119.48,-152.34 126.48,-152.48"/>
</g>
<!-- object_y&#45;&gt;391 -->
<g id="edge11" class="edge">
<title>object_y&#45;&gt;391</title>
<path fill="none" stroke="red" stroke-width="0.82" d="M143.01,-271.92C144.75,-254.39 149.9,-211.86 161.28,-178.07 164.69,-167.92 169.54,-157.33 174.35,-147.93"/>
<polygon fill="red" stroke="red" stroke-width="0.82" points="177.5,-149.46 179.09,-138.99 171.31,-146.18 177.5,-149.46"/>
</g>
<!-- object_y&#45;&gt;392 -->
<g id="edge12" class="edge">
<title>object_y&#45;&gt;392</title>
<path fill="none" stroke="red" stroke-width="0.02" d="M114.7,-279.78C83.3,-277.82 33.28,-269.27 9.28,-236.05 -5.82,-215.16 0.72,-202.37 9.28,-178.07 13.95,-164.8 22.95,-152.29 31.9,-142.19"/>
<polygon fill="red" stroke="red" stroke-width="0.02" points="34.71,-144.32 39,-134.63 29.6,-139.53 34.71,-144.32"/>
</g>
<!-- 1066 -->
<g id="node13" class="node">
<title>1066</title>
<ellipse fill="white" stroke="black" cx="47.28" cy="-207.06" rx="28.98" ry="28.98"/>
<text text-anchor="middle" x="47.28" y="-204.86" font-family="Times,serif" font-size="9.00">1066</text>
</g>
<!-- object_y&#45;&gt;1066 -->
<g id="edge34" class="edge">
<title>object_y&#45;&gt;1066</title>
<path fill="none" stroke="green" stroke-width="1" d="M131.38,-271.79C118.45,-261.99 96.33,-245.23 78.02,-231.35"/>
<polygon fill="green" stroke="green" stroke-width="1" points="80.01,-228.47 69.92,-225.22 75.78,-234.05 80.01,-228.47"/>
</g>
<!-- object_height -->
<g id="node3" class="node">
<title>object_height</title>
<polygon fill="lightgray" stroke="black" points="414.28,-216.06 334.28,-216.06 334.28,-198.06 414.28,-198.06 414.28,-216.06"/>
<text text-anchor="middle" x="374.28" y="-204.86" font-family="Times,serif" font-size="9.00">object_height</text>
</g>
<!-- object_height&#45;&gt;386 -->
<g id="edge13" class="edge">
<title>object_height&#45;&gt;386</title>
<path fill="none" stroke="green" stroke-width="0.95" d="M375.94,-197.96C378.08,-187.49 381.96,-168.61 385.39,-151.86"/>
<polygon fill="green" stroke="green" stroke-width="0.95" points="388.88,-152.3 387.46,-141.8 382.02,-150.89 388.88,-152.3"/>
</g>
<!-- object_height&#45;&gt;387 -->
<g id="edge14" class="edge">
<title>object_height&#45;&gt;387</title>
<path fill="none" stroke="green" stroke-width="1.09" d="M369.75,-197.96C363.46,-186.69 351.72,-165.67 341.88,-148.05"/>
<polygon fill="green" stroke="green" stroke-width="1.09" points="344.88,-146.25 336.95,-139.22 338.77,-149.66 344.88,-146.25"/>
</g>
<!-- object_height&#45;&gt;388 -->
<g id="edge15" class="edge">
<title>object_height&#45;&gt;388</title>
<path fill="none" stroke="green" stroke-width="0.53" d="M363.57,-197.96C346.03,-184.7 310.65,-157.93 285.76,-139.1"/>
<polygon fill="green" stroke="green" stroke-width="0.53" points="287.84,-136.29 277.76,-133.05 283.62,-141.88 287.84,-136.29"/>
</g>
<!-- 389 -->
<g id="node9" class="node">
<title>389</title>
<ellipse fill="white" stroke="black" cx="459.28" cy="-117.32" rx="25" ry="25"/>
<text text-anchor="middle" x="459.28" y="-115.12" font-family="Times,serif" font-size="9.00">389</text>
</g>
<!-- object_height&#45;&gt;389 -->
<g id="edge16" class="edge">
<title>object_height&#45;&gt;389</title>
<path fill="none" stroke="green" stroke-width="0.49" d="M382.12,-197.96C394.06,-185.64 417.29,-161.66 435.15,-143.22"/>
<polygon fill="green" stroke="green" stroke-width="0.49" points="437.99,-145.32 442.43,-135.7 432.96,-140.45 437.99,-145.32"/>
</g>
<!-- object_height&#45;&gt;390 -->
<g id="edge17" class="edge">
<title>object_height&#45;&gt;390</title>
<path fill="none" stroke="red" stroke-width="1.38" d="M349.98,-197.95C332.58,-192.21 308.56,-184.43 287.28,-178.07 229.84,-160.88 211.34,-167.98 157.28,-142.07 155.46,-141.2 153.64,-140.23 151.84,-139.19"/>
<polygon fill="red" stroke="red" stroke-width="1.38" points="153.41,-136.04 143.1,-133.59 149.64,-141.93 153.41,-136.04"/>
</g>
<!-- object_height&#45;&gt;391 -->
<g id="edge18" class="edge">
<title>object_height&#45;&gt;391</title>
<path fill="none" stroke="red" stroke-width="0.3" d="M351.17,-198.02C321.06,-187.13 267.19,-166.27 224.28,-142.07 222.52,-141.08 220.75,-140.02 218.99,-138.91"/>
<polygon fill="red" stroke="red" stroke-width="0.3" points="220.6,-135.78 210.35,-133.12 216.71,-141.59 220.6,-135.78"/>
</g>
<!-- object_height&#45;&gt;392 -->
<g id="edge19" class="edge">
<title>object_height&#45;&gt;392</title>
<path fill="none" stroke="red" stroke-width="2.2" d="M351.98,-197.99C334.54,-191.9 309.59,-183.67 287.28,-178.07 200.95,-156.39 172.18,-176.91 90.28,-142.07 88.42,-141.28 86.58,-140.37 84.75,-139.38"/>
<polygon fill="red" stroke="red" stroke-width="2.2" points="86.3,-136.22 75.96,-133.91 82.6,-142.17 86.3,-136.22"/>
</g>
<!-- is_bird -->
<g id="node4" class="node">
<title>is_bird</title>
<polygon fill="lightgray" stroke="black" points="278.28,-216.06 230.28,-216.06 230.28,-198.06 278.28,-198.06 278.28,-216.06"/>
<text text-anchor="middle" x="254.28" y="-204.86" font-family="Times,serif" font-size="9.00">is_bird</text>
</g>
<!-- is_bird&#45;&gt;386 -->
<g id="edge20" class="edge">
<title>is_bird&#45;&gt;386</title>
<path fill="none" stroke="green" stroke-width="0.85" d="M268.42,-197.9C288.78,-186.06 327.43,-163.18 359.28,-142.07 360.91,-140.98 362.57,-139.86 364.25,-138.71"/>
<polygon fill="green" stroke="green" stroke-width="0.85" points="366.38,-141.49 372.55,-132.88 362.36,-135.76 366.38,-141.49"/>
</g>
<!-- is_bird&#45;&gt;387 -->
<g id="edge21" class="edge">
<title>is_bird&#45;&gt;387</title>
<path fill="none" stroke="red" stroke-width="0.96" d="M260.83,-197.96C270.47,-186.04 288.94,-163.22 303.64,-145.05"/>
<polygon fill="red" stroke="red" stroke-width="0.96" points="306.52,-147.06 310.09,-137.09 301.08,-142.66 306.52,-147.06"/>
</g>
<!-- is_bird&#45;&gt;388 -->
<g id="edge22" class="edge">
<title>is_bird&#45;&gt;388</title>
<path fill="none" stroke="green" stroke-width="1.35" d="M254.65,-197.96C255.12,-187.56 255.97,-168.86 256.73,-152.2"/>
<polygon fill="green" stroke="green" stroke-width="1.35" points="260.23,-152.33 257.19,-142.18 253.24,-152.01 260.23,-152.33"/>
</g>
<!-- is_bird&#45;&gt;389 -->
<g id="edge23" class="edge">
<title>is_bird&#45;&gt;389</title>
<path fill="none" stroke="red" stroke-width="0.5" d="M274.1,-198.04C288.3,-192.34 307.91,-184.58 325.28,-178.07 369.89,-161.32 384.07,-164.2 426.28,-142.07 428.06,-141.13 429.85,-140.11 431.63,-139.03"/>
<polygon fill="red" stroke="red" stroke-width="0.5" points="433.88,-141.75 440.32,-133.33 430.04,-135.89 433.88,-141.75"/>
</g>
<!-- is_bird&#45;&gt;390 -->
<g id="edge24" class="edge">
<title>is_bird&#45;&gt;390</title>
<path fill="none" stroke="green" stroke-width="1.56" d="M245.68,-197.97C239.23,-192.11 230.03,-184.16 221.28,-178.07 194.49,-159.43 184.79,-159.62 157.28,-142.07 155.62,-141.01 153.94,-139.91 152.26,-138.78"/>
<polygon fill="green" stroke="green" stroke-width="1.56" points="154.13,-135.82 143.92,-133 150.15,-141.57 154.13,-135.82"/>
</g>
<!-- is_bird&#45;&gt;391 -->
<g id="edge25" class="edge">
<title>is_bird&#45;&gt;391</title>
<path fill="none" stroke="green" stroke-width="0.41" d="M248.46,-197.96C240.09,-186.29 224.21,-164.18 211.31,-146.21"/>
<polygon fill="green" stroke="green" stroke-width="0.41" points="213.93,-143.87 205.26,-137.79 208.25,-147.95 213.93,-143.87"/>
</g>
<!-- is_bird&#45;&gt;392 -->
<g id="edge26" class="edge">
<title>is_bird&#45;&gt;392</title>
<path fill="none" stroke="green" stroke-width="1.55" d="M246.61,-197.83C240.34,-191.57 230.98,-183.19 221.28,-178.07 167.88,-149.87 144.75,-168.11 90.28,-142.07 88.46,-141.2 86.64,-140.23 84.84,-139.19"/>
<polygon fill="green" stroke="green" stroke-width="1.55" points="86.41,-136.04 76.1,-133.6 82.63,-141.94 86.41,-136.04"/>
</g>
<!-- jump -->
<g id="node5" class="node">
<title>jump</title>
<ellipse fill="lightblue" stroke="black" cx="258.28" cy="-28.28" rx="28.07" ry="28.07"/>
<text text-anchor="middle" x="258.28" y="-26.08" font-family="Times,serif" font-size="9.00">jump</text>
</g>
<!-- 386&#45;&gt;jump -->
<g id="edge27" class="edge">
<title>386&#45;&gt;jump</title>
<path fill="none" stroke="green" stroke-width="0.03" d="M372.53,-101.79C368.2,-98.7 363.61,-95.48 359.28,-92.57 336.79,-77.45 310.88,-61.24 290.93,-49.01"/>
<polygon fill="green" stroke="green" stroke-width="0.03" points="292.58,-45.92 282.22,-43.69 288.93,-51.89 292.58,-45.92"/>
</g>
<!-- 387&#45;&gt;jump -->
<g id="edge28" class="edge">
<title>387&#45;&gt;jump</title>
<path fill="none" stroke="red" stroke-width="0.14" d="M310.41,-97C301.87,-85.91 290.96,-71.74 281.33,-59.24"/>
<polygon fill="red" stroke="red" stroke-width="0.14" points="284.1,-57.1 275.23,-51.31 278.56,-61.37 284.1,-57.1"/>
</g>
<!-- 388&#45;&gt;jump -->
<g id="edge29" class="edge">
<title>388&#45;&gt;jump</title>
<path fill="none" stroke="red" stroke-width="1.21" d="M258.28,-92.54C258.28,-84.58 258.28,-75.5 258.28,-66.76"/>
<polygon fill="red" stroke="red" stroke-width="1.21" points="261.78,-66.73 258.28,-56.73 254.78,-66.73 261.78,-66.73"/>
</g>
<!-- 389&#45;&gt;jump -->
<g id="edge30" class="edge">
<title>389&#45;&gt;jump</title>
<path fill="none" stroke="green" stroke-width="0.52" d="M440.29,-101.36C435.83,-98.23 431,-95.1 426.28,-92.57 383.27,-69.52 330.04,-50.99 295.17,-40.08"/>
<polygon fill="green" stroke="green" stroke-width="0.52" points="296,-36.67 285.41,-37.07 293.93,-43.36 296,-36.67"/>
</g>
<!-- 390&#45;&gt;jump -->
<g id="edge31" class="edge">
<title>390&#45;&gt;jump</title>
<path fill="none" stroke="red" stroke-width="1.86" d="M144.02,-101.79C148.35,-98.7 152.94,-95.48 157.28,-92.57 179.76,-77.45 205.67,-61.24 225.62,-49.01"/>
<polygon fill="red" stroke="red" stroke-width="1.86" points="227.62,-51.89 234.33,-43.69 223.97,-45.92 227.62,-51.89"/>
</g>
<!-- 391&#45;&gt;jump -->
<g id="edge32" class="edge">
<title>391&#45;&gt;jump</title>
<path fill="none" stroke="red" stroke-width="2.82" d="M206.15,-97C214.68,-85.91 225.59,-71.74 235.22,-59.24"/>
<polygon fill="red" stroke="red" stroke-width="2.82" points="238,-61.37 241.32,-51.31 232.45,-57.1 238,-61.37"/>
</g>
<!-- 392&#45;&gt;jump -->
<g id="edge33" class="edge">
<title>392&#45;&gt;jump</title>
<path fill="none" stroke="green" stroke-width="1.39" d="M76.27,-101.36C80.72,-98.23 85.55,-95.1 90.28,-92.57 133.28,-69.52 186.51,-50.99 221.38,-40.08"/>
<polygon fill="green" stroke="green" stroke-width="1.39" points="222.62,-43.36 231.14,-37.07 220.56,-36.67 222.62,-43.36"/>
</g>
<!-- 1066&#45;&gt;392 -->
<g id="edge35" class="edge">
<title>1066&#45;&gt;392</title>
<path fill="none" stroke="red" stroke-width="0.02" d="M50.5,-177.81C51.43,-169.62 52.46,-160.59 53.43,-152.1"/>
<polygon fill="red" stroke="red" stroke-width="0.02" points="56.91,-152.43 54.57,-142.1 49.96,-151.63 56.91,-152.43"/>
</g>
</g>
</svg>
