<?xml version="1.0" encoding="UTF-8" standalone="no"?>
<!DOCTYPE svg PUBLIC "-//W3C//DTD SVG 1.1//EN"
 "http://www.w3.org/Graphics/SVG/1.1/DTD/svg11.dtd">
<!-- Generated by graphviz version 2.43.0 (0)
 -->
<!-- Title: %3 Pages: 1 -->
<svg width="392pt" height="204pt"
 viewBox="0.00 0.00 392.50 204.07" xmlns="http://www.w3.org/2000/svg" xmlns:xlink="http://www.w3.org/1999/xlink">
<g id="graph0" class="graph" transform="scale(1 1) rotate(0) translate(4 200.07)">
<title>%3</title>
<polygon fill="white" stroke="transparent" points="-4,4 -4,-200.07 388.5,-200.07 388.5,4 -4,4"/>
<!-- x_diff -->
<g id="node1" class="node">
<title>x_diff</title>
<polygon fill="lightgray" stroke="black" points="179.75,-196.07 137.75,-196.07 137.75,-178.07 179.75,-178.07 179.75,-196.07"/>
<text text-anchor="middle" x="158.75" y="-184.87" font-family="Times,serif" font-size="9.00">x_diff</text>
</g>
<!-- 305 -->
<g id="node6" class="node">
<title>305</title>
<ellipse fill="white" stroke="black" cx="225.75" cy="-117.32" rx="25" ry="25"/>
<text text-anchor="middle" x="225.75" y="-115.12" font-family="Times,serif" font-size="9.00">305</text>
</g>
<!-- x_diff&#45;&gt;305 -->
<g id="edge1" class="edge">
<title>x_diff&#45;&gt;305</title>
<path fill="none" stroke="red" stroke-width="2.04" d="M166.7,-178.03C175.25,-169.38 189.28,-155.19 201.52,-142.82"/>
<polygon fill="red" stroke="red" stroke-width="2.04" points="204.29,-144.99 208.84,-135.42 199.32,-140.07 204.29,-144.99"/>
</g>
<!-- 306 -->
<g id="node7" class="node">
<title>306</title>
<ellipse fill="white" stroke="black" cx="292.75" cy="-117.32" rx="25" ry="25"/>
<text text-anchor="middle" x="292.75" y="-115.12" font-family="Times,serif" font-size="9.00">306</text>
</g>
<!-- x_diff&#45;&gt;306 -->
<g id="edge2" class="edge">
<title>x_diff&#45;&gt;306</title>
<path fill="none" stroke="red" stroke-width="0.14" d="M179.88,-178.38C200.76,-170.44 233.32,-157.11 259.75,-142.07 261.5,-141.07 263.27,-140 265.03,-138.89"/>
<polygon fill="red" stroke="red" stroke-width="0.14" points="267.31,-141.57 273.66,-133.09 263.41,-135.76 267.31,-141.57"/>
</g>
<!-- 307 -->
<g id="node8" class="node">
<title>307</title>
<ellipse fill="white" stroke="black" cx="359.75" cy="-117.32" rx="25" ry="25"/>
<text text-anchor="middle" x="359.75" y="-115.12" font-family="Times,serif" font-size="9.00">307</text>
</g>
<!-- x_diff&#45;&gt;307 -->
<g id="edge3" class="edge">
<title>x_diff&#45;&gt;307</title>
<path fill="none" stroke="red" stroke-width="1.3" d="M180.05,-180.37C182.97,-179.59 185.93,-178.81 188.75,-178.07 250.04,-161.9 269.39,-169.04 326.75,-142.07 328.57,-141.21 330.39,-140.25 332.2,-139.22"/>
<polygon fill="red" stroke="red" stroke-width="1.3" points="334.4,-141.97 340.95,-133.64 330.63,-136.07 334.4,-141.97"/>
</g>
<!-- 310 -->
<g id="node9" class="node">
<title>310</title>
<ellipse fill="white" stroke="black" cx="24.75" cy="-117.32" rx="25" ry="25"/>
<text text-anchor="middle" x="24.75" y="-115.12" font-family="Times,serif" font-size="9.00">310</text>
</g>
<!-- x_diff&#45;&gt;310 -->
<g id="edge4" class="edge">
<title>x_diff&#45;&gt;310</title>
<path fill="none" stroke="green" stroke-width="2.87" d="M137.62,-178.38C116.74,-170.44 84.18,-157.11 57.75,-142.07 56,-141.07 54.23,-140 52.47,-138.89"/>
<polygon fill="green" stroke="green" stroke-width="2.87" points="54.09,-135.76 43.84,-133.09 50.19,-141.57 54.09,-135.76"/>
</g>
<!-- 311 -->
<g id="node10" class="node">
<title>311</title>
<ellipse fill="white" stroke="black" cx="158.75" cy="-117.32" rx="25" ry="25"/>
<text text-anchor="middle" x="158.75" y="-115.12" font-family="Times,serif" font-size="9.00">311</text>
</g>
<!-- x_diff&#45;&gt;311 -->
<g id="edge5" class="edge">
<title>x_diff&#45;&gt;311</title>
<path fill="none" stroke="red" stroke-width="0.41" d="M158.75,-178.03C158.75,-171.59 158.75,-162.1 158.75,-152.56"/>
<polygon fill="red" stroke="red" stroke-width="0.41" points="162.25,-152.34 158.75,-142.34 155.25,-152.34 162.25,-152.34"/>
</g>
<!-- 312 -->
<g id="node11" class="node">
<title>312</title>
<ellipse fill="white" stroke="black" cx="91.75" cy="-117.32" rx="25" ry="25"/>
<text text-anchor="middle" x="91.75" y="-115.12" font-family="Times,serif" font-size="9.00">312</text>
</g>
<!-- x_diff&#45;&gt;312 -->
<g id="edge6" class="edge">
<title>x_diff&#45;&gt;312</title>
<path fill="none" stroke="green" stroke-width="0.21" d="M150.8,-178.03C142.25,-169.38 128.22,-155.19 115.98,-142.82"/>
<polygon fill="green" stroke="green" stroke-width="0.21" points="118.18,-140.07 108.66,-135.42 113.2,-144.99 118.18,-140.07"/>
</g>
<!-- object_y -->
<g id="node2" class="node">
<title>object_y</title>
<polygon fill="lightgray" stroke="black" points="253.25,-196.07 198.25,-196.07 198.25,-178.07 253.25,-178.07 253.25,-196.07"/>
<text text-anchor="middle" x="225.75" y="-184.87" font-family="Times,serif" font-size="9.00">object_y</text>
</g>
<!-- object_y&#45;&gt;305 -->
<g id="edge7" class="edge">
<title>object_y&#45;&gt;305</title>
<path fill="none" stroke="green" stroke-width="2.19" d="M225.75,-178.03C225.75,-171.59 225.75,-162.1 225.75,-152.56"/>
<polygon fill="green" stroke="green" stroke-width="2.19" points="229.25,-152.34 225.75,-142.34 222.25,-152.34 229.25,-152.34"/>
</g>
<!-- object_y&#45;&gt;306 -->
<g id="edge8" class="edge">
<title>object_y&#45;&gt;306</title>
<path fill="none" stroke="green" stroke-width="0.22" d="M233.7,-178.03C242.25,-169.38 256.28,-155.19 268.52,-142.82"/>
<polygon fill="green" stroke="green" stroke-width="0.22" points="271.29,-144.99 275.84,-135.42 266.32,-140.07 271.29,-144.99"/>
</g>
<!-- object_y&#45;&gt;307 -->
<g id="edge9" class="edge">
<title>object_y&#45;&gt;307</title>
<path fill="none" stroke="red" stroke-width="0.4" d="M248.07,-177.92C268.98,-169.93 300.82,-156.82 326.75,-142.07 328.5,-141.07 330.27,-140 332.03,-138.89"/>
<polygon fill="red" stroke="red" stroke-width="0.4" points="334.31,-141.57 340.66,-133.09 330.41,-135.76 334.31,-141.57"/>
</g>
<!-- object_y&#45;&gt;310 -->
<g id="edge10" class="edge">
<title>object_y&#45;&gt;310</title>
<path fill="none" stroke="red" stroke-width="0.06" d="M197.97,-180.09C157.01,-171.06 82.57,-153.75 57.75,-142.07 55.93,-141.21 54.1,-140.25 52.3,-139.22"/>
<polygon fill="red" stroke="red" stroke-width="0.06" points="53.87,-136.07 43.55,-133.64 50.1,-141.97 53.87,-136.07"/>
</g>
<!-- object_y&#45;&gt;311 -->
<g id="edge11" class="edge">
<title>object_y&#45;&gt;311</title>
<path fill="none" stroke="red" stroke-width="2.26" d="M217.8,-178.03C209.25,-169.38 195.22,-155.19 182.98,-142.82"/>
<polygon fill="red" stroke="red" stroke-width="2.26" points="185.18,-140.07 175.66,-135.42 180.2,-144.99 185.18,-140.07"/>
</g>
<!-- object_y&#45;&gt;312 -->
<g id="edge12" class="edge">
<title>object_y&#45;&gt;312</title>
<path fill="none" stroke="red" stroke-width="0.24" d="M203.43,-177.92C182.51,-169.93 150.68,-156.82 124.75,-142.07 123,-141.07 121.23,-140 119.47,-138.89"/>
<polygon fill="red" stroke="red" stroke-width="0.24" points="121.09,-135.76 110.84,-133.09 117.19,-141.57 121.09,-135.76"/>
</g>
<!-- object_height -->
<g id="node3" class="node">
<title>object_height</title>
<polygon fill="lightgray" stroke="black" points="119.75,-196.07 39.75,-196.07 39.75,-178.07 119.75,-178.07 119.75,-196.07"/>
<text text-anchor="middle" x="79.75" y="-184.87" font-family="Times,serif" font-size="9.00">object_height</text>
</g>
<!-- object_height&#45;&gt;305 -->
<g id="edge13" class="edge">
<title>object_height&#45;&gt;305</title>
<path fill="none" stroke="red" stroke-width="0.61" d="M105.7,-178.05C129.15,-170.32 164.26,-157.54 192.75,-142.07 194.52,-141.11 196.3,-140.07 198.07,-138.97"/>
<polygon fill="red" stroke="red" stroke-width="0.61" points="200.34,-141.67 206.74,-133.23 196.47,-135.84 200.34,-141.67"/>
</g>
<!-- object_height&#45;&gt;306 -->
<g id="edge14" class="edge">
<title>object_height&#45;&gt;306</title>
<path fill="none" stroke="red" stroke-width="2.23" d="M119.83,-178.13C164.94,-168.88 235.13,-153.41 259.75,-142.07 261.58,-141.22 263.41,-140.28 265.21,-139.25"/>
<polygon fill="red" stroke="red" stroke-width="2.23" points="267.4,-142.01 273.97,-133.7 263.65,-136.1 267.4,-142.01"/>
</g>
<!-- object_height&#45;&gt;310 -->
<g id="edge15" class="edge">
<title>object_height&#45;&gt;310</title>
<path fill="none" stroke="green" stroke-width="1.19" d="M73.22,-178.03C66.61,-169.88 56.02,-156.83 46.42,-145.01"/>
<polygon fill="green" stroke="green" stroke-width="1.19" points="49.01,-142.65 39.99,-137.09 43.57,-147.06 49.01,-142.65"/>
</g>
<!-- object_height&#45;&gt;311 -->
<g id="edge16" class="edge">
<title>object_height&#45;&gt;311</title>
<path fill="none" stroke="red" stroke-width="0.93" d="M89.12,-178.03C99.74,-168.92 117.52,-153.67 132.45,-140.87"/>
<polygon fill="red" stroke="red" stroke-width="0.93" points="135.08,-143.23 140.39,-134.06 130.52,-137.91 135.08,-143.23"/>
</g>
<!-- object_height&#45;&gt;312 -->
<g id="edge17" class="edge">
<title>object_height&#45;&gt;312</title>
<path fill="none" stroke="green" stroke-width="0.12" d="M81.17,-178.03C82.34,-171.42 84.09,-161.58 85.82,-151.79"/>
<polygon fill="green" stroke="green" stroke-width="0.12" points="89.3,-152.2 87.6,-141.74 82.41,-150.98 89.3,-152.2"/>
</g>
<!-- is_bird -->
<g id="node4" class="node">
<title>is_bird</title>
<polygon fill="lightgray" stroke="black" points="319.75,-196.07 271.75,-196.07 271.75,-178.07 319.75,-178.07 319.75,-196.07"/>
<text text-anchor="middle" x="295.75" y="-184.87" font-family="Times,serif" font-size="9.00">is_bird</text>
</g>
<!-- is_bird&#45;&gt;305 -->
<g id="edge18" class="edge">
<title>is_bird&#45;&gt;305</title>
<path fill="none" stroke="red" stroke-width="0.47" d="M287.44,-178.03C278.36,-169.24 263.38,-154.73 250.45,-142.22"/>
<polygon fill="red" stroke="red" stroke-width="0.47" points="252.75,-139.58 243.13,-135.14 247.89,-144.61 252.75,-139.58"/>
</g>
<!-- is_bird&#45;&gt;306 -->
<g id="edge19" class="edge">
<title>is_bird&#45;&gt;306</title>
<path fill="none" stroke="red" stroke-width="2.85" d="M295.39,-178.03C295.11,-171.59 294.69,-162.1 294.26,-152.56"/>
<polygon fill="red" stroke="red" stroke-width="2.85" points="297.75,-152.17 293.81,-142.34 290.76,-152.48 297.75,-152.17"/>
</g>
<!-- is_bird&#45;&gt;307 -->
<g id="edge20" class="edge">
<title>is_bird&#45;&gt;307</title>
<path fill="none" stroke="red" stroke-width="1.59" d="M303.34,-178.03C311.4,-169.49 324.55,-155.57 336.13,-143.32"/>
<polygon fill="red" stroke="red" stroke-width="1.59" points="338.75,-145.64 343.07,-135.97 333.66,-140.84 338.75,-145.64"/>
</g>
<!-- is_bird&#45;&gt;310 -->
<g id="edge21" class="edge">
<title>is_bird&#45;&gt;310</title>
<path fill="none" stroke="red" stroke-width="0.11" d="M271.64,-180.03C268.65,-179.34 265.63,-178.67 262.75,-178.07 172.2,-159.16 142.99,-177.99 57.75,-142.07 55.89,-141.28 54.04,-140.38 52.22,-139.4"/>
<polygon fill="red" stroke="red" stroke-width="0.11" points="53.76,-136.23 43.42,-133.94 50.07,-142.18 53.76,-136.23"/>
</g>
<!-- is_bird&#45;&gt;311 -->
<g id="edge22" class="edge">
<title>is_bird&#45;&gt;311</title>
<path fill="none" stroke="red" stroke-width="0.88" d="M272.74,-178.03C251.2,-170.11 218.41,-157.05 191.75,-142.07 190,-141.08 188.22,-140.02 186.46,-138.91"/>
<polygon fill="red" stroke="red" stroke-width="0.88" points="188.07,-135.78 177.81,-133.13 184.18,-141.6 188.07,-135.78"/>
</g>
<!-- is_bird&#45;&gt;312 -->
<g id="edge23" class="edge">
<title>is_bird&#45;&gt;312</title>
<path fill="none" stroke="green" stroke-width="1.34" d="M271.7,-180.13C226.21,-168.86 131.48,-145.22 124.75,-142.07 122.93,-141.21 121.1,-140.26 119.3,-139.23"/>
<polygon fill="green" stroke="green" stroke-width="1.34" points="120.86,-136.07 110.54,-133.66 117.1,-141.98 120.86,-136.07"/>
</g>
<!-- jump -->
<g id="node5" class="node">
<title>jump</title>
<ellipse fill="lightblue" stroke="black" cx="225.75" cy="-28.28" rx="28.07" ry="28.07"/>
<text text-anchor="middle" x="225.75" y="-26.08" font-family="Times,serif" font-size="9.00">jump</text>
</g>
<!-- 305&#45;&gt;jump -->
<g id="edge24" class="edge">
<title>305&#45;&gt;jump</title>
<path fill="none" stroke="green" stroke-width="0.89" d="M225.75,-92.54C225.75,-84.58 225.75,-75.5 225.75,-66.76"/>
<polygon fill="green" stroke="green" stroke-width="0.89" points="229.25,-66.73 225.75,-56.73 222.25,-66.73 229.25,-66.73"/>
</g>
<!-- 306&#45;&gt;jump -->
<g id="edge25" class="edge">
<title>306&#45;&gt;jump</title>
<path fill="none" stroke="green" stroke-width="1.06" d="M277.88,-97C269.34,-85.91 258.43,-71.74 248.81,-59.24"/>
<polygon fill="green" stroke="green" stroke-width="1.06" points="251.58,-57.1 242.7,-51.31 246.03,-61.37 251.58,-57.1"/>
</g>
<!-- 307&#45;&gt;jump -->
<g id="edge26" class="edge">
<title>307&#45;&gt;jump</title>
<path fill="none" stroke="green" stroke-width="1.19" d="M340,-101.79C335.67,-98.7 331.08,-95.48 326.75,-92.57 304.26,-77.45 278.35,-61.24 258.41,-49.01"/>
<polygon fill="green" stroke="green" stroke-width="1.19" points="260.05,-45.92 249.7,-43.69 256.41,-51.89 260.05,-45.92"/>
</g>
<!-- 310&#45;&gt;jump -->
<g id="edge27" class="edge">
<title>310&#45;&gt;jump</title>
<path fill="none" stroke="red" stroke-width="0.61" d="M43.74,-101.36C48.19,-98.23 53.02,-95.1 57.75,-92.57 100.75,-69.52 153.98,-50.99 188.85,-40.08"/>
<polygon fill="red" stroke="red" stroke-width="0.61" points="190.09,-43.36 198.62,-37.07 188.03,-36.67 190.09,-43.36"/>
</g>
<!-- 311&#45;&gt;jump -->
<g id="edge28" class="edge">
<title>311&#45;&gt;jump</title>
<path fill="none" stroke="green" stroke-width="0.88" d="M173.62,-97C182.16,-85.91 193.06,-71.74 202.69,-59.24"/>
<polygon fill="green" stroke="green" stroke-width="0.88" points="205.47,-61.37 208.8,-51.31 199.92,-57.1 205.47,-61.37"/>
</g>
</g>
</svg>
