<?xml version="1.0" encoding="UTF-8" standalone="no"?>
<!DOCTYPE svg PUBLIC "-//W3C//DTD SVG 1.1//EN"
 "http://www.w3.org/Graphics/SVG/1.1/DTD/svg11.dtd">
<!-- Generated by graphviz version 2.43.0 (0)
 -->
<!-- Title: %3 Pages: 1 -->
<svg width="526pt" height="204pt"
 viewBox="0.00 0.00 526.50 204.07" xmlns="http://www.w3.org/2000/svg" xmlns:xlink="http://www.w3.org/1999/xlink">
<g id="graph0" class="graph" transform="scale(1 1) rotate(0) translate(4 200.07)">
<title>%3</title>
<polygon fill="white" stroke="transparent" points="-4,4 -4,-200.07 522.5,-200.07 522.5,4 -4,4"/>
<!-- x_diff -->
<g id="node1" class="node">
<title>x_diff</title>
<polygon fill="lightgray" stroke="black" points="179.75,-196.07 137.75,-196.07 137.75,-178.07 179.75,-178.07 179.75,-196.07"/>
<text text-anchor="middle" x="158.75" y="-184.87" font-family="Times,serif" font-size="9.00">x_diff</text>
</g>
<!-- 809 -->
<g id="node6" class="node">
<title>809</title>
<ellipse fill="white" stroke="black" cx="426.75" cy="-117.32" rx="25" ry="25"/>
<text text-anchor="middle" x="426.75" y="-115.12" font-family="Times,serif" font-size="9.00">809</text>
</g>
<!-- x_diff&#45;&gt;809 -->
<g id="edge1" class="edge">
<title>x_diff&#45;&gt;809</title>
<path fill="none" stroke="green" stroke-width="0.57" d="M180,-180.16C182.93,-179.41 185.91,-178.69 188.75,-178.07 279.08,-158.13 308.5,-177.99 393.75,-142.07 395.6,-141.28 397.45,-140.38 399.28,-139.4"/>
<polygon fill="green" stroke="green" stroke-width="0.57" points="401.42,-142.18 408.08,-133.94 397.74,-136.23 401.42,-142.18"/>
</g>
<!-- 810 -->
<g id="node7" class="node">
<title>810</title>
<ellipse fill="white" stroke="black" cx="493.75" cy="-117.32" rx="25" ry="25"/>
<text text-anchor="middle" x="493.75" y="-115.12" font-family="Times,serif" font-size="9.00">810</text>
</g>
<!-- x_diff&#45;&gt;810 -->
<g id="edge2" class="edge">
<title>x_diff&#45;&gt;810</title>
<path fill="none" stroke="green" stroke-width="0.49" d="M179.97,-180.04C182.91,-179.32 185.89,-178.63 188.75,-178.07 308.35,-154.31 347.4,-187.04 460.75,-142.07 462.62,-141.32 464.48,-140.45 466.31,-139.49"/>
<polygon fill="green" stroke="green" stroke-width="0.49" points="468.44,-142.3 475.14,-134.1 464.78,-136.32 468.44,-142.3"/>
</g>
<!-- 811 -->
<g id="node8" class="node">
<title>811</title>
<ellipse fill="white" stroke="black" cx="91.75" cy="-117.32" rx="25" ry="25"/>
<text text-anchor="middle" x="91.75" y="-115.12" font-family="Times,serif" font-size="9.00">811</text>
</g>
<!-- x_diff&#45;&gt;811 -->
<g id="edge3" class="edge">
<title>x_diff&#45;&gt;811</title>
<path fill="none" stroke="red" stroke-width="0.55" d="M150.8,-178.03C142.25,-169.38 128.22,-155.19 115.98,-142.82"/>
<polygon fill="red" stroke="red" stroke-width="0.55" points="118.18,-140.07 108.66,-135.42 113.2,-144.99 118.18,-140.07"/>
</g>
<!-- 812 -->
<g id="node9" class="node">
<title>812</title>
<ellipse fill="white" stroke="black" cx="158.75" cy="-117.32" rx="25" ry="25"/>
<text text-anchor="middle" x="158.75" y="-115.12" font-family="Times,serif" font-size="9.00">812</text>
</g>
<!-- x_diff&#45;&gt;812 -->
<g id="edge4" class="edge">
<title>x_diff&#45;&gt;812</title>
<path fill="none" stroke="green" stroke-width="0.84" d="M158.75,-178.03C158.75,-171.59 158.75,-162.1 158.75,-152.56"/>
<polygon fill="green" stroke="green" stroke-width="0.84" points="162.25,-152.34 158.75,-142.34 155.25,-152.34 162.25,-152.34"/>
</g>
<!-- 813 -->
<g id="node10" class="node">
<title>813</title>
<ellipse fill="white" stroke="black" cx="24.75" cy="-117.32" rx="25" ry="25"/>
<text text-anchor="middle" x="24.75" y="-115.12" font-family="Times,serif" font-size="9.00">813</text>
</g>
<!-- x_diff&#45;&gt;813 -->
<g id="edge5" class="edge">
<title>x_diff&#45;&gt;813</title>
<path fill="none" stroke="green" stroke-width="0.21" d="M137.62,-178.38C116.74,-170.44 84.18,-157.11 57.75,-142.07 56,-141.07 54.23,-140 52.47,-138.89"/>
<polygon fill="green" stroke="green" stroke-width="0.21" points="54.09,-135.76 43.84,-133.09 50.19,-141.57 54.09,-135.76"/>
</g>
<!-- 814 -->
<g id="node11" class="node">
<title>814</title>
<ellipse fill="white" stroke="black" cx="225.75" cy="-117.32" rx="25" ry="25"/>
<text text-anchor="middle" x="225.75" y="-115.12" font-family="Times,serif" font-size="9.00">814</text>
</g>
<!-- x_diff&#45;&gt;814 -->
<g id="edge6" class="edge">
<title>x_diff&#45;&gt;814</title>
<path fill="none" stroke="red" stroke-width="0.07" d="M166.7,-178.03C175.25,-169.38 189.28,-155.19 201.52,-142.82"/>
<polygon fill="red" stroke="red" stroke-width="0.07" points="204.29,-144.99 208.84,-135.42 199.32,-140.07 204.29,-144.99"/>
</g>
<!-- 815 -->
<g id="node12" class="node">
<title>815</title>
<ellipse fill="white" stroke="black" cx="292.75" cy="-117.32" rx="25" ry="25"/>
<text text-anchor="middle" x="292.75" y="-115.12" font-family="Times,serif" font-size="9.00">815</text>
</g>
<!-- x_diff&#45;&gt;815 -->
<g id="edge7" class="edge">
<title>x_diff&#45;&gt;815</title>
<path fill="none" stroke="green" stroke-width="1.01" d="M179.88,-178.38C200.76,-170.44 233.32,-157.11 259.75,-142.07 261.5,-141.07 263.27,-140 265.03,-138.89"/>
<polygon fill="green" stroke="green" stroke-width="1.01" points="267.31,-141.57 273.66,-133.09 263.41,-135.76 267.31,-141.57"/>
</g>
<!-- 816 -->
<g id="node13" class="node">
<title>816</title>
<ellipse fill="white" stroke="black" cx="359.75" cy="-117.32" rx="25" ry="25"/>
<text text-anchor="middle" x="359.75" y="-115.12" font-family="Times,serif" font-size="9.00">816</text>
</g>
<!-- x_diff&#45;&gt;816 -->
<g id="edge8" class="edge">
<title>x_diff&#45;&gt;816</title>
<path fill="none" stroke="red" stroke-width="1.85" d="M180.05,-180.37C182.97,-179.59 185.93,-178.81 188.75,-178.07 250.04,-161.9 269.39,-169.04 326.75,-142.07 328.57,-141.21 330.39,-140.25 332.2,-139.22"/>
<polygon fill="red" stroke="red" stroke-width="1.85" points="334.4,-141.97 340.95,-133.64 330.63,-136.07 334.4,-141.97"/>
</g>
<!-- object_y -->
<g id="node2" class="node">
<title>object_y</title>
<polygon fill="lightgray" stroke="black" points="253.25,-196.07 198.25,-196.07 198.25,-178.07 253.25,-178.07 253.25,-196.07"/>
<text text-anchor="middle" x="225.75" y="-184.87" font-family="Times,serif" font-size="9.00">object_y</text>
</g>
<!-- object_y&#45;&gt;809 -->
<g id="edge9" class="edge">
<title>object_y&#45;&gt;809</title>
<path fill="none" stroke="red" stroke-width="1.06" d="M253.52,-180.09C294.48,-171.06 368.92,-153.75 393.75,-142.07 395.57,-141.21 397.39,-140.25 399.2,-139.22"/>
<polygon fill="red" stroke="red" stroke-width="1.06" points="401.4,-141.97 407.95,-133.64 397.63,-136.07 401.4,-141.97"/>
</g>
<!-- object_y&#45;&gt;810 -->
<g id="edge10" class="edge">
<title>object_y&#45;&gt;810</title>
<path fill="none" stroke="red" stroke-width="0.69" d="M253.61,-179.94C256.69,-179.29 259.78,-178.66 262.75,-178.07 350.47,-160.61 378.43,-177.05 460.75,-142.07 462.6,-141.28 464.45,-140.37 466.27,-139.38"/>
<polygon fill="red" stroke="red" stroke-width="0.69" points="468.42,-142.17 475.07,-133.92 464.73,-136.22 468.42,-142.17"/>
</g>
<!-- object_y&#45;&gt;811 -->
<g id="edge11" class="edge">
<title>object_y&#45;&gt;811</title>
<path fill="none" stroke="red" stroke-width="0.71" d="M203.43,-177.92C182.51,-169.93 150.68,-156.82 124.75,-142.07 123,-141.07 121.23,-140 119.47,-138.89"/>
<polygon fill="red" stroke="red" stroke-width="0.71" points="121.09,-135.76 110.84,-133.09 117.19,-141.57 121.09,-135.76"/>
</g>
<!-- object_y&#45;&gt;812 -->
<g id="edge12" class="edge">
<title>object_y&#45;&gt;812</title>
<path fill="none" stroke="green" stroke-width="2.27" d="M217.8,-178.03C209.25,-169.38 195.22,-155.19 182.98,-142.82"/>
<polygon fill="green" stroke="green" stroke-width="2.27" points="185.18,-140.07 175.66,-135.42 180.2,-144.99 185.18,-140.07"/>
</g>
<!-- object_y&#45;&gt;813 -->
<g id="edge13" class="edge">
<title>object_y&#45;&gt;813</title>
<path fill="none" stroke="green" stroke-width="0.41" d="M197.97,-180.09C157.01,-171.06 82.57,-153.75 57.75,-142.07 55.93,-141.21 54.1,-140.25 52.3,-139.22"/>
<polygon fill="green" stroke="green" stroke-width="0.41" points="53.87,-136.07 43.55,-133.64 50.1,-141.97 53.87,-136.07"/>
</g>
<!-- object_y&#45;&gt;814 -->
<g id="edge14" class="edge">
<title>object_y&#45;&gt;814</title>
<path fill="none" stroke="red" stroke-width="0.57" d="M225.75,-178.03C225.75,-171.59 225.75,-162.1 225.75,-152.56"/>
<polygon fill="red" stroke="red" stroke-width="0.57" points="229.25,-152.34 225.75,-142.34 222.25,-152.34 229.25,-152.34"/>
</g>
<!-- object_y&#45;&gt;815 -->
<g id="edge15" class="edge">
<title>object_y&#45;&gt;815</title>
<path fill="none" stroke="red" stroke-width="0.63" d="M233.7,-178.03C242.25,-169.38 256.28,-155.19 268.52,-142.82"/>
<polygon fill="red" stroke="red" stroke-width="0.63" points="271.29,-144.99 275.84,-135.42 266.32,-140.07 271.29,-144.99"/>
</g>
<!-- object_y&#45;&gt;816 -->
<g id="edge16" class="edge">
<title>object_y&#45;&gt;816</title>
<path fill="none" stroke="red" stroke-width="0.02" d="M248.07,-177.92C268.98,-169.93 300.82,-156.82 326.75,-142.07 328.5,-141.07 330.27,-140 332.03,-138.89"/>
<polygon fill="red" stroke="red" stroke-width="0.02" points="334.31,-141.57 340.66,-133.09 330.41,-135.76 334.31,-141.57"/>
</g>
<!-- object_height -->
<g id="node3" class="node">
<title>object_height</title>
<polygon fill="lightgray" stroke="black" points="351.75,-196.07 271.75,-196.07 271.75,-178.07 351.75,-178.07 351.75,-196.07"/>
<text text-anchor="middle" x="311.75" y="-184.87" font-family="Times,serif" font-size="9.00">object_height</text>
</g>
<!-- object_height&#45;&gt;809 -->
<g id="edge17" class="edge">
<title>object_height&#45;&gt;809</title>
<path fill="none" stroke="red" stroke-width="0.42" d="M328.44,-177.92C345.27,-169.52 371.82,-155.76 393.75,-142.07 395.41,-141.03 397.1,-139.94 398.79,-138.82"/>
<polygon fill="red" stroke="red" stroke-width="0.42" points="400.89,-141.62 407.14,-133.07 396.92,-135.85 400.89,-141.62"/>
</g>
<!-- object_height&#45;&gt;810 -->
<g id="edge18" class="edge">
<title>object_height&#45;&gt;810</title>
<path fill="none" stroke="red" stroke-width="1.64" d="M352,-178.05C382.79,-171.02 425.75,-159.21 460.75,-142.07 462.56,-141.18 464.37,-140.2 466.16,-139.15"/>
<polygon fill="red" stroke="red" stroke-width="1.64" points="468.38,-141.89 474.89,-133.53 464.59,-136 468.38,-141.89"/>
</g>
<!-- object_height&#45;&gt;811 -->
<g id="edge19" class="edge">
<title>object_height&#45;&gt;811</title>
<path fill="none" stroke="green" stroke-width="0.18" d="M271.35,-178.48C224.55,-169.36 150.55,-153.82 124.75,-142.07 122.92,-141.23 121.09,-140.29 119.28,-139.27"/>
<polygon fill="green" stroke="green" stroke-width="0.18" points="120.83,-136.12 110.51,-133.73 117.09,-142.03 120.83,-136.12"/>
</g>
<!-- object_height&#45;&gt;812 -->
<g id="edge20" class="edge">
<title>object_height&#45;&gt;812</title>
<path fill="none" stroke="green" stroke-width="1.54" d="M283.18,-178.01C258.26,-170.42 221.55,-157.87 191.75,-142.07 189.97,-141.12 188.18,-140.1 186.4,-139.02"/>
<polygon fill="green" stroke="green" stroke-width="1.54" points="188,-135.88 177.72,-133.3 184.15,-141.72 188,-135.88"/>
</g>
<!-- object_height&#45;&gt;813 -->
<g id="edge21" class="edge">
<title>object_height&#45;&gt;813</title>
<path fill="none" stroke="red" stroke-width="0.18" d="M271.62,-179.35C201.28,-167.55 62.67,-144.13 57.75,-142.07 55.89,-141.29 54.04,-140.39 52.22,-139.4"/>
<polygon fill="red" stroke="red" stroke-width="0.18" points="53.76,-136.24 43.41,-133.95 50.07,-142.19 53.76,-136.24"/>
</g>
<!-- object_height&#45;&gt;814 -->
<g id="edge22" class="edge">
<title>object_height&#45;&gt;814</title>
<path fill="none" stroke="green" stroke-width="0.98" d="M301.55,-178.03C289.65,-168.66 269.5,-152.79 252.97,-139.76"/>
<polygon fill="green" stroke="green" stroke-width="0.98" points="254.74,-136.7 244.72,-133.26 250.41,-142.2 254.74,-136.7"/>
</g>
<!-- object_height&#45;&gt;815 -->
<g id="edge23" class="edge">
<title>object_height&#45;&gt;815</title>
<path fill="none" stroke="green" stroke-width="0.71" d="M309.49,-178.03C307.61,-171.3 304.78,-161.22 301.98,-151.25"/>
<polygon fill="green" stroke="green" stroke-width="0.71" points="305.3,-150.13 299.23,-141.44 298.56,-152.02 305.3,-150.13"/>
</g>
<!-- object_height&#45;&gt;816 -->
<g id="edge24" class="edge">
<title>object_height&#45;&gt;816</title>
<path fill="none" stroke="red" stroke-width="0.16" d="M317.44,-178.03C322.98,-170.21 331.73,-157.86 339.84,-146.42"/>
<polygon fill="red" stroke="red" stroke-width="0.16" points="342.92,-148.12 345.85,-137.94 337.21,-144.08 342.92,-148.12"/>
</g>
<!-- is_bird -->
<g id="node4" class="node">
<title>is_bird</title>
<polygon fill="lightgray" stroke="black" points="417.75,-196.07 369.75,-196.07 369.75,-178.07 417.75,-178.07 417.75,-196.07"/>
<text text-anchor="middle" x="393.75" y="-184.87" font-family="Times,serif" font-size="9.00">is_bird</text>
</g>
<!-- is_bird&#45;&gt;809 -->
<g id="edge25" class="edge">
<title>is_bird&#45;&gt;809</title>
<path fill="none" stroke="green" stroke-width="1.09" d="M397.66,-178.03C401.18,-170.82 406.56,-159.76 411.75,-149.11"/>
<polygon fill="green" stroke="green" stroke-width="1.09" points="414.97,-150.49 416.2,-139.97 408.68,-147.42 414.97,-150.49"/>
</g>
<!-- is_bird&#45;&gt;810 -->
<g id="edge26" class="edge">
<title>is_bird&#45;&gt;810</title>
<path fill="none" stroke="green" stroke-width="0.97" d="M406.7,-177.79C420.28,-169.07 442.17,-154.84 460.75,-142.07 462.36,-140.96 464.01,-139.81 465.68,-138.64"/>
<polygon fill="green" stroke="green" stroke-width="0.97" points="467.82,-141.41 473.95,-132.77 463.77,-135.7 467.82,-141.41"/>
</g>
<!-- is_bird&#45;&gt;811 -->
<g id="edge27" class="edge">
<title>is_bird&#45;&gt;811</title>
<path fill="none" stroke="red" stroke-width="1.16" d="M369.65,-179.97C366.66,-179.29 363.64,-178.64 360.75,-178.07 256.65,-157.55 222.98,-182.17 124.75,-142.07 122.89,-141.31 121.03,-140.42 119.2,-139.45"/>
<polygon fill="red" stroke="red" stroke-width="1.16" points="120.74,-136.28 110.38,-134.02 117.07,-142.24 120.74,-136.28"/>
</g>
<!-- is_bird&#45;&gt;812 -->
<g id="edge28" class="edge">
<title>is_bird&#45;&gt;812</title>
<path fill="none" stroke="green" stroke-width="0.98" d="M369.62,-180.13C366.63,-179.42 363.62,-178.72 360.75,-178.07 285.87,-161.02 261.97,-173.16 191.75,-142.07 189.91,-141.25 188.07,-140.32 186.25,-139.32"/>
<polygon fill="green" stroke="green" stroke-width="0.98" points="187.81,-136.16 177.48,-133.81 184.08,-142.09 187.81,-136.16"/>
</g>
<!-- is_bird&#45;&gt;814 -->
<g id="edge29" class="edge">
<title>is_bird&#45;&gt;814</title>
<path fill="none" stroke="red" stroke-width="1.27" d="M369.52,-179.15C336.26,-169.48 278.37,-152.02 258.75,-142.07 256.95,-141.16 255.15,-140.15 253.36,-139.09"/>
<polygon fill="red" stroke="red" stroke-width="1.27" points="254.95,-135.95 244.65,-133.43 251.13,-141.82 254.95,-135.95"/>
</g>
<!-- is_bird&#45;&gt;815 -->
<g id="edge30" class="edge">
<title>is_bird&#45;&gt;815</title>
<path fill="none" stroke="green" stroke-width="0.76" d="M380.84,-177.98C367.07,-169.29 344.68,-154.99 325.75,-142.07 324.13,-140.96 322.48,-139.82 320.81,-138.66"/>
<polygon fill="green" stroke="green" stroke-width="0.76" points="322.71,-135.71 312.53,-132.79 318.67,-141.43 322.71,-135.71"/>
</g>
<!-- is_bird&#45;&gt;816 -->
<g id="edge31" class="edge">
<title>is_bird&#45;&gt;816</title>
<path fill="none" stroke="green" stroke-width="0.02" d="M389.71,-178.03C386.07,-170.76 380.46,-159.59 375.08,-148.87"/>
<polygon fill="green" stroke="green" stroke-width="0.02" points="378.08,-147.04 370.47,-139.67 371.82,-150.18 378.08,-147.04"/>
</g>
<!-- jump -->
<g id="node5" class="node">
<title>jump</title>
<ellipse fill="lightblue" stroke="black" cx="258.75" cy="-28.28" rx="28.07" ry="28.07"/>
<text text-anchor="middle" x="258.75" y="-26.08" font-family="Times,serif" font-size="9.00">jump</text>
</g>
<!-- 809&#45;&gt;jump -->
<g id="edge32" class="edge">
<title>809&#45;&gt;jump</title>
<path fill="none" stroke="red" stroke-width="1.63" d="M407.26,-101.39C402.91,-98.31 398.25,-95.21 393.75,-92.57 361.2,-73.45 321.94,-55.58 294.16,-43.74"/>
<polygon fill="red" stroke="red" stroke-width="1.63" points="295.42,-40.47 284.85,-39.81 292.7,-46.92 295.42,-40.47"/>
</g>
<!-- 810&#45;&gt;jump -->
<g id="edge33" class="edge">
<title>810&#45;&gt;jump</title>
<path fill="none" stroke="red" stroke-width="0.79" d="M474.86,-101.16C470.4,-98.04 465.55,-94.97 460.75,-92.57 406.36,-65.37 337.88,-46.89 296.26,-37.22"/>
<polygon fill="red" stroke="red" stroke-width="0.79" points="296.8,-33.76 286.28,-34.96 295.25,-40.59 296.8,-33.76"/>
</g>
<!-- 811&#45;&gt;jump -->
<g id="edge34" class="edge">
<title>811&#45;&gt;jump</title>
<path fill="none" stroke="red" stroke-width="0.64" d="M111.25,-101.4C115.59,-98.32 120.25,-95.22 124.75,-92.57 157.07,-73.52 196.04,-55.64 223.6,-43.78"/>
<polygon fill="red" stroke="red" stroke-width="0.64" points="225.02,-46.98 232.85,-39.84 222.28,-40.54 225.02,-46.98"/>
</g>
<!-- 812&#45;&gt;jump -->
<g id="edge35" class="edge">
<title>812&#45;&gt;jump</title>
<path fill="none" stroke="red" stroke-width="0.07" d="M177.09,-100.35C191.82,-87.53 212.78,-69.29 229.77,-54.5"/>
<polygon fill="red" stroke="red" stroke-width="0.07" points="232.51,-56.76 237.75,-47.56 227.91,-51.48 232.51,-56.76"/>
</g>
<!-- 813&#45;&gt;jump -->
<g id="edge36" class="edge">
<title>813&#45;&gt;jump</title>
<path fill="none" stroke="red" stroke-width="0.31" d="M43.64,-101.17C48.1,-98.04 52.95,-94.97 57.75,-92.57 111.72,-65.53 179.63,-47.05 221.08,-37.34"/>
<polygon fill="red" stroke="red" stroke-width="0.31" points="222.06,-40.7 231.03,-35.06 220.5,-33.88 222.06,-40.7"/>
</g>
<!-- 814&#45;&gt;jump -->
<g id="edge37" class="edge">
<title>814&#45;&gt;jump</title>
<path fill="none" stroke="green" stroke-width="1.37" d="M234.25,-93.9C237.63,-84.99 241.6,-74.52 245.35,-64.63"/>
<polygon fill="green" stroke="green" stroke-width="1.37" points="248.72,-65.6 248.99,-55.01 242.18,-63.12 248.72,-65.6"/>
</g>
<!-- 815&#45;&gt;jump -->
<g id="edge38" class="edge">
<title>815&#45;&gt;jump</title>
<path fill="none" stroke="green" stroke-width="1.49" d="M283.99,-93.9C280.51,-84.99 276.42,-74.52 272.56,-64.63"/>
<polygon fill="green" stroke="green" stroke-width="1.49" points="275.7,-63.05 268.8,-55.01 269.18,-65.6 275.7,-63.05"/>
</g>
<!-- 816&#45;&gt;jump -->
<g id="edge39" class="edge">
<title>816&#45;&gt;jump</title>
<path fill="none" stroke="green" stroke-width="0.34" d="M341.22,-100.35C326.21,-87.42 304.79,-68.96 287.55,-54.1"/>
<polygon fill="green" stroke="green" stroke-width="0.34" points="289.81,-51.43 279.95,-47.56 285.24,-56.74 289.81,-51.43"/>
</g>
</g>
</svg>
