<?xml version="1.0" encoding="UTF-8" standalone="no"?>
<!DOCTYPE svg PUBLIC "-//W3C//DTD SVG 1.1//EN"
 "http://www.w3.org/Graphics/SVG/1.1/DTD/svg11.dtd">
<!-- Generated by graphviz version 2.43.0 (0)
 -->
<!-- Title: %3 Pages: 1 -->
<svg width="709pt" height="298pt"
 viewBox="0.00 0.00 708.80 298.05" xmlns="http://www.w3.org/2000/svg" xmlns:xlink="http://www.w3.org/1999/xlink">
<g id="graph0" class="graph" transform="scale(1 1) rotate(0) translate(4 294.05)">
<title>%3</title>
<polygon fill="white" stroke="transparent" points="-4,4 -4,-294.05 704.8,-294.05 704.8,4 -4,4"/>
<!-- x_diff -->
<g id="node1" class="node">
<title>x_diff</title>
<polygon fill="lightgray" stroke="black" points="152.38,-290.05 110.38,-290.05 110.38,-272.05 152.38,-272.05 152.38,-290.05"/>
<text text-anchor="middle" x="131.38" y="-278.85" font-family="Times,serif" font-size="9.00">x_diff</text>
</g>
<!-- 800 -->
<g id="node6" class="node">
<title>800</title>
<ellipse fill="white" stroke="black" cx="313.38" cy="-117.32" rx="25" ry="25"/>
<text text-anchor="middle" x="313.38" y="-115.12" font-family="Times,serif" font-size="9.00">800</text>
</g>
<!-- x_diff&#45;&gt;800 -->
<g id="edge6" class="edge">
<title>x_diff&#45;&gt;800</title>
<path fill="none" stroke="red" stroke-width="0.37" d="M110.23,-275.96C89.39,-270.68 58.66,-259.26 44.38,-236.05 30.88,-214.1 27.79,-197.79 44.38,-178.07 74.44,-142.33 206.37,-154.47 251.38,-142.07 261.36,-139.31 271.97,-135.57 281.54,-131.87"/>
<polygon fill="red" stroke="red" stroke-width="0.37" points="283.07,-135.03 291.06,-128.07 280.47,-128.53 283.07,-135.03"/>
</g>
<!-- 793 -->
<g id="node9" class="node">
<title>793</title>
<ellipse fill="white" stroke="black" cx="366.38" cy="-207.06" rx="25" ry="25"/>
<text text-anchor="middle" x="366.38" y="-204.86" font-family="Times,serif" font-size="9.00">793</text>
</g>
<!-- x_diff&#45;&gt;793 -->
<g id="edge1" class="edge">
<title>x_diff&#45;&gt;793</title>
<path fill="none" stroke="green" stroke-width="1.79" d="M152.44,-275.13C183.7,-267.66 244.12,-252.55 294.38,-236.05 307.65,-231.69 322.05,-226.25 334.45,-221.32"/>
<polygon fill="green" stroke="green" stroke-width="1.79" points="335.94,-224.49 343.91,-217.51 333.32,-218 335.94,-224.49"/>
</g>
<!-- 795 -->
<g id="node10" class="node">
<title>795</title>
<ellipse fill="white" stroke="black" cx="548.38" cy="-207.06" rx="25" ry="25"/>
<text text-anchor="middle" x="548.38" y="-204.86" font-family="Times,serif" font-size="9.00">795</text>
</g>
<!-- x_diff&#45;&gt;795 -->
<g id="edge2" class="edge">
<title>x_diff&#45;&gt;795</title>
<path fill="none" stroke="green" stroke-width="0.58" d="M152.72,-279.14C207.35,-276.41 356.41,-266.53 476.38,-236.05 489.92,-232.61 504.36,-227.33 516.73,-222.29"/>
<polygon fill="green" stroke="green" stroke-width="0.58" points="518.28,-225.43 526.15,-218.33 515.57,-218.98 518.28,-225.43"/>
</g>
<!-- 796 -->
<g id="node11" class="node">
<title>796</title>
<ellipse fill="white" stroke="black" cx="78.38" cy="-207.06" rx="25" ry="25"/>
<text text-anchor="middle" x="78.38" y="-204.86" font-family="Times,serif" font-size="9.00">796</text>
</g>
<!-- x_diff&#45;&gt;796 -->
<g id="edge3" class="edge">
<title>x_diff&#45;&gt;796</title>
<path fill="none" stroke="red" stroke-width="0.35" d="M125.3,-271.79C118.83,-263 108.25,-248.62 98.77,-235.74"/>
<polygon fill="red" stroke="red" stroke-width="0.35" points="101.5,-233.55 92.75,-227.57 95.86,-237.7 101.5,-233.55"/>
</g>
<!-- 797 -->
<g id="node12" class="node">
<title>797</title>
<ellipse fill="white" stroke="black" cx="217.38" cy="-117.32" rx="25" ry="25"/>
<text text-anchor="middle" x="217.38" y="-115.12" font-family="Times,serif" font-size="9.00">797</text>
</g>
<!-- x_diff&#45;&gt;797 -->
<g id="edge4" class="edge">
<title>x_diff&#45;&gt;797</title>
<path fill="none" stroke="green" stroke-width="1.43" d="M110.1,-279.22C82.08,-276.86 33.74,-268.07 11.38,-236.05 -3.37,-214.92 -4.09,-198.67 11.38,-178.07 31.98,-150.64 129.61,-131.75 182.74,-123.31"/>
<polygon fill="green" stroke="green" stroke-width="1.43" points="183.39,-126.75 192.73,-121.76 182.31,-119.83 183.39,-126.75"/>
</g>
<!-- 799 -->
<g id="node14" class="node">
<title>799</title>
<ellipse fill="white" stroke="black" cx="184.38" cy="-207.06" rx="25" ry="25"/>
<text text-anchor="middle" x="184.38" y="-204.86" font-family="Times,serif" font-size="9.00">799</text>
</g>
<!-- x_diff&#45;&gt;799 -->
<g id="edge5" class="edge">
<title>x_diff&#45;&gt;799</title>
<path fill="none" stroke="green" stroke-width="0.04" d="M137.46,-271.79C143.93,-263 154.52,-248.62 164,-235.74"/>
<polygon fill="green" stroke="green" stroke-width="0.04" points="166.91,-237.7 170.02,-227.57 161.27,-233.55 166.91,-237.7"/>
</g>
<!-- object_y -->
<g id="node2" class="node">
<title>object_y</title>
<polygon fill="lightgray" stroke="black" points="323.88,-290.05 268.88,-290.05 268.88,-272.05 323.88,-272.05 323.88,-290.05"/>
<text text-anchor="middle" x="296.38" y="-278.85" font-family="Times,serif" font-size="9.00">object_y</text>
</g>
<!-- object_y&#45;&gt;800 -->
<g id="edge12" class="edge">
<title>object_y&#45;&gt;800</title>
<path fill="none" stroke="green" stroke-width="0.43" d="M297.25,-271.81C299.53,-250.09 305.81,-190.38 309.83,-152.15"/>
<polygon fill="green" stroke="green" stroke-width="0.43" points="313.33,-152.3 310.89,-141.99 306.37,-151.57 313.33,-152.3"/>
</g>
<!-- 1057 -->
<g id="node7" class="node">
<title>1057</title>
<ellipse fill="white" stroke="black" cx="438.38" cy="-207.06" rx="28.98" ry="28.98"/>
<text text-anchor="middle" x="438.38" y="-204.86" font-family="Times,serif" font-size="9.00">1057</text>
</g>
<!-- object_y&#45;&gt;1057 -->
<g id="edge30" class="edge">
<title>object_y&#45;&gt;1057</title>
<path fill="none" stroke="green" stroke-width="1.97" d="M319.84,-271.93C341.42,-264.04 373.97,-251.08 400.38,-236.05 402.69,-234.74 405.02,-233.31 407.33,-231.81"/>
<polygon fill="green" stroke="green" stroke-width="1.97" points="409.79,-234.37 416.06,-225.84 405.83,-228.6 409.79,-234.37"/>
</g>
<!-- object_y&#45;&gt;793 -->
<g id="edge7" class="edge">
<title>object_y&#45;&gt;793</title>
<path fill="none" stroke="red" stroke-width="1.63" d="M304.41,-271.79C313.62,-262.32 329.16,-246.34 342.37,-232.75"/>
<polygon fill="red" stroke="red" stroke-width="1.63" points="344.95,-235.12 349.42,-225.51 339.93,-230.24 344.95,-235.12"/>
</g>
<!-- object_y&#45;&gt;795 -->
<g id="edge8" class="edge">
<title>object_y&#45;&gt;795</title>
<path fill="none" stroke="red" stroke-width="0.68" d="M324.04,-273.76C367.08,-263.89 448.08,-244.97 476.38,-236.05 489.71,-231.85 504.11,-226.43 516.5,-221.49"/>
<polygon fill="red" stroke="red" stroke-width="0.68" points="518,-224.66 525.95,-217.65 515.37,-218.17 518,-224.66"/>
</g>
<!-- object_y&#45;&gt;796 -->
<g id="edge9" class="edge">
<title>object_y&#45;&gt;796</title>
<path fill="none" stroke="red" stroke-width="0.11" d="M268.62,-276.57C232.47,-271.3 167.95,-259.35 117.38,-236.05 113.27,-234.15 109.14,-231.8 105.2,-229.27"/>
<polygon fill="red" stroke="red" stroke-width="0.11" points="107.14,-226.36 96.92,-223.56 103.16,-232.12 107.14,-226.36"/>
</g>
<!-- object_y&#45;&gt;797 -->
<g id="edge10" class="edge">
<title>object_y&#45;&gt;797</title>
<path fill="none" stroke="red" stroke-width="0.79" d="M268.61,-280.76C234.44,-279.94 177.62,-272.7 150.38,-236.05 135.01,-215.36 139.84,-201.58 150.38,-178.07 158.09,-160.87 173.46,-146.59 187.54,-136.31"/>
<polygon fill="red" stroke="red" stroke-width="0.79" points="189.81,-138.99 196.06,-130.43 185.84,-133.23 189.81,-138.99"/>
</g>
<!-- object_y&#45;&gt;799 -->
<g id="edge11" class="edge">
<title>object_y&#45;&gt;799</title>
<path fill="none" stroke="green" stroke-width="0.48" d="M280.05,-271.91C263.92,-263.62 238.77,-250.03 218.38,-236.05 215.9,-234.35 213.38,-232.5 210.88,-230.61"/>
<polygon fill="green" stroke="green" stroke-width="0.48" points="212.64,-227.53 202.63,-224.07 208.29,-233.02 212.64,-227.53"/>
</g>
<!-- object_height -->
<g id="node3" class="node">
<title>object_height</title>
<polygon fill="lightgray" stroke="black" points="422.38,-290.05 342.38,-290.05 342.38,-272.05 422.38,-272.05 422.38,-290.05"/>
<text text-anchor="middle" x="382.38" y="-278.85" font-family="Times,serif" font-size="9.00">object_height</text>
</g>
<!-- object_height&#45;&gt;800 -->
<g id="edge18" class="edge">
<title>object_height&#45;&gt;800</title>
<path fill="none" stroke="red" stroke-width="1.53" d="M422.5,-271.9C442.32,-265.64 464.49,-254.75 476.38,-236.05 490.21,-214.3 491.14,-199.19 476.38,-178.07 447.59,-136.85 387.11,-123.98 348.46,-120.01"/>
<polygon fill="red" stroke="red" stroke-width="1.53" points="348.45,-116.5 338.19,-119.11 347.84,-123.47 348.45,-116.5"/>
</g>
<!-- 1215 -->
<g id="node8" class="node">
<title>1215</title>
<ellipse fill="white" stroke="black" cx="256.38" cy="-207.06" rx="28.98" ry="28.98"/>
<text text-anchor="middle" x="256.38" y="-204.86" font-family="Times,serif" font-size="9.00">1215</text>
</g>
<!-- object_height&#45;&gt;1215 -->
<g id="edge34" class="edge">
<title>object_height&#45;&gt;1215</title>
<path fill="none" stroke="green" stroke-width="0.44" d="M367.93,-271.79C349.16,-261.07 315.81,-242.01 290.45,-227.52"/>
<polygon fill="green" stroke="green" stroke-width="0.44" points="291.93,-224.33 281.51,-222.41 288.45,-230.41 291.93,-224.33"/>
</g>
<!-- object_height&#45;&gt;793 -->
<g id="edge13" class="edge">
<title>object_height&#45;&gt;793</title>
<path fill="none" stroke="red" stroke-width="0.42" d="M380.55,-271.79C378.89,-264.33 376.33,-252.82 373.84,-241.63"/>
<polygon fill="red" stroke="red" stroke-width="0.42" points="377.19,-240.57 371.61,-231.57 370.36,-242.09 377.19,-240.57"/>
</g>
<!-- object_height&#45;&gt;795 -->
<g id="edge14" class="edge">
<title>object_height&#45;&gt;795</title>
<path fill="none" stroke="green" stroke-width="0.15" d="M413.42,-272.02C439.79,-264.57 478.2,-252.2 509.38,-236.05 513.21,-234.06 517.09,-231.74 520.83,-229.29"/>
<polygon fill="green" stroke="green" stroke-width="0.15" points="523.03,-232.03 529.26,-223.46 519.04,-226.27 523.03,-232.03"/>
</g>
<!-- object_height&#45;&gt;796 -->
<g id="edge15" class="edge">
<title>object_height&#45;&gt;796</title>
<path fill="none" stroke="red" stroke-width="0.18" d="M342.09,-273.33C285.58,-263.74 185.75,-246.19 150.38,-236.05 136.95,-232.2 122.53,-226.85 110.15,-221.86"/>
<polygon fill="red" stroke="red" stroke-width="0.18" points="111.3,-218.54 100.72,-217.96 108.63,-225.01 111.3,-218.54"/>
</g>
<!-- 798 -->
<g id="node13" class="node">
<title>798</title>
<ellipse fill="white" stroke="black" cx="565.38" cy="-117.32" rx="25" ry="25"/>
<text text-anchor="middle" x="565.38" y="-115.12" font-family="Times,serif" font-size="9.00">798</text>
</g>
<!-- object_height&#45;&gt;798 -->
<g id="edge16" class="edge">
<title>object_height&#45;&gt;798</title>
<path fill="none" stroke="red" stroke-width="1.27" d="M422.58,-277.03C475.1,-272.15 562.72,-260.5 582.38,-236.05 602,-211.64 592.42,-174.85 581.34,-148.9"/>
<polygon fill="red" stroke="red" stroke-width="1.27" points="584.41,-147.19 577.08,-139.53 578.03,-150.08 584.41,-147.19"/>
</g>
<!-- object_height&#45;&gt;799 -->
<g id="edge17" class="edge">
<title>object_height&#45;&gt;799</title>
<path fill="none" stroke="red" stroke-width="0.54" d="M345.37,-272.04C304.15,-262.79 240.4,-247.38 218.38,-236.05 215.62,-234.62 212.87,-232.95 210.21,-231.13"/>
<polygon fill="red" stroke="red" stroke-width="0.54" points="212.16,-228.22 202.07,-225 207.96,-233.81 212.16,-228.22"/>
</g>
<!-- is_bird -->
<g id="node4" class="node">
<title>is_bird</title>
<polygon fill="lightgray" stroke="black" points="663.38,-290.05 615.38,-290.05 615.38,-272.05 663.38,-272.05 663.38,-290.05"/>
<text text-anchor="middle" x="639.38" y="-278.85" font-family="Times,serif" font-size="9.00">is_bird</text>
</g>
<!-- is_bird&#45;&gt;800 -->
<g id="edge23" class="edge">
<title>is_bird&#45;&gt;800</title>
<path fill="none" stroke="red" stroke-width="0.72" d="M644.09,-272.04C654.46,-253.23 676.6,-205.71 653.38,-178.07 633.79,-154.73 430.82,-130.77 348.14,-121.9"/>
<polygon fill="red" stroke="red" stroke-width="0.72" points="348.3,-118.4 337.99,-120.82 347.56,-125.36 348.3,-118.4"/>
</g>
<!-- is_bird&#45;&gt;793 -->
<g id="edge19" class="edge">
<title>is_bird&#45;&gt;793</title>
<path fill="none" stroke="green" stroke-width="1.96" d="M615.11,-279.55C570.53,-277.8 473.45,-270.04 400.38,-236.05 397.4,-234.66 394.46,-232.95 391.64,-231.06"/>
<polygon fill="green" stroke="green" stroke-width="1.96" points="393.67,-228.21 383.56,-225.03 389.47,-233.82 393.67,-228.21"/>
</g>
<!-- is_bird&#45;&gt;795 -->
<g id="edge20" class="edge">
<title>is_bird&#45;&gt;795</title>
<path fill="none" stroke="red" stroke-width="0.23" d="M628.94,-271.79C615.99,-261.54 593.41,-243.68 575.45,-229.47"/>
<polygon fill="red" stroke="red" stroke-width="0.23" points="577.58,-226.7 567.57,-223.24 573.24,-232.19 577.58,-226.7"/>
</g>
<!-- is_bird&#45;&gt;797 -->
<g id="edge21" class="edge">
<title>is_bird&#45;&gt;797</title>
<path fill="none" stroke="red" stroke-width="0.21" d="M637.54,-271.98C632.55,-252.17 616.77,-201.08 582.38,-178.07 469.67,-102.65 411.04,-174.57 279.38,-142.07 269.33,-139.59 258.7,-135.92 249.14,-132.21"/>
<polygon fill="red" stroke="red" stroke-width="0.21" points="250.21,-128.87 239.63,-128.38 247.59,-135.36 250.21,-128.87"/>
</g>
<!-- is_bird&#45;&gt;798 -->
<g id="edge22" class="edge">
<title>is_bird&#45;&gt;798</title>
<path fill="none" stroke="green" stroke-width="0.45" d="M654.91,-271.94C667.35,-264.48 683.92,-252.14 691.38,-236.05 702.23,-212.67 705.16,-199.84 691.38,-178.07 671.41,-146.49 629.74,-131.28 599.78,-124.17"/>
<polygon fill="green" stroke="green" stroke-width="0.45" points="600.24,-120.68 589.73,-121.98 598.75,-127.52 600.24,-120.68"/>
</g>
<!-- jump -->
<g id="node5" class="node">
<title>jump</title>
<ellipse fill="lightblue" stroke="black" cx="339.38" cy="-28.28" rx="28.07" ry="28.07"/>
<text text-anchor="middle" x="339.38" y="-26.08" font-family="Times,serif" font-size="9.00">jump</text>
</g>
<!-- 800&#45;&gt;jump -->
<g id="edge29" class="edge">
<title>800&#45;&gt;jump</title>
<path fill="none" stroke="green" stroke-width="0.45" d="M320.21,-93.45C322.78,-84.85 325.77,-74.86 328.61,-65.35"/>
<polygon fill="green" stroke="green" stroke-width="0.45" points="331.98,-66.28 331.49,-55.7 325.28,-64.28 331.98,-66.28"/>
</g>
<!-- 1057&#45;&gt;798 -->
<g id="edge31" class="edge">
<title>1057&#45;&gt;798</title>
<path fill="none" stroke="green" stroke-width="1.37" d="M461.97,-189.76C483.12,-175.15 514.21,-153.67 536.77,-138.08"/>
<polygon fill="green" stroke="green" stroke-width="1.37" points="539.03,-140.78 545.26,-132.22 535.05,-135.02 539.03,-140.78"/>
</g>
<!-- 1215&#45;&gt;797 -->
<g id="edge35" class="edge">
<title>1215&#45;&gt;797</title>
<path fill="none" stroke="red" stroke-width="0.1" d="M244.89,-180.21C240.6,-170.55 235.68,-159.49 231.21,-149.41"/>
<polygon fill="red" stroke="red" stroke-width="0.1" points="234.34,-147.85 227.08,-140.13 227.94,-150.69 234.34,-147.85"/>
</g>
<!-- 793&#45;&gt;jump -->
<g id="edge24" class="edge">
<title>793&#45;&gt;jump</title>
<path fill="none" stroke="red" stroke-width="3.09" d="M362.74,-182.22C358.21,-152.58 350.44,-101.66 345.11,-66.78"/>
<polygon fill="red" stroke="red" stroke-width="3.09" points="348.51,-65.86 343.54,-56.51 341.59,-66.92 348.51,-65.86"/>
</g>
<!-- 795&#45;&gt;jump -->
<g id="edge25" class="edge">
<title>795&#45;&gt;jump</title>
<path fill="none" stroke="red" stroke-width="1.59" d="M529.84,-190.37C493.34,-159.51 411.99,-90.69 368.35,-53.79"/>
<polygon fill="red" stroke="red" stroke-width="1.59" points="370.56,-51.07 360.66,-47.28 366.04,-56.41 370.56,-51.07"/>
</g>
<!-- 796&#45;&gt;jump -->
<g id="edge26" class="edge">
<title>796&#45;&gt;jump</title>
<path fill="none" stroke="green" stroke-width="0.36" d="M92.29,-186.33C110.66,-161.52 145.18,-118.97 183.38,-92.57 220.42,-66.97 269.38,-49.26 302.5,-39.22"/>
<polygon fill="green" stroke="green" stroke-width="0.36" points="303.63,-42.53 312.23,-36.35 301.65,-35.82 303.63,-42.53"/>
</g>
<!-- 796&#45;&gt;797 -->
<g id="edge32" class="edge">
<title>796&#45;&gt;797</title>
<path fill="none" stroke="red" stroke-width="1.18" d="M98,-191.49C104.13,-187.07 110.97,-182.27 117.38,-178.07 140.41,-162.96 167.22,-147.03 187.29,-135.41"/>
<polygon fill="red" stroke="red" stroke-width="1.18" points="189.08,-138.42 196,-130.4 185.58,-132.36 189.08,-138.42"/>
</g>
<!-- 797&#45;&gt;jump -->
<g id="edge27" class="edge">
<title>797&#45;&gt;jump</title>
<path fill="none" stroke="red" stroke-width="0.43" d="M237.26,-102.14C256.53,-88.39 286.07,-67.32 308.43,-51.37"/>
<polygon fill="red" stroke="red" stroke-width="0.43" points="310.5,-54.19 316.61,-45.53 306.44,-48.49 310.5,-54.19"/>
</g>
<!-- 798&#45;&gt;jump -->
<g id="edge28" class="edge">
<title>798&#45;&gt;jump</title>
<path fill="none" stroke="green" stroke-width="0.03" d="M542.47,-107.49C502.97,-92.28 421.81,-61.03 374.93,-42.97"/>
<polygon fill="green" stroke="green" stroke-width="0.03" points="376.06,-39.66 365.47,-39.33 373.54,-46.19 376.06,-39.66"/>
</g>
<!-- 799&#45;&gt;800 -->
<g id="edge33" class="edge">
<title>799&#45;&gt;800</title>
<path fill="none" stroke="green" stroke-width="0.38" d="M202.75,-190.22C207.72,-186.13 213.17,-181.82 218.38,-178.07 239.43,-162.88 264.29,-147.32 283.3,-135.89"/>
<polygon fill="green" stroke="green" stroke-width="0.38" points="285.33,-138.76 292.12,-130.63 281.74,-132.74 285.33,-138.76"/>
</g>
</g>
</svg>
