<?xml version="1.0" encoding="UTF-8" standalone="no"?>
<!DOCTYPE svg PUBLIC "-//W3C//DTD SVG 1.1//EN"
 "http://www.w3.org/Graphics/SVG/1.1/DTD/svg11.dtd">
<!-- Generated by graphviz version 2.43.0 (0)
 -->
<!-- Title: %3 Pages: 1 -->
<svg width="526pt" height="204pt"
 viewBox="0.00 0.00 526.50 204.07" xmlns="http://www.w3.org/2000/svg" xmlns:xlink="http://www.w3.org/1999/xlink">
<g id="graph0" class="graph" transform="scale(1 1) rotate(0) translate(4 200.07)">
<title>%3</title>
<polygon fill="white" stroke="transparent" points="-4,4 -4,-200.07 522.5,-200.07 522.5,4 -4,4"/>
<!-- x_diff -->
<g id="node1" class="node">
<title>x_diff</title>
<polygon fill="lightgray" stroke="black" points="179.75,-196.07 137.75,-196.07 137.75,-178.07 179.75,-178.07 179.75,-196.07"/>
<text text-anchor="middle" x="158.75" y="-184.87" font-family="Times,serif" font-size="9.00">x_diff</text>
</g>
<!-- 704 -->
<g id="node6" class="node">
<title>704</title>
<ellipse fill="white" stroke="black" cx="24.75" cy="-117.32" rx="25" ry="25"/>
<text text-anchor="middle" x="24.75" y="-115.12" font-family="Times,serif" font-size="9.00">704</text>
</g>
<!-- x_diff&#45;&gt;704 -->
<g id="edge8" class="edge">
<title>x_diff&#45;&gt;704</title>
<path fill="none" stroke="red" stroke-width="0.14" d="M137.62,-178.38C116.74,-170.44 84.18,-157.11 57.75,-142.07 56,-141.07 54.23,-140 52.47,-138.89"/>
<polygon fill="red" stroke="red" stroke-width="0.14" points="54.09,-135.76 43.84,-133.09 50.19,-141.57 54.09,-135.76"/>
</g>
<!-- 697 -->
<g id="node7" class="node">
<title>697</title>
<ellipse fill="white" stroke="black" cx="426.75" cy="-117.32" rx="25" ry="25"/>
<text text-anchor="middle" x="426.75" y="-115.12" font-family="Times,serif" font-size="9.00">697</text>
</g>
<!-- x_diff&#45;&gt;697 -->
<g id="edge1" class="edge">
<title>x_diff&#45;&gt;697</title>
<path fill="none" stroke="green" stroke-width="0.12" d="M180,-180.16C182.93,-179.41 185.91,-178.69 188.75,-178.07 279.08,-158.13 308.5,-177.99 393.75,-142.07 395.6,-141.28 397.45,-140.38 399.28,-139.4"/>
<polygon fill="green" stroke="green" stroke-width="0.12" points="401.42,-142.18 408.08,-133.94 397.74,-136.23 401.42,-142.18"/>
</g>
<!-- 698 -->
<g id="node8" class="node">
<title>698</title>
<ellipse fill="white" stroke="black" cx="493.75" cy="-117.32" rx="25" ry="25"/>
<text text-anchor="middle" x="493.75" y="-115.12" font-family="Times,serif" font-size="9.00">698</text>
</g>
<!-- x_diff&#45;&gt;698 -->
<g id="edge2" class="edge">
<title>x_diff&#45;&gt;698</title>
<path fill="none" stroke="green" stroke-width="1.66" d="M179.97,-180.04C182.91,-179.32 185.89,-178.63 188.75,-178.07 308.35,-154.31 347.4,-187.04 460.75,-142.07 462.62,-141.32 464.48,-140.45 466.31,-139.49"/>
<polygon fill="green" stroke="green" stroke-width="1.66" points="468.44,-142.3 475.14,-134.1 464.78,-136.32 468.44,-142.3"/>
</g>
<!-- 699 -->
<g id="node9" class="node">
<title>699</title>
<ellipse fill="white" stroke="black" cx="91.75" cy="-117.32" rx="25" ry="25"/>
<text text-anchor="middle" x="91.75" y="-115.12" font-family="Times,serif" font-size="9.00">699</text>
</g>
<!-- x_diff&#45;&gt;699 -->
<g id="edge3" class="edge">
<title>x_diff&#45;&gt;699</title>
<path fill="none" stroke="green" stroke-width="1.97" d="M150.8,-178.03C142.25,-169.38 128.22,-155.19 115.98,-142.82"/>
<polygon fill="green" stroke="green" stroke-width="1.97" points="118.18,-140.07 108.66,-135.42 113.2,-144.99 118.18,-140.07"/>
</g>
<!-- 700 -->
<g id="node10" class="node">
<title>700</title>
<ellipse fill="white" stroke="black" cx="158.75" cy="-117.32" rx="25" ry="25"/>
<text text-anchor="middle" x="158.75" y="-115.12" font-family="Times,serif" font-size="9.00">700</text>
</g>
<!-- x_diff&#45;&gt;700 -->
<g id="edge4" class="edge">
<title>x_diff&#45;&gt;700</title>
<path fill="none" stroke="green" stroke-width="0.2" d="M158.75,-178.03C158.75,-171.59 158.75,-162.1 158.75,-152.56"/>
<polygon fill="green" stroke="green" stroke-width="0.2" points="162.25,-152.34 158.75,-142.34 155.25,-152.34 162.25,-152.34"/>
</g>
<!-- 701 -->
<g id="node11" class="node">
<title>701</title>
<ellipse fill="white" stroke="black" cx="225.75" cy="-117.32" rx="25" ry="25"/>
<text text-anchor="middle" x="225.75" y="-115.12" font-family="Times,serif" font-size="9.00">701</text>
</g>
<!-- x_diff&#45;&gt;701 -->
<g id="edge5" class="edge">
<title>x_diff&#45;&gt;701</title>
<path fill="none" stroke="red" stroke-width="0.75" d="M166.7,-178.03C175.25,-169.38 189.28,-155.19 201.52,-142.82"/>
<polygon fill="red" stroke="red" stroke-width="0.75" points="204.29,-144.99 208.84,-135.42 199.32,-140.07 204.29,-144.99"/>
</g>
<!-- 702 -->
<g id="node12" class="node">
<title>702</title>
<ellipse fill="white" stroke="black" cx="292.75" cy="-117.32" rx="25" ry="25"/>
<text text-anchor="middle" x="292.75" y="-115.12" font-family="Times,serif" font-size="9.00">702</text>
</g>
<!-- x_diff&#45;&gt;702 -->
<g id="edge6" class="edge">
<title>x_diff&#45;&gt;702</title>
<path fill="none" stroke="red" stroke-width="0.22" d="M179.88,-178.38C200.76,-170.44 233.32,-157.11 259.75,-142.07 261.5,-141.07 263.27,-140 265.03,-138.89"/>
<polygon fill="red" stroke="red" stroke-width="0.22" points="267.31,-141.57 273.66,-133.09 263.41,-135.76 267.31,-141.57"/>
</g>
<!-- 703 -->
<g id="node13" class="node">
<title>703</title>
<ellipse fill="white" stroke="black" cx="359.75" cy="-117.32" rx="25" ry="25"/>
<text text-anchor="middle" x="359.75" y="-115.12" font-family="Times,serif" font-size="9.00">703</text>
</g>
<!-- x_diff&#45;&gt;703 -->
<g id="edge7" class="edge">
<title>x_diff&#45;&gt;703</title>
<path fill="none" stroke="red" stroke-width="0.96" d="M180.05,-180.37C182.97,-179.59 185.93,-178.81 188.75,-178.07 250.04,-161.9 269.39,-169.04 326.75,-142.07 328.57,-141.21 330.39,-140.25 332.2,-139.22"/>
<polygon fill="red" stroke="red" stroke-width="0.96" points="334.4,-141.97 340.95,-133.64 330.63,-136.07 334.4,-141.97"/>
</g>
<!-- object_y -->
<g id="node2" class="node">
<title>object_y</title>
<polygon fill="lightgray" stroke="black" points="253.25,-196.07 198.25,-196.07 198.25,-178.07 253.25,-178.07 253.25,-196.07"/>
<text text-anchor="middle" x="225.75" y="-184.87" font-family="Times,serif" font-size="9.00">object_y</text>
</g>
<!-- object_y&#45;&gt;704 -->
<g id="edge16" class="edge">
<title>object_y&#45;&gt;704</title>
<path fill="none" stroke="red" stroke-width="0.11" d="M197.97,-180.09C157.01,-171.06 82.57,-153.75 57.75,-142.07 55.93,-141.21 54.1,-140.25 52.3,-139.22"/>
<polygon fill="red" stroke="red" stroke-width="0.11" points="53.87,-136.07 43.55,-133.64 50.1,-141.97 53.87,-136.07"/>
</g>
<!-- object_y&#45;&gt;697 -->
<g id="edge9" class="edge">
<title>object_y&#45;&gt;697</title>
<path fill="none" stroke="red" stroke-width="1.92" d="M253.52,-180.09C294.48,-171.06 368.92,-153.75 393.75,-142.07 395.57,-141.21 397.39,-140.25 399.2,-139.22"/>
<polygon fill="red" stroke="red" stroke-width="1.92" points="401.4,-141.97 407.95,-133.64 397.63,-136.07 401.4,-141.97"/>
</g>
<!-- object_y&#45;&gt;698 -->
<g id="edge10" class="edge">
<title>object_y&#45;&gt;698</title>
<path fill="none" stroke="green" stroke-width="0.18" d="M253.61,-179.94C256.69,-179.29 259.78,-178.66 262.75,-178.07 350.47,-160.61 378.43,-177.05 460.75,-142.07 462.6,-141.28 464.45,-140.37 466.27,-139.38"/>
<polygon fill="green" stroke="green" stroke-width="0.18" points="468.42,-142.17 475.07,-133.92 464.73,-136.22 468.42,-142.17"/>
</g>
<!-- object_y&#45;&gt;699 -->
<g id="edge11" class="edge">
<title>object_y&#45;&gt;699</title>
<path fill="none" stroke="green" stroke-width="0.78" d="M203.43,-177.92C182.51,-169.93 150.68,-156.82 124.75,-142.07 123,-141.07 121.23,-140 119.47,-138.89"/>
<polygon fill="green" stroke="green" stroke-width="0.78" points="121.09,-135.76 110.84,-133.09 117.19,-141.57 121.09,-135.76"/>
</g>
<!-- object_y&#45;&gt;700 -->
<g id="edge12" class="edge">
<title>object_y&#45;&gt;700</title>
<path fill="none" stroke="red" stroke-width="0.01" d="M217.8,-178.03C209.25,-169.38 195.22,-155.19 182.98,-142.82"/>
<polygon fill="red" stroke="red" stroke-width="0.01" points="185.18,-140.07 175.66,-135.42 180.2,-144.99 185.18,-140.07"/>
</g>
<!-- object_y&#45;&gt;701 -->
<g id="edge13" class="edge">
<title>object_y&#45;&gt;701</title>
<path fill="none" stroke="green" stroke-width="0.5" d="M225.75,-178.03C225.75,-171.59 225.75,-162.1 225.75,-152.56"/>
<polygon fill="green" stroke="green" stroke-width="0.5" points="229.25,-152.34 225.75,-142.34 222.25,-152.34 229.25,-152.34"/>
</g>
<!-- object_y&#45;&gt;702 -->
<g id="edge14" class="edge">
<title>object_y&#45;&gt;702</title>
<path fill="none" stroke="green" stroke-width="0.54" d="M233.7,-178.03C242.25,-169.38 256.28,-155.19 268.52,-142.82"/>
<polygon fill="green" stroke="green" stroke-width="0.54" points="271.29,-144.99 275.84,-135.42 266.32,-140.07 271.29,-144.99"/>
</g>
<!-- object_y&#45;&gt;703 -->
<g id="edge15" class="edge">
<title>object_y&#45;&gt;703</title>
<path fill="none" stroke="green" stroke-width="0.01" d="M248.07,-177.92C268.98,-169.93 300.82,-156.82 326.75,-142.07 328.5,-141.07 330.27,-140 332.03,-138.89"/>
<polygon fill="green" stroke="green" stroke-width="0.01" points="334.31,-141.57 340.66,-133.09 330.41,-135.76 334.31,-141.57"/>
</g>
<!-- object_height -->
<g id="node3" class="node">
<title>object_height</title>
<polygon fill="lightgray" stroke="black" points="417.75,-196.07 337.75,-196.07 337.75,-178.07 417.75,-178.07 417.75,-196.07"/>
<text text-anchor="middle" x="377.75" y="-184.87" font-family="Times,serif" font-size="9.00">object_height</text>
</g>
<!-- object_height&#45;&gt;697 -->
<g id="edge17" class="edge">
<title>object_height&#45;&gt;697</title>
<path fill="none" stroke="red" stroke-width="2.2" d="M383.56,-178.03C389.27,-170.13 398.32,-157.62 406.66,-146.09"/>
<polygon fill="red" stroke="red" stroke-width="2.2" points="409.53,-148.1 412.56,-137.94 403.86,-143.99 409.53,-148.1"/>
</g>
<!-- object_height&#45;&gt;698 -->
<g id="edge18" class="edge">
<title>object_height&#45;&gt;698</title>
<path fill="none" stroke="green" stroke-width="1.11" d="M394.66,-177.95C411.7,-169.58 438.58,-155.83 460.75,-142.07 462.41,-141.03 464.1,-139.94 465.8,-138.83"/>
<polygon fill="green" stroke="green" stroke-width="1.11" points="467.9,-141.63 474.16,-133.08 463.93,-135.86 467.9,-141.63"/>
</g>
<!-- object_height&#45;&gt;699 -->
<g id="edge19" class="edge">
<title>object_height&#45;&gt;699</title>
<path fill="none" stroke="green" stroke-width="0.47" d="M337.5,-179.3C267.35,-167.48 129.64,-144.12 124.75,-142.07 122.89,-141.29 121.04,-140.39 119.22,-139.4"/>
<polygon fill="green" stroke="green" stroke-width="0.47" points="120.76,-136.24 110.42,-133.95 117.07,-142.19 120.76,-136.24"/>
</g>
<!-- object_height&#45;&gt;700 -->
<g id="edge20" class="edge">
<title>object_height&#45;&gt;700</title>
<path fill="none" stroke="green" stroke-width="0.42" d="M337.57,-178.47C291.01,-169.34 217.41,-153.77 191.75,-142.07 189.92,-141.23 188.09,-140.29 186.28,-139.27"/>
<polygon fill="green" stroke="green" stroke-width="0.42" points="187.83,-136.11 177.51,-133.73 184.09,-142.03 187.83,-136.11"/>
</g>
<!-- object_height&#45;&gt;701 -->
<g id="edge21" class="edge">
<title>object_height&#45;&gt;701</title>
<path fill="none" stroke="red" stroke-width="0.95" d="M349.42,-177.97C324.72,-170.36 288.31,-157.79 258.75,-142.07 256.97,-141.12 255.18,-140.09 253.41,-139.01"/>
<polygon fill="red" stroke="red" stroke-width="0.95" points="255,-135.87 244.73,-133.29 251.15,-141.72 255,-135.87"/>
</g>
<!-- object_height&#45;&gt;702 -->
<g id="edge22" class="edge">
<title>object_height&#45;&gt;702</title>
<path fill="none" stroke="red" stroke-width="0.28" d="M367.66,-178.03C355.98,-168.72 336.25,-152.99 319.97,-140.01"/>
<polygon fill="red" stroke="red" stroke-width="0.28" points="321.83,-137.02 311.83,-133.53 317.47,-142.5 321.83,-137.02"/>
</g>
<!-- object_height&#45;&gt;703 -->
<g id="edge23" class="edge">
<title>object_height&#45;&gt;703</title>
<path fill="none" stroke="red" stroke-width="0.18" d="M375.61,-178.03C373.83,-171.3 371.15,-161.22 368.5,-151.25"/>
<polygon fill="red" stroke="red" stroke-width="0.18" points="371.84,-150.21 365.89,-141.44 365.08,-152.01 371.84,-150.21"/>
</g>
<!-- is_bird -->
<g id="node4" class="node">
<title>is_bird</title>
<polygon fill="lightgray" stroke="black" points="319.75,-196.07 271.75,-196.07 271.75,-178.07 319.75,-178.07 319.75,-196.07"/>
<text text-anchor="middle" x="295.75" y="-184.87" font-family="Times,serif" font-size="9.00">is_bird</text>
</g>
<!-- is_bird&#45;&gt;704 -->
<g id="edge31" class="edge">
<title>is_bird&#45;&gt;704</title>
<path fill="none" stroke="green" stroke-width="0.13" d="M271.64,-180.22C268.32,-179.46 264.96,-178.73 261.75,-178.07 171.57,-159.52 142.58,-177.85 57.75,-142.07 55.9,-141.28 54.05,-140.38 52.22,-139.4"/>
<polygon fill="green" stroke="green" stroke-width="0.13" points="53.76,-136.23 43.42,-133.94 50.07,-142.18 53.76,-136.23"/>
</g>
<!-- is_bird&#45;&gt;697 -->
<g id="edge24" class="edge">
<title>is_bird&#45;&gt;697</title>
<path fill="none" stroke="red" stroke-width="0.53" d="M317,-177.98C337.27,-169.92 368.38,-156.69 393.75,-142.07 395.49,-141.06 397.26,-139.99 399.01,-138.87"/>
<polygon fill="red" stroke="red" stroke-width="0.53" points="401.3,-141.55 407.64,-133.06 397.39,-135.74 401.3,-141.55"/>
</g>
<!-- is_bird&#45;&gt;698 -->
<g id="edge25" class="edge">
<title>is_bird&#45;&gt;698</title>
<path fill="none" stroke="green" stroke-width="0.48" d="M319.78,-180.17C362.4,-169.64 447.95,-148.12 460.75,-142.07 462.57,-141.21 464.39,-140.24 466.19,-139.21"/>
<polygon fill="green" stroke="green" stroke-width="0.48" points="468.39,-141.96 474.94,-133.62 464.63,-136.06 468.39,-141.96"/>
</g>
<!-- is_bird&#45;&gt;699 -->
<g id="edge26" class="edge">
<title>is_bird&#45;&gt;699</title>
<path fill="none" stroke="green" stroke-width="0.69" d="M271.53,-180.36C227.6,-169.94 138.08,-148.3 124.75,-142.07 122.93,-141.21 121.1,-140.26 119.3,-139.23"/>
<polygon fill="green" stroke="green" stroke-width="0.69" points="120.86,-136.07 110.54,-133.66 117.1,-141.98 120.86,-136.07"/>
</g>
<!-- is_bird&#45;&gt;700 -->
<g id="edge27" class="edge">
<title>is_bird&#45;&gt;700</title>
<path fill="none" stroke="green" stroke-width="0.15" d="M272.74,-178.03C251.2,-170.11 218.41,-157.05 191.75,-142.07 190,-141.08 188.22,-140.02 186.46,-138.91"/>
<polygon fill="green" stroke="green" stroke-width="0.15" points="188.07,-135.78 177.81,-133.13 184.18,-141.6 188.07,-135.78"/>
</g>
<!-- is_bird&#45;&gt;701 -->
<g id="edge28" class="edge">
<title>is_bird&#45;&gt;701</title>
<path fill="none" stroke="green" stroke-width="1.5" d="M287.44,-178.03C278.36,-169.24 263.38,-154.73 250.45,-142.22"/>
<polygon fill="green" stroke="green" stroke-width="1.5" points="252.75,-139.58 243.13,-135.14 247.89,-144.61 252.75,-139.58"/>
</g>
<!-- is_bird&#45;&gt;702 -->
<g id="edge29" class="edge">
<title>is_bird&#45;&gt;702</title>
<path fill="none" stroke="red" stroke-width="0.61" d="M295.39,-178.03C295.11,-171.59 294.69,-162.1 294.26,-152.56"/>
<polygon fill="red" stroke="red" stroke-width="0.61" points="297.75,-152.17 293.81,-142.34 290.76,-152.48 297.75,-152.17"/>
</g>
<!-- is_bird&#45;&gt;703 -->
<g id="edge30" class="edge">
<title>is_bird&#45;&gt;703</title>
<path fill="none" stroke="green" stroke-width="0.28" d="M303.34,-178.03C311.4,-169.49 324.55,-155.57 336.13,-143.32"/>
<polygon fill="green" stroke="green" stroke-width="0.28" points="338.75,-145.64 343.07,-135.97 333.66,-140.84 338.75,-145.64"/>
</g>
<!-- jump -->
<g id="node5" class="node">
<title>jump</title>
<ellipse fill="lightblue" stroke="black" cx="258.75" cy="-28.28" rx="28.07" ry="28.07"/>
<text text-anchor="middle" x="258.75" y="-26.08" font-family="Times,serif" font-size="9.00">jump</text>
</g>
<!-- 704&#45;&gt;jump -->
<g id="edge39" class="edge">
<title>704&#45;&gt;jump</title>
<path fill="none" stroke="red" stroke-width="1.33" d="M43.64,-101.17C48.1,-98.04 52.95,-94.97 57.75,-92.57 111.72,-65.53 179.63,-47.05 221.08,-37.34"/>
<polygon fill="red" stroke="red" stroke-width="1.33" points="222.06,-40.7 231.03,-35.06 220.5,-33.88 222.06,-40.7"/>
</g>
<!-- 697&#45;&gt;jump -->
<g id="edge32" class="edge">
<title>697&#45;&gt;jump</title>
<path fill="none" stroke="red" stroke-width="0.52" d="M407.26,-101.39C402.91,-98.31 398.25,-95.21 393.75,-92.57 361.2,-73.45 321.94,-55.58 294.16,-43.74"/>
<polygon fill="red" stroke="red" stroke-width="0.52" points="295.42,-40.47 284.85,-39.81 292.7,-46.92 295.42,-40.47"/>
</g>
<!-- 698&#45;&gt;jump -->
<g id="edge33" class="edge">
<title>698&#45;&gt;jump</title>
<path fill="none" stroke="red" stroke-width="1.12" d="M474.86,-101.16C470.4,-98.04 465.55,-94.97 460.75,-92.57 406.36,-65.37 337.88,-46.89 296.26,-37.22"/>
<polygon fill="red" stroke="red" stroke-width="1.12" points="296.8,-33.76 286.28,-34.96 295.25,-40.59 296.8,-33.76"/>
</g>
<!-- 699&#45;&gt;jump -->
<g id="edge34" class="edge">
<title>699&#45;&gt;jump</title>
<path fill="none" stroke="red" stroke-width="1.19" d="M111.25,-101.4C115.59,-98.32 120.25,-95.22 124.75,-92.57 157.07,-73.52 196.04,-55.64 223.6,-43.78"/>
<polygon fill="red" stroke="red" stroke-width="1.19" points="225.02,-46.98 232.85,-39.84 222.28,-40.54 225.02,-46.98"/>
</g>
<!-- 700&#45;&gt;jump -->
<g id="edge35" class="edge">
<title>700&#45;&gt;jump</title>
<path fill="none" stroke="red" stroke-width="0.76" d="M177.09,-100.35C191.82,-87.53 212.78,-69.29 229.77,-54.5"/>
<polygon fill="red" stroke="red" stroke-width="0.76" points="232.51,-56.76 237.75,-47.56 227.91,-51.48 232.51,-56.76"/>
</g>
<!-- 701&#45;&gt;jump -->
<g id="edge36" class="edge">
<title>701&#45;&gt;jump</title>
<path fill="none" stroke="red" stroke-width="0.1" d="M234.25,-93.9C237.63,-84.99 241.6,-74.52 245.35,-64.63"/>
<polygon fill="red" stroke="red" stroke-width="0.1" points="248.72,-65.6 248.99,-55.01 242.18,-63.12 248.72,-65.6"/>
</g>
<!-- 702&#45;&gt;jump -->
<g id="edge37" class="edge">
<title>702&#45;&gt;jump</title>
<path fill="none" stroke="green" stroke-width="0.49" d="M283.99,-93.9C280.51,-84.99 276.42,-74.52 272.56,-64.63"/>
<polygon fill="green" stroke="green" stroke-width="0.49" points="275.7,-63.05 268.8,-55.01 269.18,-65.6 275.7,-63.05"/>
</g>
<!-- 703&#45;&gt;jump -->
<g id="edge38" class="edge">
<title>703&#45;&gt;jump</title>
<path fill="none" stroke="green" stroke-width="0.2" d="M341.22,-100.35C326.21,-87.42 304.79,-68.96 287.55,-54.1"/>
<polygon fill="green" stroke="green" stroke-width="0.2" points="289.81,-51.43 279.95,-47.56 285.24,-56.74 289.81,-51.43"/>
</g>
</g>
</svg>
