<?xml version="1.0" encoding="UTF-8" standalone="no"?>
<!DOCTYPE svg PUBLIC "-//W3C//DTD SVG 1.1//EN"
 "http://www.w3.org/Graphics/SVG/1.1/DTD/svg11.dtd">
<!-- Generated by graphviz version 2.43.0 (0)
 -->
<!-- Title: %3 Pages: 1 -->
<svg width="454pt" height="196pt"
 viewBox="0.00 0.00 454.01 195.58" xmlns="http://www.w3.org/2000/svg" xmlns:xlink="http://www.w3.org/1999/xlink">
<g id="graph0" class="graph" transform="scale(1 1) rotate(0) translate(4 191.58)">
<title>%3</title>
<polygon fill="white" stroke="transparent" points="-4,4 -4,-191.58 450.01,-191.58 450.01,4 -4,4"/>
<!-- x_diff -->
<g id="node1" class="node">
<title>x_diff</title>
<polygon fill="lightgray" stroke="black" points="271.51,-187.58 229.51,-187.58 229.51,-169.58 271.51,-169.58 271.51,-187.58"/>
<text text-anchor="middle" x="250.51" y="-176.38" font-family="Times,serif" font-size="9.00">x_diff</text>
</g>
<!-- 9 -->
<g id="node6" class="node">
<title>9</title>
<ellipse fill="white" stroke="black" cx="134.51" cy="-113.07" rx="16.03" ry="16.03"/>
<text text-anchor="middle" x="134.51" y="-110.87" font-family="Times,serif" font-size="9.00">9</text>
</g>
<!-- x_diff&#45;&gt;9 -->
<g id="edge1" class="edge">
<title>x_diff&#45;&gt;9</title>
<path fill="none" stroke="red" stroke-width="0.83" d="M230.7,-169.46C211.83,-161.39 182.9,-148.13 159.51,-133.58 158,-132.64 156.47,-131.63 154.95,-130.57"/>
<polygon fill="red" stroke="red" stroke-width="0.83" points="156.7,-127.51 146.59,-124.34 152.51,-133.12 156.7,-127.51"/>
</g>
<!-- 10 -->
<g id="node7" class="node">
<title>10</title>
<ellipse fill="white" stroke="black" cx="189.51" cy="-113.07" rx="20.51" ry="20.51"/>
<text text-anchor="middle" x="189.51" y="-110.87" font-family="Times,serif" font-size="9.00">10</text>
</g>
<!-- x_diff&#45;&gt;10 -->
<g id="edge2" class="edge">
<title>x_diff&#45;&gt;10</title>
<path fill="none" stroke="red" stroke-width="0.5" d="M242.78,-169.54C234.68,-161.1 221.6,-147.49 210.43,-135.86"/>
<polygon fill="red" stroke="red" stroke-width="0.5" points="212.89,-133.36 203.44,-128.58 207.84,-138.21 212.89,-133.36"/>
</g>
<!-- 11 -->
<g id="node8" class="node">
<title>11</title>
<ellipse fill="white" stroke="black" cx="248.51" cy="-113.07" rx="20.51" ry="20.51"/>
<text text-anchor="middle" x="248.51" y="-110.87" font-family="Times,serif" font-size="9.00">11</text>
</g>
<!-- x_diff&#45;&gt;11 -->
<g id="edge3" class="edge">
<title>x_diff&#45;&gt;11</title>
<path fill="none" stroke="green" stroke-width="0.07" d="M250.25,-169.54C250.05,-162.97 249.74,-153.25 249.44,-143.78"/>
<polygon fill="green" stroke="green" stroke-width="0.07" points="252.94,-143.65 249.13,-133.76 245.94,-143.87 252.94,-143.65"/>
</g>
<!-- 12 -->
<g id="node9" class="node">
<title>12</title>
<ellipse fill="white" stroke="black" cx="307.51" cy="-113.07" rx="20.51" ry="20.51"/>
<text text-anchor="middle" x="307.51" y="-110.87" font-family="Times,serif" font-size="9.00">12</text>
</g>
<!-- x_diff&#45;&gt;12 -->
<g id="edge4" class="edge">
<title>x_diff&#45;&gt;12</title>
<path fill="none" stroke="green" stroke-width="2.37" d="M257.73,-169.54C265.12,-161.29 276.97,-148.1 287.25,-136.64"/>
<polygon fill="green" stroke="green" stroke-width="2.37" points="289.97,-138.85 294.04,-129.07 284.76,-134.18 289.97,-138.85"/>
</g>
<!-- 13 -->
<g id="node10" class="node">
<title>13</title>
<ellipse fill="white" stroke="black" cx="366.51" cy="-113.07" rx="20.51" ry="20.51"/>
<text text-anchor="middle" x="366.51" y="-110.87" font-family="Times,serif" font-size="9.00">13</text>
</g>
<!-- x_diff&#45;&gt;13 -->
<g id="edge5" class="edge">
<title>x_diff&#45;&gt;13</title>
<path fill="none" stroke="green" stroke-width="0.82" d="M268.18,-169.44C286,-161.04 314.14,-147.28 337.51,-133.58 338.81,-132.81 340.14,-132.01 341.48,-131.19"/>
<polygon fill="green" stroke="green" stroke-width="0.82" points="343.67,-133.94 350.17,-125.58 339.87,-128.06 343.67,-133.94"/>
</g>
<!-- 14 -->
<g id="node11" class="node">
<title>14</title>
<ellipse fill="white" stroke="black" cx="425.51" cy="-113.07" rx="20.51" ry="20.51"/>
<text text-anchor="middle" x="425.51" y="-110.87" font-family="Times,serif" font-size="9.00">14</text>
</g>
<!-- x_diff&#45;&gt;14 -->
<g id="edge6" class="edge">
<title>x_diff&#45;&gt;14</title>
<path fill="none" stroke="green" stroke-width="0.81" d="M271.73,-172.02C306.54,-162.77 374.14,-144.18 396.51,-133.58 397.88,-132.93 399.26,-132.22 400.63,-131.47"/>
<polygon fill="green" stroke="green" stroke-width="0.81" points="402.73,-134.3 409.45,-126.11 399.09,-128.31 402.73,-134.3"/>
</g>
<!-- 15 -->
<g id="node12" class="node">
<title>15</title>
<ellipse fill="white" stroke="black" cx="20.51" cy="-113.07" rx="20.51" ry="20.51"/>
<text text-anchor="middle" x="20.51" y="-110.87" font-family="Times,serif" font-size="9.00">15</text>
</g>
<!-- x_diff&#45;&gt;15 -->
<g id="edge7" class="edge">
<title>x_diff&#45;&gt;15</title>
<path fill="none" stroke="green" stroke-width="0.98" d="M229.24,-171.76C226.31,-171 223.34,-170.26 220.51,-169.58 144.96,-151.57 121.05,-163.81 49.51,-133.58 48.11,-132.99 46.71,-132.33 45.32,-131.62"/>
<polygon fill="green" stroke="green" stroke-width="0.98" points="46.83,-128.45 36.44,-126.38 43.27,-134.47 46.83,-128.45"/>
</g>
<!-- 16 -->
<g id="node13" class="node">
<title>16</title>
<ellipse fill="white" stroke="black" cx="79.51" cy="-113.07" rx="20.51" ry="20.51"/>
<text text-anchor="middle" x="79.51" y="-110.87" font-family="Times,serif" font-size="9.00">16</text>
</g>
<!-- x_diff&#45;&gt;16 -->
<g id="edge8" class="edge">
<title>x_diff&#45;&gt;16</title>
<path fill="none" stroke="red" stroke-width="0.8" d="M229.49,-171.79C195.74,-162.36 131.09,-143.73 109.51,-133.58 107.92,-132.84 106.32,-132.02 104.73,-131.15"/>
<polygon fill="red" stroke="red" stroke-width="0.8" points="106.24,-127.98 95.85,-125.85 102.65,-133.99 106.24,-127.98"/>
</g>
<!-- object_y -->
<g id="node2" class="node">
<title>object_y</title>
<polygon fill="lightgray" stroke="black" points="345.01,-187.58 290.01,-187.58 290.01,-169.58 345.01,-169.58 345.01,-187.58"/>
<text text-anchor="middle" x="317.51" y="-176.38" font-family="Times,serif" font-size="9.00">object_y</text>
</g>
<!-- object_y&#45;&gt;9 -->
<g id="edge9" class="edge">
<title>object_y&#45;&gt;9</title>
<path fill="none" stroke="green" stroke-width="0.33" d="M289.72,-171.22C250.82,-162.09 182.32,-145.09 159.51,-133.58 157.74,-132.69 155.97,-131.66 154.24,-130.55"/>
<polygon fill="green" stroke="green" stroke-width="0.33" points="156.21,-127.66 146.07,-124.62 152.1,-133.33 156.21,-127.66"/>
</g>
<!-- object_y&#45;&gt;10 -->
<g id="edge10" class="edge">
<title>object_y&#45;&gt;10</title>
<path fill="none" stroke="green" stroke-width="0.82" d="M296.52,-169.5C276.13,-161.35 244.51,-147.96 218.51,-133.58 217.18,-132.85 215.83,-132.07 214.49,-131.27"/>
<polygon fill="green" stroke="green" stroke-width="0.82" points="216.08,-128.13 205.76,-125.73 212.33,-134.04 216.08,-128.13"/>
</g>
<!-- object_y&#45;&gt;11 -->
<g id="edge11" class="edge">
<title>object_y&#45;&gt;11</title>
<path fill="none" stroke="red" stroke-width="0.99" d="M308.77,-169.54C299.28,-160.8 283.75,-146.51 270.83,-134.62"/>
<polygon fill="red" stroke="red" stroke-width="0.99" points="272.93,-131.8 263.2,-127.6 268.19,-136.95 272.93,-131.8"/>
</g>
<!-- object_y&#45;&gt;12 -->
<g id="edge12" class="edge">
<title>object_y&#45;&gt;12</title>
<path fill="none" stroke="red" stroke-width="0.82" d="M316.24,-169.54C315.2,-162.92 313.65,-153.11 312.15,-143.57"/>
<polygon fill="red" stroke="red" stroke-width="0.82" points="315.58,-142.83 310.56,-133.49 308.66,-143.92 315.58,-142.83"/>
</g>
<!-- object_y&#45;&gt;13 -->
<g id="edge13" class="edge">
<title>object_y&#45;&gt;13</title>
<path fill="none" stroke="green" stroke-width="0.45" d="M323.71,-169.54C329.83,-161.61 339.48,-149.11 348.06,-137.98"/>
<polygon fill="green" stroke="green" stroke-width="0.45" points="351.01,-139.89 354.35,-129.83 345.47,-135.61 351.01,-139.89"/>
</g>
<!-- object_y&#45;&gt;14 -->
<g id="edge14" class="edge">
<title>object_y&#45;&gt;14</title>
<path fill="none" stroke="red" stroke-width="0.2" d="M332.87,-169.52C348.95,-160.97 374.83,-146.88 396.51,-133.58 397.8,-132.79 399.12,-131.96 400.44,-131.12"/>
<polygon fill="red" stroke="red" stroke-width="0.2" points="402.65,-133.86 409.1,-125.46 398.81,-128 402.65,-133.86"/>
</g>
<!-- object_y&#45;&gt;15 -->
<g id="edge15" class="edge">
<title>object_y&#45;&gt;15</title>
<path fill="none" stroke="red" stroke-width="0.15" d="M289.66,-171.38C286.58,-170.75 283.48,-170.13 280.51,-169.58 178.35,-150.59 146.25,-171.48 49.51,-133.58 48.09,-133.03 46.68,-132.4 45.28,-131.71"/>
<polygon fill="red" stroke="red" stroke-width="0.15" points="46.78,-128.53 36.37,-126.55 43.27,-134.59 46.78,-128.53"/>
</g>
<!-- object_y&#45;&gt;16 -->
<g id="edge16" class="edge">
<title>object_y&#45;&gt;16</title>
<path fill="none" stroke="green" stroke-width="2.29" d="M289.63,-171.54C286.55,-170.87 283.46,-170.21 280.51,-169.58 204.55,-153.37 181.28,-163.25 109.51,-133.58 107.89,-132.91 106.26,-132.15 104.65,-131.33"/>
<polygon fill="green" stroke="green" stroke-width="2.29" points="106.13,-128.14 95.72,-126.16 102.62,-134.2 106.13,-128.14"/>
</g>
<!-- object_height -->
<g id="node3" class="node">
<title>object_height</title>
<polygon fill="lightgray" stroke="black" points="145.51,-187.58 65.51,-187.58 65.51,-169.58 145.51,-169.58 145.51,-187.58"/>
<text text-anchor="middle" x="105.51" y="-176.38" font-family="Times,serif" font-size="9.00">object_height</text>
</g>
<!-- object_height&#45;&gt;9 -->
<g id="edge17" class="edge">
<title>object_height&#45;&gt;9</title>
<path fill="none" stroke="green" stroke-width="1.21" d="M109.18,-169.54C112.86,-161.48 118.69,-148.7 123.84,-137.44"/>
<polygon fill="green" stroke="green" stroke-width="1.21" points="127.14,-138.64 128.11,-128.09 120.77,-135.73 127.14,-138.64"/>
</g>
<!-- object_height&#45;&gt;10 -->
<g id="edge18" class="edge">
<title>object_height&#45;&gt;10</title>
<path fill="none" stroke="red" stroke-width="0.04" d="M116.14,-169.54C128.48,-160.22 149.19,-144.56 165.46,-132.25"/>
<polygon fill="red" stroke="red" stroke-width="0.04" points="167.64,-135 173.5,-126.17 163.41,-129.41 167.64,-135"/>
</g>
<!-- object_height&#45;&gt;11 -->
<g id="edge19" class="edge">
<title>object_height&#45;&gt;11</title>
<path fill="none" stroke="red" stroke-width="1.96" d="M131.12,-169.53C154.7,-161.7 190.34,-148.77 219.51,-133.58 220.85,-132.88 222.21,-132.13 223.57,-131.35"/>
<polygon fill="red" stroke="red" stroke-width="1.96" points="225.7,-134.14 232.34,-125.88 222,-128.2 225.7,-134.14"/>
</g>
<!-- object_height&#45;&gt;12 -->
<g id="edge20" class="edge">
<title>object_height&#45;&gt;12</title>
<path fill="none" stroke="green" stroke-width="1.68" d="M143.2,-169.58C186.46,-160.12 254.53,-144.3 278.51,-133.58 279.89,-132.96 281.28,-132.28 282.66,-131.55"/>
<polygon fill="green" stroke="green" stroke-width="1.68" points="284.73,-134.39 291.52,-126.25 281.14,-128.38 284.73,-134.39"/>
</g>
<!-- object_height&#45;&gt;13 -->
<g id="edge21" class="edge">
<title>object_height&#45;&gt;13</title>
<path fill="none" stroke="red" stroke-width="0.61" d="M145.6,-170.88C207.23,-160.45 320.02,-140.77 337.51,-133.58 338.91,-133 340.31,-132.35 341.71,-131.65"/>
<polygon fill="red" stroke="red" stroke-width="0.61" points="343.74,-134.52 350.6,-126.44 340.2,-128.48 343.74,-134.52"/>
</g>
<!-- object_height&#45;&gt;14 -->
<g id="edge22" class="edge">
<title>object_height&#45;&gt;14</title>
<path fill="none" stroke="red" stroke-width="1.79" d="M145.61,-170.99C148.62,-170.51 151.61,-170.03 154.51,-169.58 261.95,-152.82 295.12,-172.89 396.51,-133.58 397.92,-133.03 399.34,-132.41 400.74,-131.72"/>
<polygon fill="red" stroke="red" stroke-width="1.79" points="402.74,-134.6 409.65,-126.57 399.24,-128.54 402.74,-134.6"/>
</g>
<!-- object_height&#45;&gt;15 -->
<g id="edge23" class="edge">
<title>object_height&#45;&gt;15</title>
<path fill="none" stroke="green" stroke-width="0.15" d="M94.74,-169.54C82.26,-160.22 61.31,-144.56 44.84,-132.25"/>
<polygon fill="green" stroke="green" stroke-width="0.15" points="46.81,-129.36 36.7,-126.17 42.62,-134.96 46.81,-129.36"/>
</g>
<!-- object_height&#45;&gt;16 -->
<g id="edge24" class="edge">
<title>object_height&#45;&gt;16</title>
<path fill="none" stroke="green" stroke-width="0.98" d="M102.21,-169.54C99.33,-162.51 94.98,-151.87 90.85,-141.79"/>
<polygon fill="green" stroke="green" stroke-width="0.98" points="94.05,-140.35 87.02,-132.43 87.57,-143.01 94.05,-140.35"/>
</g>
<!-- is_bird -->
<g id="node4" class="node">
<title>is_bird</title>
<polygon fill="lightgray" stroke="black" points="211.51,-187.58 163.51,-187.58 163.51,-169.58 211.51,-169.58 211.51,-187.58"/>
<text text-anchor="middle" x="187.51" y="-176.38" font-family="Times,serif" font-size="9.00">is_bird</text>
</g>
<!-- is_bird&#45;&gt;9 -->
<g id="edge25" class="edge">
<title>is_bird&#45;&gt;9</title>
<path fill="none" stroke="red" stroke-width="0.88" d="M180.79,-169.54C173.37,-160.64 161.13,-145.98 151.11,-133.97"/>
<polygon fill="red" stroke="red" stroke-width="0.88" points="153.7,-131.61 144.6,-126.17 148.32,-136.09 153.7,-131.61"/>
</g>
<!-- is_bird&#45;&gt;10 -->
<g id="edge26" class="edge">
<title>is_bird&#45;&gt;10</title>
<path fill="none" stroke="red" stroke-width="0.11" d="M187.76,-169.54C187.97,-162.97 188.27,-153.25 188.57,-143.78"/>
<polygon fill="red" stroke="red" stroke-width="0.11" points="192.07,-143.87 188.89,-133.76 185.07,-143.65 192.07,-143.87"/>
</g>
<!-- is_bird&#45;&gt;11 -->
<g id="edge27" class="edge">
<title>is_bird&#45;&gt;11</title>
<path fill="none" stroke="red" stroke-width="1.62" d="M195.23,-169.54C203.33,-161.1 216.41,-147.49 227.58,-135.86"/>
<polygon fill="red" stroke="red" stroke-width="1.62" points="230.17,-138.21 234.58,-128.58 225.12,-133.36 230.17,-138.21"/>
</g>
<!-- is_bird&#45;&gt;12 -->
<g id="edge28" class="edge">
<title>is_bird&#45;&gt;12</title>
<path fill="none" stroke="green" stroke-width="1.04" d="M206.03,-169.56C224.7,-161.25 254.16,-147.56 278.51,-133.58 279.82,-132.83 281.16,-132.03 282.5,-131.21"/>
<polygon fill="green" stroke="green" stroke-width="1.04" points="284.67,-133.97 291.2,-125.63 280.89,-128.08 284.67,-133.97"/>
</g>
<!-- is_bird&#45;&gt;13 -->
<g id="edge29" class="edge">
<title>is_bird&#45;&gt;13</title>
<path fill="none" stroke="red" stroke-width="0.65" d="M211.66,-171.46C248.04,-162.08 315.03,-144.13 337.51,-133.58 338.88,-132.94 340.26,-132.23 341.64,-131.49"/>
<polygon fill="red" stroke="red" stroke-width="0.65" points="343.73,-134.31 350.46,-126.13 340.1,-128.32 343.73,-134.31"/>
</g>
<!-- is_bird&#45;&gt;14 -->
<g id="edge30" class="edge">
<title>is_bird&#45;&gt;14</title>
<path fill="none" stroke="green" stroke-width="0.73" d="M211.63,-171.63C214.62,-170.92 217.63,-170.22 220.51,-169.58 298.43,-152.17 322.87,-164.45 396.51,-133.58 397.91,-132.99 399.31,-132.34 400.7,-131.63"/>
<polygon fill="green" stroke="green" stroke-width="0.73" points="402.74,-134.49 409.58,-126.4 399.19,-128.45 402.74,-134.49"/>
</g>
<!-- is_bird&#45;&gt;15 -->
<g id="edge31" class="edge">
<title>is_bird&#45;&gt;15</title>
<path fill="none" stroke="green" stroke-width="0.63" d="M163.34,-170.77C129.5,-161.08 69.82,-143.41 49.51,-133.58 48.14,-132.92 46.76,-132.2 45.39,-131.45"/>
<polygon fill="green" stroke="green" stroke-width="0.63" points="46.94,-128.29 36.58,-126.06 43.29,-134.26 46.94,-128.29"/>
</g>
<!-- is_bird&#45;&gt;16 -->
<g id="edge32" class="edge">
<title>is_bird&#45;&gt;16</title>
<path fill="none" stroke="red" stroke-width="0.86" d="M172.39,-169.42C156.56,-160.79 131.04,-146.64 109.51,-133.58 108.01,-132.67 106.48,-131.73 104.94,-130.77"/>
<polygon fill="red" stroke="red" stroke-width="0.86" points="106.52,-127.62 96.21,-125.2 102.76,-133.53 106.52,-127.62"/>
</g>
<!-- jump -->
<g id="node5" class="node">
<title>jump</title>
<ellipse fill="lightblue" stroke="black" cx="218.51" cy="-28.28" rx="28.07" ry="28.07"/>
<text text-anchor="middle" x="218.51" y="-26.08" font-family="Times,serif" font-size="9.00">jump</text>
</g>
<!-- 9&#45;&gt;jump -->
<g id="edge33" class="edge">
<title>9&#45;&gt;jump</title>
<path fill="none" stroke="red" stroke-width="1.91" d="M145.83,-100.91C157.46,-89.45 175.97,-71.21 191.4,-56"/>
<polygon fill="red" stroke="red" stroke-width="1.91" points="194.02,-58.33 198.68,-48.82 189.1,-53.35 194.02,-58.33"/>
</g>
<!-- 10&#45;&gt;jump -->
<g id="edge34" class="edge">
<title>10&#45;&gt;jump</title>
<path fill="none" stroke="green" stroke-width="1.62" d="M196.09,-93.29C199.04,-84.84 202.64,-74.59 206.07,-64.78"/>
<polygon fill="green" stroke="green" stroke-width="1.62" points="209.42,-65.81 209.42,-55.21 202.81,-63.49 209.42,-65.81"/>
</g>
<!-- 11&#45;&gt;jump -->
<g id="edge35" class="edge">
<title>11&#45;&gt;jump</title>
<path fill="none" stroke="green" stroke-width="0.55" d="M241.7,-93.29C238.64,-84.84 234.92,-74.59 231.37,-64.78"/>
<polygon fill="green" stroke="green" stroke-width="0.55" points="234.6,-63.42 227.9,-55.21 228.02,-65.81 234.6,-63.42"/>
</g>
<!-- 12&#45;&gt;jump -->
<g id="edge36" class="edge">
<title>12&#45;&gt;jump</title>
<path fill="none" stroke="red" stroke-width="1.77" d="M292.81,-98.4C280.28,-86.75 261.92,-69.67 246.58,-55.4"/>
<polygon fill="red" stroke="red" stroke-width="1.77" points="248.59,-52.49 238.89,-48.24 243.82,-57.62 248.59,-52.49"/>
</g>
<!-- 13&#45;&gt;jump -->
<g id="edge37" class="edge">
<title>13&#45;&gt;jump</title>
<path fill="none" stroke="green" stroke-width="1.01" d="M350.13,-100.63C346.06,-97.91 341.67,-95.07 337.51,-92.57 309.52,-75.78 276.7,-58.49 252.63,-46.24"/>
<polygon fill="green" stroke="green" stroke-width="1.01" points="254.04,-43.03 243.53,-41.64 250.88,-49.28 254.04,-43.03"/>
</g>
<!-- 14&#45;&gt;jump -->
<g id="edge38" class="edge">
<title>14&#45;&gt;jump</title>
<path fill="none" stroke="red" stroke-width="0.76" d="M409.38,-100.19C405.3,-97.48 400.84,-94.75 396.51,-92.57 349.79,-69.02 292.19,-50.25 255.4,-39.44"/>
<polygon fill="red" stroke="red" stroke-width="0.76" points="256.18,-36.03 245.6,-36.61 254.24,-42.75 256.18,-36.03"/>
</g>
<!-- 15&#45;&gt;jump -->
<g id="edge39" class="edge">
<title>15&#45;&gt;jump</title>
<path fill="none" stroke="red" stroke-width="1.63" d="M36.66,-100.24C40.74,-97.53 45.19,-94.79 49.51,-92.57 93.24,-70.06 146.9,-51.36 181.86,-40.26"/>
<polygon fill="red" stroke="red" stroke-width="1.63" points="183.14,-43.53 191.63,-37.2 181.04,-36.85 183.14,-43.53"/>
</g>
<!-- 16&#45;&gt;jump -->
<g id="edge40" class="edge">
<title>16&#45;&gt;jump</title>
<path fill="none" stroke="red" stroke-width="1.05" d="M96.23,-100.99C100.53,-98.2 105.17,-95.24 109.51,-92.57 134.62,-77.12 163.5,-60.41 185.22,-48.03"/>
<polygon fill="red" stroke="red" stroke-width="1.05" points="187.09,-50.99 194.05,-43.01 183.63,-44.91 187.09,-50.99"/>
</g>
</g>
</svg>
