<?xml version="1.0" encoding="UTF-8" standalone="no"?>
<!DOCTYPE svg PUBLIC "-//W3C//DTD SVG 1.1//EN"
 "http://www.w3.org/Graphics/SVG/1.1/DTD/svg11.dtd">
<!-- Generated by graphviz version 2.43.0 (0)
 -->
<!-- Title: %3 Pages: 1 -->
<svg width="392pt" height="204pt"
 viewBox="0.00 0.00 392.50 204.07" xmlns="http://www.w3.org/2000/svg" xmlns:xlink="http://www.w3.org/1999/xlink">
<g id="graph0" class="graph" transform="scale(1 1) rotate(0) translate(4 200.07)">
<title>%3</title>
<polygon fill="white" stroke="transparent" points="-4,4 -4,-200.07 388.5,-200.07 388.5,4 -4,4"/>
<!-- x_diff -->
<g id="node1" class="node">
<title>x_diff</title>
<polygon fill="lightgray" stroke="black" points="128.75,-196.07 86.75,-196.07 86.75,-178.07 128.75,-178.07 128.75,-196.07"/>
<text text-anchor="middle" x="107.75" y="-184.87" font-family="Times,serif" font-size="9.00">x_diff</text>
</g>
<!-- 497 -->
<g id="node6" class="node">
<title>497</title>
<ellipse fill="white" stroke="black" cx="225.75" cy="-117.32" rx="25" ry="25"/>
<text text-anchor="middle" x="225.75" y="-115.12" font-family="Times,serif" font-size="9.00">497</text>
</g>
<!-- x_diff&#45;&gt;497 -->
<g id="edge1" class="edge">
<title>x_diff&#45;&gt;497</title>
<path fill="none" stroke="red" stroke-width="2.39" d="M125.09,-178.01C142.55,-169.69 170.09,-155.98 192.75,-142.07 194.42,-141.04 196.11,-139.96 197.81,-138.84"/>
<polygon fill="red" stroke="red" stroke-width="2.39" points="199.9,-141.65 206.18,-133.12 195.95,-135.88 199.9,-141.65"/>
</g>
<!-- 498 -->
<g id="node7" class="node">
<title>498</title>
<ellipse fill="white" stroke="black" cx="292.75" cy="-117.32" rx="25" ry="25"/>
<text text-anchor="middle" x="292.75" y="-115.12" font-family="Times,serif" font-size="9.00">498</text>
</g>
<!-- x_diff&#45;&gt;498 -->
<g id="edge2" class="edge">
<title>x_diff&#45;&gt;498</title>
<path fill="none" stroke="red" stroke-width="0.77" d="M128.97,-180.36C167.9,-169.81 247.86,-147.85 259.75,-142.07 261.56,-141.19 263.37,-140.21 265.17,-139.16"/>
<polygon fill="red" stroke="red" stroke-width="0.77" points="267.38,-141.9 273.9,-133.55 263.6,-136.01 267.38,-141.9"/>
</g>
<!-- 500 -->
<g id="node8" class="node">
<title>500</title>
<ellipse fill="white" stroke="black" cx="359.75" cy="-117.32" rx="25" ry="25"/>
<text text-anchor="middle" x="359.75" y="-115.12" font-family="Times,serif" font-size="9.00">500</text>
</g>
<!-- x_diff&#45;&gt;500 -->
<g id="edge3" class="edge">
<title>x_diff&#45;&gt;500</title>
<path fill="none" stroke="red" stroke-width="1.8" d="M129.01,-180.19C131.94,-179.44 134.91,-178.71 137.75,-178.07 221.11,-159.04 248.19,-175.84 326.75,-142.07 328.6,-141.27 330.44,-140.36 332.26,-139.37"/>
<polygon fill="red" stroke="red" stroke-width="1.8" points="334.42,-142.15 341.06,-133.89 330.72,-136.2 334.42,-142.15"/>
</g>
<!-- 501 -->
<g id="node9" class="node">
<title>501</title>
<ellipse fill="white" stroke="black" cx="91.75" cy="-117.32" rx="25" ry="25"/>
<text text-anchor="middle" x="91.75" y="-115.12" font-family="Times,serif" font-size="9.00">501</text>
</g>
<!-- x_diff&#45;&gt;501 -->
<g id="edge4" class="edge">
<title>x_diff&#45;&gt;501</title>
<path fill="none" stroke="green" stroke-width="0.94" d="M105.85,-178.03C104.27,-171.35 101.92,-161.38 99.58,-151.48"/>
<polygon fill="green" stroke="green" stroke-width="0.94" points="102.99,-150.67 97.28,-141.74 96.17,-152.28 102.99,-150.67"/>
</g>
<!-- 502 -->
<g id="node10" class="node">
<title>502</title>
<ellipse fill="white" stroke="black" cx="158.75" cy="-117.32" rx="25" ry="25"/>
<text text-anchor="middle" x="158.75" y="-115.12" font-family="Times,serif" font-size="9.00">502</text>
</g>
<!-- x_diff&#45;&gt;502 -->
<g id="edge5" class="edge">
<title>x_diff&#45;&gt;502</title>
<path fill="none" stroke="green" stroke-width="1.11" d="M113.8,-178.03C119.79,-170.07 129.3,-157.44 138.03,-145.84"/>
<polygon fill="green" stroke="green" stroke-width="1.11" points="140.97,-147.75 144.19,-137.66 135.38,-143.54 140.97,-147.75"/>
</g>
<!-- 503 -->
<g id="node11" class="node">
<title>503</title>
<ellipse fill="white" stroke="black" cx="24.75" cy="-117.32" rx="25" ry="25"/>
<text text-anchor="middle" x="24.75" y="-115.12" font-family="Times,serif" font-size="9.00">503</text>
</g>
<!-- x_diff&#45;&gt;503 -->
<g id="edge6" class="edge">
<title>x_diff&#45;&gt;503</title>
<path fill="none" stroke="red" stroke-width="0.39" d="M97.9,-178.03C86.57,-168.78 67.47,-153.19 51.63,-140.26"/>
<polygon fill="red" stroke="red" stroke-width="0.39" points="53.67,-137.4 43.71,-133.79 49.24,-142.83 53.67,-137.4"/>
</g>
<!-- object_y -->
<g id="node2" class="node">
<title>object_y</title>
<polygon fill="lightgray" stroke="black" points="300.25,-196.07 245.25,-196.07 245.25,-178.07 300.25,-178.07 300.25,-196.07"/>
<text text-anchor="middle" x="272.75" y="-184.87" font-family="Times,serif" font-size="9.00">object_y</text>
</g>
<!-- object_y&#45;&gt;497 -->
<g id="edge7" class="edge">
<title>object_y&#45;&gt;497</title>
<path fill="none" stroke="green" stroke-width="1.26" d="M267.17,-178.03C261.79,-170.26 253.31,-158.04 245.42,-146.67"/>
<polygon fill="green" stroke="green" stroke-width="1.26" points="248.14,-144.45 239.56,-138.23 242.39,-148.44 248.14,-144.45"/>
</g>
<!-- object_y&#45;&gt;498 -->
<g id="edge8" class="edge">
<title>object_y&#45;&gt;498</title>
<path fill="none" stroke="red" stroke-width="1.21" d="M275.12,-178.03C277.12,-171.25 280.13,-161.06 283.1,-151.02"/>
<polygon fill="red" stroke="red" stroke-width="1.21" points="286.53,-151.73 286.01,-141.15 279.82,-149.75 286.53,-151.73"/>
</g>
<!-- object_y&#45;&gt;500 -->
<g id="edge9" class="edge">
<title>object_y&#45;&gt;500</title>
<path fill="none" stroke="red" stroke-width="2.82" d="M283.07,-178.03C295.11,-168.66 315.48,-152.79 332.21,-139.76"/>
<polygon fill="red" stroke="red" stroke-width="2.82" points="334.82,-142.17 340.56,-133.26 330.52,-136.64 334.82,-142.17"/>
</g>
<!-- object_y&#45;&gt;501 -->
<g id="edge10" class="edge">
<title>object_y&#45;&gt;501</title>
<path fill="none" stroke="green" stroke-width="2.12" d="M244.94,-178.99C208.29,-169.46 145.98,-152.49 124.75,-142.07 122.94,-141.18 121.13,-140.2 119.33,-139.15"/>
<polygon fill="green" stroke="green" stroke-width="2.12" points="120.91,-136 110.61,-133.52 117.12,-141.88 120.91,-136"/>
</g>
<!-- object_y&#45;&gt;502 -->
<g id="edge11" class="edge">
<title>object_y&#45;&gt;502</title>
<path fill="none" stroke="green" stroke-width="2.31" d="M256.58,-178.05C239.98,-169.64 213.57,-155.77 191.75,-142.07 190.09,-141.02 188.4,-139.93 186.71,-138.81"/>
<polygon fill="green" stroke="green" stroke-width="2.31" points="188.58,-135.84 178.36,-133.05 184.61,-141.61 188.58,-135.84"/>
</g>
<!-- object_height -->
<g id="node3" class="node">
<title>object_height</title>
<polygon fill="lightgray" stroke="black" points="226.75,-196.07 146.75,-196.07 146.75,-178.07 226.75,-178.07 226.75,-196.07"/>
<text text-anchor="middle" x="186.75" y="-184.87" font-family="Times,serif" font-size="9.00">object_height</text>
</g>
<!-- object_height&#45;&gt;497 -->
<g id="edge12" class="edge">
<title>object_height&#45;&gt;497</title>
<path fill="none" stroke="green" stroke-width="0.51" d="M191.38,-178.03C195.66,-170.58 202.31,-159.03 208.63,-148.06"/>
<polygon fill="green" stroke="green" stroke-width="0.51" points="211.83,-149.51 213.79,-139.09 205.77,-146.01 211.83,-149.51"/>
</g>
<!-- object_height&#45;&gt;498 -->
<g id="edge13" class="edge">
<title>object_height&#45;&gt;498</title>
<path fill="none" stroke="green" stroke-width="1.37" d="M200.95,-177.96C215.82,-169.38 239.74,-155.27 259.75,-142.07 261.38,-140.99 263.05,-139.86 264.73,-138.72"/>
<polygon fill="green" stroke="green" stroke-width="1.37" points="266.85,-141.5 273.04,-132.9 262.84,-135.77 266.85,-141.5"/>
</g>
<!-- object_height&#45;&gt;500 -->
<g id="edge14" class="edge">
<title>object_height&#45;&gt;500</title>
<path fill="none" stroke="red" stroke-width="0.94" d="M223.06,-178.05C252.07,-170.85 293.26,-158.83 326.75,-142.07 328.55,-141.17 330.35,-140.17 332.15,-139.11"/>
<polygon fill="red" stroke="red" stroke-width="0.94" points="334.37,-141.84 340.86,-133.47 330.57,-135.97 334.37,-141.84"/>
</g>
<!-- object_height&#45;&gt;501 -->
<g id="edge15" class="edge">
<title>object_height&#45;&gt;501</title>
<path fill="none" stroke="green" stroke-width="1.65" d="M175.31,-177.98C162.85,-169.17 142.36,-154.65 124.75,-142.07 123.16,-140.93 121.52,-139.76 119.87,-138.57"/>
<polygon fill="green" stroke="green" stroke-width="1.65" points="121.79,-135.64 111.63,-132.66 117.71,-141.33 121.79,-135.64"/>
</g>
<!-- object_height&#45;&gt;502 -->
<g id="edge16" class="edge">
<title>object_height&#45;&gt;502</title>
<path fill="none" stroke="green" stroke-width="0.51" d="M183.43,-178.03C180.52,-171 176.1,-160.31 171.81,-149.91"/>
<polygon fill="green" stroke="green" stroke-width="0.51" points="174.99,-148.46 167.94,-140.55 168.52,-151.13 174.99,-148.46"/>
</g>
<!-- object_height&#45;&gt;503 -->
<g id="edge17" class="edge">
<title>object_height&#45;&gt;503</title>
<path fill="none" stroke="green" stroke-width="1.73" d="M154.94,-178.05C128.16,-170.65 89.29,-158.34 57.75,-142.07 55.96,-141.14 54.16,-140.13 52.38,-139.06"/>
<polygon fill="green" stroke="green" stroke-width="1.73" points="53.97,-135.92 43.68,-133.38 50.14,-141.78 53.97,-135.92"/>
</g>
<!-- is_bird -->
<g id="node4" class="node">
<title>is_bird</title>
<polygon fill="lightgray" stroke="black" points="366.75,-196.07 318.75,-196.07 318.75,-178.07 366.75,-178.07 366.75,-196.07"/>
<text text-anchor="middle" x="342.75" y="-184.87" font-family="Times,serif" font-size="9.00">is_bird</text>
</g>
<!-- is_bird&#45;&gt;497 -->
<g id="edge18" class="edge">
<title>is_bird&#45;&gt;497</title>
<path fill="none" stroke="red" stroke-width="0.27" d="M325.63,-177.98C308.37,-169.63 281.16,-155.9 258.75,-142.07 257.08,-141.04 255.39,-139.95 253.69,-138.84"/>
<polygon fill="red" stroke="red" stroke-width="0.27" points="255.56,-135.87 245.33,-133.1 251.6,-141.64 255.56,-135.87"/>
</g>
<!-- is_bird&#45;&gt;498 -->
<g id="edge19" class="edge">
<title>is_bird&#45;&gt;498</title>
<path fill="none" stroke="green" stroke-width="0.11" d="M336.82,-178.03C330.95,-170.07 321.62,-157.44 313.06,-145.84"/>
<polygon fill="green" stroke="green" stroke-width="0.11" points="315.78,-143.62 307.02,-137.66 310.14,-147.78 315.78,-143.62"/>
</g>
<!-- is_bird&#45;&gt;500 -->
<g id="edge20" class="edge">
<title>is_bird&#45;&gt;500</title>
<path fill="none" stroke="red" stroke-width="2.79" d="M344.77,-178.03C346.45,-171.3 348.98,-161.22 351.49,-151.25"/>
<polygon fill="red" stroke="red" stroke-width="2.79" points="354.91,-151.99 353.95,-141.44 348.12,-150.29 354.91,-151.99"/>
</g>
<!-- jump -->
<g id="node5" class="node">
<title>jump</title>
<ellipse fill="lightblue" stroke="black" cx="158.75" cy="-28.28" rx="28.07" ry="28.07"/>
<text text-anchor="middle" x="158.75" y="-26.08" font-family="Times,serif" font-size="9.00">jump</text>
</g>
<!-- 497&#45;&gt;jump -->
<g id="edge21" class="edge">
<title>497&#45;&gt;jump</title>
<path fill="none" stroke="green" stroke-width="1.66" d="M210.88,-97C202.34,-85.91 191.43,-71.74 181.81,-59.24"/>
<polygon fill="green" stroke="green" stroke-width="1.66" points="184.58,-57.1 175.7,-51.31 179.03,-61.37 184.58,-57.1"/>
</g>
<!-- 500&#45;&gt;jump -->
<g id="edge22" class="edge">
<title>500&#45;&gt;jump</title>
<path fill="none" stroke="green" stroke-width="0.82" d="M340.76,-101.36C336.31,-98.23 331.48,-95.1 326.75,-92.57 283.74,-69.52 230.51,-50.99 195.64,-40.08"/>
<polygon fill="green" stroke="green" stroke-width="0.82" points="196.47,-36.67 185.88,-37.07 194.41,-43.36 196.47,-36.67"/>
</g>
<!-- 501&#45;&gt;jump -->
<g id="edge23" class="edge">
<title>501&#45;&gt;jump</title>
<path fill="none" stroke="green" stroke-width="0.49" d="M106.62,-97C115.16,-85.91 126.06,-71.74 135.69,-59.24"/>
<polygon fill="green" stroke="green" stroke-width="0.49" points="138.47,-61.37 141.8,-51.31 132.92,-57.1 138.47,-61.37"/>
</g>
<!-- 503&#45;&gt;jump -->
<g id="edge24" class="edge">
<title>503&#45;&gt;jump</title>
<path fill="none" stroke="green" stroke-width="0.92" d="M44.5,-101.79C48.83,-98.7 53.41,-95.48 57.75,-92.57 80.24,-77.45 106.15,-61.24 126.09,-49.01"/>
<polygon fill="green" stroke="green" stroke-width="0.92" points="128.09,-51.89 134.8,-43.69 124.44,-45.92 128.09,-51.89"/>
</g>
</g>
</svg>
