<?xml version="1.0" encoding="UTF-8" standalone="no"?>
<!DOCTYPE svg PUBLIC "-//W3C//DTD SVG 1.1//EN"
 "http://www.w3.org/Graphics/SVG/1.1/DTD/svg11.dtd">
<!-- Generated by graphviz version 2.43.0 (0)
 -->
<!-- Title: %3 Pages: 1 -->
<svg width="407pt" height="298pt"
 viewBox="0.00 0.00 407.50 298.05" xmlns="http://www.w3.org/2000/svg" xmlns:xlink="http://www.w3.org/1999/xlink">
<g id="graph0" class="graph" transform="scale(1 1) rotate(0) translate(4 294.05)">
<title>%3</title>
<polygon fill="white" stroke="transparent" points="-4,4 -4,-294.05 403.5,-294.05 403.5,4 -4,4"/>
<!-- x_diff -->
<g id="node1" class="node">
<title>x_diff</title>
<polygon fill="lightgray" stroke="black" points="179.75,-216.06 137.75,-216.06 137.75,-198.06 179.75,-198.06 179.75,-216.06"/>
<text text-anchor="middle" x="158.75" y="-204.86" font-family="Times,serif" font-size="9.00">x_diff</text>
</g>
<!-- 192 -->
<g id="node5" class="node">
<title>192</title>
<ellipse fill="white" stroke="black" cx="24.75" cy="-117.32" rx="25" ry="25"/>
<text text-anchor="middle" x="24.75" y="-115.12" font-family="Times,serif" font-size="9.00">192</text>
</g>
<!-- x_diff&#45;&gt;192 -->
<g id="edge5" class="edge">
<title>x_diff&#45;&gt;192</title>
<path fill="none" stroke="green" stroke-width="0.37" d="M151.37,-198.05C145.6,-192.06 137.16,-183.94 128.75,-178.07 99.75,-157.8 87.98,-160.45 57.75,-142.07 56.08,-141.05 54.38,-139.97 52.68,-138.86"/>
<polygon fill="green" stroke="green" stroke-width="0.37" points="54.54,-135.89 44.3,-133.14 50.59,-141.67 54.54,-135.89"/>
</g>
<!-- 185 -->
<g id="node7" class="node">
<title>185</title>
<ellipse fill="white" stroke="black" cx="91.75" cy="-117.32" rx="25" ry="25"/>
<text text-anchor="middle" x="91.75" y="-115.12" font-family="Times,serif" font-size="9.00">185</text>
</g>
<!-- x_diff&#45;&gt;185 -->
<g id="edge1" class="edge">
<title>x_diff&#45;&gt;185</title>
<path fill="none" stroke="red" stroke-width="2.04" d="M152.57,-197.96C143.52,-186.11 126.25,-163.5 112.42,-145.39"/>
<polygon fill="red" stroke="red" stroke-width="2.04" points="115.2,-143.26 106.35,-137.44 109.64,-147.51 115.2,-143.26"/>
</g>
<!-- 188 -->
<g id="node8" class="node">
<title>188</title>
<ellipse fill="white" stroke="black" cx="158.75" cy="-117.32" rx="25" ry="25"/>
<text text-anchor="middle" x="158.75" y="-115.12" font-family="Times,serif" font-size="9.00">188</text>
</g>
<!-- x_diff&#45;&gt;188 -->
<g id="edge2" class="edge">
<title>x_diff&#45;&gt;188</title>
<path fill="none" stroke="red" stroke-width="0.47" d="M158.75,-197.96C158.75,-187.56 158.75,-168.86 158.75,-152.2"/>
<polygon fill="red" stroke="red" stroke-width="0.47" points="162.25,-152.18 158.75,-142.18 155.25,-152.18 162.25,-152.18"/>
</g>
<!-- 189 -->
<g id="node9" class="node">
<title>189</title>
<ellipse fill="white" stroke="black" cx="292.75" cy="-117.32" rx="25" ry="25"/>
<text text-anchor="middle" x="292.75" y="-115.12" font-family="Times,serif" font-size="9.00">189</text>
</g>
<!-- x_diff&#45;&gt;189 -->
<g id="edge3" class="edge">
<title>x_diff&#45;&gt;189</title>
<path fill="none" stroke="red" stroke-width="0.03" d="M171.98,-198.02C191.43,-186.12 228.79,-162.99 259.75,-142.07 261.37,-140.97 263.03,-139.83 264.7,-138.67"/>
<polygon fill="red" stroke="red" stroke-width="0.03" points="266.83,-141.45 272.99,-132.83 262.8,-135.73 266.83,-141.45"/>
</g>
<!-- 191 -->
<g id="node11" class="node">
<title>191</title>
<ellipse fill="white" stroke="black" cx="225.75" cy="-117.32" rx="25" ry="25"/>
<text text-anchor="middle" x="225.75" y="-115.12" font-family="Times,serif" font-size="9.00">191</text>
</g>
<!-- x_diff&#45;&gt;191 -->
<g id="edge4" class="edge">
<title>x_diff&#45;&gt;191</title>
<path fill="none" stroke="red" stroke-width="0.26" d="M164.93,-197.96C173.98,-186.11 191.25,-163.5 205.08,-145.39"/>
<polygon fill="red" stroke="red" stroke-width="0.26" points="207.86,-147.51 211.15,-137.44 202.3,-143.26 207.86,-147.51"/>
</g>
<!-- object_y -->
<g id="node2" class="node">
<title>object_y</title>
<polygon fill="lightgray" stroke="black" points="263.25,-290.05 208.25,-290.05 208.25,-272.05 263.25,-272.05 263.25,-290.05"/>
<text text-anchor="middle" x="235.75" y="-278.85" font-family="Times,serif" font-size="9.00">object_y</text>
</g>
<!-- object_y&#45;&gt;192 -->
<g id="edge10" class="edge">
<title>object_y&#45;&gt;192</title>
<path fill="none" stroke="red" stroke-width="0.32" d="M208.17,-278.68C155.01,-275.41 41.53,-265.11 17.75,-236.05 -1.6,-212.41 3.98,-176.33 12.01,-150.35"/>
<polygon fill="red" stroke="red" stroke-width="0.32" points="15.42,-151.18 15.28,-140.59 8.78,-148.96 15.42,-151.18"/>
</g>
<!-- 1384 -->
<g id="node6" class="node">
<title>1384</title>
<ellipse fill="white" stroke="black" cx="264.75" cy="-207.06" rx="28.98" ry="28.98"/>
<text text-anchor="middle" x="264.75" y="-204.86" font-family="Times,serif" font-size="9.00">1384</text>
</g>
<!-- object_y&#45;&gt;1384 -->
<g id="edge20" class="edge">
<title>object_y&#45;&gt;1384</title>
<path fill="none" stroke="red" stroke-width="0.55" d="M239.08,-271.79C241.9,-264.78 246.16,-254.2 250.4,-243.67"/>
<polygon fill="red" stroke="red" stroke-width="0.55" points="253.76,-244.7 254.25,-234.11 247.27,-242.08 253.76,-244.7"/>
</g>
<!-- object_y&#45;&gt;185 -->
<g id="edge6" class="edge">
<title>object_y&#45;&gt;185</title>
<path fill="none" stroke="green" stroke-width="0.46" d="M208.23,-278.3C157.59,-274.45 52.77,-263.3 30.75,-236.05 14.55,-216.01 20.76,-201.82 30.75,-178.07 34.53,-169.07 50.55,-153.53 65.22,-140.55"/>
<polygon fill="green" stroke="green" stroke-width="0.46" points="67.9,-142.87 73.15,-133.67 63.3,-137.58 67.9,-142.87"/>
</g>
<!-- object_y&#45;&gt;188 -->
<g id="edge7" class="edge">
<title>object_y&#45;&gt;188</title>
<path fill="none" stroke="green" stroke-width="1.17" d="M232.06,-271.81C224.26,-254.41 205.4,-212.67 188.75,-178.07 184.14,-168.5 179,-158.13 174.29,-148.77"/>
<polygon fill="green" stroke="green" stroke-width="1.17" points="177.39,-147.15 169.75,-139.8 171.14,-150.31 177.39,-147.15"/>
</g>
<!-- object_y&#45;&gt;189 -->
<g id="edge8" class="edge">
<title>object_y&#45;&gt;189</title>
<path fill="none" stroke="red" stroke-width="0.99" d="M258.19,-271.99C273.78,-265.07 293.36,-253.44 302.75,-236.05 316.96,-209.71 311.73,-175.15 304.59,-150.3"/>
<polygon fill="red" stroke="red" stroke-width="0.99" points="307.9,-149.14 301.58,-140.63 301.21,-151.22 307.9,-149.14"/>
</g>
<!-- 190 -->
<g id="node10" class="node">
<title>190</title>
<ellipse fill="white" stroke="black" cx="374.75" cy="-207.06" rx="25" ry="25"/>
<text text-anchor="middle" x="374.75" y="-204.86" font-family="Times,serif" font-size="9.00">190</text>
</g>
<!-- object_y&#45;&gt;190 -->
<g id="edge9" class="edge">
<title>object_y&#45;&gt;190</title>
<path fill="none" stroke="red" stroke-width="0.63" d="M257.44,-272.02C278.13,-264.01 309.88,-250.81 335.75,-236.05 339.49,-233.91 343.32,-231.49 347.04,-229"/>
<polygon fill="red" stroke="red" stroke-width="0.63" points="349.25,-231.72 355.44,-223.12 345.24,-225.99 349.25,-231.72"/>
</g>
<!-- object_height -->
<g id="node3" class="node">
<title>object_height</title>
<polygon fill="lightgray" stroke="black" points="119.75,-216.06 39.75,-216.06 39.75,-198.06 119.75,-198.06 119.75,-216.06"/>
<text text-anchor="middle" x="79.75" y="-204.86" font-family="Times,serif" font-size="9.00">object_height</text>
</g>
<!-- object_height&#45;&gt;192 -->
<g id="edge14" class="edge">
<title>object_height&#45;&gt;192</title>
<path fill="none" stroke="red" stroke-width="1.6" d="M74.67,-197.96C67.56,-186.62 54.26,-165.4 43.18,-147.72"/>
<polygon fill="red" stroke="red" stroke-width="1.6" points="45.9,-145.47 37.63,-138.86 39.97,-149.19 45.9,-145.47"/>
</g>
<!-- object_height&#45;&gt;185 -->
<g id="edge11" class="edge">
<title>object_height&#45;&gt;185</title>
<path fill="none" stroke="red" stroke-width="0.16" d="M80.86,-197.96C82.28,-187.56 84.84,-168.86 87.11,-152.2"/>
<polygon fill="red" stroke="red" stroke-width="0.16" points="90.6,-152.56 88.49,-142.18 83.66,-151.61 90.6,-152.56"/>
</g>
<!-- object_height&#45;&gt;188 -->
<g id="edge12" class="edge">
<title>object_height&#45;&gt;188</title>
<path fill="none" stroke="green" stroke-width="0.5" d="M87.04,-197.96C98,-185.78 119.21,-162.23 135.73,-143.89"/>
<polygon fill="green" stroke="green" stroke-width="0.5" points="138.39,-146.16 142.48,-136.39 133.18,-141.48 138.39,-146.16"/>
</g>
<!-- object_height&#45;&gt;191 -->
<g id="edge13" class="edge">
<title>object_height&#45;&gt;191</title>
<path fill="none" stroke="green" stroke-width="0.87" d="M93.89,-197.95C103.67,-192.35 116.99,-184.73 128.75,-178.07 157.14,-161.97 165.24,-159.62 192.75,-142.07 194.4,-141.01 196.08,-139.91 197.77,-138.78"/>
<polygon fill="green" stroke="green" stroke-width="0.87" points="199.88,-141.57 206.1,-133 195.89,-135.82 199.88,-141.57"/>
</g>
<!-- jump -->
<g id="node4" class="node">
<title>jump</title>
<ellipse fill="lightblue" stroke="black" cx="225.75" cy="-28.28" rx="28.07" ry="28.07"/>
<text text-anchor="middle" x="225.75" y="-26.08" font-family="Times,serif" font-size="9.00">jump</text>
</g>
<!-- 192&#45;&gt;jump -->
<g id="edge19" class="edge">
<title>192&#45;&gt;jump</title>
<path fill="none" stroke="red" stroke-width="1.46" d="M43.74,-101.36C48.19,-98.23 53.02,-95.1 57.75,-92.57 100.75,-69.52 153.98,-50.99 188.85,-40.08"/>
<polygon fill="red" stroke="red" stroke-width="1.46" points="190.09,-43.36 198.62,-37.07 188.03,-36.67 190.09,-43.36"/>
</g>
<!-- 1384&#45;&gt;191 -->
<g id="edge21" class="edge">
<title>1384&#45;&gt;191</title>
<path fill="none" stroke="green" stroke-width="0.53" d="M253.26,-180.21C248.97,-170.55 244.05,-159.49 239.57,-149.41"/>
<polygon fill="green" stroke="green" stroke-width="0.53" points="242.71,-147.85 235.45,-140.13 236.31,-150.69 242.71,-147.85"/>
</g>
<!-- 185&#45;&gt;jump -->
<g id="edge15" class="edge">
<title>185&#45;&gt;jump</title>
<path fill="none" stroke="green" stroke-width="1.39" d="M111.5,-101.79C115.83,-98.7 120.41,-95.48 124.75,-92.57 147.24,-77.45 173.15,-61.24 193.09,-49.01"/>
<polygon fill="green" stroke="green" stroke-width="1.39" points="195.09,-51.89 201.8,-43.69 191.44,-45.92 195.09,-51.89"/>
</g>
<!-- 189&#45;&gt;jump -->
<g id="edge16" class="edge">
<title>189&#45;&gt;jump</title>
<path fill="none" stroke="red" stroke-width="1.72" d="M277.88,-97C269.34,-85.91 258.43,-71.74 248.81,-59.24"/>
<polygon fill="red" stroke="red" stroke-width="1.72" points="251.58,-57.1 242.7,-51.31 246.03,-61.37 251.58,-57.1"/>
</g>
<!-- 190&#45;&gt;jump -->
<g id="edge17" class="edge">
<title>190&#45;&gt;jump</title>
<path fill="none" stroke="green" stroke-width="0.85" d="M369.3,-182.52C362.64,-157.86 349.36,-119.11 326.75,-92.57 308.86,-71.58 282.23,-55.29 260.8,-44.5"/>
<polygon fill="green" stroke="green" stroke-width="0.85" points="262.2,-41.29 251.67,-40.07 259.14,-47.58 262.2,-41.29"/>
</g>
<!-- 191&#45;&gt;jump -->
<g id="edge18" class="edge">
<title>191&#45;&gt;jump</title>
<path fill="none" stroke="green" stroke-width="0.86" d="M225.75,-92.54C225.75,-84.58 225.75,-75.5 225.75,-66.76"/>
<polygon fill="green" stroke="green" stroke-width="0.86" points="229.25,-66.73 225.75,-56.73 222.25,-66.73 229.25,-66.73"/>
</g>
</g>
</svg>
