<?xml version="1.0" encoding="UTF-8" standalone="no"?>
<!DOCTYPE svg PUBLIC "-//W3C//DTD SVG 1.1//EN"
 "http://www.w3.org/Graphics/SVG/1.1/DTD/svg11.dtd">
<!-- Generated by graphviz version 2.43.0 (0)
 -->
<!-- Title: %3 Pages: 1 -->
<svg width="526pt" height="298pt"
 viewBox="0.00 0.00 526.50 298.05" xmlns="http://www.w3.org/2000/svg" xmlns:xlink="http://www.w3.org/1999/xlink">
<g id="graph0" class="graph" transform="scale(1 1) rotate(0) translate(4 294.05)">
<title>%3</title>
<polygon fill="white" stroke="transparent" points="-4,4 -4,-294.05 522.5,-294.05 522.5,4 -4,4"/>
<!-- x_diff -->
<g id="node1" class="node">
<title>x_diff</title>
<polygon fill="lightgray" stroke="black" points="303.75,-216.06 261.75,-216.06 261.75,-198.06 303.75,-198.06 303.75,-216.06"/>
<text text-anchor="middle" x="282.75" y="-204.86" font-family="Times,serif" font-size="9.00">x_diff</text>
</g>
<!-- 881 -->
<g id="node6" class="node">
<title>881</title>
<ellipse fill="white" stroke="black" cx="24.75" cy="-117.32" rx="25" ry="25"/>
<text text-anchor="middle" x="24.75" y="-115.12" font-family="Times,serif" font-size="9.00">881</text>
</g>
<!-- x_diff&#45;&gt;881 -->
<g id="edge1" class="edge">
<title>x_diff&#45;&gt;881</title>
<path fill="none" stroke="red" stroke-width="0.76" d="M275.99,-197.85C270.23,-191.43 261.37,-182.82 251.75,-178.07 173.13,-139.22 138.4,-176.51 57.75,-142.07 55.9,-141.28 54.05,-140.37 52.23,-139.38"/>
<polygon fill="red" stroke="red" stroke-width="0.76" points="53.77,-136.21 43.43,-133.9 50.08,-142.16 53.77,-136.21"/>
</g>
<!-- 882 -->
<g id="node7" class="node">
<title>882</title>
<ellipse fill="white" stroke="black" cx="359.75" cy="-117.32" rx="25" ry="25"/>
<text text-anchor="middle" x="359.75" y="-115.12" font-family="Times,serif" font-size="9.00">882</text>
</g>
<!-- x_diff&#45;&gt;882 -->
<g id="edge2" class="edge">
<title>x_diff&#45;&gt;882</title>
<path fill="none" stroke="red" stroke-width="1.66" d="M289.85,-197.96C300.44,-185.89 320.84,-162.65 336.88,-144.38"/>
<polygon fill="red" stroke="red" stroke-width="1.66" points="339.92,-146.22 343.89,-136.39 334.66,-141.6 339.92,-146.22"/>
</g>
<!-- 883 -->
<g id="node8" class="node">
<title>883</title>
<ellipse fill="white" stroke="black" cx="158.75" cy="-117.32" rx="25" ry="25"/>
<text text-anchor="middle" x="158.75" y="-115.12" font-family="Times,serif" font-size="9.00">883</text>
</g>
<!-- x_diff&#45;&gt;883 -->
<g id="edge3" class="edge">
<title>x_diff&#45;&gt;883</title>
<path fill="none" stroke="red" stroke-width="0.46" d="M274.7,-197.99C268.66,-192.14 260.02,-184.19 251.75,-178.07 226.76,-159.56 217.73,-159.16 191.75,-142.07 190.11,-140.99 188.44,-139.87 186.77,-138.72"/>
<polygon fill="red" stroke="red" stroke-width="0.46" points="188.66,-135.77 178.46,-132.91 184.64,-141.51 188.66,-135.77"/>
</g>
<!-- 884 -->
<g id="node9" class="node">
<title>884</title>
<ellipse fill="white" stroke="black" cx="225.75" cy="-117.32" rx="25" ry="25"/>
<text text-anchor="middle" x="225.75" y="-115.12" font-family="Times,serif" font-size="9.00">884</text>
</g>
<!-- x_diff&#45;&gt;884 -->
<g id="edge4" class="edge">
<title>x_diff&#45;&gt;884</title>
<path fill="none" stroke="green" stroke-width="0.32" d="M277.49,-197.96C270,-186.44 255.9,-164.73 244.31,-146.89"/>
<polygon fill="green" stroke="green" stroke-width="0.32" points="247.24,-144.98 238.86,-138.5 241.37,-148.79 247.24,-144.98"/>
</g>
<!-- 885 -->
<g id="node10" class="node">
<title>885</title>
<ellipse fill="white" stroke="black" cx="426.75" cy="-117.32" rx="25" ry="25"/>
<text text-anchor="middle" x="426.75" y="-115.12" font-family="Times,serif" font-size="9.00">885</text>
</g>
<!-- x_diff&#45;&gt;885 -->
<g id="edge5" class="edge">
<title>x_diff&#45;&gt;885</title>
<path fill="none" stroke="red" stroke-width="1.53" d="M290.04,-197.92C295.77,-191.88 304.19,-183.73 312.75,-178.07 345.6,-156.33 359.58,-161.68 393.75,-142.07 395.49,-141.06 397.26,-139.99 399.02,-138.88"/>
<polygon fill="red" stroke="red" stroke-width="1.53" points="401.31,-141.56 407.65,-133.07 397.4,-135.75 401.31,-141.56"/>
</g>
<!-- 886 -->
<g id="node11" class="node">
<title>886</title>
<ellipse fill="white" stroke="black" cx="91.75" cy="-117.32" rx="25" ry="25"/>
<text text-anchor="middle" x="91.75" y="-115.12" font-family="Times,serif" font-size="9.00">886</text>
</g>
<!-- x_diff&#45;&gt;886 -->
<g id="edge6" class="edge">
<title>x_diff&#45;&gt;886</title>
<path fill="none" stroke="green" stroke-width="0.38" d="M275.63,-197.83C269.79,-191.57 261.01,-183.19 251.75,-178.07 200.41,-149.66 177.58,-167.59 124.75,-142.07 122.94,-141.19 121.12,-140.22 119.32,-139.18"/>
<polygon fill="green" stroke="green" stroke-width="0.38" points="120.89,-136.02 110.59,-133.57 117.11,-141.92 120.89,-136.02"/>
</g>
<!-- 887 -->
<g id="node12" class="node">
<title>887</title>
<ellipse fill="white" stroke="black" cx="493.75" cy="-117.32" rx="25" ry="25"/>
<text text-anchor="middle" x="493.75" y="-115.12" font-family="Times,serif" font-size="9.00">887</text>
</g>
<!-- x_diff&#45;&gt;887 -->
<g id="edge7" class="edge">
<title>x_diff&#45;&gt;887</title>
<path fill="none" stroke="red" stroke-width="0.66" d="M289.31,-197.99C294.89,-191.64 303.47,-183.07 312.75,-178.07 372.33,-145.93 399.25,-170.36 460.75,-142.07 462.58,-141.23 464.41,-140.28 466.21,-139.26"/>
<polygon fill="red" stroke="red" stroke-width="0.66" points="468.4,-142.01 474.98,-133.7 464.66,-136.1 468.4,-142.01"/>
</g>
<!-- 888 -->
<g id="node13" class="node">
<title>888</title>
<ellipse fill="white" stroke="black" cx="292.75" cy="-117.32" rx="25" ry="25"/>
<text text-anchor="middle" x="292.75" y="-115.12" font-family="Times,serif" font-size="9.00">888</text>
</g>
<!-- x_diff&#45;&gt;888 -->
<g id="edge8" class="edge">
<title>x_diff&#45;&gt;888</title>
<path fill="none" stroke="red" stroke-width="0.93" d="M283.67,-197.96C284.86,-187.56 286.99,-168.86 288.89,-152.2"/>
<polygon fill="red" stroke="red" stroke-width="0.93" points="292.37,-152.51 290.03,-142.18 285.42,-151.72 292.37,-152.51"/>
</g>
<!-- object_y -->
<g id="node2" class="node">
<title>object_y</title>
<polygon fill="lightgray" stroke="black" points="243.25,-216.06 188.25,-216.06 188.25,-198.06 243.25,-198.06 243.25,-216.06"/>
<text text-anchor="middle" x="215.75" y="-204.86" font-family="Times,serif" font-size="9.00">object_y</text>
</g>
<!-- object_y&#45;&gt;881 -->
<g id="edge9" class="edge">
<title>object_y&#45;&gt;881</title>
<path fill="none" stroke="red" stroke-width="1.53" d="M190.83,-198.04C158.97,-187.33 102.57,-166.81 57.75,-142.07 55.99,-141.09 54.21,-140.04 52.44,-138.95"/>
<polygon fill="red" stroke="red" stroke-width="1.53" points="54.05,-135.81 43.78,-133.18 50.17,-141.64 54.05,-135.81"/>
</g>
<!-- object_y&#45;&gt;882 -->
<g id="edge10" class="edge">
<title>object_y&#45;&gt;882</title>
<path fill="none" stroke="green" stroke-width="1.29" d="M225.43,-197.91C232.68,-192 243,-184.05 252.75,-178.07 283.92,-158.94 295.35,-160.82 326.75,-142.07 328.43,-141.06 330.14,-140 331.84,-138.89"/>
<polygon fill="green" stroke="green" stroke-width="1.29" points="333.92,-141.71 340.23,-133.2 329.99,-135.92 333.92,-141.71"/>
</g>
<!-- object_y&#45;&gt;883 -->
<g id="edge11" class="edge">
<title>object_y&#45;&gt;883</title>
<path fill="none" stroke="red" stroke-width="0.78" d="M210.49,-197.96C203,-186.44 188.9,-164.73 177.31,-146.89"/>
<polygon fill="red" stroke="red" stroke-width="0.78" points="180.24,-144.98 171.86,-138.5 174.37,-148.79 180.24,-144.98"/>
</g>
<!-- object_y&#45;&gt;884 -->
<g id="edge12" class="edge">
<title>object_y&#45;&gt;884</title>
<path fill="none" stroke="red" stroke-width="0.39" d="M216.67,-197.96C217.86,-187.56 219.99,-168.86 221.89,-152.2"/>
<polygon fill="red" stroke="red" stroke-width="0.39" points="225.37,-152.51 223.03,-142.18 218.42,-151.72 225.37,-152.51"/>
</g>
<!-- object_y&#45;&gt;885 -->
<g id="edge13" class="edge">
<title>object_y&#45;&gt;885</title>
<path fill="none" stroke="red" stroke-width="0.81" d="M224.5,-197.82C231.61,-191.56 242.15,-183.17 252.75,-178.07 311.02,-150 335.15,-169.43 393.75,-142.07 395.57,-141.21 397.4,-140.26 399.2,-139.23"/>
<polygon fill="red" stroke="red" stroke-width="0.81" points="401.4,-141.98 407.96,-133.66 397.64,-136.08 401.4,-141.98"/>
</g>
<!-- object_y&#45;&gt;886 -->
<g id="edge14" class="edge">
<title>object_y&#45;&gt;886</title>
<path fill="none" stroke="red" stroke-width="0.21" d="M204.23,-198.02C186.93,-185.93 153.23,-162.33 124.75,-142.07 123.15,-140.93 121.51,-139.76 119.86,-138.58"/>
<polygon fill="red" stroke="red" stroke-width="0.21" points="121.78,-135.65 111.62,-132.67 117.7,-141.34 121.78,-135.65"/>
</g>
<!-- object_y&#45;&gt;887 -->
<g id="edge15" class="edge">
<title>object_y&#45;&gt;887</title>
<path fill="none" stroke="red" stroke-width="0.36" d="M224.11,-197.85C231.16,-191.43 241.81,-182.81 252.75,-178.07 338.81,-140.71 374.25,-178.39 460.75,-142.07 462.6,-141.29 464.45,-140.39 466.28,-139.4"/>
<polygon fill="red" stroke="red" stroke-width="0.36" points="468.43,-142.19 475.08,-133.95 464.74,-136.24 468.43,-142.19"/>
</g>
<!-- object_y&#45;&gt;888 -->
<g id="edge16" class="edge">
<title>object_y&#45;&gt;888</title>
<path fill="none" stroke="red" stroke-width="1.66" d="M222.85,-197.96C233.44,-185.89 253.84,-162.65 269.88,-144.38"/>
<polygon fill="red" stroke="red" stroke-width="1.66" points="272.92,-146.22 276.89,-136.39 267.66,-141.6 272.92,-146.22"/>
</g>
<!-- object_height -->
<g id="node3" class="node">
<title>object_height</title>
<polygon fill="lightgray" stroke="black" points="294.75,-290.05 214.75,-290.05 214.75,-272.05 294.75,-272.05 294.75,-290.05"/>
<text text-anchor="middle" x="254.75" y="-278.85" font-family="Times,serif" font-size="9.00">object_height</text>
</g>
<!-- 1028 -->
<g id="node5" class="node">
<title>1028</title>
<ellipse fill="white" stroke="black" cx="350.75" cy="-207.06" rx="28.98" ry="28.98"/>
<text text-anchor="middle" x="350.75" y="-204.86" font-family="Times,serif" font-size="9.00">1028</text>
</g>
<!-- object_height&#45;&gt;1028 -->
<g id="edge30" class="edge">
<title>object_height&#45;&gt;1028</title>
<path fill="none" stroke="green" stroke-width="0.2" d="M265.76,-271.79C278.83,-261.99 301.18,-245.23 319.68,-231.35"/>
<polygon fill="green" stroke="green" stroke-width="0.2" points="321.96,-234.02 327.86,-225.22 317.76,-228.42 321.96,-234.02"/>
</g>
<!-- object_height&#45;&gt;881 -->
<g id="edge17" class="edge">
<title>object_height&#45;&gt;881</title>
<path fill="none" stroke="red" stroke-width="0.6" d="M214.46,-275.3C182.99,-269.96 139.43,-258.84 107.75,-236.05 76.7,-213.7 53.12,-176.03 39.17,-149.32"/>
<polygon fill="red" stroke="red" stroke-width="0.6" points="42.28,-147.72 34.64,-140.37 36.04,-150.88 42.28,-147.72"/>
</g>
<!-- object_height&#45;&gt;883 -->
<g id="edge18" class="edge">
<title>object_height&#45;&gt;883</title>
<path fill="none" stroke="red" stroke-width="0.47" d="M220.72,-272C201.56,-265.59 179.06,-254.53 166.75,-236.05 150.35,-211.43 149.91,-177.13 152.63,-151.91"/>
<polygon fill="red" stroke="red" stroke-width="0.47" points="156.14,-152.07 153.96,-141.7 149.2,-151.17 156.14,-152.07"/>
</g>
<!-- object_height&#45;&gt;884 -->
<g id="edge19" class="edge">
<title>object_height&#45;&gt;884</title>
<path fill="none" stroke="red" stroke-width="0.3" d="M227.13,-271.95C209.91,-265.31 189.11,-254.01 178.75,-236.05 165.88,-213.72 170.32,-202.42 178.75,-178.07 183.31,-164.88 192.13,-152.39 200.9,-142.28"/>
<polygon fill="red" stroke="red" stroke-width="0.3" points="203.66,-144.44 207.84,-134.71 198.5,-139.71 203.66,-144.44"/>
</g>
<!-- object_height&#45;&gt;885 -->
<g id="edge20" class="edge">
<title>object_height&#45;&gt;885</title>
<path fill="none" stroke="red" stroke-width="1.17" d="M295.07,-277.49C349.96,-273.07 443.79,-261.86 464.75,-236.05 486.16,-209.69 466.62,-170.97 448.55,-145.23"/>
<polygon fill="red" stroke="red" stroke-width="1.17" points="451.28,-143.02 442.54,-137.03 445.63,-147.16 451.28,-143.02"/>
</g>
<!-- object_height&#45;&gt;886 -->
<g id="edge21" class="edge">
<title>object_height&#45;&gt;886</title>
<path fill="none" stroke="red" stroke-width="0.42" d="M217.56,-271.99C195.05,-265.5 167.07,-254.35 147.75,-236.05 123.53,-213.1 108.63,-177.53 100.35,-151.5"/>
<polygon fill="red" stroke="red" stroke-width="0.42" points="103.63,-150.25 97.4,-141.69 96.93,-152.27 103.63,-150.25"/>
</g>
<!-- object_height&#45;&gt;887 -->
<g id="edge22" class="edge">
<title>object_height&#45;&gt;887</title>
<path fill="none" stroke="red" stroke-width="0.39" d="M294.91,-278.01C353.76,-274.12 459.1,-263.43 483.75,-236.05 503.89,-213.67 504.22,-178.25 500.84,-152.1"/>
<polygon fill="red" stroke="red" stroke-width="0.39" points="504.25,-151.23 499.27,-141.88 497.33,-152.29 504.25,-151.23"/>
</g>
<!-- 1041 -->
<g id="node14" class="node">
<title>1041</title>
<ellipse fill="white" stroke="black" cx="426.75" cy="-207.06" rx="28.98" ry="28.98"/>
<text text-anchor="middle" x="426.75" y="-204.86" font-family="Times,serif" font-size="9.00">1041</text>
</g>
<!-- object_height&#45;&gt;1041 -->
<g id="edge32" class="edge">
<title>object_height&#45;&gt;1041</title>
<path fill="none" stroke="green" stroke-width="1" d="M288.98,-272.03C316.79,-264.77 356.54,-252.66 388.75,-236.05 391.19,-234.79 393.64,-233.38 396.07,-231.88"/>
<polygon fill="green" stroke="green" stroke-width="1" points="398.24,-234.64 404.61,-226.17 394.35,-228.82 398.24,-234.64"/>
</g>
<!-- jump -->
<g id="node4" class="node">
<title>jump</title>
<ellipse fill="lightblue" stroke="black" cx="225.75" cy="-28.28" rx="28.07" ry="28.07"/>
<text text-anchor="middle" x="225.75" y="-26.08" font-family="Times,serif" font-size="9.00">jump</text>
</g>
<!-- 1028&#45;&gt;888 -->
<g id="edge31" class="edge">
<title>1028&#45;&gt;888</title>
<path fill="none" stroke="green" stroke-width="0.64" d="M335.21,-182.54C327.93,-171.54 319.21,-158.34 311.57,-146.78"/>
<polygon fill="green" stroke="green" stroke-width="0.64" points="314.41,-144.73 305.97,-138.32 308.57,-148.6 314.41,-144.73"/>
</g>
<!-- 881&#45;&gt;jump -->
<g id="edge23" class="edge">
<title>881&#45;&gt;jump</title>
<path fill="none" stroke="green" stroke-width="0.68" d="M43.74,-101.36C48.19,-98.23 53.02,-95.1 57.75,-92.57 100.75,-69.52 153.98,-50.99 188.85,-40.08"/>
<polygon fill="green" stroke="green" stroke-width="0.68" points="190.09,-43.36 198.62,-37.07 188.03,-36.67 190.09,-43.36"/>
</g>
<!-- 882&#45;&gt;jump -->
<g id="edge24" class="edge">
<title>882&#45;&gt;jump</title>
<path fill="none" stroke="green" stroke-width="0.64" d="M340,-101.79C335.67,-98.7 331.08,-95.48 326.75,-92.57 304.26,-77.45 278.35,-61.24 258.41,-49.01"/>
<polygon fill="green" stroke="green" stroke-width="0.64" points="260.05,-45.92 249.7,-43.69 256.41,-51.89 260.05,-45.92"/>
</g>
<!-- 883&#45;&gt;jump -->
<g id="edge25" class="edge">
<title>883&#45;&gt;jump</title>
<path fill="none" stroke="red" stroke-width="1.1" d="M173.62,-97C182.16,-85.91 193.06,-71.74 202.69,-59.24"/>
<polygon fill="red" stroke="red" stroke-width="1.1" points="205.47,-61.37 208.8,-51.31 199.92,-57.1 205.47,-61.37"/>
</g>
<!-- 884&#45;&gt;jump -->
<g id="edge26" class="edge">
<title>884&#45;&gt;jump</title>
<path fill="none" stroke="red" stroke-width="0.88" d="M225.75,-92.54C225.75,-84.58 225.75,-75.5 225.75,-66.76"/>
<polygon fill="red" stroke="red" stroke-width="0.88" points="229.25,-66.73 225.75,-56.73 222.25,-66.73 229.25,-66.73"/>
</g>
<!-- 885&#45;&gt;jump -->
<g id="edge27" class="edge">
<title>885&#45;&gt;jump</title>
<path fill="none" stroke="green" stroke-width="1.27" d="M407.76,-101.36C403.31,-98.23 398.48,-95.1 393.75,-92.57 350.74,-69.52 297.51,-50.99 262.64,-40.08"/>
<polygon fill="green" stroke="green" stroke-width="1.27" points="263.47,-36.67 252.88,-37.07 261.41,-43.36 263.47,-36.67"/>
</g>
<!-- 886&#45;&gt;jump -->
<g id="edge28" class="edge">
<title>886&#45;&gt;jump</title>
<path fill="none" stroke="green" stroke-width="0.02" d="M111.5,-101.79C115.83,-98.7 120.41,-95.48 124.75,-92.57 147.24,-77.45 173.15,-61.24 193.09,-49.01"/>
<polygon fill="green" stroke="green" stroke-width="0.02" points="195.09,-51.89 201.8,-43.69 191.44,-45.92 195.09,-51.89"/>
</g>
<!-- 888&#45;&gt;jump -->
<g id="edge29" class="edge">
<title>888&#45;&gt;jump</title>
<path fill="none" stroke="red" stroke-width="1.03" d="M277.88,-97C269.34,-85.91 258.43,-71.74 248.81,-59.24"/>
<polygon fill="red" stroke="red" stroke-width="1.03" points="251.58,-57.1 242.7,-51.31 246.03,-61.37 251.58,-57.1"/>
</g>
<!-- 1041&#45;&gt;882 -->
<g id="edge33" class="edge">
<title>1041&#45;&gt;882</title>
<path fill="none" stroke="green" stroke-width="0.67" d="M409.49,-183.46C400.67,-171.91 389.87,-157.76 380.59,-145.61"/>
<polygon fill="green" stroke="green" stroke-width="0.67" points="383.3,-143.39 374.45,-137.57 377.73,-147.64 383.3,-143.39"/>
</g>
</g>
</svg>
