<?xml version="1.0" encoding="UTF-8" standalone="no"?>
<!DOCTYPE svg PUBLIC "-//W3C//DTD SVG 1.1//EN"
 "http://www.w3.org/Graphics/SVG/1.1/DTD/svg11.dtd">
<!-- Generated by graphviz version 2.43.0 (0)
 -->
<!-- Title: %3 Pages: 1 -->
<svg width="537pt" height="298pt"
 viewBox="0.00 0.00 537.12 298.05" xmlns="http://www.w3.org/2000/svg" xmlns:xlink="http://www.w3.org/1999/xlink">
<g id="graph0" class="graph" transform="scale(1 1) rotate(0) translate(4 294.05)">
<title>%3</title>
<polygon fill="white" stroke="transparent" points="-4,4 -4,-294.05 533.12,-294.05 533.12,4 -4,4"/>
<!-- x_diff -->
<g id="node1" class="node">
<title>x_diff</title>
<polygon fill="lightgray" stroke="black" points="354.33,-290.05 312.33,-290.05 312.33,-272.05 354.33,-272.05 354.33,-290.05"/>
<text text-anchor="middle" x="333.33" y="-278.85" font-family="Times,serif" font-size="9.00">x_diff</text>
</g>
<!-- 960 -->
<g id="node5" class="node">
<title>960</title>
<ellipse fill="white" stroke="black" cx="418.33" cy="-211.3" rx="25" ry="25"/>
<text text-anchor="middle" x="418.33" y="-209.1" font-family="Times,serif" font-size="9.00">960</text>
</g>
<!-- x_diff&#45;&gt;960 -->
<g id="edge7" class="edge">
<title>x_diff&#45;&gt;960</title>
<path fill="none" stroke="red" stroke-width="1.14" d="M343.42,-272.01C355.1,-262.7 374.83,-246.97 391.11,-234"/>
<polygon fill="red" stroke="red" stroke-width="1.14" points="393.61,-236.48 399.25,-227.51 389.25,-231.01 393.61,-236.48"/>
</g>
<!-- 953 -->
<g id="node7" class="node">
<title>953</title>
<ellipse fill="white" stroke="black" cx="178.33" cy="-211.3" rx="25" ry="25"/>
<text text-anchor="middle" x="178.33" y="-209.1" font-family="Times,serif" font-size="9.00">953</text>
</g>
<!-- x_diff&#45;&gt;953 -->
<g id="edge1" class="edge">
<title>x_diff&#45;&gt;953</title>
<path fill="none" stroke="green" stroke-width="0.46" d="M312.3,-274.4C287.38,-267.28 244.99,-253.79 211.33,-236.05 209.55,-235.11 207.76,-234.09 205.98,-233.01"/>
<polygon fill="green" stroke="green" stroke-width="0.46" points="207.57,-229.87 197.29,-227.3 203.73,-235.72 207.57,-229.87"/>
</g>
<!-- 954 -->
<g id="node8" class="node">
<title>954</title>
<ellipse fill="white" stroke="black" cx="245.33" cy="-211.3" rx="25" ry="25"/>
<text text-anchor="middle" x="245.33" y="-209.1" font-family="Times,serif" font-size="9.00">954</text>
</g>
<!-- x_diff&#45;&gt;954 -->
<g id="edge2" class="edge">
<title>x_diff&#45;&gt;954</title>
<path fill="none" stroke="red" stroke-width="0.1" d="M322.89,-272.01C310.6,-262.55 289.73,-246.48 272.72,-233.39"/>
<polygon fill="red" stroke="red" stroke-width="0.1" points="274.8,-230.57 264.74,-227.25 270.53,-236.12 274.8,-230.57"/>
</g>
<!-- 955 -->
<g id="node9" class="node">
<title>955</title>
<ellipse fill="white" stroke="black" cx="312.33" cy="-211.3" rx="25" ry="25"/>
<text text-anchor="middle" x="312.33" y="-209.1" font-family="Times,serif" font-size="9.00">955</text>
</g>
<!-- x_diff&#45;&gt;955 -->
<g id="edge3" class="edge">
<title>x_diff&#45;&gt;955</title>
<path fill="none" stroke="red" stroke-width="0.06" d="M330.84,-272.01C328.72,-265.16 325.51,-254.83 322.37,-244.68"/>
<polygon fill="red" stroke="red" stroke-width="0.06" points="325.71,-243.64 319.41,-235.13 319.02,-245.72 325.71,-243.64"/>
</g>
<!-- 956 -->
<g id="node10" class="node">
<title>956</title>
<ellipse fill="white" stroke="black" cx="365.33" cy="-121.56" rx="25" ry="25"/>
<text text-anchor="middle" x="365.33" y="-119.36" font-family="Times,serif" font-size="9.00">956</text>
</g>
<!-- x_diff&#45;&gt;956 -->
<g id="edge4" class="edge">
<title>x_diff&#45;&gt;956</title>
<path fill="none" stroke="red" stroke-width="1.05" d="M354.51,-278.26C398.83,-274.04 498.95,-261.81 519.33,-236.05 532.98,-218.8 531.54,-204.85 519.33,-186.55 492.93,-146.99 436.99,-131.85 400.3,-126.08"/>
<polygon fill="red" stroke="red" stroke-width="1.05" points="400.44,-122.57 390.04,-124.63 399.46,-129.5 400.44,-122.57"/>
</g>
<!-- 958 -->
<g id="node12" class="node">
<title>958</title>
<ellipse fill="white" stroke="black" cx="111.33" cy="-211.3" rx="25" ry="25"/>
<text text-anchor="middle" x="111.33" y="-209.1" font-family="Times,serif" font-size="9.00">958</text>
</g>
<!-- x_diff&#45;&gt;958 -->
<g id="edge5" class="edge">
<title>x_diff&#45;&gt;958</title>
<path fill="none" stroke="red" stroke-width="0.73" d="M312.05,-274.27C309.13,-273.5 306.16,-272.75 303.33,-272.05 232.98,-254.71 210.39,-265.81 144.33,-236.05 142.5,-235.22 140.66,-234.29 138.85,-233.27"/>
<polygon fill="red" stroke="red" stroke-width="0.73" points="140.4,-230.12 130.08,-227.74 136.67,-236.04 140.4,-230.12"/>
</g>
<!-- 959 -->
<g id="node13" class="node">
<title>959</title>
<ellipse fill="white" stroke="black" cx="485.33" cy="-211.3" rx="25" ry="25"/>
<text text-anchor="middle" x="485.33" y="-209.1" font-family="Times,serif" font-size="9.00">959</text>
</g>
<!-- x_diff&#45;&gt;959 -->
<g id="edge6" class="edge">
<title>x_diff&#45;&gt;959</title>
<path fill="none" stroke="red" stroke-width="1.13" d="M354.7,-274.06C379.11,-266.79 419.86,-253.33 452.33,-236.05 454.11,-235.1 455.9,-234.07 457.67,-232.99"/>
<polygon fill="red" stroke="red" stroke-width="1.13" points="459.93,-235.7 466.35,-227.27 456.08,-229.85 459.93,-235.7"/>
</g>
<!-- object_y -->
<g id="node2" class="node">
<title>object_y</title>
<polygon fill="lightgray" stroke="black" points="195.83,-290.05 140.83,-290.05 140.83,-272.05 195.83,-272.05 195.83,-290.05"/>
<text text-anchor="middle" x="168.33" y="-278.85" font-family="Times,serif" font-size="9.00">object_y</text>
</g>
<!-- object_y&#45;&gt;960 -->
<g id="edge14" class="edge">
<title>object_y&#45;&gt;960</title>
<path fill="none" stroke="green" stroke-width="0.72" d="M195.95,-273.91C231.09,-265.94 293.56,-251.25 346.33,-236.05 359.18,-232.35 373.16,-227.85 385.36,-223.76"/>
<polygon fill="green" stroke="green" stroke-width="0.72" points="386.78,-226.98 395.12,-220.45 384.53,-220.35 386.78,-226.98"/>
</g>
<!-- object_y&#45;&gt;953 -->
<g id="edge8" class="edge">
<title>object_y&#45;&gt;953</title>
<path fill="none" stroke="red" stroke-width="1.91" d="M169.52,-272.01C170.48,-265.46 171.92,-255.72 173.36,-246.01"/>
<polygon fill="red" stroke="red" stroke-width="1.91" points="176.83,-246.43 174.83,-236.02 169.91,-245.4 176.83,-246.43"/>
</g>
<!-- object_y&#45;&gt;954 -->
<g id="edge9" class="edge">
<title>object_y&#45;&gt;954</title>
<path fill="none" stroke="green" stroke-width="1.33" d="M177.47,-272.01C187.75,-262.96 204.92,-247.85 219.42,-235.1"/>
<polygon fill="green" stroke="green" stroke-width="1.33" points="221.94,-237.54 227.13,-228.31 217.31,-232.29 221.94,-237.54"/>
</g>
<!-- object_y&#45;&gt;955 -->
<g id="edge10" class="edge">
<title>object_y&#45;&gt;955</title>
<path fill="none" stroke="green" stroke-width="0.83" d="M193.81,-271.96C216.84,-264.18 251.32,-251.37 279.33,-236.05 281.1,-235.08 282.88,-234.04 284.65,-232.94"/>
<polygon fill="green" stroke="green" stroke-width="0.83" points="286.91,-235.64 293.31,-227.19 283.04,-229.81 286.91,-235.64"/>
</g>
<!-- object_y&#45;&gt;956 -->
<g id="edge11" class="edge">
<title>object_y&#45;&gt;956</title>
<path fill="none" stroke="green" stroke-width="0.04" d="M140.62,-276.37C99.65,-270.29 26.05,-256.74 10.33,-236.05 -2.98,-218.53 -3.78,-203.43 10.33,-186.55 30.89,-161.96 245.57,-135.78 330.77,-126.28"/>
<polygon fill="green" stroke="green" stroke-width="0.04" points="331.17,-129.75 340.73,-125.17 330.41,-122.79 331.17,-129.75"/>
</g>
<!-- 957 -->
<g id="node11" class="node">
<title>957</title>
<ellipse fill="white" stroke="black" cx="44.33" cy="-211.3" rx="25" ry="25"/>
<text text-anchor="middle" x="44.33" y="-209.1" font-family="Times,serif" font-size="9.00">957</text>
</g>
<!-- object_y&#45;&gt;957 -->
<g id="edge12" class="edge">
<title>object_y&#45;&gt;957</title>
<path fill="none" stroke="green" stroke-width="0.87" d="M149.36,-272.03C130.6,-263.84 101.3,-250.32 77.33,-236.05 75.65,-235.05 73.94,-233.98 72.24,-232.88"/>
<polygon fill="green" stroke="green" stroke-width="0.87" points="74.09,-229.91 63.85,-227.19 70.16,-235.7 74.09,-229.91"/>
</g>
<!-- object_y&#45;&gt;958 -->
<g id="edge13" class="edge">
<title>object_y&#45;&gt;958</title>
<path fill="none" stroke="green" stroke-width="0.29" d="M161.57,-272.01C154.67,-263.81 143.58,-250.63 133.58,-238.74"/>
<polygon fill="green" stroke="green" stroke-width="0.29" points="136,-236.19 126.89,-230.79 130.65,-240.7 136,-236.19"/>
</g>
<!-- object_height -->
<g id="node3" class="node">
<title>object_height</title>
<polygon fill="lightgray" stroke="black" points="294.33,-290.05 214.33,-290.05 214.33,-272.05 294.33,-272.05 294.33,-290.05"/>
<text text-anchor="middle" x="254.33" y="-278.85" font-family="Times,serif" font-size="9.00">object_height</text>
</g>
<!-- object_height&#45;&gt;960 -->
<g id="edge22" class="edge">
<title>object_height&#45;&gt;960</title>
<path fill="none" stroke="green" stroke-width="0.3" d="M282.3,-272.04C308.08,-264.23 347.11,-251.33 379.33,-236.05 382.68,-234.46 386.11,-232.66 389.47,-230.78"/>
<polygon fill="green" stroke="green" stroke-width="0.3" points="391.28,-233.78 398.13,-225.7 387.74,-227.74 391.28,-233.78"/>
</g>
<!-- object_height&#45;&gt;953 -->
<g id="edge15" class="edge">
<title>object_height&#45;&gt;953</title>
<path fill="none" stroke="red" stroke-width="1.06" d="M245.31,-272.01C235.23,-263.02 218.44,-248.05 204.19,-235.35"/>
<polygon fill="red" stroke="red" stroke-width="1.06" points="206.39,-232.62 196.6,-228.58 201.73,-237.85 206.39,-232.62"/>
</g>
<!-- object_height&#45;&gt;954 -->
<g id="edge16" class="edge">
<title>object_height&#45;&gt;954</title>
<path fill="none" stroke="red" stroke-width="1.32" d="M253.26,-272.01C252.39,-265.46 251.1,-255.72 249.81,-246.01"/>
<polygon fill="red" stroke="red" stroke-width="1.32" points="253.27,-245.47 248.48,-236.02 246.33,-246.4 253.27,-245.47"/>
</g>
<!-- object_height&#45;&gt;955 -->
<g id="edge17" class="edge">
<title>object_height&#45;&gt;955</title>
<path fill="none" stroke="red" stroke-width="0.15" d="M261.21,-272.01C268.3,-263.73 279.73,-250.38 289.99,-238.4"/>
<polygon fill="red" stroke="red" stroke-width="0.15" points="292.66,-240.66 296.5,-230.79 287.34,-236.11 292.66,-240.66"/>
</g>
<!-- object_height&#45;&gt;956 -->
<g id="edge18" class="edge">
<title>object_height&#45;&gt;956</title>
<path fill="none" stroke="red" stroke-width="1.81" d="M289.19,-271.93C308.98,-265.5 332.49,-254.44 346.33,-236.05 363.39,-213.39 367.37,-180.95 367.53,-156.56"/>
<polygon fill="red" stroke="red" stroke-width="1.81" points="371.03,-156.26 367.38,-146.31 364.03,-156.36 371.03,-156.26"/>
</g>
<!-- object_height&#45;&gt;957 -->
<g id="edge19" class="edge">
<title>object_height&#45;&gt;957</title>
<path fill="none" stroke="green" stroke-width="0.26" d="M214.52,-271.99C170.15,-262.68 101.47,-247.23 77.33,-236.05 75.51,-235.2 73.68,-234.25 71.87,-233.23"/>
<polygon fill="green" stroke="green" stroke-width="0.26" points="73.43,-230.07 63.11,-227.67 69.68,-235.98 73.43,-230.07"/>
</g>
<!-- object_height&#45;&gt;958 -->
<g id="edge20" class="edge">
<title>object_height&#45;&gt;958</title>
<path fill="none" stroke="red" stroke-width="3.09" d="M229.08,-271.92C206.26,-264.12 172.1,-251.29 144.33,-236.05 142.57,-235.08 140.79,-234.03 139.02,-232.94"/>
<polygon fill="red" stroke="red" stroke-width="3.09" points="140.62,-229.8 130.36,-227.18 136.75,-235.63 140.62,-229.8"/>
</g>
<!-- object_height&#45;&gt;959 -->
<g id="edge21" class="edge">
<title>object_height&#45;&gt;959</title>
<path fill="none" stroke="green" stroke-width="1.85" d="M294.51,-273.1C343.88,-264.22 424.53,-248.5 452.33,-236.05 454.17,-235.23 456,-234.29 457.82,-233.28"/>
<polygon fill="green" stroke="green" stroke-width="1.85" points="459.99,-236.05 466.59,-227.76 456.26,-230.12 459.99,-236.05"/>
</g>
<!-- jump -->
<g id="node4" class="node">
<title>jump</title>
<ellipse fill="lightblue" stroke="black" cx="278.33" cy="-28.28" rx="28.07" ry="28.07"/>
<text text-anchor="middle" x="278.33" y="-26.08" font-family="Times,serif" font-size="9.00">jump</text>
</g>
<!-- 960&#45;&gt;jump -->
<g id="edge29" class="edge">
<title>960&#45;&gt;jump</title>
<path fill="none" stroke="green" stroke-width="0.81" d="M420.42,-186.29C421.4,-160.68 419.18,-120.12 399.33,-92.57 379.21,-64.65 343,-48.04 315.42,-38.9"/>
<polygon fill="green" stroke="green" stroke-width="0.81" points="316.28,-35.5 305.69,-35.86 314.19,-42.18 316.28,-35.5"/>
</g>
<!-- 960&#45;&gt;956 -->
<g id="edge30" class="edge">
<title>960&#45;&gt;956</title>
<path fill="none" stroke="red" stroke-width="0.59" d="M405.77,-189.51C398.97,-178.25 390.46,-164.16 383.01,-151.82"/>
<polygon fill="red" stroke="red" stroke-width="0.59" points="385.97,-149.95 377.8,-143.2 379.98,-153.57 385.97,-149.95"/>
</g>
<!-- 1112 -->
<g id="node6" class="node">
<title>1112</title>
<ellipse fill="white" stroke="black" cx="60.33" cy="-121.56" rx="28.98" ry="28.98"/>
<text text-anchor="middle" x="60.33" y="-119.36" font-family="Times,serif" font-size="9.00">1112</text>
</g>
<!-- 1112&#45;&gt;jump -->
<g id="edge32" class="edge">
<title>1112&#45;&gt;jump</title>
<path fill="none" stroke="green" stroke-width="0.08" d="M87.06,-109.37C126.28,-92.95 199.46,-62.31 243.05,-44.06"/>
<polygon fill="green" stroke="green" stroke-width="0.08" points="244.53,-47.23 252.4,-40.14 241.82,-40.78 244.53,-47.23"/>
</g>
<!-- 953&#45;&gt;jump -->
<g id="edge23" class="edge">
<title>953&#45;&gt;jump</title>
<path fill="none" stroke="red" stroke-width="1.79" d="M190,-189.18C207.24,-157.97 239.68,-99.25 260.08,-62.32"/>
<polygon fill="red" stroke="red" stroke-width="1.79" points="263.22,-63.87 264.99,-53.43 257.09,-60.49 263.22,-63.87"/>
</g>
<!-- 954&#45;&gt;jump -->
<g id="edge24" class="edge">
<title>954&#45;&gt;jump</title>
<path fill="none" stroke="green" stroke-width="0.68" d="M249.64,-186.64C255.23,-156.02 265.01,-102.35 271.58,-66.31"/>
<polygon fill="green" stroke="green" stroke-width="0.68" points="275.07,-66.66 273.42,-56.2 268.19,-65.41 275.07,-66.66"/>
</g>
<!-- 955&#45;&gt;jump -->
<g id="edge25" class="edge">
<title>955&#45;&gt;jump</title>
<path fill="none" stroke="red" stroke-width="0.89" d="M307.89,-186.64C302.14,-156.02 292.05,-102.35 285.29,-66.31"/>
<polygon fill="red" stroke="red" stroke-width="0.89" points="288.67,-65.38 283.39,-56.2 281.79,-66.67 288.67,-65.38"/>
</g>
<!-- 956&#45;&gt;jump -->
<g id="edge26" class="edge">
<title>956&#45;&gt;jump</title>
<path fill="none" stroke="red" stroke-width="0.51" d="M348.56,-102.96C336.11,-89.9 318.9,-71.85 304.63,-56.88"/>
<polygon fill="red" stroke="red" stroke-width="0.51" points="306.91,-54.2 297.48,-49.37 301.84,-59.03 306.91,-54.2"/>
</g>
<!-- 957&#45;&gt;1112 -->
<g id="edge31" class="edge">
<title>957&#45;&gt;1112</title>
<path fill="none" stroke="green" stroke-width="1" d="M48.62,-186.79C50.11,-178.6 51.83,-169.2 53.47,-160.16"/>
<polygon fill="green" stroke="green" stroke-width="1" points="56.94,-160.65 55.29,-150.19 50.06,-159.4 56.94,-160.65"/>
</g>
<!-- 958&#45;&gt;jump -->
<g id="edge27" class="edge">
<title>958&#45;&gt;jump</title>
<path fill="none" stroke="red" stroke-width="0.78" d="M126.09,-191.34C144.87,-167.56 178.68,-125.86 210.33,-92.57 222.85,-79.41 237.51,-65.58 250.01,-54.21"/>
<polygon fill="red" stroke="red" stroke-width="0.78" points="252.39,-56.78 257.48,-47.49 247.71,-51.58 252.39,-56.78"/>
</g>
<!-- 959&#45;&gt;jump -->
<g id="edge28" class="edge">
<title>959&#45;&gt;jump</title>
<path fill="none" stroke="green" stroke-width="0.68" d="M478.47,-187.49C469.58,-161.43 451.76,-118.99 423.33,-92.57 392.83,-64.22 347.61,-47.26 315.79,-38.13"/>
<polygon fill="green" stroke="green" stroke-width="0.68" points="316.54,-34.71 305.97,-35.44 314.69,-41.46 316.54,-34.71"/>
</g>
</g>
</svg>
