<?xml version="1.0" encoding="UTF-8" standalone="no"?>
<!DOCTYPE svg PUBLIC "-//W3C//DTD SVG 1.1//EN"
 "http://www.w3.org/Graphics/SVG/1.1/DTD/svg11.dtd">
<!-- Generated by graphviz version 2.43.0 (0)
 -->
<!-- Title: %3 Pages: 1 -->
<svg width="498pt" height="298pt"
 viewBox="0.00 0.00 498.50 298.05" xmlns="http://www.w3.org/2000/svg" xmlns:xlink="http://www.w3.org/1999/xlink">
<g id="graph0" class="graph" transform="scale(1 1) rotate(0) translate(4 294.05)">
<title>%3</title>
<polygon fill="white" stroke="transparent" points="-4,4 -4,-294.05 494.5,-294.05 494.5,4 -4,4"/>
<!-- x_diff -->
<g id="node1" class="node">
<title>x_diff</title>
<polygon fill="lightgray" stroke="black" points="295.75,-216.06 253.75,-216.06 253.75,-198.06 295.75,-198.06 295.75,-216.06"/>
<text text-anchor="middle" x="274.75" y="-204.86" font-family="Times,serif" font-size="9.00">x_diff</text>
</g>
<!-- jump -->
<g id="node4" class="node">
<title>jump</title>
<ellipse fill="lightblue" stroke="black" cx="258.75" cy="-28.28" rx="28.07" ry="28.07"/>
<text text-anchor="middle" x="258.75" y="-26.08" font-family="Times,serif" font-size="9.00">jump</text>
</g>
<!-- x_diff&#45;&gt;jump -->
<g id="edge27" class="edge">
<title>x_diff&#45;&gt;jump</title>
<path fill="none" stroke="red" stroke-width="0.16" d="M284.77,-197.79C297.39,-186.67 318.41,-165.54 326.75,-142.07 334.11,-121.34 335.53,-112.74 326.75,-92.57 319.34,-75.55 304.84,-61.04 291.13,-50.22"/>
<polygon fill="red" stroke="red" stroke-width="0.16" points="292.88,-47.16 282.77,-43.98 288.69,-52.77 292.88,-47.16"/>
</g>
<!-- 881 -->
<g id="node6" class="node">
<title>881</title>
<ellipse fill="white" stroke="black" cx="91.75" cy="-117.32" rx="25" ry="25"/>
<text text-anchor="middle" x="91.75" y="-115.12" font-family="Times,serif" font-size="9.00">881</text>
</g>
<!-- x_diff&#45;&gt;881 -->
<g id="edge1" class="edge">
<title>x_diff&#45;&gt;881</title>
<path fill="none" stroke="red" stroke-width="2.55" d="M255.31,-198.04C217.51,-182.43 136.77,-148.85 124.75,-142.07 123,-141.08 121.23,-140.02 119.46,-138.91"/>
<polygon fill="red" stroke="red" stroke-width="2.55" points="121.08,-135.78 110.82,-133.12 117.18,-141.59 121.08,-135.78"/>
</g>
<!-- 882 -->
<g id="node7" class="node">
<title>882</title>
<ellipse fill="white" stroke="black" cx="465.75" cy="-117.32" rx="25" ry="25"/>
<text text-anchor="middle" x="465.75" y="-115.12" font-family="Times,serif" font-size="9.00">882</text>
</g>
<!-- x_diff&#45;&gt;882 -->
<g id="edge2" class="edge">
<title>x_diff&#45;&gt;882</title>
<path fill="none" stroke="green" stroke-width="1.33" d="M281.58,-197.82C287.2,-191.55 295.68,-183.17 304.75,-178.07 356.25,-149.09 379.51,-167.72 432.75,-142.07 434.56,-141.19 436.38,-140.22 438.18,-139.18"/>
<polygon fill="green" stroke="green" stroke-width="1.33" points="440.39,-141.92 446.91,-133.58 436.61,-136.03 440.39,-141.92"/>
</g>
<!-- 883 -->
<g id="node8" class="node">
<title>883</title>
<ellipse fill="white" stroke="black" cx="292.75" cy="-117.32" rx="25" ry="25"/>
<text text-anchor="middle" x="292.75" y="-115.12" font-family="Times,serif" font-size="9.00">883</text>
</g>
<!-- x_diff&#45;&gt;883 -->
<g id="edge3" class="edge">
<title>x_diff&#45;&gt;883</title>
<path fill="none" stroke="green" stroke-width="0.18" d="M276.41,-197.96C278.56,-187.49 282.43,-168.61 285.87,-151.86"/>
<polygon fill="green" stroke="green" stroke-width="0.18" points="289.35,-152.3 287.93,-141.8 282.49,-150.89 289.35,-152.3"/>
</g>
<!-- 884 -->
<g id="node9" class="node">
<title>884</title>
<ellipse fill="white" stroke="black" cx="158.75" cy="-117.32" rx="25" ry="25"/>
<text text-anchor="middle" x="158.75" y="-115.12" font-family="Times,serif" font-size="9.00">884</text>
</g>
<!-- x_diff&#45;&gt;884 -->
<g id="edge4" class="edge">
<title>x_diff&#45;&gt;884</title>
<path fill="none" stroke="red" stroke-width="0.33" d="M264.04,-197.96C246.51,-184.7 211.12,-157.93 186.23,-139.1"/>
<polygon fill="red" stroke="red" stroke-width="0.33" points="188.32,-136.29 178.23,-133.05 184.09,-141.88 188.32,-136.29"/>
</g>
<!-- 885 -->
<g id="node10" class="node">
<title>885</title>
<ellipse fill="white" stroke="black" cx="225.75" cy="-117.32" rx="25" ry="25"/>
<text text-anchor="middle" x="225.75" y="-115.12" font-family="Times,serif" font-size="9.00">885</text>
</g>
<!-- x_diff&#45;&gt;885 -->
<g id="edge5" class="edge">
<title>x_diff&#45;&gt;885</title>
<path fill="none" stroke="red" stroke-width="0.72" d="M270.23,-197.96C263.93,-186.69 252.19,-165.67 242.36,-148.05"/>
<polygon fill="red" stroke="red" stroke-width="0.72" points="245.35,-146.25 237.42,-139.22 239.24,-149.66 245.35,-146.25"/>
</g>
<!-- 887 -->
<g id="node11" class="node">
<title>887</title>
<ellipse fill="white" stroke="black" cx="398.75" cy="-117.32" rx="25" ry="25"/>
<text text-anchor="middle" x="398.75" y="-115.12" font-family="Times,serif" font-size="9.00">887</text>
</g>
<!-- x_diff&#45;&gt;887 -->
<g id="edge6" class="edge">
<title>x_diff&#45;&gt;887</title>
<path fill="none" stroke="green" stroke-width="0.74" d="M282.54,-198.03C288.39,-192.19 296.75,-184.26 304.75,-178.07 316.16,-169.24 346.2,-150.41 369.27,-136.23"/>
<polygon fill="green" stroke="green" stroke-width="0.74" points="371.34,-139.07 378.04,-130.86 367.68,-133.1 371.34,-139.07"/>
</g>
<!-- 888 -->
<g id="node12" class="node">
<title>888</title>
<ellipse fill="white" stroke="black" cx="24.75" cy="-117.32" rx="25" ry="25"/>
<text text-anchor="middle" x="24.75" y="-115.12" font-family="Times,serif" font-size="9.00">888</text>
</g>
<!-- x_diff&#45;&gt;888 -->
<g id="edge7" class="edge">
<title>x_diff&#45;&gt;888</title>
<path fill="none" stroke="red" stroke-width="0.32" d="M256.86,-197.95C243.08,-191.92 223.47,-183.78 205.75,-178.07 141.32,-157.29 119.25,-170.36 57.75,-142.07 55.92,-141.23 54.09,-140.28 52.28,-139.26"/>
<polygon fill="red" stroke="red" stroke-width="0.32" points="53.84,-136.1 43.52,-133.7 50.1,-142.01 53.84,-136.1"/>
</g>
<!-- object_y -->
<g id="node2" class="node">
<title>object_y</title>
<polygon fill="lightgray" stroke="black" points="197.25,-216.06 142.25,-216.06 142.25,-198.06 197.25,-198.06 197.25,-216.06"/>
<text text-anchor="middle" x="169.75" y="-204.86" font-family="Times,serif" font-size="9.00">object_y</text>
</g>
<!-- object_y&#45;&gt;881 -->
<g id="edge8" class="edge">
<title>object_y&#45;&gt;881</title>
<path fill="none" stroke="red" stroke-width="0.19" d="M162.55,-197.96C151.73,-185.78 130.79,-162.23 114.48,-143.89"/>
<polygon fill="red" stroke="red" stroke-width="0.19" points="117.08,-141.54 107.82,-136.39 111.84,-146.19 117.08,-141.54"/>
</g>
<!-- object_y&#45;&gt;883 -->
<g id="edge9" class="edge">
<title>object_y&#45;&gt;883</title>
<path fill="none" stroke="green" stroke-width="0.59" d="M181.13,-198C198.22,-185.88 231.53,-162.26 259.75,-142.07 261.34,-140.93 262.98,-139.75 264.63,-138.57"/>
<polygon fill="green" stroke="green" stroke-width="0.59" points="266.79,-141.33 272.87,-132.65 262.7,-135.64 266.79,-141.33"/>
</g>
<!-- object_y&#45;&gt;884 -->
<g id="edge10" class="edge">
<title>object_y&#45;&gt;884</title>
<path fill="none" stroke="red" stroke-width="0.62" d="M168.73,-197.96C167.43,-187.56 165.09,-168.86 163,-152.2"/>
<polygon fill="red" stroke="red" stroke-width="0.62" points="166.46,-151.66 161.74,-142.18 159.51,-152.53 166.46,-151.66"/>
</g>
<!-- object_y&#45;&gt;885 -->
<g id="edge11" class="edge">
<title>object_y&#45;&gt;885</title>
<path fill="none" stroke="green" stroke-width="1.66" d="M174.92,-197.96C182.2,-186.54 195.87,-165.13 207.2,-147.38"/>
<polygon fill="green" stroke="green" stroke-width="1.66" points="210.44,-148.81 212.87,-138.5 204.54,-145.05 210.44,-148.81"/>
</g>
<!-- object_y&#45;&gt;887 -->
<g id="edge12" class="edge">
<title>object_y&#45;&gt;887</title>
<path fill="none" stroke="red" stroke-width="0.49" d="M190.88,-197.96C231.09,-182.55 318.84,-148.93 366.46,-130.69"/>
<polygon fill="red" stroke="red" stroke-width="0.49" points="367.89,-133.89 375.98,-127.04 365.39,-127.35 367.89,-133.89"/>
</g>
<!-- object_y&#45;&gt;888 -->
<g id="edge13" class="edge">
<title>object_y&#45;&gt;888</title>
<path fill="none" stroke="green" stroke-width="1.86" d="M154.6,-198.06C132.79,-186.39 91.47,-163.75 57.75,-142.07 56.1,-141.01 54.42,-139.9 52.74,-138.76"/>
<polygon fill="green" stroke="green" stroke-width="1.86" points="54.62,-135.81 44.41,-132.98 50.63,-141.56 54.62,-135.81"/>
</g>
<!-- object_height -->
<g id="node3" class="node">
<title>object_height</title>
<polygon fill="lightgray" stroke="black" points="265.75,-290.05 185.75,-290.05 185.75,-272.05 265.75,-272.05 265.75,-290.05"/>
<text text-anchor="middle" x="225.75" y="-278.85" font-family="Times,serif" font-size="9.00">object_height</text>
</g>
<!-- 1248 -->
<g id="node5" class="node">
<title>1248</title>
<ellipse fill="white" stroke="black" cx="342.75" cy="-207.06" rx="28.98" ry="28.98"/>
<text text-anchor="middle" x="342.75" y="-204.86" font-family="Times,serif" font-size="9.00">1248</text>
</g>
<!-- object_height&#45;&gt;1248 -->
<g id="edge28" class="edge">
<title>object_height&#45;&gt;1248</title>
<path fill="none" stroke="red" stroke-width="0.49" d="M241.53,-272.02C257.72,-263.6 283.49,-249.72 304.75,-236.05 307.14,-234.51 309.58,-232.88 312.01,-231.2"/>
<polygon fill="red" stroke="red" stroke-width="0.49" points="314.04,-234.05 320.17,-225.41 309.99,-228.34 314.04,-234.05"/>
</g>
<!-- object_height&#45;&gt;881 -->
<g id="edge14" class="edge">
<title>object_height&#45;&gt;881</title>
<path fill="none" stroke="red" stroke-width="2.32" d="M185.58,-272.47C163.45,-266.27 137.2,-255.27 120.75,-236.05 100.9,-212.85 94.23,-178.16 92.18,-152.43"/>
<polygon fill="red" stroke="red" stroke-width="2.32" points="95.67,-152.14 91.58,-142.37 88.69,-152.56 95.67,-152.14"/>
</g>
<!-- object_height&#45;&gt;882 -->
<g id="edge15" class="edge">
<title>object_height&#45;&gt;882</title>
<path fill="none" stroke="red" stroke-width="1.5" d="M265.78,-279.46C305.03,-276.93 364.64,-267.62 404.75,-236.05 431.85,-214.71 448.13,-178.01 456.96,-151.25"/>
<polygon fill="red" stroke="red" stroke-width="1.5" points="460.36,-152.12 459.99,-141.53 453.68,-150.03 460.36,-152.12"/>
</g>
<!-- object_height&#45;&gt;884 -->
<g id="edge16" class="edge">
<title>object_height&#45;&gt;884</title>
<path fill="none" stroke="red" stroke-width="0.4" d="M186.52,-271.94C166.79,-265.67 144.6,-254.76 132.75,-236.05 115.77,-209.23 128.03,-172.88 140.84,-147.7"/>
<polygon fill="red" stroke="red" stroke-width="0.4" points="144.06,-149.1 145.72,-138.63 137.9,-145.78 144.06,-149.1"/>
</g>
<!-- object_height&#45;&gt;885 -->
<g id="edge17" class="edge">
<title>object_height&#45;&gt;885</title>
<path fill="none" stroke="green" stroke-width="0.82" d="M225.75,-271.81C225.75,-250.15 225.75,-190.7 225.75,-152.46"/>
<polygon fill="green" stroke="green" stroke-width="0.82" points="229.25,-152.29 225.75,-142.29 222.25,-152.29 229.25,-152.29"/>
</g>
<!-- object_height&#45;&gt;887 -->
<g id="edge18" class="edge">
<title>object_height&#45;&gt;887</title>
<path fill="none" stroke="green" stroke-width="0.96" d="M266.04,-280.07C301.62,-277.77 352.16,-268.46 380.75,-236.05 400.71,-213.43 403.76,-178.35 402.7,-152.36"/>
<polygon fill="green" stroke="green" stroke-width="0.96" points="406.18,-151.96 402.06,-142.2 399.19,-152.4 406.18,-151.96"/>
</g>
<!-- object_height&#45;&gt;888 -->
<g id="edge19" class="edge">
<title>object_height&#45;&gt;888</title>
<path fill="none" stroke="green" stroke-width="1.9" d="M185.75,-274.56C157.26,-268.93 119.44,-257.78 92.75,-236.05 65.32,-213.72 46.7,-177.19 35.98,-150.74"/>
<polygon fill="green" stroke="green" stroke-width="1.9" points="39.13,-149.2 32.25,-141.14 32.61,-151.73 39.13,-149.2"/>
</g>
<!-- 1248&#45;&gt;883 -->
<g id="edge29" class="edge">
<title>1248&#45;&gt;883</title>
<path fill="none" stroke="red" stroke-width="0.22" d="M328.82,-181.62C322.86,-171.16 315.85,-158.85 309.6,-147.89"/>
<polygon fill="red" stroke="red" stroke-width="0.22" points="312.56,-146.02 304.57,-139.06 306.48,-149.48 312.56,-146.02"/>
</g>
<!-- 881&#45;&gt;jump -->
<g id="edge20" class="edge">
<title>881&#45;&gt;jump</title>
<path fill="none" stroke="green" stroke-width="2.3" d="M111.25,-101.4C115.59,-98.32 120.25,-95.22 124.75,-92.57 157.07,-73.52 196.04,-55.64 223.6,-43.78"/>
<polygon fill="green" stroke="green" stroke-width="2.3" points="225.02,-46.98 232.85,-39.84 222.28,-40.54 225.02,-46.98"/>
</g>
<!-- 882&#45;&gt;jump -->
<g id="edge21" class="edge">
<title>882&#45;&gt;jump</title>
<path fill="none" stroke="green" stroke-width="0.6" d="M446.78,-101.32C442.33,-98.19 437.49,-95.08 432.75,-92.57 387.68,-68.74 331.68,-50.15 295.58,-39.45"/>
<polygon fill="green" stroke="green" stroke-width="0.6" points="296.53,-36.08 285.95,-36.64 294.57,-42.8 296.53,-36.08"/>
</g>
<!-- 883&#45;&gt;jump -->
<g id="edge22" class="edge">
<title>883&#45;&gt;jump</title>
<path fill="none" stroke="red" stroke-width="0.46" d="M283.99,-93.9C280.51,-84.99 276.42,-74.52 272.56,-64.63"/>
<polygon fill="red" stroke="red" stroke-width="0.46" points="275.7,-63.05 268.8,-55.01 269.18,-65.6 275.7,-63.05"/>
</g>
<!-- 884&#45;&gt;jump -->
<g id="edge23" class="edge">
<title>884&#45;&gt;jump</title>
<path fill="none" stroke="red" stroke-width="1.28" d="M177.09,-100.35C191.82,-87.53 212.78,-69.29 229.77,-54.5"/>
<polygon fill="red" stroke="red" stroke-width="1.28" points="232.51,-56.76 237.75,-47.56 227.91,-51.48 232.51,-56.76"/>
</g>
<!-- 885&#45;&gt;jump -->
<g id="edge24" class="edge">
<title>885&#45;&gt;jump</title>
<path fill="none" stroke="green" stroke-width="2.17" d="M234.25,-93.9C237.63,-84.99 241.6,-74.52 245.35,-64.63"/>
<polygon fill="green" stroke="green" stroke-width="2.17" points="248.72,-65.6 248.99,-55.01 242.18,-63.12 248.72,-65.6"/>
</g>
<!-- 887&#45;&gt;jump -->
<g id="edge25" class="edge">
<title>887&#45;&gt;jump</title>
<path fill="none" stroke="red" stroke-width="1.44" d="M378.09,-103.48C355.27,-89.29 318.2,-66.24 291.43,-49.6"/>
<polygon fill="red" stroke="red" stroke-width="1.44" points="293.12,-46.53 282.78,-44.22 289.43,-52.48 293.12,-46.53"/>
</g>
<!-- 888&#45;&gt;jump -->
<g id="edge26" class="edge">
<title>888&#45;&gt;jump</title>
<path fill="none" stroke="red" stroke-width="2.37" d="M43.64,-101.17C48.1,-98.04 52.95,-94.97 57.75,-92.57 111.72,-65.53 179.63,-47.05 221.08,-37.34"/>
<polygon fill="red" stroke="red" stroke-width="2.37" points="222.06,-40.7 231.03,-35.06 220.5,-33.88 222.06,-40.7"/>
</g>
</g>
</svg>
