<?xml version="1.0" encoding="UTF-8" standalone="no"?>
<!DOCTYPE svg PUBLIC "-//W3C//DTD SVG 1.1//EN"
 "http://www.w3.org/Graphics/SVG/1.1/DTD/svg11.dtd">
<!-- Generated by graphviz version 2.43.0 (0)
 -->
<!-- Title: %3 Pages: 1 -->
<svg width="652pt" height="298pt"
 viewBox="0.00 0.00 651.74 298.05" xmlns="http://www.w3.org/2000/svg" xmlns:xlink="http://www.w3.org/1999/xlink">
<g id="graph0" class="graph" transform="scale(1 1) rotate(0) translate(4 294.05)">
<title>%3</title>
<polygon fill="white" stroke="transparent" points="-4,4 -4,-294.05 647.74,-294.05 647.74,4 -4,4"/>
<!-- x_diff -->
<g id="node1" class="node">
<title>x_diff</title>
<polygon fill="lightgray" stroke="black" points="252.2,-290.05 210.2,-290.05 210.2,-272.05 252.2,-272.05 252.2,-290.05"/>
<text text-anchor="middle" x="231.2" y="-278.85" font-family="Times,serif" font-size="9.00">x_diff</text>
</g>
<!-- 897 -->
<g id="node5" class="node">
<title>897</title>
<ellipse fill="white" stroke="black" cx="250.2" cy="-117.32" rx="25" ry="25"/>
<text text-anchor="middle" x="250.2" y="-115.12" font-family="Times,serif" font-size="9.00">897</text>
</g>
<!-- x_diff&#45;&gt;897 -->
<g id="edge1" class="edge">
<title>x_diff&#45;&gt;897</title>
<path fill="none" stroke="green" stroke-width="0.22" d="M223.27,-271.78C215.92,-263.5 205.5,-250.01 201.2,-236.05 193.6,-211.42 192.52,-202.33 201.2,-178.07 206.06,-164.48 215.48,-151.76 224.78,-141.58"/>
<polygon fill="green" stroke="green" stroke-width="0.22" points="227.37,-143.94 231.79,-134.31 222.33,-139.08 227.37,-143.94"/>
</g>
<!-- 898 -->
<g id="node6" class="node">
<title>898</title>
<ellipse fill="white" stroke="black" cx="183.2" cy="-117.32" rx="25" ry="25"/>
<text text-anchor="middle" x="183.2" y="-115.12" font-family="Times,serif" font-size="9.00">898</text>
</g>
<!-- x_diff&#45;&gt;898 -->
<g id="edge2" class="edge">
<title>x_diff&#45;&gt;898</title>
<path fill="none" stroke="red" stroke-width="0.82" d="M220.54,-271.93C210.98,-263.96 197.51,-250.86 191.2,-236.05 179.86,-209.45 178.59,-176.4 179.74,-152.1"/>
<polygon fill="red" stroke="red" stroke-width="0.82" points="183.24,-152.13 180.38,-141.93 176.25,-151.69 183.24,-152.13"/>
</g>
<!-- 899 -->
<g id="node7" class="node">
<title>899</title>
<ellipse fill="white" stroke="black" cx="116.2" cy="-117.32" rx="25" ry="25"/>
<text text-anchor="middle" x="116.2" y="-115.12" font-family="Times,serif" font-size="9.00">899</text>
</g>
<!-- x_diff&#45;&gt;899 -->
<g id="edge3" class="edge">
<title>x_diff&#45;&gt;899</title>
<path fill="none" stroke="green" stroke-width="2.4" d="M210.03,-279.1C159.91,-276.38 36.26,-266.62 11.2,-236.05 -5.14,-216.12 -1.76,-200.34 11.2,-178.07 26.49,-151.77 58.15,-136.1 82.73,-127.44"/>
<polygon fill="green" stroke="green" stroke-width="2.4" points="84.01,-130.71 92.42,-124.26 81.83,-124.06 84.01,-130.71"/>
</g>
<!-- 900 -->
<g id="node8" class="node">
<title>900</title>
<ellipse fill="white" stroke="black" cx="546.2" cy="-117.32" rx="25" ry="25"/>
<text text-anchor="middle" x="546.2" y="-115.12" font-family="Times,serif" font-size="9.00">900</text>
</g>
<!-- x_diff&#45;&gt;900 -->
<g id="edge4" class="edge">
<title>x_diff&#45;&gt;900</title>
<path fill="none" stroke="red" stroke-width="0.08" d="M252.2,-278.91C306.82,-275.58 451.69,-264.23 489.2,-236.05 516.4,-215.61 531.29,-178.75 538.96,-151.71"/>
<polygon fill="red" stroke="red" stroke-width="0.08" points="542.38,-152.44 541.55,-141.88 535.61,-150.65 542.38,-152.44"/>
</g>
<!-- 901 -->
<g id="node9" class="node">
<title>901</title>
<ellipse fill="white" stroke="black" cx="599.2" cy="-207.06" rx="25" ry="25"/>
<text text-anchor="middle" x="599.2" y="-204.86" font-family="Times,serif" font-size="9.00">901</text>
</g>
<!-- x_diff&#45;&gt;901 -->
<g id="edge5" class="edge">
<title>x_diff&#45;&gt;901</title>
<path fill="none" stroke="green" stroke-width="0.09" d="M252.48,-280.7C306.18,-281.61 450.66,-279.51 560.2,-236.05 564.41,-234.38 568.59,-232.16 572.56,-229.69"/>
<polygon fill="green" stroke="green" stroke-width="0.09" points="574.57,-232.56 580.86,-224.03 570.62,-226.77 574.57,-232.56"/>
</g>
<!-- 902 -->
<g id="node10" class="node">
<title>902</title>
<ellipse fill="white" stroke="black" cx="384.2" cy="-117.32" rx="25" ry="25"/>
<text text-anchor="middle" x="384.2" y="-115.12" font-family="Times,serif" font-size="9.00">902</text>
</g>
<!-- x_diff&#45;&gt;902 -->
<g id="edge6" class="edge">
<title>x_diff&#45;&gt;902</title>
<path fill="none" stroke="green" stroke-width="1.85" d="M252.49,-274.2C272.77,-267.71 303.1,-255.51 323.2,-236.05 347.57,-212.44 364.11,-176.97 373.74,-151.14"/>
<polygon fill="green" stroke="green" stroke-width="1.85" points="377.15,-152.01 377.22,-141.41 370.56,-149.65 377.15,-152.01"/>
</g>
<!-- 903 -->
<g id="node11" class="node">
<title>903</title>
<ellipse fill="white" stroke="black" cx="317.2" cy="-117.32" rx="25" ry="25"/>
<text text-anchor="middle" x="317.2" y="-115.12" font-family="Times,serif" font-size="9.00">903</text>
</g>
<!-- x_diff&#45;&gt;903 -->
<g id="edge7" class="edge">
<title>x_diff&#45;&gt;903</title>
<path fill="none" stroke="red" stroke-width="0.94" d="M252.22,-272.06C267.78,-265.01 288.12,-253.17 299.2,-236.05 315.21,-211.29 318.97,-177.57 319.16,-152.57"/>
<polygon fill="red" stroke="red" stroke-width="0.94" points="322.65,-152.4 319.04,-142.44 315.65,-152.47 322.65,-152.4"/>
</g>
<!-- 1049 -->
<g id="node14" class="node">
<title>1049</title>
<ellipse fill="white" stroke="black" cx="49.2" cy="-207.06" rx="28.98" ry="28.98"/>
<text text-anchor="middle" x="49.2" y="-204.86" font-family="Times,serif" font-size="9.00">1049</text>
</g>
<!-- x_diff&#45;&gt;1049 -->
<g id="edge29" class="edge">
<title>x_diff&#45;&gt;1049</title>
<path fill="none" stroke="red" stroke-width="1.87" d="M209.8,-275.19C181.92,-268.44 132.01,-254.88 92.2,-236.05 88.59,-234.34 84.92,-232.37 81.33,-230.29"/>
<polygon fill="red" stroke="red" stroke-width="1.87" points="82.99,-227.2 72.64,-224.94 79.32,-233.16 82.99,-227.2"/>
</g>
<!-- object_y -->
<g id="node2" class="node">
<title>object_y</title>
<polygon fill="lightgray" stroke="black" points="506.7,-290.05 451.7,-290.05 451.7,-272.05 506.7,-272.05 506.7,-290.05"/>
<text text-anchor="middle" x="479.2" y="-278.85" font-family="Times,serif" font-size="9.00">object_y</text>
</g>
<!-- object_y&#45;&gt;899 -->
<g id="edge8" class="edge">
<title>object_y&#45;&gt;899</title>
<path fill="none" stroke="red" stroke-width="0.2" d="M451.55,-278.36C389.82,-274.16 242.93,-261.7 201.2,-236.05 168.15,-215.73 144.13,-177.31 130.21,-149.89"/>
<polygon fill="red" stroke="red" stroke-width="0.2" points="133.25,-148.14 125.71,-140.69 126.96,-151.21 133.25,-148.14"/>
</g>
<!-- object_y&#45;&gt;900 -->
<g id="edge9" class="edge">
<title>object_y&#45;&gt;900</title>
<path fill="none" stroke="red" stroke-width="0.25" d="M506.87,-276.16C546.94,-269.89 618,-256.19 633.2,-236.05 648.71,-215.48 645.2,-200.87 633.2,-178.07 621.68,-156.19 598.14,-140.78 578.44,-131.09"/>
<polygon fill="red" stroke="red" stroke-width="0.25" points="579.7,-127.81 569.15,-126.79 576.76,-134.17 579.7,-127.81"/>
</g>
<!-- object_y&#45;&gt;901 -->
<g id="edge10" class="edge">
<title>object_y&#45;&gt;901</title>
<path fill="none" stroke="red" stroke-width="1.37" d="M495.36,-272.02C511.96,-263.61 538.37,-249.74 560.2,-236.05 563.85,-233.76 567.62,-231.25 571.31,-228.7"/>
<polygon fill="red" stroke="red" stroke-width="1.37" points="573.54,-231.42 579.68,-222.79 569.5,-225.7 573.54,-231.42"/>
</g>
<!-- object_y&#45;&gt;903 -->
<g id="edge11" class="edge">
<title>object_y&#45;&gt;903</title>
<path fill="none" stroke="red" stroke-width="1.47" d="M464.4,-271.92C450.4,-263.84 429.2,-250.59 413.2,-236.05 383.16,-208.77 354.55,-171.75 336.5,-146.56"/>
<polygon fill="red" stroke="red" stroke-width="1.47" points="339.21,-144.32 330.58,-138.17 333.49,-148.36 339.21,-144.32"/>
</g>
<!-- 904 -->
<g id="node12" class="node">
<title>904</title>
<ellipse fill="white" stroke="black" cx="451.2" cy="-117.32" rx="25" ry="25"/>
<text text-anchor="middle" x="451.2" y="-115.12" font-family="Times,serif" font-size="9.00">904</text>
</g>
<!-- object_y&#45;&gt;904 -->
<g id="edge12" class="edge">
<title>object_y&#45;&gt;904</title>
<path fill="none" stroke="green" stroke-width="0.63" d="M482.02,-271.92C487.67,-254.4 499.04,-211.89 489.2,-178.07 485.83,-166.5 479.47,-155.03 472.91,-145.28"/>
<polygon fill="green" stroke="green" stroke-width="0.63" points="475.55,-142.97 466.9,-136.86 469.86,-147.03 475.55,-142.97"/>
</g>
<!-- 1045 -->
<g id="node13" class="node">
<title>1045</title>
<ellipse fill="white" stroke="black" cx="451.2" cy="-207.06" rx="28.98" ry="28.98"/>
<text text-anchor="middle" x="451.2" y="-204.86" font-family="Times,serif" font-size="9.00">1045</text>
</g>
<!-- object_y&#45;&gt;1045 -->
<g id="edge27" class="edge">
<title>object_y&#45;&gt;1045</title>
<path fill="none" stroke="green" stroke-width="1.21" d="M475.98,-271.79C473.28,-264.83 469.21,-254.37 465.15,-243.92"/>
<polygon fill="green" stroke="green" stroke-width="1.21" points="468.34,-242.48 461.45,-234.43 461.82,-245.02 468.34,-242.48"/>
</g>
<!-- object_height -->
<g id="node3" class="node">
<title>object_height</title>
<polygon fill="lightgray" stroke="black" points="290.2,-216.06 210.2,-216.06 210.2,-198.06 290.2,-198.06 290.2,-216.06"/>
<text text-anchor="middle" x="250.2" y="-204.86" font-family="Times,serif" font-size="9.00">object_height</text>
</g>
<!-- object_height&#45;&gt;897 -->
<g id="edge13" class="edge">
<title>object_height&#45;&gt;897</title>
<path fill="none" stroke="green" stroke-width="0.5" d="M250.2,-197.96C250.2,-187.56 250.2,-168.86 250.2,-152.2"/>
<polygon fill="green" stroke="green" stroke-width="0.5" points="253.7,-152.18 250.2,-142.18 246.7,-152.18 253.7,-152.18"/>
</g>
<!-- object_height&#45;&gt;898 -->
<g id="edge14" class="edge">
<title>object_height&#45;&gt;898</title>
<path fill="none" stroke="green" stroke-width="1.18" d="M244.01,-197.96C234.97,-186.11 217.7,-163.5 203.87,-145.39"/>
<polygon fill="green" stroke="green" stroke-width="1.18" points="206.65,-143.26 197.8,-137.44 201.08,-147.51 206.65,-143.26"/>
</g>
<!-- object_height&#45;&gt;899 -->
<g id="edge15" class="edge">
<title>object_height&#45;&gt;899</title>
<path fill="none" stroke="green" stroke-width="0.49" d="M236.96,-198.02C217.51,-186.12 180.15,-162.99 149.2,-142.07 147.57,-140.97 145.91,-139.83 144.25,-138.67"/>
<polygon fill="green" stroke="green" stroke-width="0.49" points="146.14,-135.73 135.96,-132.83 142.11,-141.45 146.14,-135.73"/>
</g>
<!-- object_height&#45;&gt;902 -->
<g id="edge16" class="edge">
<title>object_height&#45;&gt;902</title>
<path fill="none" stroke="green" stroke-width="0.58" d="M263.43,-198.02C282.88,-186.12 320.24,-162.99 351.2,-142.07 352.82,-140.97 354.48,-139.83 356.15,-138.67"/>
<polygon fill="green" stroke="green" stroke-width="0.58" points="358.28,-141.45 364.44,-132.83 354.25,-135.73 358.28,-141.45"/>
</g>
<!-- object_height&#45;&gt;903 -->
<g id="edge17" class="edge">
<title>object_height&#45;&gt;903</title>
<path fill="none" stroke="green" stroke-width="1.86" d="M256.38,-197.96C265.43,-186.11 282.69,-163.5 296.53,-145.39"/>
<polygon fill="green" stroke="green" stroke-width="1.86" points="299.31,-147.51 302.6,-137.44 293.75,-143.26 299.31,-147.51"/>
</g>
<!-- object_height&#45;&gt;904 -->
<g id="edge18" class="edge">
<title>object_height&#45;&gt;904</title>
<path fill="none" stroke="green" stroke-width="1.52" d="M277.62,-198.04C311.69,-187.54 371.07,-167.44 418.2,-142.07 419.97,-141.11 421.75,-140.08 423.53,-138.99"/>
<polygon fill="green" stroke="green" stroke-width="1.52" points="425.79,-141.69 432.2,-133.26 421.93,-135.85 425.79,-141.69"/>
</g>
<!-- jump -->
<g id="node4" class="node">
<title>jump</title>
<ellipse fill="lightblue" stroke="black" cx="350.2" cy="-28.28" rx="28.07" ry="28.07"/>
<text text-anchor="middle" x="350.2" y="-26.08" font-family="Times,serif" font-size="9.00">jump</text>
</g>
<!-- 897&#45;&gt;jump -->
<g id="edge19" class="edge">
<title>897&#45;&gt;jump</title>
<path fill="none" stroke="red" stroke-width="0.71" d="M268.54,-100.35C283.27,-87.53 304.23,-69.29 321.22,-54.5"/>
<polygon fill="red" stroke="red" stroke-width="0.71" points="323.96,-56.76 329.2,-47.56 319.36,-51.48 323.96,-56.76"/>
</g>
<!-- 898&#45;&gt;jump -->
<g id="edge20" class="edge">
<title>898&#45;&gt;jump</title>
<path fill="none" stroke="green" stroke-width="0.66" d="M202.69,-101.4C207.04,-98.32 211.7,-95.22 216.2,-92.57 248.52,-73.52 287.49,-55.64 315.05,-43.78"/>
<polygon fill="green" stroke="green" stroke-width="0.66" points="316.47,-46.98 324.3,-39.84 313.72,-40.54 316.47,-46.98"/>
</g>
<!-- 899&#45;&gt;jump -->
<g id="edge21" class="edge">
<title>899&#45;&gt;jump</title>
<path fill="none" stroke="red" stroke-width="2.46" d="M135.08,-101.17C139.54,-98.04 144.4,-94.97 149.2,-92.57 203.17,-65.53 271.08,-47.05 312.53,-37.34"/>
<polygon fill="red" stroke="red" stroke-width="2.46" points="313.51,-40.7 322.47,-35.06 311.94,-33.88 313.51,-40.7"/>
</g>
<!-- 900&#45;&gt;jump -->
<g id="edge22" class="edge">
<title>900&#45;&gt;jump</title>
<path fill="none" stroke="red" stroke-width="0.14" d="M523.71,-106.33C489.81,-91.28 425.3,-62.63 385.21,-44.83"/>
<polygon fill="red" stroke="red" stroke-width="0.14" points="386.38,-41.52 375.82,-40.66 383.54,-47.92 386.38,-41.52"/>
</g>
<!-- 901&#45;&gt;jump -->
<g id="edge23" class="edge">
<title>901&#45;&gt;jump</title>
<path fill="none" stroke="red" stroke-width="0.97" d="M602.1,-182.05C603.77,-156.63 602.14,-116.89 580.2,-92.57 554.61,-64.21 446.52,-43.87 388.08,-34.71"/>
<polygon fill="red" stroke="red" stroke-width="0.97" points="388.53,-31.24 378.12,-33.18 387.47,-38.16 388.53,-31.24"/>
</g>
<!-- 901&#45;&gt;900 -->
<g id="edge31" class="edge">
<title>901&#45;&gt;900</title>
<path fill="none" stroke="green" stroke-width="2.18" d="M586.64,-185.26C579.84,-174.01 571.33,-159.92 563.87,-147.58"/>
<polygon fill="green" stroke="green" stroke-width="2.18" points="566.83,-145.71 558.67,-138.96 560.84,-149.33 566.83,-145.71"/>
</g>
<!-- 902&#45;&gt;jump -->
<g id="edge24" class="edge">
<title>902&#45;&gt;jump</title>
<path fill="none" stroke="green" stroke-width="0.06" d="M375.44,-93.9C371.96,-84.99 367.87,-74.52 364,-64.63"/>
<polygon fill="green" stroke="green" stroke-width="0.06" points="367.15,-63.05 360.25,-55.01 360.63,-65.6 367.15,-63.05"/>
</g>
<!-- 903&#45;&gt;jump -->
<g id="edge25" class="edge">
<title>903&#45;&gt;jump</title>
<path fill="none" stroke="green" stroke-width="1.59" d="M325.69,-93.9C329.07,-84.99 333.05,-74.52 336.8,-64.63"/>
<polygon fill="green" stroke="green" stroke-width="1.59" points="340.17,-65.6 340.44,-55.01 333.62,-63.12 340.17,-65.6"/>
</g>
<!-- 904&#45;&gt;jump -->
<g id="edge26" class="edge">
<title>904&#45;&gt;jump</title>
<path fill="none" stroke="green" stroke-width="0.46" d="M432.67,-100.35C417.66,-87.42 396.24,-68.96 378.99,-54.1"/>
<polygon fill="green" stroke="green" stroke-width="0.46" points="381.26,-51.43 371.4,-47.56 376.69,-56.74 381.26,-51.43"/>
</g>
<!-- 1045&#45;&gt;902 -->
<g id="edge28" class="edge">
<title>1045&#45;&gt;902</title>
<path fill="none" stroke="green" stroke-width="0.73" d="M433.94,-183.46C425.12,-171.91 414.32,-157.76 405.03,-145.61"/>
<polygon fill="green" stroke="green" stroke-width="0.73" points="407.75,-143.39 398.89,-137.57 402.18,-147.64 407.75,-143.39"/>
</g>
<!-- 1049&#45;&gt;899 -->
<g id="edge30" class="edge">
<title>1049&#45;&gt;899</title>
<path fill="none" stroke="green" stroke-width="1.73" d="M66.45,-183.46C75.27,-171.91 86.07,-157.76 95.36,-145.61"/>
<polygon fill="green" stroke="green" stroke-width="1.73" points="98.21,-147.64 101.5,-137.57 92.65,-143.39 98.21,-147.64"/>
</g>
</g>
</svg>
