<?xml version="1.0" encoding="UTF-8" standalone="no"?>
<!DOCTYPE svg PUBLIC "-//W3C//DTD SVG 1.1//EN"
 "http://www.w3.org/Graphics/SVG/1.1/DTD/svg11.dtd">
<!-- Generated by graphviz version 2.43.0 (0)
 -->
<!-- Title: %3 Pages: 1 -->
<svg width="469pt" height="307pt"
 viewBox="0.00 0.00 469.50 306.53" xmlns="http://www.w3.org/2000/svg" xmlns:xlink="http://www.w3.org/1999/xlink">
<g id="graph0" class="graph" transform="scale(1 1) rotate(0) translate(4 302.53)">
<title>%3</title>
<polygon fill="white" stroke="transparent" points="-4,4 -4,-302.53 465.5,-302.53 465.5,4 -4,4"/>
<!-- x_diff -->
<g id="node1" class="node">
<title>x_diff</title>
<polygon fill="lightgray" stroke="black" points="199.75,-224.54 157.75,-224.54 157.75,-206.54 199.75,-206.54 199.75,-224.54"/>
<text text-anchor="middle" x="178.75" y="-213.34" font-family="Times,serif" font-size="9.00">x_diff</text>
</g>
<!-- 672 -->
<g id="node5" class="node">
<title>672</title>
<ellipse fill="white" stroke="black" cx="369.75" cy="-121.56" rx="25" ry="25"/>
<text text-anchor="middle" x="369.75" y="-119.36" font-family="Times,serif" font-size="9.00">672</text>
</g>
<!-- x_diff&#45;&gt;672 -->
<g id="edge5" class="edge">
<title>x_diff&#45;&gt;672</title>
<path fill="none" stroke="red" stroke-width="2.07" d="M198.72,-206.45C240.65,-189.45 334.18,-151.49 335.75,-150.55 338.42,-148.96 341.1,-147.16 343.72,-145.27"/>
<polygon fill="red" stroke="red" stroke-width="2.07" points="346.03,-147.92 351.8,-139.03 341.74,-142.38 346.03,-147.92"/>
</g>
<!-- 666 -->
<g id="node8" class="node">
<title>666</title>
<ellipse fill="white" stroke="black" cx="158.75" cy="-121.56" rx="25" ry="25"/>
<text text-anchor="middle" x="158.75" y="-119.36" font-family="Times,serif" font-size="9.00">666</text>
</g>
<!-- x_diff&#45;&gt;666 -->
<g id="edge1" class="edge">
<title>x_diff&#45;&gt;666</title>
<path fill="none" stroke="red" stroke-width="0.88" d="M176.97,-206.38C174.52,-195.08 169.93,-174.01 165.98,-155.82"/>
<polygon fill="red" stroke="red" stroke-width="0.88" points="169.35,-154.84 163.8,-145.81 162.51,-156.33 169.35,-154.84"/>
</g>
<!-- 668 -->
<g id="node10" class="node">
<title>668</title>
<ellipse fill="white" stroke="black" cx="24.75" cy="-121.56" rx="25" ry="25"/>
<text text-anchor="middle" x="24.75" y="-119.36" font-family="Times,serif" font-size="9.00">668</text>
</g>
<!-- x_diff&#45;&gt;668 -->
<g id="edge2" class="edge">
<title>x_diff&#45;&gt;668</title>
<path fill="none" stroke="red" stroke-width="0.6" d="M160.42,-206.38C136.09,-195.2 92.19,-173.86 57.75,-150.55 55.36,-148.93 52.94,-147.17 50.56,-145.34"/>
<polygon fill="red" stroke="red" stroke-width="0.6" points="52.67,-142.55 42.69,-138.99 48.27,-147.99 52.67,-142.55"/>
</g>
<!-- 670 -->
<g id="node11" class="node">
<title>670</title>
<ellipse fill="white" stroke="black" cx="91.75" cy="-121.56" rx="25" ry="25"/>
<text text-anchor="middle" x="91.75" y="-119.36" font-family="Times,serif" font-size="9.00">670</text>
</g>
<!-- x_diff&#45;&gt;670 -->
<g id="edge3" class="edge">
<title>x_diff&#45;&gt;670</title>
<path fill="none" stroke="red" stroke-width="0.81" d="M171.03,-206.38C158.69,-193.34 134.04,-167.27 115.48,-147.65"/>
<polygon fill="red" stroke="red" stroke-width="0.81" points="117.87,-145.09 108.46,-140.23 112.79,-149.9 117.87,-145.09"/>
</g>
<!-- 671 -->
<g id="node12" class="node">
<title>671</title>
<ellipse fill="white" stroke="black" cx="225.75" cy="-121.56" rx="25" ry="25"/>
<text text-anchor="middle" x="225.75" y="-119.36" font-family="Times,serif" font-size="9.00">671</text>
</g>
<!-- x_diff&#45;&gt;671 -->
<g id="edge4" class="edge">
<title>x_diff&#45;&gt;671</title>
<path fill="none" stroke="green" stroke-width="0.39" d="M182.92,-206.38C188.99,-194.49 200.59,-171.79 210.19,-153.01"/>
<polygon fill="green" stroke="green" stroke-width="0.39" points="213.41,-154.39 214.85,-143.9 207.18,-151.21 213.41,-154.39"/>
</g>
<!-- object_y -->
<g id="node2" class="node">
<title>object_y</title>
<polygon fill="lightgray" stroke="black" points="206.25,-298.53 151.25,-298.53 151.25,-280.53 206.25,-280.53 206.25,-298.53"/>
<text text-anchor="middle" x="178.75" y="-287.33" font-family="Times,serif" font-size="9.00">object_y</text>
</g>
<!-- object_y&#45;&gt;672 -->
<g id="edge10" class="edge">
<title>object_y&#45;&gt;672</title>
<path fill="none" stroke="red" stroke-width="1.98" d="M206.47,-284.82C248.86,-278.58 326.87,-264.65 345.75,-244.53 367.65,-221.2 372.23,-183.96 372.21,-156.76"/>
<polygon fill="red" stroke="red" stroke-width="1.98" points="375.7,-156.44 371.99,-146.52 368.71,-156.59 375.7,-156.44"/>
</g>
<!-- 1124 -->
<g id="node6" class="node">
<title>1124</title>
<ellipse fill="white" stroke="black" cx="429.75" cy="-215.54" rx="28.98" ry="28.98"/>
<text text-anchor="middle" x="429.75" y="-213.34" font-family="Times,serif" font-size="9.00">1124</text>
</g>
<!-- object_y&#45;&gt;1124 -->
<g id="edge22" class="edge">
<title>object_y&#45;&gt;1124</title>
<path fill="none" stroke="green" stroke-width="0.75" d="M206.3,-285.24C245.91,-279.9 320.77,-267.57 380.75,-244.53 386.01,-242.51 391.38,-239.99 396.54,-237.29"/>
<polygon fill="green" stroke="green" stroke-width="0.75" points="398.49,-240.21 405.54,-232.31 395.1,-234.09 398.49,-240.21"/>
</g>
<!-- object_y&#45;&gt;666 -->
<g id="edge6" class="edge">
<title>object_y&#45;&gt;666</title>
<path fill="none" stroke="red" stroke-width="0.6" d="M170.82,-280.26C163.47,-271.98 153.05,-258.49 148.75,-244.53 139.76,-215.4 143.99,-180.6 149.45,-155.64"/>
<polygon fill="red" stroke="red" stroke-width="0.6" points="152.93,-156.13 151.82,-145.6 146.11,-154.52 152.93,-156.13"/>
</g>
<!-- object_y&#45;&gt;668 -->
<g id="edge7" class="edge">
<title>object_y&#45;&gt;668</title>
<path fill="none" stroke="green" stroke-width="0.43" d="M162.42,-280.51C147.58,-272.7 125.64,-259.78 109.75,-244.53 81.27,-217.19 56.47,-178.98 41.13,-152.64"/>
<polygon fill="green" stroke="green" stroke-width="0.43" points="44.11,-150.81 36.11,-143.86 38.03,-154.28 44.11,-150.81"/>
</g>
<!-- object_y&#45;&gt;670 -->
<g id="edge8" class="edge">
<title>object_y&#45;&gt;670</title>
<path fill="none" stroke="green" stroke-width="1.11" d="M170.01,-280.49C161.39,-272.16 148.29,-258.46 139.75,-244.53 122.5,-216.4 109.39,-181 101.26,-155.59"/>
<polygon fill="green" stroke="green" stroke-width="1.11" points="104.5,-154.22 98.19,-145.71 97.82,-156.29 104.5,-154.22"/>
</g>
<!-- object_y&#45;&gt;671 -->
<g id="edge9" class="edge">
<title>object_y&#45;&gt;671</title>
<path fill="none" stroke="green" stroke-width="2.05" d="M185.99,-280.43C193.03,-272.07 203.42,-258.33 208.75,-244.53 219.66,-216.26 223.7,-181.9 225.14,-156.86"/>
<polygon fill="green" stroke="green" stroke-width="2.05" points="228.64,-156.9 225.6,-146.75 221.64,-156.58 228.64,-156.9"/>
</g>
<!-- object_height -->
<g id="node3" class="node">
<title>object_height</title>
<polygon fill="lightgray" stroke="black" points="336.75,-224.54 256.75,-224.54 256.75,-206.54 336.75,-206.54 336.75,-224.54"/>
<text text-anchor="middle" x="296.75" y="-213.34" font-family="Times,serif" font-size="9.00">object_height</text>
</g>
<!-- object_height&#45;&gt;672 -->
<g id="edge15" class="edge">
<title>object_height&#45;&gt;672</title>
<path fill="none" stroke="red" stroke-width="0.9" d="M303.23,-206.38C313.24,-193.76 332.93,-168.95 348.3,-149.58"/>
<polygon fill="red" stroke="red" stroke-width="0.9" points="351.11,-151.68 354.58,-141.67 345.63,-147.32 351.11,-151.68"/>
</g>
<!-- 1234 -->
<g id="node7" class="node">
<title>1234</title>
<ellipse fill="white" stroke="black" cx="297.75" cy="-121.56" rx="28.98" ry="28.98"/>
<text text-anchor="middle" x="297.75" y="-119.36" font-family="Times,serif" font-size="9.00">1234</text>
</g>
<!-- object_height&#45;&gt;1234 -->
<g id="edge24" class="edge">
<title>object_height&#45;&gt;1234</title>
<path fill="none" stroke="green" stroke-width="1.01" d="M296.84,-206.38C296.95,-196.11 297.15,-177.77 297.33,-160.86"/>
<polygon fill="green" stroke="green" stroke-width="1.01" points="300.83,-160.64 297.44,-150.6 293.84,-160.56 300.83,-160.64"/>
</g>
<!-- object_height&#45;&gt;666 -->
<g id="edge11" class="edge">
<title>object_height&#45;&gt;666</title>
<path fill="none" stroke="red" stroke-width="1.74" d="M282.03,-206.54C261.28,-195.04 222.56,-172.8 191.75,-150.55 189.41,-148.86 187.03,-147.05 184.67,-145.18"/>
<polygon fill="red" stroke="red" stroke-width="1.74" points="186.79,-142.4 176.84,-138.78 182.36,-147.82 186.79,-142.4"/>
</g>
<!-- 667 -->
<g id="node9" class="node">
<title>667</title>
<ellipse fill="white" stroke="black" cx="436.75" cy="-121.56" rx="25" ry="25"/>
<text text-anchor="middle" x="436.75" y="-119.36" font-family="Times,serif" font-size="9.00">667</text>
</g>
<!-- object_height&#45;&gt;667 -->
<g id="edge12" class="edge">
<title>object_height&#45;&gt;667</title>
<path fill="none" stroke="green" stroke-width="2.5" d="M312.13,-206.39C333.37,-194.9 372.59,-172.85 403.75,-150.55 406.1,-148.87 408.48,-147.06 410.85,-145.21"/>
<polygon fill="green" stroke="green" stroke-width="2.5" points="413.15,-147.84 418.68,-138.81 408.72,-142.42 413.15,-147.84"/>
</g>
<!-- object_height&#45;&gt;670 -->
<g id="edge13" class="edge">
<title>object_height&#45;&gt;670</title>
<path fill="none" stroke="red" stroke-width="0.94" d="M271.93,-206.49C230.81,-192.96 150.52,-165.65 124.75,-150.55 122.26,-149.09 119.77,-147.44 117.34,-145.69"/>
<polygon fill="red" stroke="red" stroke-width="0.94" points="119.42,-142.87 109.39,-139.46 115.11,-148.38 119.42,-142.87"/>
</g>
<!-- object_height&#45;&gt;671 -->
<g id="edge14" class="edge">
<title>object_height&#45;&gt;671</title>
<path fill="none" stroke="green" stroke-width="2.05" d="M290.45,-206.38C280.75,-193.82 261.73,-169.17 246.81,-149.84"/>
<polygon fill="green" stroke="green" stroke-width="2.05" points="249.38,-147.45 240.5,-141.67 243.84,-151.72 249.38,-147.45"/>
</g>
<!-- jump -->
<g id="node4" class="node">
<title>jump</title>
<ellipse fill="lightblue" stroke="black" cx="191.75" cy="-28.28" rx="28.07" ry="28.07"/>
<text text-anchor="middle" x="191.75" y="-26.08" font-family="Times,serif" font-size="9.00">jump</text>
</g>
<!-- 672&#45;&gt;jump -->
<g id="edge21" class="edge">
<title>672&#45;&gt;jump</title>
<path fill="none" stroke="green" stroke-width="0.33" d="M351.74,-104.19C346.76,-100.1 341.22,-95.93 335.75,-92.57 301.06,-71.23 257.91,-53.28 227.94,-42.01"/>
<polygon fill="green" stroke="green" stroke-width="0.33" points="228.9,-38.63 218.31,-38.44 226.48,-45.2 228.9,-38.63"/>
</g>
<!-- 1124&#45;&gt;667 -->
<g id="edge23" class="edge">
<title>1124&#45;&gt;667</title>
<path fill="none" stroke="red" stroke-width="1.71" d="M431.89,-186.45C432.6,-177.06 433.41,-166.49 434.15,-156.69"/>
<polygon fill="red" stroke="red" stroke-width="1.71" points="437.66,-156.69 434.93,-146.45 430.68,-156.16 437.66,-156.69"/>
</g>
<!-- 666&#45;&gt;jump -->
<g id="edge16" class="edge">
<title>666&#45;&gt;jump</title>
<path fill="none" stroke="green" stroke-width="0.61" d="M166.91,-98C170.54,-87.95 174.9,-75.88 178.95,-64.68"/>
<polygon fill="green" stroke="green" stroke-width="0.61" points="182.29,-65.73 182.4,-55.14 175.71,-63.35 182.29,-65.73"/>
</g>
<!-- 667&#45;&gt;jump -->
<g id="edge17" class="edge">
<title>667&#45;&gt;jump</title>
<path fill="none" stroke="green" stroke-width="1.12" d="M419.59,-103.7C414.76,-99.62 409.3,-95.58 403.75,-92.57 347.01,-61.81 273.42,-44.16 229.55,-35.67"/>
<polygon fill="green" stroke="green" stroke-width="1.12" points="230.06,-32.21 219.59,-33.8 228.77,-39.09 230.06,-32.21"/>
</g>
<!-- 668&#45;&gt;jump -->
<g id="edge18" class="edge">
<title>668&#45;&gt;jump</title>
<path fill="none" stroke="green" stroke-width="1.68" d="M42.58,-103.97C47.32,-99.98 52.57,-95.9 57.75,-92.57 89.28,-72.25 128.37,-54.55 156.17,-43.07"/>
<polygon fill="green" stroke="green" stroke-width="1.68" points="157.56,-46.29 165.5,-39.28 154.92,-39.8 157.56,-46.29"/>
</g>
<!-- 670&#45;&gt;jump -->
<g id="edge19" class="edge">
<title>670&#45;&gt;jump</title>
<path fill="none" stroke="green" stroke-width="0.54" d="M109.63,-104.24C124.63,-90.55 146.33,-70.74 163.65,-54.93"/>
<polygon fill="green" stroke="green" stroke-width="0.54" points="166.24,-57.31 171.27,-47.98 161.52,-52.14 166.24,-57.31"/>
</g>
<!-- 671&#45;&gt;jump -->
<g id="edge20" class="edge">
<title>671&#45;&gt;jump</title>
<path fill="none" stroke="red" stroke-width="0.17" d="M217.34,-98C213.6,-87.95 209.11,-75.88 204.94,-64.68"/>
<polygon fill="red" stroke="red" stroke-width="0.17" points="208.15,-63.29 201.38,-55.14 201.59,-65.73 208.15,-63.29"/>
</g>
</g>
</svg>
