<?xml version="1.0" encoding="UTF-8" standalone="no"?>
<!DOCTYPE svg PUBLIC "-//W3C//DTD SVG 1.1//EN"
 "http://www.w3.org/Graphics/SVG/1.1/DTD/svg11.dtd">
<!-- Generated by graphviz version 2.43.0 (0)
 -->
<!-- Title: %3 Pages: 1 -->
<svg width="526pt" height="204pt"
 viewBox="0.00 0.00 526.50 204.07" xmlns="http://www.w3.org/2000/svg" xmlns:xlink="http://www.w3.org/1999/xlink">
<g id="graph0" class="graph" transform="scale(1 1) rotate(0) translate(4 200.07)">
<title>%3</title>
<polygon fill="white" stroke="transparent" points="-4,4 -4,-200.07 522.5,-200.07 522.5,4 -4,4"/>
<!-- x_diff -->
<g id="node1" class="node">
<title>x_diff</title>
<polygon fill="lightgray" stroke="black" points="313.75,-196.07 271.75,-196.07 271.75,-178.07 313.75,-178.07 313.75,-196.07"/>
<text text-anchor="middle" x="292.75" y="-184.87" font-family="Times,serif" font-size="9.00">x_diff</text>
</g>
<!-- 297 -->
<g id="node5" class="node">
<title>297</title>
<ellipse fill="white" stroke="black" cx="24.75" cy="-117.32" rx="25" ry="25"/>
<text text-anchor="middle" x="24.75" y="-115.12" font-family="Times,serif" font-size="9.00">297</text>
</g>
<!-- x_diff&#45;&gt;297 -->
<g id="edge1" class="edge">
<title>x_diff&#45;&gt;297</title>
<path fill="none" stroke="red" stroke-width="0.06" d="M271.5,-180.16C268.57,-179.41 265.59,-178.69 262.75,-178.07 172.42,-158.13 142.99,-177.99 57.75,-142.07 55.89,-141.28 54.04,-140.38 52.22,-139.4"/>
<polygon fill="red" stroke="red" stroke-width="0.06" points="53.76,-136.23 43.42,-133.94 50.07,-142.18 53.76,-136.23"/>
</g>
<!-- 298 -->
<g id="node6" class="node">
<title>298</title>
<ellipse fill="white" stroke="black" cx="426.75" cy="-117.32" rx="25" ry="25"/>
<text text-anchor="middle" x="426.75" y="-115.12" font-family="Times,serif" font-size="9.00">298</text>
</g>
<!-- x_diff&#45;&gt;298 -->
<g id="edge2" class="edge">
<title>x_diff&#45;&gt;298</title>
<path fill="none" stroke="green" stroke-width="1.44" d="M313.88,-178.38C334.76,-170.44 367.32,-157.11 393.75,-142.07 395.5,-141.07 397.27,-140 399.03,-138.89"/>
<polygon fill="green" stroke="green" stroke-width="1.44" points="401.31,-141.57 407.66,-133.09 397.41,-135.76 401.31,-141.57"/>
</g>
<!-- 299 -->
<g id="node7" class="node">
<title>299</title>
<ellipse fill="white" stroke="black" cx="493.75" cy="-117.32" rx="25" ry="25"/>
<text text-anchor="middle" x="493.75" y="-115.12" font-family="Times,serif" font-size="9.00">299</text>
</g>
<!-- x_diff&#45;&gt;299 -->
<g id="edge3" class="edge">
<title>x_diff&#45;&gt;299</title>
<path fill="none" stroke="red" stroke-width="1.55" d="M314.05,-180.37C316.97,-179.59 319.93,-178.81 322.75,-178.07 384.04,-161.9 403.39,-169.04 460.75,-142.07 462.57,-141.21 464.39,-140.25 466.2,-139.22"/>
<polygon fill="red" stroke="red" stroke-width="1.55" points="468.4,-141.97 474.95,-133.64 464.63,-136.07 468.4,-141.97"/>
</g>
<!-- 300 -->
<g id="node8" class="node">
<title>300</title>
<ellipse fill="white" stroke="black" cx="91.75" cy="-117.32" rx="25" ry="25"/>
<text text-anchor="middle" x="91.75" y="-115.12" font-family="Times,serif" font-size="9.00">300</text>
</g>
<!-- x_diff&#45;&gt;300 -->
<g id="edge4" class="edge">
<title>x_diff&#45;&gt;300</title>
<path fill="none" stroke="red" stroke-width="2.43" d="M271.45,-180.37C268.53,-179.59 265.56,-178.81 262.75,-178.07 201.46,-161.9 182.11,-169.04 124.75,-142.07 122.93,-141.21 121.1,-140.25 119.3,-139.22"/>
<polygon fill="red" stroke="red" stroke-width="2.43" points="120.86,-136.07 110.55,-133.64 117.1,-141.97 120.86,-136.07"/>
</g>
<!-- 301 -->
<g id="node9" class="node">
<title>301</title>
<ellipse fill="white" stroke="black" cx="158.75" cy="-117.32" rx="25" ry="25"/>
<text text-anchor="middle" x="158.75" y="-115.12" font-family="Times,serif" font-size="9.00">301</text>
</g>
<!-- x_diff&#45;&gt;301 -->
<g id="edge5" class="edge">
<title>x_diff&#45;&gt;301</title>
<path fill="none" stroke="red" stroke-width="0.97" d="M271.62,-178.38C250.74,-170.44 218.18,-157.11 191.75,-142.07 190,-141.07 188.23,-140 186.47,-138.89"/>
<polygon fill="red" stroke="red" stroke-width="0.97" points="188.09,-135.76 177.84,-133.09 184.19,-141.57 188.09,-135.76"/>
</g>
<!-- 302 -->
<g id="node10" class="node">
<title>302</title>
<ellipse fill="white" stroke="black" cx="225.75" cy="-117.32" rx="25" ry="25"/>
<text text-anchor="middle" x="225.75" y="-115.12" font-family="Times,serif" font-size="9.00">302</text>
</g>
<!-- x_diff&#45;&gt;302 -->
<g id="edge6" class="edge">
<title>x_diff&#45;&gt;302</title>
<path fill="none" stroke="green" stroke-width="0.53" d="M284.8,-178.03C276.25,-169.38 262.22,-155.19 249.98,-142.82"/>
<polygon fill="green" stroke="green" stroke-width="0.53" points="252.18,-140.07 242.66,-135.42 247.2,-144.99 252.18,-140.07"/>
</g>
<!-- 303 -->
<g id="node11" class="node">
<title>303</title>
<ellipse fill="white" stroke="black" cx="292.75" cy="-117.32" rx="25" ry="25"/>
<text text-anchor="middle" x="292.75" y="-115.12" font-family="Times,serif" font-size="9.00">303</text>
</g>
<!-- x_diff&#45;&gt;303 -->
<g id="edge7" class="edge">
<title>x_diff&#45;&gt;303</title>
<path fill="none" stroke="green" stroke-width="1.49" d="M292.75,-178.03C292.75,-171.59 292.75,-162.1 292.75,-152.56"/>
<polygon fill="green" stroke="green" stroke-width="1.49" points="296.25,-152.34 292.75,-142.34 289.25,-152.34 296.25,-152.34"/>
</g>
<!-- 304 -->
<g id="node12" class="node">
<title>304</title>
<ellipse fill="white" stroke="black" cx="359.75" cy="-117.32" rx="25" ry="25"/>
<text text-anchor="middle" x="359.75" y="-115.12" font-family="Times,serif" font-size="9.00">304</text>
</g>
<!-- x_diff&#45;&gt;304 -->
<g id="edge8" class="edge">
<title>x_diff&#45;&gt;304</title>
<path fill="none" stroke="green" stroke-width="0.31" d="M300.7,-178.03C309.25,-169.38 323.28,-155.19 335.52,-142.82"/>
<polygon fill="green" stroke="green" stroke-width="0.31" points="338.29,-144.99 342.84,-135.42 333.32,-140.07 338.29,-144.99"/>
</g>
<!-- object_y -->
<g id="node2" class="node">
<title>object_y</title>
<polygon fill="lightgray" stroke="black" points="387.25,-196.07 332.25,-196.07 332.25,-178.07 387.25,-178.07 387.25,-196.07"/>
<text text-anchor="middle" x="359.75" y="-184.87" font-family="Times,serif" font-size="9.00">object_y</text>
</g>
<!-- object_y&#45;&gt;298 -->
<g id="edge9" class="edge">
<title>object_y&#45;&gt;298</title>
<path fill="none" stroke="red" stroke-width="0.08" d="M367.7,-178.03C376.25,-169.38 390.28,-155.19 402.52,-142.82"/>
<polygon fill="red" stroke="red" stroke-width="0.08" points="405.29,-144.99 409.84,-135.42 400.32,-140.07 405.29,-144.99"/>
</g>
<!-- object_y&#45;&gt;299 -->
<g id="edge10" class="edge">
<title>object_y&#45;&gt;299</title>
<path fill="none" stroke="red" stroke-width="2.78" d="M382.07,-177.92C402.98,-169.93 434.82,-156.82 460.75,-142.07 462.5,-141.07 464.27,-140 466.03,-138.89"/>
<polygon fill="red" stroke="red" stroke-width="2.78" points="468.31,-141.57 474.66,-133.09 464.41,-135.76 468.31,-141.57"/>
</g>
<!-- object_y&#45;&gt;300 -->
<g id="edge11" class="edge">
<title>object_y&#45;&gt;300</title>
<path fill="none" stroke="red" stroke-width="0.23" d="M331.89,-179.94C328.81,-179.29 325.71,-178.66 322.75,-178.07 235.03,-160.61 207.07,-177.05 124.75,-142.07 122.9,-141.28 121.05,-140.37 119.23,-139.38"/>
<polygon fill="red" stroke="red" stroke-width="0.23" points="120.77,-136.22 110.43,-133.92 117.07,-142.17 120.77,-136.22"/>
</g>
<!-- object_y&#45;&gt;301 -->
<g id="edge12" class="edge">
<title>object_y&#45;&gt;301</title>
<path fill="none" stroke="green" stroke-width="0.05" d="M331.97,-180.09C291.01,-171.06 216.57,-153.75 191.75,-142.07 189.93,-141.21 188.1,-140.25 186.3,-139.22"/>
<polygon fill="green" stroke="green" stroke-width="0.05" points="187.87,-136.07 177.55,-133.64 184.1,-141.97 187.87,-136.07"/>
</g>
<!-- object_y&#45;&gt;302 -->
<g id="edge13" class="edge">
<title>object_y&#45;&gt;302</title>
<path fill="none" stroke="red" stroke-width="1.62" d="M337.43,-177.92C316.51,-169.93 284.68,-156.82 258.75,-142.07 257,-141.07 255.23,-140 253.47,-138.89"/>
<polygon fill="red" stroke="red" stroke-width="1.62" points="255.09,-135.76 244.84,-133.09 251.19,-141.57 255.09,-135.76"/>
</g>
<!-- object_y&#45;&gt;303 -->
<g id="edge14" class="edge">
<title>object_y&#45;&gt;303</title>
<path fill="none" stroke="green" stroke-width="1.2" d="M351.8,-178.03C343.25,-169.38 329.22,-155.19 316.98,-142.82"/>
<polygon fill="green" stroke="green" stroke-width="1.2" points="319.18,-140.07 309.66,-135.42 314.2,-144.99 319.18,-140.07"/>
</g>
<!-- object_y&#45;&gt;304 -->
<g id="edge15" class="edge">
<title>object_y&#45;&gt;304</title>
<path fill="none" stroke="green" stroke-width="1.11" d="M359.75,-178.03C359.75,-171.59 359.75,-162.1 359.75,-152.56"/>
<polygon fill="green" stroke="green" stroke-width="1.11" points="363.25,-152.34 359.75,-142.34 356.25,-152.34 363.25,-152.34"/>
</g>
<!-- object_height -->
<g id="node3" class="node">
<title>object_height</title>
<polygon fill="lightgray" stroke="black" points="253.75,-196.07 173.75,-196.07 173.75,-178.07 253.75,-178.07 253.75,-196.07"/>
<text text-anchor="middle" x="213.75" y="-184.87" font-family="Times,serif" font-size="9.00">object_height</text>
</g>
<!-- object_height&#45;&gt;297 -->
<g id="edge16" class="edge">
<title>object_height&#45;&gt;297</title>
<path fill="none" stroke="green" stroke-width="0.77" d="M173.58,-178.77C141.23,-171.96 95.13,-160.1 57.75,-142.07 55.94,-141.19 54.12,-140.22 52.32,-139.18"/>
<polygon fill="green" stroke="green" stroke-width="0.77" points="53.89,-136.03 43.58,-133.57 50.11,-141.92 53.89,-136.03"/>
</g>
<!-- object_height&#45;&gt;298 -->
<g id="edge17" class="edge">
<title>object_height&#45;&gt;298</title>
<path fill="none" stroke="red" stroke-width="0.66" d="M253.83,-178.13C298.94,-168.88 369.13,-153.41 393.75,-142.07 395.58,-141.22 397.41,-140.28 399.21,-139.25"/>
<polygon fill="red" stroke="red" stroke-width="0.66" points="401.4,-142.01 407.97,-133.7 397.65,-136.1 401.4,-142.01"/>
</g>
<!-- object_height&#45;&gt;299 -->
<g id="edge18" class="edge">
<title>object_height&#45;&gt;299</title>
<path fill="none" stroke="green" stroke-width="1.16" d="M253.97,-179.38C321.5,-168.09 451.28,-146.07 460.75,-142.07 462.6,-141.28 464.45,-140.38 466.27,-139.39"/>
<polygon fill="green" stroke="green" stroke-width="1.16" points="468.42,-142.18 475.08,-133.93 464.73,-136.23 468.42,-142.18"/>
</g>
<!-- object_height&#45;&gt;300 -->
<g id="edge19" class="edge">
<title>object_height&#45;&gt;300</title>
<path fill="none" stroke="green" stroke-width="0.35" d="M195.21,-177.99C176.88,-169.74 148.23,-156.19 124.75,-142.07 123.07,-141.06 121.37,-139.99 119.67,-138.88"/>
<polygon fill="green" stroke="green" stroke-width="0.35" points="121.52,-135.91 111.28,-133.18 117.58,-141.7 121.52,-135.91"/>
</g>
<!-- object_height&#45;&gt;301 -->
<g id="edge20" class="edge">
<title>object_height&#45;&gt;301</title>
<path fill="none" stroke="red" stroke-width="0.31" d="M207.22,-178.03C200.61,-169.88 190.02,-156.83 180.42,-145.01"/>
<polygon fill="red" stroke="red" stroke-width="0.31" points="183.01,-142.65 173.99,-137.09 177.57,-147.06 183.01,-142.65"/>
</g>
<!-- object_height&#45;&gt;302 -->
<g id="edge21" class="edge">
<title>object_height&#45;&gt;302</title>
<path fill="none" stroke="green" stroke-width="0.34" d="M215.17,-178.03C216.34,-171.42 218.09,-161.58 219.82,-151.79"/>
<polygon fill="green" stroke="green" stroke-width="0.34" points="223.3,-152.2 221.6,-141.74 216.41,-150.98 223.3,-152.2"/>
</g>
<!-- object_height&#45;&gt;303 -->
<g id="edge22" class="edge">
<title>object_height&#45;&gt;303</title>
<path fill="none" stroke="green" stroke-width="1.87" d="M223.12,-178.03C233.74,-168.92 251.52,-153.67 266.45,-140.87"/>
<polygon fill="green" stroke="green" stroke-width="1.87" points="269.08,-143.23 274.39,-134.06 264.52,-137.91 269.08,-143.23"/>
</g>
<!-- object_height&#45;&gt;304 -->
<g id="edge23" class="edge">
<title>object_height&#45;&gt;304</title>
<path fill="none" stroke="green" stroke-width="1.04" d="M239.7,-178.05C263.15,-170.32 298.26,-157.54 326.75,-142.07 328.52,-141.11 330.3,-140.07 332.07,-138.97"/>
<polygon fill="green" stroke="green" stroke-width="1.04" points="334.34,-141.67 340.74,-133.23 330.47,-135.84 334.34,-141.67"/>
</g>
<!-- jump -->
<g id="node4" class="node">
<title>jump</title>
<ellipse fill="lightblue" stroke="black" cx="258.75" cy="-28.28" rx="28.07" ry="28.07"/>
<text text-anchor="middle" x="258.75" y="-26.08" font-family="Times,serif" font-size="9.00">jump</text>
</g>
<!-- 297&#45;&gt;jump -->
<g id="edge24" class="edge">
<title>297&#45;&gt;jump</title>
<path fill="none" stroke="red" stroke-width="0.65" d="M43.64,-101.17C48.1,-98.04 52.95,-94.97 57.75,-92.57 111.72,-65.53 179.63,-47.05 221.08,-37.34"/>
<polygon fill="red" stroke="red" stroke-width="0.65" points="222.06,-40.7 231.03,-35.06 220.5,-33.88 222.06,-40.7"/>
</g>
<!-- 298&#45;&gt;jump -->
<g id="edge25" class="edge">
<title>298&#45;&gt;jump</title>
<path fill="none" stroke="green" stroke-width="0.09" d="M407.26,-101.39C402.91,-98.31 398.25,-95.21 393.75,-92.57 361.2,-73.45 321.94,-55.58 294.16,-43.74"/>
<polygon fill="green" stroke="green" stroke-width="0.09" points="295.42,-40.47 284.85,-39.81 292.7,-46.92 295.42,-40.47"/>
</g>
<!-- 299&#45;&gt;jump -->
<g id="edge26" class="edge">
<title>299&#45;&gt;jump</title>
<path fill="none" stroke="green" stroke-width="0.47" d="M474.86,-101.16C470.4,-98.04 465.55,-94.97 460.75,-92.57 406.36,-65.37 337.88,-46.89 296.26,-37.22"/>
<polygon fill="green" stroke="green" stroke-width="0.47" points="296.8,-33.76 286.28,-34.96 295.25,-40.59 296.8,-33.76"/>
</g>
<!-- 300&#45;&gt;jump -->
<g id="edge27" class="edge">
<title>300&#45;&gt;jump</title>
<path fill="none" stroke="green" stroke-width="0.47" d="M111.25,-101.4C115.59,-98.32 120.25,-95.22 124.75,-92.57 157.07,-73.52 196.04,-55.64 223.6,-43.78"/>
<polygon fill="green" stroke="green" stroke-width="0.47" points="225.02,-46.98 232.85,-39.84 222.28,-40.54 225.02,-46.98"/>
</g>
<!-- 301&#45;&gt;jump -->
<g id="edge28" class="edge">
<title>301&#45;&gt;jump</title>
<path fill="none" stroke="red" stroke-width="0.19" d="M177.09,-100.35C191.82,-87.53 212.78,-69.29 229.77,-54.5"/>
<polygon fill="red" stroke="red" stroke-width="0.19" points="232.51,-56.76 237.75,-47.56 227.91,-51.48 232.51,-56.76"/>
</g>
<!-- 302&#45;&gt;jump -->
<g id="edge29" class="edge">
<title>302&#45;&gt;jump</title>
<path fill="none" stroke="green" stroke-width="0.51" d="M234.25,-93.9C237.63,-84.99 241.6,-74.52 245.35,-64.63"/>
<polygon fill="green" stroke="green" stroke-width="0.51" points="248.72,-65.6 248.99,-55.01 242.18,-63.12 248.72,-65.6"/>
</g>
<!-- 303&#45;&gt;jump -->
<g id="edge30" class="edge">
<title>303&#45;&gt;jump</title>
<path fill="none" stroke="red" stroke-width="0.36" d="M283.99,-93.9C280.51,-84.99 276.42,-74.52 272.56,-64.63"/>
<polygon fill="red" stroke="red" stroke-width="0.36" points="275.7,-63.05 268.8,-55.01 269.18,-65.6 275.7,-63.05"/>
</g>
<!-- 304&#45;&gt;jump -->
<g id="edge31" class="edge">
<title>304&#45;&gt;jump</title>
<path fill="none" stroke="green" stroke-width="0.99" d="M341.22,-100.35C326.21,-87.42 304.79,-68.96 287.55,-54.1"/>
<polygon fill="green" stroke="green" stroke-width="0.99" points="289.81,-51.43 279.95,-47.56 285.24,-56.74 289.81,-51.43"/>
</g>
</g>
</svg>
