<?xml version="1.0" encoding="UTF-8" standalone="no"?>
<!DOCTYPE svg PUBLIC "-//W3C//DTD SVG 1.1//EN"
 "http://www.w3.org/Graphics/SVG/1.1/DTD/svg11.dtd">
<!-- Generated by graphviz version 2.43.0 (0)
 -->
<!-- Title: %3 Pages: 1 -->
<svg width="470pt" height="298pt"
 viewBox="0.00 0.00 469.56 298.05" xmlns="http://www.w3.org/2000/svg" xmlns:xlink="http://www.w3.org/1999/xlink">
<g id="graph0" class="graph" transform="scale(1 1) rotate(0) translate(4 294.05)">
<title>%3</title>
<polygon fill="white" stroke="transparent" points="-4,4 -4,-294.05 465.56,-294.05 465.56,4 -4,4"/>
<!-- x_diff -->
<g id="node1" class="node">
<title>x_diff</title>
<polygon fill="lightgray" stroke="black" points="199.01,-290.05 157.01,-290.05 157.01,-272.05 199.01,-272.05 199.01,-290.05"/>
<text text-anchor="middle" x="178.01" y="-278.85" font-family="Times,serif" font-size="9.00">x_diff</text>
</g>
<!-- 393 -->
<g id="node5" class="node">
<title>393</title>
<ellipse fill="white" stroke="black" cx="44.01" cy="-211.3" rx="25" ry="25"/>
<text text-anchor="middle" x="44.01" y="-209.1" font-family="Times,serif" font-size="9.00">393</text>
</g>
<!-- x_diff&#45;&gt;393 -->
<g id="edge1" class="edge">
<title>x_diff&#45;&gt;393</title>
<path fill="none" stroke="red" stroke-width="1.72" d="M156.88,-272.36C136,-264.42 103.44,-251.09 77.01,-236.05 75.26,-235.05 73.49,-233.99 71.73,-232.87"/>
<polygon fill="red" stroke="red" stroke-width="1.72" points="73.35,-229.75 63.1,-227.08 69.45,-235.56 73.35,-229.75"/>
</g>
<!-- 394 -->
<g id="node6" class="node">
<title>394</title>
<ellipse fill="white" stroke="black" cx="178.01" cy="-211.3" rx="25" ry="25"/>
<text text-anchor="middle" x="178.01" y="-209.1" font-family="Times,serif" font-size="9.00">394</text>
</g>
<!-- x_diff&#45;&gt;394 -->
<g id="edge2" class="edge">
<title>x_diff&#45;&gt;394</title>
<path fill="none" stroke="red" stroke-width="0.17" d="M178.01,-272.01C178.01,-265.58 178.01,-256.08 178.01,-246.54"/>
<polygon fill="red" stroke="red" stroke-width="0.17" points="181.51,-246.32 178.01,-236.32 174.51,-246.32 181.51,-246.32"/>
</g>
<!-- 395 -->
<g id="node7" class="node">
<title>395</title>
<ellipse fill="white" stroke="black" cx="351.01" cy="-211.3" rx="25" ry="25"/>
<text text-anchor="middle" x="351.01" y="-209.1" font-family="Times,serif" font-size="9.00">395</text>
</g>
<!-- x_diff&#45;&gt;395 -->
<g id="edge3" class="edge">
<title>x_diff&#45;&gt;395</title>
<path fill="none" stroke="green" stroke-width="3.71" d="M199.21,-274.28C232.86,-264.98 296.88,-246.63 318.01,-236.05 319.81,-235.15 321.62,-234.15 323.41,-233.1"/>
<polygon fill="green" stroke="green" stroke-width="3.71" points="325.63,-235.83 332.12,-227.45 321.83,-229.95 325.63,-235.83"/>
</g>
<!-- 397 -->
<g id="node8" class="node">
<title>397</title>
<ellipse fill="white" stroke="black" cx="418.01" cy="-211.3" rx="25" ry="25"/>
<text text-anchor="middle" x="418.01" y="-209.1" font-family="Times,serif" font-size="9.00">397</text>
</g>
<!-- x_diff&#45;&gt;397 -->
<g id="edge4" class="edge">
<title>x_diff&#45;&gt;397</title>
<path fill="none" stroke="red" stroke-width="0.49" d="M199.21,-274.97C203.45,-273.98 207.87,-272.97 212.01,-272.05 288.69,-255.05 313.12,-267.68 385.01,-236.05 386.85,-235.24 388.69,-234.31 390.51,-233.31"/>
<polygon fill="red" stroke="red" stroke-width="0.49" points="392.68,-236.08 399.29,-227.81 388.96,-230.15 392.68,-236.08"/>
</g>
<!-- 398 -->
<g id="node9" class="node">
<title>398</title>
<ellipse fill="white" stroke="black" cx="231.01" cy="-121.56" rx="25" ry="25"/>
<text text-anchor="middle" x="231.01" y="-119.36" font-family="Times,serif" font-size="9.00">398</text>
</g>
<!-- x_diff&#45;&gt;398 -->
<g id="edge5" class="edge">
<title>x_diff&#45;&gt;398</title>
<path fill="none" stroke="green" stroke-width="0.16" d="M157,-277.71C116.05,-272.67 27.97,-259.32 10.01,-236.05 -3.43,-218.63 -3.21,-204.14 10.01,-186.55 32.44,-156.7 139.97,-136.32 196.35,-127.5"/>
<polygon fill="green" stroke="green" stroke-width="0.16" points="197.21,-130.91 206.57,-125.94 196.16,-123.99 197.21,-130.91"/>
</g>
<!-- 399 -->
<g id="node10" class="node">
<title>399</title>
<ellipse fill="white" stroke="black" cx="284.01" cy="-211.3" rx="25" ry="25"/>
<text text-anchor="middle" x="284.01" y="-209.1" font-family="Times,serif" font-size="9.00">399</text>
</g>
<!-- x_diff&#45;&gt;399 -->
<g id="edge6" class="edge">
<title>x_diff&#45;&gt;399</title>
<path fill="none" stroke="red" stroke-width="1.62" d="M190.59,-272.01C206.33,-261.95 233.77,-244.41 254.86,-230.93"/>
<polygon fill="red" stroke="red" stroke-width="1.62" points="256.91,-233.77 263.46,-225.44 253.14,-227.87 256.91,-233.77"/>
</g>
<!-- 400 -->
<g id="node11" class="node">
<title>400</title>
<ellipse fill="white" stroke="black" cx="111.01" cy="-211.3" rx="25" ry="25"/>
<text text-anchor="middle" x="111.01" y="-209.1" font-family="Times,serif" font-size="9.00">400</text>
</g>
<!-- x_diff&#45;&gt;400 -->
<g id="edge7" class="edge">
<title>x_diff&#45;&gt;400</title>
<path fill="none" stroke="green" stroke-width="0.61" d="M170.06,-272.01C161.51,-263.36 147.48,-249.18 135.24,-236.8"/>
<polygon fill="green" stroke="green" stroke-width="0.61" points="137.44,-234.05 127.92,-229.4 132.46,-238.97 137.44,-234.05"/>
</g>
<!-- object_y -->
<g id="node2" class="node">
<title>object_y</title>
<polygon fill="lightgray" stroke="black" points="378.51,-290.05 323.51,-290.05 323.51,-272.05 378.51,-272.05 378.51,-290.05"/>
<text text-anchor="middle" x="351.01" y="-278.85" font-family="Times,serif" font-size="9.00">object_y</text>
</g>
<!-- object_y&#45;&gt;394 -->
<g id="edge8" class="edge">
<title>object_y&#45;&gt;394</title>
<path fill="none" stroke="red" stroke-width="1.26" d="M330.49,-272.01C300.71,-260.35 245.24,-238.63 210.05,-224.85"/>
<polygon fill="red" stroke="red" stroke-width="1.26" points="211.29,-221.57 200.7,-221.19 208.73,-228.09 211.29,-221.57"/>
</g>
<!-- object_y&#45;&gt;395 -->
<g id="edge9" class="edge">
<title>object_y&#45;&gt;395</title>
<path fill="none" stroke="red" stroke-width="0.13" d="M351.01,-272.01C351.01,-265.58 351.01,-256.08 351.01,-246.54"/>
<polygon fill="red" stroke="red" stroke-width="0.13" points="354.51,-246.32 351.01,-236.32 347.51,-246.32 354.51,-246.32"/>
</g>
<!-- object_y&#45;&gt;397 -->
<g id="edge10" class="edge">
<title>object_y&#45;&gt;397</title>
<path fill="none" stroke="green" stroke-width="1.73" d="M358.96,-272.01C367.51,-263.36 381.54,-249.18 393.78,-236.8"/>
<polygon fill="green" stroke="green" stroke-width="1.73" points="396.56,-238.97 401.1,-229.4 391.58,-234.05 396.56,-238.97"/>
</g>
<!-- object_y&#45;&gt;398 -->
<g id="edge11" class="edge">
<title>object_y&#45;&gt;398</title>
<path fill="none" stroke="red" stroke-width="3.28" d="M378.65,-276.39C402.6,-271.6 435.87,-260.69 452.01,-236.05 464.07,-217.65 465.23,-204.14 452.01,-186.55 446.27,-178.91 325.54,-146.92 265.01,-131.26"/>
<polygon fill="red" stroke="red" stroke-width="3.28" points="265.69,-127.83 255.14,-128.72 263.95,-134.6 265.69,-127.83"/>
</g>
<!-- object_y&#45;&gt;399 -->
<g id="edge12" class="edge">
<title>object_y&#45;&gt;399</title>
<path fill="none" stroke="green" stroke-width="0.29" d="M343.06,-272.01C334.51,-263.36 320.48,-249.18 308.24,-236.8"/>
<polygon fill="green" stroke="green" stroke-width="0.29" points="310.44,-234.05 300.92,-229.4 305.46,-238.97 310.44,-234.05"/>
</g>
<!-- object_height -->
<g id="node3" class="node">
<title>object_height</title>
<polygon fill="lightgray" stroke="black" points="301.01,-290.05 221.01,-290.05 221.01,-272.05 301.01,-272.05 301.01,-290.05"/>
<text text-anchor="middle" x="261.01" y="-278.85" font-family="Times,serif" font-size="9.00">object_height</text>
</g>
<!-- object_height&#45;&gt;394 -->
<g id="edge13" class="edge">
<title>object_height&#45;&gt;394</title>
<path fill="none" stroke="green" stroke-width="0.09" d="M251.16,-272.01C239.83,-262.76 220.73,-247.17 204.9,-234.25"/>
<polygon fill="green" stroke="green" stroke-width="0.09" points="206.93,-231.39 196.97,-227.78 202.5,-236.81 206.93,-231.39"/>
</g>
<!-- object_height&#45;&gt;395 -->
<g id="edge14" class="edge">
<title>object_height&#45;&gt;395</title>
<path fill="none" stroke="red" stroke-width="0.31" d="M271.69,-272.01C284.33,-262.49 305.88,-246.27 323.33,-233.14"/>
<polygon fill="red" stroke="red" stroke-width="0.31" points="325.62,-235.79 331.51,-226.98 321.41,-230.2 325.62,-235.79"/>
</g>
<!-- object_height&#45;&gt;397 -->
<g id="edge15" class="edge">
<title>object_height&#45;&gt;397</title>
<path fill="none" stroke="red" stroke-width="0.06" d="M291.06,-271.99C316.8,-264.48 354.45,-252.05 385.01,-236.05 386.79,-235.12 388.59,-234.1 390.37,-233.02"/>
<polygon fill="red" stroke="red" stroke-width="0.06" points="392.62,-235.73 399.06,-227.32 388.78,-229.88 392.62,-235.73"/>
</g>
<!-- object_height&#45;&gt;398 -->
<g id="edge16" class="edge">
<title>object_height&#45;&gt;398</title>
<path fill="none" stroke="red" stroke-width="1.95" d="M258.79,-271.98C256.42,-263.19 252.64,-248.69 250.01,-236.05 244.45,-209.37 239.42,-178.91 235.94,-156.26"/>
<polygon fill="red" stroke="red" stroke-width="1.95" points="239.36,-155.5 234.4,-146.14 232.44,-156.55 239.36,-155.5"/>
</g>
<!-- object_height&#45;&gt;399 -->
<g id="edge17" class="edge">
<title>object_height&#45;&gt;399</title>
<path fill="none" stroke="red" stroke-width="0.63" d="M263.74,-272.01C266.07,-265.16 269.57,-254.83 273.02,-244.68"/>
<polygon fill="red" stroke="red" stroke-width="0.63" points="276.36,-245.72 276.26,-235.13 269.73,-243.47 276.36,-245.72"/>
</g>
<!-- object_height&#45;&gt;400 -->
<g id="edge18" class="edge">
<title>object_height&#45;&gt;400</title>
<path fill="none" stroke="red" stroke-width="0.1" d="M233.65,-272.03C209.35,-264.38 173.28,-251.73 144.01,-236.05 142.24,-235.1 140.45,-234.07 138.67,-232.98"/>
<polygon fill="red" stroke="red" stroke-width="0.1" points="140.27,-229.84 130,-227.26 136.42,-235.69 140.27,-229.84"/>
</g>
<!-- jump -->
<g id="node4" class="node">
<title>jump</title>
<ellipse fill="lightblue" stroke="black" cx="303.01" cy="-28.28" rx="28.07" ry="28.07"/>
<text text-anchor="middle" x="303.01" y="-26.08" font-family="Times,serif" font-size="9.00">jump</text>
</g>
<!-- 395&#45;&gt;jump -->
<g id="edge19" class="edge">
<title>395&#45;&gt;jump</title>
<path fill="none" stroke="red" stroke-width="0.52" d="M344.83,-187.01C336.66,-156.2 322.18,-101.58 312.59,-65.4"/>
<polygon fill="red" stroke="red" stroke-width="0.52" points="315.97,-64.49 310.02,-55.72 309.2,-66.28 315.97,-64.49"/>
</g>
<!-- 1303 -->
<g id="node12" class="node">
<title>1303</title>
<ellipse fill="white" stroke="black" cx="379.01" cy="-121.56" rx="28.98" ry="28.98"/>
<text text-anchor="middle" x="379.01" y="-119.36" font-family="Times,serif" font-size="9.00">1303</text>
</g>
<!-- 395&#45;&gt;1303 -->
<g id="edge24" class="edge">
<title>395&#45;&gt;1303</title>
<path fill="none" stroke="green" stroke-width="1.52" d="M358.37,-187.25C361.11,-178.66 364.29,-168.68 367.33,-159.17"/>
<polygon fill="green" stroke="green" stroke-width="1.52" points="370.71,-160.09 370.41,-149.5 364.04,-157.97 370.71,-160.09"/>
</g>
<!-- 397&#45;&gt;jump -->
<g id="edge20" class="edge">
<title>397&#45;&gt;jump</title>
<path fill="none" stroke="red" stroke-width="0.99" d="M424.25,-187.24C429.68,-162.09 434.24,-121.56 417.01,-92.57 400.45,-64.7 366.74,-48.21 340.26,-39.09"/>
<polygon fill="red" stroke="red" stroke-width="0.99" points="341.1,-35.68 330.51,-35.94 338.95,-42.34 341.1,-35.68"/>
</g>
<!-- 398&#45;&gt;jump -->
<g id="edge21" class="edge">
<title>398&#45;&gt;jump</title>
<path fill="none" stroke="red" stroke-width="1.26" d="M245.93,-101.65C255.64,-89.34 268.51,-73.02 279.57,-59"/>
<polygon fill="red" stroke="red" stroke-width="1.26" points="282.39,-61.08 285.83,-51.06 276.89,-56.74 282.39,-61.08"/>
</g>
<!-- 399&#45;&gt;jump -->
<g id="edge22" class="edge">
<title>399&#45;&gt;jump</title>
<path fill="none" stroke="red" stroke-width="0.65" d="M286.49,-186.64C289.7,-156.11 295.31,-102.66 299.09,-66.62"/>
<polygon fill="red" stroke="red" stroke-width="0.65" points="302.59,-66.81 300.15,-56.5 295.63,-66.08 302.59,-66.81"/>
</g>
<!-- 399&#45;&gt;398 -->
<g id="edge23" class="edge">
<title>399&#45;&gt;398</title>
<path fill="none" stroke="red" stroke-width="0.88" d="M271.45,-189.51C264.65,-178.25 256.14,-164.16 248.69,-151.82"/>
<polygon fill="red" stroke="red" stroke-width="0.88" points="251.65,-149.95 243.48,-143.2 245.66,-153.57 251.65,-149.95"/>
</g>
</g>
</svg>
