<?xml version="1.0" encoding="UTF-8" standalone="no"?>
<!DOCTYPE svg PUBLIC "-//W3C//DTD SVG 1.1//EN"
 "http://www.w3.org/Graphics/SVG/1.1/DTD/svg11.dtd">
<!-- Generated by graphviz version 2.43.0 (0)
 -->
<!-- Title: %3 Pages: 1 -->
<svg width="488pt" height="290pt"
 viewBox="0.00 0.00 488.17 289.56" xmlns="http://www.w3.org/2000/svg" xmlns:xlink="http://www.w3.org/1999/xlink">
<g id="graph0" class="graph" transform="scale(1 1) rotate(0) translate(4 285.56)">
<title>%3</title>
<polygon fill="white" stroke="transparent" points="-4,4 -4,-285.56 484.17,-285.56 484.17,4 -4,4"/>
<!-- x_diff -->
<g id="node1" class="node">
<title>x_diff</title>
<polygon fill="lightgray" stroke="black" points="112.42,-281.56 70.42,-281.56 70.42,-263.56 112.42,-263.56 112.42,-281.56"/>
<text text-anchor="middle" x="91.42" y="-270.36" font-family="Times,serif" font-size="9.00">x_diff</text>
</g>
<!-- 160 -->
<g id="node5" class="node">
<title>160</title>
<ellipse fill="white" stroke="black" cx="43.42" cy="-202.81" rx="25" ry="25"/>
<text text-anchor="middle" x="43.42" y="-200.61" font-family="Times,serif" font-size="9.00">160</text>
</g>
<!-- x_diff&#45;&gt;160 -->
<g id="edge4" class="edge">
<title>x_diff&#45;&gt;160</title>
<path fill="none" stroke="red" stroke-width="1.13" d="M85.72,-263.53C80.18,-255.71 71.44,-243.36 63.33,-231.92"/>
<polygon fill="red" stroke="red" stroke-width="1.13" points="65.96,-229.58 57.32,-223.44 60.25,-233.62 65.96,-229.58"/>
</g>
<!-- 154 -->
<g id="node7" class="node">
<title>154</title>
<ellipse fill="white" stroke="black" cx="110.42" cy="-202.81" rx="25" ry="25"/>
<text text-anchor="middle" x="110.42" y="-200.61" font-family="Times,serif" font-size="9.00">154</text>
</g>
<!-- x_diff&#45;&gt;154 -->
<g id="edge1" class="edge">
<title>x_diff&#45;&gt;154</title>
<path fill="none" stroke="green" stroke-width="1.21" d="M93.67,-263.53C95.56,-256.8 98.39,-246.72 101.18,-236.75"/>
<polygon fill="green" stroke="green" stroke-width="1.21" points="104.6,-237.51 103.93,-226.94 97.86,-235.62 104.6,-237.51"/>
</g>
<!-- 155 -->
<g id="node8" class="node">
<title>155</title>
<ellipse fill="white" stroke="black" cx="177.42" cy="-202.81" rx="25" ry="25"/>
<text text-anchor="middle" x="177.42" y="-200.61" font-family="Times,serif" font-size="9.00">155</text>
</g>
<!-- x_diff&#45;&gt;155 -->
<g id="edge2" class="edge">
<title>x_diff&#45;&gt;155</title>
<path fill="none" stroke="red" stroke-width="1.6" d="M101.62,-263.53C113.52,-254.15 133.66,-238.28 150.19,-225.26"/>
<polygon fill="red" stroke="red" stroke-width="1.6" points="152.76,-227.7 158.45,-218.76 148.43,-222.2 152.76,-227.7"/>
</g>
<!-- 156 -->
<g id="node9" class="node">
<title>156</title>
<ellipse fill="white" stroke="black" cx="239.42" cy="-117.32" rx="25" ry="25"/>
<text text-anchor="middle" x="239.42" y="-115.12" font-family="Times,serif" font-size="9.00">156</text>
</g>
<!-- x_diff&#45;&gt;156 -->
<g id="edge3" class="edge">
<title>x_diff&#45;&gt;156</title>
<path fill="none" stroke="green" stroke-width="0.35" d="M70.33,-266.79C50.69,-261.1 22.52,-249.47 9.42,-227.56 -1.88,-208.69 -4.04,-195.47 9.42,-178.07 33.18,-147.34 146.4,-129.49 204.64,-122.2"/>
<polygon fill="green" stroke="green" stroke-width="0.35" points="205.33,-125.64 214.84,-120.96 204.49,-118.69 205.33,-125.64"/>
</g>
<!-- object_y -->
<g id="node2" class="node">
<title>object_y</title>
<polygon fill="lightgray" stroke="black" points="313.92,-281.56 258.92,-281.56 258.92,-263.56 313.92,-263.56 313.92,-281.56"/>
<text text-anchor="middle" x="286.42" y="-270.36" font-family="Times,serif" font-size="9.00">object_y</text>
</g>
<!-- object_y&#45;&gt;160 -->
<g id="edge11" class="edge">
<title>object_y&#45;&gt;160</title>
<path fill="none" stroke="green" stroke-width="0.6" d="M258.54,-265.51C255.46,-264.85 252.38,-264.19 249.42,-263.56 172.59,-247.26 148.3,-259.19 76.42,-227.56 74.58,-226.75 72.74,-225.83 70.92,-224.83"/>
<polygon fill="green" stroke="green" stroke-width="0.6" points="72.47,-221.67 62.14,-219.32 68.75,-227.6 72.47,-221.67"/>
</g>
<!-- 153 -->
<g id="node6" class="node">
<title>153</title>
<ellipse fill="white" stroke="black" cx="321.42" cy="-202.81" rx="25" ry="25"/>
<text text-anchor="middle" x="321.42" y="-200.61" font-family="Times,serif" font-size="9.00">153</text>
</g>
<!-- object_y&#45;&gt;153 -->
<g id="edge5" class="edge">
<title>object_y&#45;&gt;153</title>
<path fill="none" stroke="red" stroke-width="2.14" d="M290.57,-263.53C294.32,-256.26 300.09,-245.09 305.63,-234.37"/>
<polygon fill="red" stroke="red" stroke-width="2.14" points="308.9,-235.66 310.38,-225.17 302.68,-232.45 308.9,-235.66"/>
</g>
<!-- object_y&#45;&gt;154 -->
<g id="edge6" class="edge">
<title>object_y&#45;&gt;154</title>
<path fill="none" stroke="red" stroke-width="1.95" d="M258.64,-264.17C223.12,-254.52 163.77,-237.68 143.42,-227.56 141.62,-226.67 139.81,-225.68 138.01,-224.63"/>
<polygon fill="red" stroke="red" stroke-width="1.95" points="139.59,-221.48 129.29,-218.99 135.79,-227.36 139.59,-221.48"/>
</g>
<!-- object_y&#45;&gt;155 -->
<g id="edge7" class="edge">
<title>object_y&#45;&gt;155</title>
<path fill="none" stroke="green" stroke-width="1.62" d="M273.49,-263.53C257.13,-253.36 228.48,-235.55 206.71,-222.02"/>
<polygon fill="green" stroke="green" stroke-width="1.62" points="208.49,-219.01 198.15,-216.7 204.8,-224.95 208.49,-219.01"/>
</g>
<!-- object_y&#45;&gt;156 -->
<g id="edge8" class="edge">
<title>object_y&#45;&gt;156</title>
<path fill="none" stroke="red" stroke-width="0.69" d="M283.89,-263.32C277.49,-242.47 260.39,-186.69 249.35,-150.71"/>
<polygon fill="red" stroke="red" stroke-width="0.69" points="252.69,-149.66 246.41,-141.13 246,-151.72 252.69,-149.66"/>
</g>
<!-- 157 -->
<g id="node10" class="node">
<title>157</title>
<ellipse fill="white" stroke="black" cx="388.42" cy="-202.81" rx="25" ry="25"/>
<text text-anchor="middle" x="388.42" y="-200.61" font-family="Times,serif" font-size="9.00">157</text>
</g>
<!-- object_y&#45;&gt;157 -->
<g id="edge9" class="edge">
<title>object_y&#45;&gt;157</title>
<path fill="none" stroke="red" stroke-width="0.82" d="M299.53,-263.51C313.52,-254.84 336.25,-240.56 355.42,-227.56 357.04,-226.46 358.7,-225.32 360.36,-224.17"/>
<polygon fill="red" stroke="red" stroke-width="0.82" points="362.5,-226.94 368.65,-218.31 358.46,-221.22 362.5,-226.94"/>
</g>
<!-- 158 -->
<g id="node11" class="node">
<title>158</title>
<ellipse fill="white" stroke="black" cx="455.42" cy="-202.81" rx="25" ry="25"/>
<text text-anchor="middle" x="455.42" y="-200.61" font-family="Times,serif" font-size="9.00">158</text>
</g>
<!-- object_y&#45;&gt;158 -->
<g id="edge10" class="edge">
<title>object_y&#45;&gt;158</title>
<path fill="none" stroke="red" stroke-width="0.48" d="M313.97,-265.33C342.17,-258.35 386.77,-245.6 422.42,-227.56 424.21,-226.66 426.02,-225.66 427.81,-224.59"/>
<polygon fill="red" stroke="red" stroke-width="0.48" points="430.04,-227.32 436.52,-218.94 426.22,-221.45 430.04,-227.32"/>
</g>
<!-- object_height -->
<g id="node3" class="node">
<title>object_height</title>
<polygon fill="lightgray" stroke="black" points="240.42,-281.56 160.42,-281.56 160.42,-263.56 240.42,-263.56 240.42,-281.56"/>
<text text-anchor="middle" x="200.42" y="-270.36" font-family="Times,serif" font-size="9.00">object_height</text>
</g>
<!-- object_height&#45;&gt;160 -->
<g id="edge18" class="edge">
<title>object_height&#45;&gt;160</title>
<path fill="none" stroke="green" stroke-width="0.32" d="M170.37,-263.5C144.63,-256 106.97,-243.56 76.42,-227.56 74.64,-226.63 72.84,-225.61 71.06,-224.54"/>
<polygon fill="green" stroke="green" stroke-width="0.32" points="72.65,-221.39 62.37,-218.84 68.81,-227.25 72.65,-221.39"/>
</g>
<!-- object_height&#45;&gt;153 -->
<g id="edge12" class="edge">
<title>object_height&#45;&gt;153</title>
<path fill="none" stroke="green" stroke-width="0.72" d="M214.77,-263.53C233.54,-253.02 266.87,-234.35 291.3,-220.68"/>
<polygon fill="green" stroke="green" stroke-width="0.72" points="293.15,-223.65 300.17,-215.71 289.73,-217.54 293.15,-223.65"/>
</g>
<!-- object_height&#45;&gt;154 -->
<g id="edge13" class="edge">
<title>object_height&#45;&gt;154</title>
<path fill="none" stroke="green" stroke-width="1.32" d="M189.74,-263.53C177.1,-254.01 155.55,-237.79 138.1,-224.65"/>
<polygon fill="green" stroke="green" stroke-width="1.32" points="140.02,-221.71 129.92,-218.5 135.81,-227.31 140.02,-221.71"/>
</g>
<!-- object_height&#45;&gt;155 -->
<g id="edge14" class="edge">
<title>object_height&#45;&gt;155</title>
<path fill="none" stroke="red" stroke-width="0.77" d="M197.69,-263.53C195.36,-256.67 191.86,-246.35 188.41,-236.2"/>
<polygon fill="red" stroke="red" stroke-width="0.77" points="191.7,-234.99 185.17,-226.64 185.07,-237.24 191.7,-234.99"/>
</g>
<!-- object_height&#45;&gt;156 -->
<g id="edge15" class="edge">
<title>object_height&#45;&gt;156</title>
<path fill="none" stroke="green" stroke-width="0.91" d="M202.51,-263.32C207.78,-242.61 221.82,-187.47 230.98,-151.47"/>
<polygon fill="green" stroke="green" stroke-width="0.91" points="234.46,-151.97 233.54,-141.42 227.68,-150.24 234.46,-151.97"/>
</g>
<!-- object_height&#45;&gt;157 -->
<g id="edge16" class="edge">
<title>object_height&#45;&gt;157</title>
<path fill="none" stroke="red" stroke-width="2.96" d="M240.65,-264.16C272.78,-257.31 318.39,-245.46 355.42,-227.56 357.23,-226.69 359.05,-225.71 360.84,-224.67"/>
<polygon fill="red" stroke="red" stroke-width="2.96" points="363.06,-227.41 369.58,-219.06 359.27,-221.52 363.06,-227.41"/>
</g>
<!-- object_height&#45;&gt;158 -->
<g id="edge17" class="edge">
<title>object_height&#45;&gt;158</title>
<path fill="none" stroke="green" stroke-width="0.36" d="M240.74,-264.53C300.15,-254.03 405.97,-234.7 422.42,-227.56 424.26,-226.76 426.11,-225.84 427.93,-224.85"/>
<polygon fill="green" stroke="green" stroke-width="0.36" points="430.09,-227.62 436.71,-219.36 426.38,-221.69 430.09,-227.62"/>
</g>
<!-- jump -->
<g id="node4" class="node">
<title>jump</title>
<ellipse fill="lightblue" stroke="black" cx="239.42" cy="-28.28" rx="28.07" ry="28.07"/>
<text text-anchor="middle" x="239.42" y="-26.08" font-family="Times,serif" font-size="9.00">jump</text>
</g>
<!-- 160&#45;&gt;jump -->
<g id="edge25" class="edge">
<title>160&#45;&gt;jump</title>
<path fill="none" stroke="green" stroke-width="0.26" d="M59.35,-183.39C79.3,-160.8 115.05,-121.91 149.42,-92.57 167.48,-77.15 189.22,-61.78 206.82,-50.05"/>
<polygon fill="green" stroke="green" stroke-width="0.26" points="209.17,-52.69 215.6,-44.27 205.32,-46.85 209.17,-52.69"/>
</g>
<!-- 153&#45;&gt;jump -->
<g id="edge19" class="edge">
<title>153&#45;&gt;jump</title>
<path fill="none" stroke="red" stroke-width="0.46" d="M312.18,-179.4C302.87,-157.15 287.85,-122.18 273.42,-92.57 268.57,-82.63 263.01,-71.98 257.8,-62.31"/>
<polygon fill="red" stroke="red" stroke-width="0.46" points="260.8,-60.51 252.95,-53.39 254.65,-63.85 260.8,-60.51"/>
</g>
<!-- 153&#45;&gt;156 -->
<g id="edge26" class="edge">
<title>153&#45;&gt;156</title>
<path fill="none" stroke="red" stroke-width="0.35" d="M304.43,-184.51C292.66,-172.53 276.83,-156.41 263.73,-143.07"/>
<polygon fill="red" stroke="red" stroke-width="0.35" points="265.89,-140.28 256.39,-135.6 260.9,-145.18 265.89,-140.28"/>
</g>
<!-- 154&#45;&gt;jump -->
<g id="edge20" class="edge">
<title>154&#45;&gt;jump</title>
<path fill="none" stroke="green" stroke-width="0.15" d="M123.9,-181.76C138.94,-159.61 164.22,-123.03 187.42,-92.57 196.14,-81.12 206.09,-68.83 214.94,-58.16"/>
<polygon fill="green" stroke="green" stroke-width="0.15" points="217.73,-60.27 221.45,-50.35 212.36,-55.79 217.73,-60.27"/>
</g>
<!-- 155&#45;&gt;jump -->
<g id="edge21" class="edge">
<title>155&#45;&gt;jump</title>
<path fill="none" stroke="green" stroke-width="0.96" d="M181.73,-178.29C186.25,-155.81 194.25,-121.21 205.42,-92.57 209.47,-82.18 214.84,-71.33 220.11,-61.6"/>
<polygon fill="green" stroke="green" stroke-width="0.96" points="223.28,-63.11 225.09,-52.67 217.16,-59.7 223.28,-63.11"/>
</g>
<!-- 156&#45;&gt;jump -->
<g id="edge22" class="edge">
<title>156&#45;&gt;jump</title>
<path fill="none" stroke="green" stroke-width="0.74" d="M239.42,-92.54C239.42,-84.58 239.42,-75.5 239.42,-66.76"/>
<polygon fill="green" stroke="green" stroke-width="0.74" points="242.92,-66.73 239.42,-56.73 235.92,-66.73 242.92,-66.73"/>
</g>
<!-- 157&#45;&gt;jump -->
<g id="edge23" class="edge">
<title>157&#45;&gt;jump</title>
<path fill="none" stroke="red" stroke-width="1.47" d="M373.47,-182.97C355.89,-160.96 325.63,-123.61 298.42,-92.57 287.88,-80.55 275.9,-67.58 265.51,-56.54"/>
<polygon fill="red" stroke="red" stroke-width="1.47" points="268.02,-54.09 258.6,-49.23 262.93,-58.9 268.02,-54.09"/>
</g>
<!-- 158&#45;&gt;jump -->
<g id="edge24" class="edge">
<title>158&#45;&gt;jump</title>
<path fill="none" stroke="red" stroke-width="0.31" d="M437.9,-184.72C414.79,-162.5 372.46,-122.96 333.42,-92.57 313.67,-77.2 290.34,-61.48 271.87,-49.55"/>
<polygon fill="red" stroke="red" stroke-width="0.31" points="273.53,-46.46 263.22,-44.02 269.76,-52.36 273.53,-46.46"/>
</g>
</g>
</svg>
