<?xml version="1.0" encoding="UTF-8" standalone="no"?>
<!DOCTYPE svg PUBLIC "-//W3C//DTD SVG 1.1//EN"
 "http://www.w3.org/Graphics/SVG/1.1/DTD/svg11.dtd">
<!-- Generated by graphviz version 2.43.0 (0)
 -->
<!-- Title: %3 Pages: 1 -->
<svg width="529pt" height="307pt"
 viewBox="0.00 0.00 528.62 306.53" xmlns="http://www.w3.org/2000/svg" xmlns:xlink="http://www.w3.org/1999/xlink">
<g id="graph0" class="graph" transform="scale(1 1) rotate(0) translate(4 302.53)">
<title>%3</title>
<polygon fill="white" stroke="transparent" points="-4,4 -4,-302.53 524.62,-302.53 524.62,4 -4,4"/>
<!-- x_diff -->
<g id="node1" class="node">
<title>x_diff</title>
<polygon fill="lightgray" stroke="black" points="375.99,-298.53 333.99,-298.53 333.99,-280.53 375.99,-280.53 375.99,-298.53"/>
<text text-anchor="middle" x="354.99" y="-287.33" font-family="Times,serif" font-size="9.00">x_diff</text>
</g>
<!-- 465 -->
<g id="node5" class="node">
<title>465</title>
<ellipse fill="white" stroke="black" cx="167.99" cy="-215.54" rx="25" ry="25"/>
<text text-anchor="middle" x="167.99" y="-213.34" font-family="Times,serif" font-size="9.00">465</text>
</g>
<!-- x_diff&#45;&gt;465 -->
<g id="edge1" class="edge">
<title>x_diff&#45;&gt;465</title>
<path fill="none" stroke="red" stroke-width="0.44" d="M333.75,-283C294.34,-272.66 212.82,-250.86 200.99,-244.53 198.3,-243.09 195.62,-241.4 193.03,-239.58"/>
<polygon fill="red" stroke="red" stroke-width="0.44" points="195.17,-236.81 185.13,-233.44 190.88,-242.34 195.17,-236.81"/>
</g>
<!-- 467 -->
<g id="node6" class="node">
<title>467</title>
<ellipse fill="white" stroke="black" cx="234.99" cy="-215.54" rx="25" ry="25"/>
<text text-anchor="middle" x="234.99" y="-213.34" font-family="Times,serif" font-size="9.00">467</text>
</g>
<!-- x_diff&#45;&gt;467 -->
<g id="edge2" class="edge">
<title>x_diff&#45;&gt;467</title>
<path fill="none" stroke="red" stroke-width="1.19" d="M341.23,-280.28C322.67,-269.14 289.13,-249.02 264.69,-234.36"/>
<polygon fill="red" stroke="red" stroke-width="1.19" points="266.19,-231.18 255.82,-229.04 262.59,-237.18 266.19,-231.18"/>
</g>
<!-- 468 -->
<g id="node7" class="node">
<title>468</title>
<ellipse fill="white" stroke="black" cx="287.99" cy="-121.56" rx="25" ry="25"/>
<text text-anchor="middle" x="287.99" y="-119.36" font-family="Times,serif" font-size="9.00">468</text>
</g>
<!-- x_diff&#45;&gt;468 -->
<g id="edge3" class="edge">
<title>x_diff&#45;&gt;468</title>
<path fill="none" stroke="green" stroke-width="0.6" d="M376.04,-285.65C414.33,-279.94 492.92,-265.84 508.99,-244.53 524.51,-223.96 524.47,-207.15 508.99,-186.55 486.56,-156.7 379.03,-136.32 322.66,-127.5"/>
<polygon fill="green" stroke="green" stroke-width="0.6" points="322.84,-123.99 312.43,-125.94 321.79,-130.91 322.84,-123.99"/>
</g>
<!-- 469 -->
<g id="node8" class="node">
<title>469</title>
<ellipse fill="white" stroke="black" cx="340.99" cy="-215.54" rx="25" ry="25"/>
<text text-anchor="middle" x="340.99" y="-213.34" font-family="Times,serif" font-size="9.00">469</text>
</g>
<!-- x_diff&#45;&gt;469 -->
<g id="edge4" class="edge">
<title>x_diff&#45;&gt;469</title>
<path fill="none" stroke="green" stroke-width="1.9" d="M353.39,-280.28C351.93,-272.81 349.7,-261.31 347.52,-250.12"/>
<polygon fill="green" stroke="green" stroke-width="1.9" points="350.91,-249.2 345.56,-240.05 344.04,-250.54 350.91,-249.2"/>
</g>
<!-- 470 -->
<g id="node9" class="node">
<title>470</title>
<ellipse fill="white" stroke="black" cx="407.99" cy="-215.54" rx="25" ry="25"/>
<text text-anchor="middle" x="407.99" y="-213.34" font-family="Times,serif" font-size="9.00">470</text>
</g>
<!-- x_diff&#45;&gt;470 -->
<g id="edge5" class="edge">
<title>x_diff&#45;&gt;470</title>
<path fill="none" stroke="green" stroke-width="0.53" d="M361.07,-280.28C367.54,-271.49 378.13,-257.11 387.61,-244.23"/>
<polygon fill="green" stroke="green" stroke-width="0.53" points="390.51,-246.19 393.62,-236.06 384.88,-242.04 390.51,-246.19"/>
</g>
<!-- 471 -->
<g id="node10" class="node">
<title>471</title>
<ellipse fill="white" stroke="black" cx="474.99" cy="-215.54" rx="25" ry="25"/>
<text text-anchor="middle" x="474.99" y="-213.34" font-family="Times,serif" font-size="9.00">471</text>
</g>
<!-- x_diff&#45;&gt;471 -->
<g id="edge6" class="edge">
<title>x_diff&#45;&gt;471</title>
<path fill="none" stroke="green" stroke-width="0.13" d="M374.03,-280.47C392.14,-272.45 419.85,-259.23 441.99,-244.53 444.4,-242.94 446.83,-241.19 449.21,-239.37"/>
<polygon fill="green" stroke="green" stroke-width="0.13" points="451.49,-242.03 457.09,-233.04 447.11,-236.57 451.49,-242.03"/>
</g>
<!-- 472 -->
<g id="node11" class="node">
<title>472</title>
<ellipse fill="white" stroke="black" cx="100.99" cy="-215.54" rx="25" ry="25"/>
<text text-anchor="middle" x="100.99" y="-213.34" font-family="Times,serif" font-size="9.00">472</text>
</g>
<!-- x_diff&#45;&gt;472 -->
<g id="edge7" class="edge">
<title>x_diff&#45;&gt;472</title>
<path fill="none" stroke="red" stroke-width="1.08" d="M333.69,-282.84C330.45,-282.03 327.14,-281.24 323.99,-280.53 240.11,-261.79 211.55,-281.56 133.99,-244.53 131.32,-243.26 128.69,-241.72 126.15,-240.01"/>
<polygon fill="red" stroke="red" stroke-width="1.08" points="128.03,-237.05 117.95,-233.79 123.8,-242.62 128.03,-237.05"/>
</g>
<!-- object_y -->
<g id="node2" class="node">
<title>object_y</title>
<polygon fill="lightgray" stroke="black" points="315.49,-298.53 260.49,-298.53 260.49,-280.53 315.49,-280.53 315.49,-298.53"/>
<text text-anchor="middle" x="287.99" y="-287.33" font-family="Times,serif" font-size="9.00">object_y</text>
</g>
<!-- object_y&#45;&gt;465 -->
<g id="edge8" class="edge">
<title>object_y&#45;&gt;465</title>
<path fill="none" stroke="red" stroke-width="0.65" d="M268.96,-280.47C250.84,-272.45 223.13,-259.23 200.99,-244.53 198.59,-242.94 196.16,-241.19 193.77,-239.37"/>
<polygon fill="red" stroke="red" stroke-width="0.65" points="195.88,-236.57 185.89,-233.04 191.49,-242.03 195.88,-236.57"/>
</g>
<!-- object_y&#45;&gt;467 -->
<g id="edge9" class="edge">
<title>object_y&#45;&gt;467</title>
<path fill="none" stroke="green" stroke-width="2.1" d="M281.91,-280.28C275.44,-271.49 264.86,-257.11 255.37,-244.23"/>
<polygon fill="green" stroke="green" stroke-width="2.1" points="258.11,-242.04 249.36,-236.06 252.47,-246.19 258.11,-242.04"/>
</g>
<!-- object_y&#45;&gt;468 -->
<g id="edge10" class="edge">
<title>object_y&#45;&gt;468</title>
<path fill="none" stroke="red" stroke-width="0.3" d="M287.99,-280.53C287.99,-258.52 287.99,-196.13 287.99,-156.67"/>
<polygon fill="red" stroke="red" stroke-width="0.3" points="291.49,-156.44 287.99,-146.44 284.49,-156.44 291.49,-156.44"/>
</g>
<!-- object_y&#45;&gt;469 -->
<g id="edge11" class="edge">
<title>object_y&#45;&gt;469</title>
<path fill="none" stroke="green" stroke-width="0.02" d="M294.07,-280.28C300.54,-271.49 311.13,-257.11 320.61,-244.23"/>
<polygon fill="green" stroke="green" stroke-width="0.02" points="323.51,-246.19 326.62,-236.06 317.88,-242.04 323.51,-246.19"/>
</g>
<!-- object_y&#45;&gt;470 -->
<g id="edge12" class="edge">
<title>object_y&#45;&gt;470</title>
<path fill="none" stroke="red" stroke-width="0.59" d="M307.03,-280.47C325.14,-272.45 352.85,-259.23 374.99,-244.53 377.4,-242.94 379.83,-241.19 382.21,-239.37"/>
<polygon fill="red" stroke="red" stroke-width="0.59" points="384.49,-242.03 390.09,-233.04 380.11,-236.57 384.49,-242.03"/>
</g>
<!-- object_y&#45;&gt;471 -->
<g id="edge13" class="edge">
<title>object_y&#45;&gt;471</title>
<path fill="none" stroke="red" stroke-width="0.03" d="M315.77,-282.09C353.87,-273.01 420.1,-256.23 441.99,-244.53 444.69,-243.09 447.36,-241.4 449.95,-239.58"/>
<polygon fill="red" stroke="red" stroke-width="0.03" points="452.1,-242.34 457.86,-233.44 447.81,-236.81 452.1,-242.34"/>
</g>
<!-- object_y&#45;&gt;472 -->
<g id="edge14" class="edge">
<title>object_y&#45;&gt;472</title>
<path fill="none" stroke="green" stroke-width="1.44" d="M260.21,-282.09C222.11,-273.01 155.88,-256.23 133.99,-244.53 131.3,-243.09 128.62,-241.4 126.03,-239.58"/>
<polygon fill="green" stroke="green" stroke-width="1.44" points="128.17,-236.81 118.13,-233.44 123.88,-242.34 128.17,-236.81"/>
</g>
<!-- object_height -->
<g id="node3" class="node">
<title>object_height</title>
<polygon fill="lightgray" stroke="black" points="241.99,-298.53 161.99,-298.53 161.99,-280.53 241.99,-280.53 241.99,-298.53"/>
<text text-anchor="middle" x="201.99" y="-287.33" font-family="Times,serif" font-size="9.00">object_height</text>
</g>
<!-- object_height&#45;&gt;465 -->
<g id="edge15" class="edge">
<title>object_height&#45;&gt;465</title>
<path fill="none" stroke="red" stroke-width="0.02" d="M198.09,-280.28C194.29,-272.23 188.28,-259.5 182.62,-247.52"/>
<polygon fill="red" stroke="red" stroke-width="0.02" points="185.65,-245.73 178.21,-238.19 179.32,-248.72 185.65,-245.73"/>
</g>
<!-- object_height&#45;&gt;467 -->
<g id="edge16" class="edge">
<title>object_height&#45;&gt;467</title>
<path fill="none" stroke="red" stroke-width="0.28" d="M205.78,-280.28C209.44,-272.29 215.22,-259.68 220.67,-247.78"/>
<polygon fill="red" stroke="red" stroke-width="0.28" points="223.94,-249.04 224.93,-238.49 217.58,-246.13 223.94,-249.04"/>
</g>
<!-- object_height&#45;&gt;469 -->
<g id="edge17" class="edge">
<title>object_height&#45;&gt;469</title>
<path fill="none" stroke="green" stroke-width="1.53" d="M217.67,-280.42C239.99,-268.85 281.41,-247.4 310.05,-232.57"/>
<polygon fill="green" stroke="green" stroke-width="1.53" points="311.96,-235.52 319.23,-227.81 308.74,-229.31 311.96,-235.52"/>
</g>
<!-- object_height&#45;&gt;470 -->
<g id="edge18" class="edge">
<title>object_height&#45;&gt;470</title>
<path fill="none" stroke="red" stroke-width="1.42" d="M242.23,-280.5C285.78,-271.42 352.06,-256.36 374.99,-244.53 377.71,-243.13 380.39,-241.47 382.99,-239.66"/>
<polygon fill="red" stroke="red" stroke-width="1.42" points="385.13,-242.43 390.91,-233.55 380.86,-236.89 385.13,-242.43"/>
</g>
<!-- object_height&#45;&gt;471 -->
<g id="edge19" class="edge">
<title>object_height&#45;&gt;471</title>
<path fill="none" stroke="green" stroke-width="0.79" d="M242.16,-281.73C308.11,-270.47 433.01,-248.79 441.99,-244.53 444.66,-243.27 447.3,-241.73 449.84,-240.03"/>
<polygon fill="green" stroke="green" stroke-width="0.79" points="452.19,-242.64 458.04,-233.81 447.96,-237.06 452.19,-242.64"/>
</g>
<!-- object_height&#45;&gt;472 -->
<g id="edge20" class="edge">
<title>object_height&#45;&gt;472</title>
<path fill="none" stroke="red" stroke-width="0.16" d="M188.36,-280.43C174.38,-271.96 152.17,-258.03 133.99,-244.53 131.67,-242.81 129.31,-240.98 126.96,-239.1"/>
<polygon fill="red" stroke="red" stroke-width="0.16" points="129.09,-236.32 119.15,-232.67 124.64,-241.73 129.09,-236.32"/>
</g>
<!-- 1148 -->
<g id="node12" class="node">
<title>1148</title>
<ellipse fill="white" stroke="black" cx="28.99" cy="-215.54" rx="28.98" ry="28.98"/>
<text text-anchor="middle" x="28.99" y="-213.34" font-family="Times,serif" font-size="9.00">1148</text>
</g>
<!-- object_height&#45;&gt;1148 -->
<g id="edge29" class="edge">
<title>object_height&#45;&gt;1148</title>
<path fill="none" stroke="red" stroke-width="0.08" d="M167.22,-280.48C139.22,-273.24 99.33,-261.16 66.99,-244.53 64.55,-243.28 62.09,-241.87 59.67,-240.37"/>
<polygon fill="red" stroke="red" stroke-width="0.08" points="61.38,-237.31 51.13,-234.67 57.5,-243.13 61.38,-237.31"/>
</g>
<!-- jump -->
<g id="node4" class="node">
<title>jump</title>
<ellipse fill="lightblue" stroke="black" cx="287.99" cy="-28.28" rx="28.07" ry="28.07"/>
<text text-anchor="middle" x="287.99" y="-26.08" font-family="Times,serif" font-size="9.00">jump</text>
</g>
<!-- 465&#45;&gt;jump -->
<g id="edge21" class="edge">
<title>465&#45;&gt;jump</title>
<path fill="none" stroke="red" stroke-width="0.96" d="M178.97,-193.26C192.04,-168.45 215.01,-126.54 237.99,-92.57 245.79,-81.04 255.08,-68.92 263.51,-58.41"/>
<polygon fill="red" stroke="red" stroke-width="0.96" points="266.46,-60.33 270.05,-50.36 261.03,-55.91 266.46,-60.33"/>
</g>
<!-- 467&#45;&gt;jump -->
<g id="edge22" class="edge">
<title>467&#45;&gt;jump</title>
<path fill="none" stroke="green" stroke-width="2.18" d="M236.33,-190.6C238.27,-165.59 242.95,-125.48 253.99,-92.57 257.54,-82 262.76,-71.09 268.05,-61.37"/>
<polygon fill="green" stroke="green" stroke-width="2.18" points="271.21,-62.89 273.08,-52.46 265.11,-59.44 271.21,-62.89"/>
</g>
<!-- 468&#45;&gt;jump -->
<g id="edge23" class="edge">
<title>468&#45;&gt;jump</title>
<path fill="none" stroke="green" stroke-width="0.52" d="M287.99,-96.58C287.99,-87.48 287.99,-76.89 287.99,-66.85"/>
<polygon fill="green" stroke="green" stroke-width="0.52" points="291.49,-66.65 287.99,-56.65 284.49,-66.65 291.49,-66.65"/>
</g>
<!-- 469&#45;&gt;jump -->
<g id="edge24" class="edge">
<title>469&#45;&gt;jump</title>
<path fill="none" stroke="green" stroke-width="0.29" d="M339.66,-190.6C337.71,-165.59 333.04,-125.48 321.99,-92.57 318.44,-82 313.23,-71.09 307.94,-61.37"/>
<polygon fill="green" stroke="green" stroke-width="0.29" points="310.87,-59.44 302.9,-52.46 304.78,-62.89 310.87,-59.44"/>
</g>
<!-- 470&#45;&gt;jump -->
<g id="edge25" class="edge">
<title>470&#45;&gt;jump</title>
<path fill="none" stroke="red" stroke-width="0.6" d="M398.12,-192.54C386.44,-167.43 365.7,-125.58 342.99,-92.57 334.43,-80.12 323.77,-67.36 314.12,-56.59"/>
<polygon fill="red" stroke="red" stroke-width="0.6" points="316.64,-54.16 307.31,-49.13 311.47,-58.88 316.64,-54.16"/>
</g>
<!-- 471&#45;&gt;jump -->
<g id="edge26" class="edge">
<title>471&#45;&gt;jump</title>
<path fill="none" stroke="red" stroke-width="0.47" d="M460.93,-194.69C442.54,-169.45 408.57,-125.23 373.99,-92.57 357.35,-76.85 336.75,-61.57 319.89,-49.97"/>
<polygon fill="red" stroke="red" stroke-width="0.47" points="321.7,-46.96 311.45,-44.25 317.77,-52.76 321.7,-46.96"/>
</g>
<!-- 1085 -->
<g id="node13" class="node">
<title>1085</title>
<ellipse fill="white" stroke="black" cx="119.99" cy="-121.56" rx="28.98" ry="28.98"/>
<text text-anchor="middle" x="119.99" y="-119.36" font-family="Times,serif" font-size="9.00">1085</text>
</g>
<!-- 472&#45;&gt;1085 -->
<g id="edge27" class="edge">
<title>472&#45;&gt;1085</title>
<path fill="none" stroke="red" stroke-width="2.03" d="M105.88,-190.85C107.81,-181.51 110.08,-170.55 112.22,-160.18"/>
<polygon fill="red" stroke="red" stroke-width="2.03" points="115.71,-160.58 114.31,-150.08 108.86,-159.17 115.71,-160.58"/>
</g>
<!-- 1148&#45;&gt;468 -->
<g id="edge30" class="edge">
<title>1148&#45;&gt;468</title>
<path fill="none" stroke="red" stroke-width="1.65" d="M51.06,-196.28C56.08,-192.71 61.55,-189.23 66.99,-186.55 129.34,-155.79 209.06,-137.28 253.71,-128.58"/>
<polygon fill="red" stroke="red" stroke-width="1.65" points="254.58,-131.98 263.75,-126.67 253.27,-125.1 254.58,-131.98"/>
</g>
<!-- 1085&#45;&gt;jump -->
<g id="edge28" class="edge">
<title>1085&#45;&gt;jump</title>
<path fill="none" stroke="red" stroke-width="0.1" d="M144.79,-105.83C152.21,-101.49 160.4,-96.78 167.99,-92.57 196.72,-76.63 229.76,-59.27 253.9,-46.77"/>
<polygon fill="red" stroke="red" stroke-width="0.1" points="255.73,-49.77 263,-42.07 252.51,-43.55 255.73,-49.77"/>
</g>
</g>
</svg>
