<?xml version="1.0" encoding="UTF-8" standalone="no"?>
<!DOCTYPE svg PUBLIC "-//W3C//DTD SVG 1.1//EN"
 "http://www.w3.org/Graphics/SVG/1.1/DTD/svg11.dtd">
<!-- Generated by graphviz version 2.43.0 (0)
 -->
<!-- Title: %3 Pages: 1 -->
<svg width="529pt" height="307pt"
 viewBox="0.00 0.00 528.83 306.53" xmlns="http://www.w3.org/2000/svg" xmlns:xlink="http://www.w3.org/1999/xlink">
<g id="graph0" class="graph" transform="scale(1 1) rotate(0) translate(4 302.53)">
<title>%3</title>
<polygon fill="white" stroke="transparent" points="-4,4 -4,-302.53 524.83,-302.53 524.83,4 -4,4"/>
<!-- x_diff -->
<g id="node1" class="node">
<title>x_diff</title>
<polygon fill="lightgray" stroke="black" points="157.83,-298.53 115.83,-298.53 115.83,-280.53 157.83,-280.53 157.83,-298.53"/>
<text text-anchor="middle" x="136.83" y="-287.33" font-family="Times,serif" font-size="9.00">x_diff</text>
</g>
<!-- 352 -->
<g id="node5" class="node">
<title>352</title>
<ellipse fill="white" stroke="black" cx="112.83" cy="-215.54" rx="25" ry="25"/>
<text text-anchor="middle" x="112.83" y="-213.34" font-family="Times,serif" font-size="9.00">352</text>
</g>
<!-- x_diff&#45;&gt;352 -->
<g id="edge6" class="edge">
<title>x_diff&#45;&gt;352</title>
<path fill="none" stroke="green" stroke-width="0.97" d="M134.08,-280.28C131.5,-272.54 127.48,-260.48 123.63,-248.91"/>
<polygon fill="green" stroke="green" stroke-width="0.97" points="126.95,-247.81 120.46,-239.43 120.31,-250.02 126.95,-247.81"/>
</g>
<!-- 347 -->
<g id="node9" class="node">
<title>347</title>
<ellipse fill="white" stroke="black" cx="45.83" cy="-215.54" rx="25" ry="25"/>
<text text-anchor="middle" x="45.83" y="-213.34" font-family="Times,serif" font-size="9.00">347</text>
</g>
<!-- x_diff&#45;&gt;347 -->
<g id="edge1" class="edge">
<title>x_diff&#45;&gt;347</title>
<path fill="none" stroke="red" stroke-width="1.09" d="M125.58,-280.28C113.79,-271.56 94.8,-257.35 78.83,-244.53 76.58,-242.73 74.26,-240.83 71.95,-238.91"/>
<polygon fill="red" stroke="red" stroke-width="1.09" points="74.1,-236.15 64.19,-232.41 69.61,-241.52 74.1,-236.15"/>
</g>
<!-- 348 -->
<g id="node10" class="node">
<title>348</title>
<ellipse fill="white" stroke="black" cx="179.83" cy="-215.54" rx="25" ry="25"/>
<text text-anchor="middle" x="179.83" y="-213.34" font-family="Times,serif" font-size="9.00">348</text>
</g>
<!-- x_diff&#45;&gt;348 -->
<g id="edge2" class="edge">
<title>x_diff&#45;&gt;348</title>
<path fill="none" stroke="green" stroke-width="1.42" d="M141.77,-280.28C146.77,-271.89 154.82,-258.42 162.23,-246.02"/>
<polygon fill="green" stroke="green" stroke-width="1.42" points="165.33,-247.65 167.46,-237.27 159.32,-244.06 165.33,-247.65"/>
</g>
<!-- 349 -->
<g id="node11" class="node">
<title>349</title>
<ellipse fill="white" stroke="black" cx="246.83" cy="-215.54" rx="25" ry="25"/>
<text text-anchor="middle" x="246.83" y="-213.34" font-family="Times,serif" font-size="9.00">349</text>
</g>
<!-- x_diff&#45;&gt;349 -->
<g id="edge3" class="edge">
<title>x_diff&#45;&gt;349</title>
<path fill="none" stroke="green" stroke-width="1.5" d="M152.99,-280.42C168.94,-272.15 193.79,-258.58 213.83,-244.53 216.2,-242.88 218.6,-241.09 220.97,-239.24"/>
<polygon fill="green" stroke="green" stroke-width="1.5" points="223.26,-241.88 228.81,-232.86 218.85,-236.45 223.26,-241.88"/>
</g>
<!-- 350 -->
<g id="node12" class="node">
<title>350</title>
<ellipse fill="white" stroke="black" cx="313.83" cy="-215.54" rx="25" ry="25"/>
<text text-anchor="middle" x="313.83" y="-213.34" font-family="Times,serif" font-size="9.00">350</text>
</g>
<!-- x_diff&#45;&gt;350 -->
<g id="edge4" class="edge">
<title>x_diff&#45;&gt;350</title>
<path fill="none" stroke="green" stroke-width="0.55" d="M157.91,-284.89C186.94,-279.26 240.23,-266.72 280.83,-244.53 283.52,-243.07 286.18,-241.36 288.76,-239.53"/>
<polygon fill="green" stroke="green" stroke-width="0.55" points="290.92,-242.28 296.66,-233.37 286.62,-236.76 290.92,-242.28"/>
</g>
<!-- 351 -->
<g id="node13" class="node">
<title>351</title>
<ellipse fill="white" stroke="black" cx="344.83" cy="-121.56" rx="25" ry="25"/>
<text text-anchor="middle" x="344.83" y="-119.36" font-family="Times,serif" font-size="9.00">351</text>
</g>
<!-- x_diff&#45;&gt;351 -->
<g id="edge5" class="edge">
<title>x_diff&#45;&gt;351</title>
<path fill="none" stroke="red" stroke-width="0.64" d="M115.68,-288.08C86.69,-286.17 35.5,-277.95 11.83,-244.53 -3.06,-223.5 -4.58,-206.42 11.83,-186.55 49.39,-141.09 232.08,-127.59 309.77,-123.87"/>
<polygon fill="red" stroke="red" stroke-width="0.64" points="310.17,-127.36 320.01,-123.41 309.86,-120.37 310.17,-127.36"/>
</g>
<!-- object_y -->
<g id="node2" class="node">
<title>object_y</title>
<polygon fill="lightgray" stroke="black" points="255.33,-298.53 200.33,-298.53 200.33,-280.53 255.33,-280.53 255.33,-298.53"/>
<text text-anchor="middle" x="227.83" y="-287.33" font-family="Times,serif" font-size="9.00">object_y</text>
</g>
<!-- object_y&#45;&gt;352 -->
<g id="edge13" class="edge">
<title>object_y&#45;&gt;352</title>
<path fill="none" stroke="green" stroke-width="1.55" d="M210.26,-280.44C193.22,-272.3 166.93,-258.9 145.83,-244.53 143.45,-242.91 141.03,-241.14 138.66,-239.31"/>
<polygon fill="green" stroke="green" stroke-width="1.55" points="140.77,-236.52 130.79,-232.95 136.37,-241.96 140.77,-236.52"/>
</g>
<!-- 346 -->
<g id="node8" class="node">
<title>346</title>
<ellipse fill="white" stroke="black" cx="419.83" cy="-215.54" rx="25" ry="25"/>
<text text-anchor="middle" x="419.83" y="-213.34" font-family="Times,serif" font-size="9.00">346</text>
</g>
<!-- object_y&#45;&gt;346 -->
<g id="edge7" class="edge">
<title>object_y&#45;&gt;346</title>
<path fill="none" stroke="red" stroke-width="1.26" d="M255.63,-281.76C293.38,-272.34 358.7,-255.26 380.83,-244.53 384.91,-242.56 389.01,-240.16 392.95,-237.61"/>
<polygon fill="red" stroke="red" stroke-width="1.26" points="394.99,-240.45 401.22,-231.88 391,-234.7 394.99,-240.45"/>
</g>
<!-- object_y&#45;&gt;347 -->
<g id="edge8" class="edge">
<title>object_y&#45;&gt;347</title>
<path fill="none" stroke="green" stroke-width="0.68" d="M200.14,-283.93C169.18,-278 118.23,-265.82 78.83,-244.53 76.15,-243.08 73.48,-241.38 70.89,-239.55"/>
<polygon fill="green" stroke="green" stroke-width="0.68" points="73.03,-236.78 62.99,-233.41 68.73,-242.31 73.03,-236.78"/>
</g>
<!-- object_y&#45;&gt;348 -->
<g id="edge9" class="edge">
<title>object_y&#45;&gt;348</title>
<path fill="none" stroke="green" stroke-width="0.36" d="M222.33,-280.28C216.61,-271.69 207.33,-257.77 198.89,-245.13"/>
<polygon fill="green" stroke="green" stroke-width="0.36" points="201.71,-243.04 193.25,-236.66 195.88,-246.92 201.71,-243.04"/>
</g>
<!-- object_y&#45;&gt;349 -->
<g id="edge10" class="edge">
<title>object_y&#45;&gt;349</title>
<path fill="none" stroke="red" stroke-width="0.79" d="M230.01,-280.28C232.02,-272.68 235.13,-260.89 238.13,-249.52"/>
<polygon fill="red" stroke="red" stroke-width="0.79" points="241.54,-250.3 240.71,-239.74 234.78,-248.51 241.54,-250.3"/>
</g>
<!-- object_y&#45;&gt;350 -->
<g id="edge11" class="edge">
<title>object_y&#45;&gt;350</title>
<path fill="none" stroke="red" stroke-width="1.24" d="M237.63,-280.46C248.29,-271.65 265.81,-257.14 280.83,-244.53 283.05,-242.68 285.34,-240.75 287.64,-238.81"/>
<polygon fill="red" stroke="red" stroke-width="1.24" points="289.99,-241.4 295.36,-232.27 285.47,-236.06 289.99,-241.4"/>
</g>
<!-- object_y&#45;&gt;351 -->
<g id="edge12" class="edge">
<title>object_y&#45;&gt;351</title>
<path fill="none" stroke="red" stroke-width="1.59" d="M255.43,-282.28C287.37,-274.41 337,-260.04 347.83,-244.53 365.93,-218.62 361.92,-181.49 355.42,-155.01"/>
<polygon fill="red" stroke="red" stroke-width="1.59" points="358.72,-153.82 352.74,-145.08 351.96,-155.64 358.72,-153.82"/>
</g>
<!-- object_height -->
<g id="node3" class="node">
<title>object_height</title>
<polygon fill="lightgray" stroke="black" points="353.83,-298.53 273.83,-298.53 273.83,-280.53 353.83,-280.53 353.83,-298.53"/>
<text text-anchor="middle" x="313.83" y="-287.33" font-family="Times,serif" font-size="9.00">object_height</text>
</g>
<!-- object_height&#45;&gt;352 -->
<g id="edge18" class="edge">
<title>object_height&#45;&gt;352</title>
<path fill="none" stroke="green" stroke-width="0.78" d="M275.14,-280.49C232.86,-271.34 168.17,-256.16 145.83,-244.53 143.12,-243.12 140.44,-241.45 137.84,-239.64"/>
<polygon fill="green" stroke="green" stroke-width="0.78" points="139.98,-236.87 129.93,-233.53 135.7,-242.41 139.98,-236.87"/>
</g>
<!-- 1267 -->
<g id="node6" class="node">
<title>1267</title>
<ellipse fill="white" stroke="black" cx="491.83" cy="-215.54" rx="28.98" ry="28.98"/>
<text text-anchor="middle" x="491.83" y="-213.34" font-family="Times,serif" font-size="9.00">1267</text>
</g>
<!-- object_height&#45;&gt;1267 -->
<g id="edge27" class="edge">
<title>object_height&#45;&gt;1267</title>
<path fill="none" stroke="green" stroke-width="1" d="M350.79,-280.47C379.79,-273.31 420.67,-261.37 453.83,-244.53 456.28,-243.29 458.74,-241.89 461.17,-240.4"/>
<polygon fill="green" stroke="green" stroke-width="1" points="463.34,-243.16 469.72,-234.71 459.46,-237.34 463.34,-243.16"/>
</g>
<!-- object_height&#45;&gt;346 -->
<g id="edge14" class="edge">
<title>object_height&#45;&gt;346</title>
<path fill="none" stroke="green" stroke-width="2.23" d="M326.78,-280.26C340.36,-271.53 362.25,-257.3 380.83,-244.53 384.39,-242.09 388.1,-239.49 391.76,-236.9"/>
<polygon fill="green" stroke="green" stroke-width="2.23" points="394,-239.6 400.11,-230.94 389.93,-233.91 394,-239.6"/>
</g>
<!-- object_height&#45;&gt;348 -->
<g id="edge15" class="edge">
<title>object_height&#45;&gt;348</title>
<path fill="none" stroke="green" stroke-width="0.91" d="M290,-280.41C268.9,-272.7 237.67,-260.01 212.83,-244.53 210.38,-243.01 207.92,-241.31 205.52,-239.52"/>
<polygon fill="green" stroke="green" stroke-width="0.91" points="207.61,-236.72 197.6,-233.24 203.26,-242.2 207.61,-236.72"/>
</g>
<!-- object_height&#45;&gt;349 -->
<g id="edge16" class="edge">
<title>object_height&#45;&gt;349</title>
<path fill="none" stroke="green" stroke-width="1.44" d="M306.15,-280.28C297.47,-270.95 282.93,-255.33 270.42,-241.88"/>
<polygon fill="green" stroke="green" stroke-width="1.44" points="272.72,-239.22 263.35,-234.28 267.6,-243.99 272.72,-239.22"/>
</g>
<!-- object_height&#45;&gt;350 -->
<g id="edge17" class="edge">
<title>object_height&#45;&gt;350</title>
<path fill="none" stroke="red" stroke-width="0.11" d="M313.83,-280.28C313.83,-272.87 313.83,-261.48 313.83,-250.37"/>
<polygon fill="red" stroke="red" stroke-width="0.11" points="317.33,-250.37 313.83,-240.37 310.33,-250.37 317.33,-250.37"/>
</g>
<!-- jump -->
<g id="node4" class="node">
<title>jump</title>
<ellipse fill="lightblue" stroke="black" cx="246.83" cy="-28.28" rx="28.07" ry="28.07"/>
<text text-anchor="middle" x="246.83" y="-26.08" font-family="Times,serif" font-size="9.00">jump</text>
</g>
<!-- 352&#45;&gt;jump -->
<g id="edge24" class="edge">
<title>352&#45;&gt;jump</title>
<path fill="none" stroke="red" stroke-width="1.78" d="M126.88,-194.6C143.99,-170.38 173.81,-128.32 199.83,-92.57 207.71,-81.74 216.44,-69.95 224.21,-59.51"/>
<polygon fill="red" stroke="red" stroke-width="1.78" points="227.03,-61.58 230.2,-51.47 221.42,-57.39 227.03,-61.58"/>
</g>
<!-- 1267&#45;&gt;351 -->
<g id="edge28" class="edge">
<title>1267&#45;&gt;351</title>
<path fill="none" stroke="red" stroke-width="0.43" d="M469.39,-196.97C464.39,-193.35 459.02,-189.69 453.83,-186.55 422.54,-167.63 410.75,-170.09 379.83,-150.55 377.01,-148.76 374.14,-146.79 371.33,-144.73"/>
<polygon fill="red" stroke="red" stroke-width="0.43" points="373.22,-141.77 363.16,-138.47 368.96,-147.33 373.22,-141.77"/>
</g>
<!-- 1086 -->
<g id="node7" class="node">
<title>1086</title>
<ellipse fill="white" stroke="black" cx="417.83" cy="-121.56" rx="28.98" ry="28.98"/>
<text text-anchor="middle" x="417.83" y="-119.36" font-family="Times,serif" font-size="9.00">1086</text>
</g>
<!-- 1086&#45;&gt;jump -->
<g id="edge26" class="edge">
<title>1086&#45;&gt;jump</title>
<path fill="none" stroke="green" stroke-width="0.39" d="M395.19,-103.29C389.94,-99.58 384.28,-95.8 378.83,-92.57 347.19,-73.82 309.14,-56.05 282.03,-44.13"/>
<polygon fill="green" stroke="green" stroke-width="0.39" points="283.14,-40.8 272.58,-40.02 280.35,-47.22 283.14,-40.8"/>
</g>
<!-- 346&#45;&gt;1086 -->
<g id="edge25" class="edge">
<title>346&#45;&gt;1086</title>
<path fill="none" stroke="green" stroke-width="0.9" d="M419.31,-190.38C419.11,-181.37 418.89,-170.91 418.67,-160.94"/>
<polygon fill="green" stroke="green" stroke-width="0.9" points="422.17,-160.73 418.45,-150.81 415.17,-160.88 422.17,-160.73"/>
</g>
<!-- 347&#45;&gt;jump -->
<g id="edge19" class="edge">
<title>347&#45;&gt;jump</title>
<path fill="none" stroke="red" stroke-width="0.35" d="M60.66,-195.55C80.74,-170.44 118.39,-125.56 155.83,-92.57 174.07,-76.5 196.47,-60.88 214.48,-49.18"/>
<polygon fill="red" stroke="red" stroke-width="0.35" points="216.4,-52.1 222.93,-43.76 212.63,-46.21 216.4,-52.1"/>
</g>
<!-- 348&#45;&gt;jump -->
<g id="edge20" class="edge">
<title>348&#45;&gt;jump</title>
<path fill="none" stroke="red" stroke-width="1.7" d="M188.05,-191.83C199.53,-160.07 220.49,-102.12 234.03,-64.68"/>
<polygon fill="red" stroke="red" stroke-width="1.7" points="237.36,-65.76 237.47,-55.17 230.78,-63.38 237.36,-65.76"/>
</g>
<!-- 349&#45;&gt;jump -->
<g id="edge21" class="edge">
<title>349&#45;&gt;jump</title>
<path fill="none" stroke="green" stroke-width="0.21" d="M246.83,-190.7C246.83,-159.39 246.83,-104.07 246.83,-67.04"/>
<polygon fill="green" stroke="green" stroke-width="0.21" points="250.33,-66.64 246.83,-56.64 243.33,-66.64 250.33,-66.64"/>
</g>
<!-- 350&#45;&gt;jump -->
<g id="edge22" class="edge">
<title>350&#45;&gt;jump</title>
<path fill="none" stroke="red" stroke-width="1.62" d="M305.62,-191.83C294.14,-160.07 273.18,-102.12 259.64,-64.68"/>
<polygon fill="red" stroke="red" stroke-width="1.62" points="262.89,-63.38 256.19,-55.17 256.3,-65.76 262.89,-63.38"/>
</g>
<!-- 351&#45;&gt;jump -->
<g id="edge23" class="edge">
<title>351&#45;&gt;jump</title>
<path fill="none" stroke="red" stroke-width="2.39" d="M326.86,-103.82C312.2,-90.16 291.24,-70.64 274.45,-55"/>
<polygon fill="red" stroke="red" stroke-width="2.39" points="276.77,-52.38 267.06,-48.12 271.99,-57.5 276.77,-52.38"/>
</g>
</g>
</svg>
