<?xml version="1.0" encoding="UTF-8" standalone="no"?>
<!DOCTYPE svg PUBLIC "-//W3C//DTD SVG 1.1//EN"
 "http://www.w3.org/Graphics/SVG/1.1/DTD/svg11.dtd">
<!-- Generated by graphviz version 2.43.0 (0)
 -->
<!-- Title: %3 Pages: 1 -->
<svg width="671pt" height="298pt"
 viewBox="0.00 0.00 670.74 298.05" xmlns="http://www.w3.org/2000/svg" xmlns:xlink="http://www.w3.org/1999/xlink">
<g id="graph0" class="graph" transform="scale(1 1) rotate(0) translate(4 294.05)">
<title>%3</title>
<polygon fill="white" stroke="transparent" points="-4,4 -4,-294.05 666.74,-294.05 666.74,4 -4,4"/>
<!-- x_diff -->
<g id="node1" class="node">
<title>x_diff</title>
<polygon fill="lightgray" stroke="black" points="347.75,-290.05 305.75,-290.05 305.75,-272.05 347.75,-272.05 347.75,-290.05"/>
<text text-anchor="middle" x="326.75" y="-278.85" font-family="Times,serif" font-size="9.00">x_diff</text>
</g>
<!-- 817 -->
<g id="node7" class="node">
<title>817</title>
<ellipse fill="white" stroke="black" cx="273.75" cy="-207.06" rx="25" ry="25"/>
<text text-anchor="middle" x="273.75" y="-204.86" font-family="Times,serif" font-size="9.00">817</text>
</g>
<!-- x_diff&#45;&gt;817 -->
<g id="edge1" class="edge">
<title>x_diff&#45;&gt;817</title>
<path fill="none" stroke="red" stroke-width="0.42" d="M320.67,-271.79C314.2,-263 303.61,-248.62 294.13,-235.74"/>
<polygon fill="red" stroke="red" stroke-width="0.42" points="296.86,-233.55 288.12,-227.57 291.23,-237.7 296.86,-233.55"/>
</g>
<!-- 818 -->
<g id="node8" class="node">
<title>818</title>
<ellipse fill="white" stroke="black" cx="432.75" cy="-117.32" rx="25" ry="25"/>
<text text-anchor="middle" x="432.75" y="-115.12" font-family="Times,serif" font-size="9.00">818</text>
</g>
<!-- x_diff&#45;&gt;818 -->
<g id="edge2" class="edge">
<title>x_diff&#45;&gt;818</title>
<path fill="none" stroke="green" stroke-width="1.08" d="M347.91,-275.24C368.15,-269.49 397.87,-257.77 413.75,-236.05 431.28,-212.06 435.13,-177.98 435.12,-152.65"/>
<polygon fill="green" stroke="green" stroke-width="1.08" points="438.62,-152.31 434.92,-142.38 431.62,-152.45 438.62,-152.31"/>
</g>
<!-- 819 -->
<g id="node9" class="node">
<title>819</title>
<ellipse fill="white" stroke="black" cx="485.75" cy="-207.06" rx="25" ry="25"/>
<text text-anchor="middle" x="485.75" y="-204.86" font-family="Times,serif" font-size="9.00">819</text>
</g>
<!-- x_diff&#45;&gt;819 -->
<g id="edge3" class="edge">
<title>x_diff&#45;&gt;819</title>
<path fill="none" stroke="green" stroke-width="0.76" d="M347.86,-274.21C372.42,-266.99 413.8,-253.49 446.75,-236.05 450.56,-234.03 454.42,-231.68 458.16,-229.23"/>
<polygon fill="green" stroke="green" stroke-width="0.76" points="460.36,-231.96 466.58,-223.38 456.37,-226.21 460.36,-231.96"/>
</g>
<!-- 820 -->
<g id="node10" class="node">
<title>820</title>
<ellipse fill="white" stroke="black" cx="206.75" cy="-207.06" rx="25" ry="25"/>
<text text-anchor="middle" x="206.75" y="-204.86" font-family="Times,serif" font-size="9.00">820</text>
</g>
<!-- x_diff&#45;&gt;820 -->
<g id="edge4" class="edge">
<title>x_diff&#45;&gt;820</title>
<path fill="none" stroke="red" stroke-width="1.88" d="M307.71,-271.99C289.6,-263.96 261.89,-250.74 239.75,-236.05 237.34,-234.45 234.92,-232.7 232.53,-230.89"/>
<polygon fill="red" stroke="red" stroke-width="1.88" points="234.63,-228.09 224.65,-224.55 230.25,-233.54 234.63,-228.09"/>
</g>
<!-- 822 -->
<g id="node11" class="node">
<title>822</title>
<ellipse fill="white" stroke="black" cx="24.75" cy="-207.06" rx="25" ry="25"/>
<text text-anchor="middle" x="24.75" y="-204.86" font-family="Times,serif" font-size="9.00">822</text>
</g>
<!-- x_diff&#45;&gt;822 -->
<g id="edge5" class="edge">
<title>x_diff&#45;&gt;822</title>
<path fill="none" stroke="red" stroke-width="0.62" d="M305.52,-277.3C264.59,-271.73 172.16,-257.73 96.75,-236.05 83.32,-232.19 68.9,-226.84 56.52,-221.85"/>
<polygon fill="red" stroke="red" stroke-width="0.62" points="57.67,-218.53 47.09,-217.95 55,-225 57.67,-218.53"/>
</g>
<!-- 823 -->
<g id="node12" class="node">
<title>823</title>
<ellipse fill="white" stroke="black" cx="326.75" cy="-117.32" rx="25" ry="25"/>
<text text-anchor="middle" x="326.75" y="-115.12" font-family="Times,serif" font-size="9.00">823</text>
</g>
<!-- x_diff&#45;&gt;823 -->
<g id="edge6" class="edge">
<title>x_diff&#45;&gt;823</title>
<path fill="none" stroke="red" stroke-width="1.37" d="M326.75,-271.81C326.75,-250.15 326.75,-190.7 326.75,-152.46"/>
<polygon fill="red" stroke="red" stroke-width="1.37" points="330.25,-152.29 326.75,-142.29 323.25,-152.29 330.25,-152.29"/>
</g>
<!-- 824 -->
<g id="node13" class="node">
<title>824</title>
<ellipse fill="white" stroke="black" cx="379.75" cy="-207.06" rx="25" ry="25"/>
<text text-anchor="middle" x="379.75" y="-204.86" font-family="Times,serif" font-size="9.00">824</text>
</g>
<!-- x_diff&#45;&gt;824 -->
<g id="edge7" class="edge">
<title>x_diff&#45;&gt;824</title>
<path fill="none" stroke="red" stroke-width="2.93" d="M332.83,-271.79C339.3,-263 349.88,-248.62 359.37,-235.74"/>
<polygon fill="red" stroke="red" stroke-width="2.93" points="362.27,-237.7 365.38,-227.57 356.63,-233.55 362.27,-237.7"/>
</g>
<!-- object_y -->
<g id="node2" class="node">
<title>object_y</title>
<polygon fill="lightgray" stroke="black" points="234.25,-290.05 179.25,-290.05 179.25,-272.05 234.25,-272.05 234.25,-290.05"/>
<text text-anchor="middle" x="206.75" y="-278.85" font-family="Times,serif" font-size="9.00">object_y</text>
</g>
<!-- 1304 -->
<g id="node5" class="node">
<title>1304</title>
<ellipse fill="white" stroke="black" cx="134.75" cy="-207.06" rx="28.98" ry="28.98"/>
<text text-anchor="middle" x="134.75" y="-204.86" font-family="Times,serif" font-size="9.00">1304</text>
</g>
<!-- object_y&#45;&gt;1304 -->
<g id="edge27" class="edge">
<title>object_y&#45;&gt;1304</title>
<path fill="none" stroke="green" stroke-width="1.01" d="M198.49,-271.79C189.66,-262.96 175.18,-248.48 162.25,-235.55"/>
<polygon fill="green" stroke="green" stroke-width="1.01" points="164.41,-232.77 154.87,-228.17 159.46,-237.72 164.41,-232.77"/>
</g>
<!-- object_y&#45;&gt;817 -->
<g id="edge8" class="edge">
<title>object_y&#45;&gt;817</title>
<path fill="none" stroke="green" stroke-width="0.85" d="M214.43,-271.79C223.11,-262.47 237.65,-246.84 250.16,-233.4"/>
<polygon fill="green" stroke="green" stroke-width="0.85" points="252.99,-235.5 257.24,-225.8 247.86,-230.73 252.99,-235.5"/>
</g>
<!-- object_y&#45;&gt;819 -->
<g id="edge9" class="edge">
<title>object_y&#45;&gt;819</title>
<path fill="none" stroke="green" stroke-width="0.28" d="M234.56,-275.61C274.64,-268.88 350.73,-254.86 413.75,-236.05 427.13,-232.05 441.55,-226.67 453.93,-221.7"/>
<polygon fill="green" stroke="green" stroke-width="0.28" points="455.45,-224.86 463.38,-217.83 452.79,-218.39 455.45,-224.86"/>
</g>
<!-- object_y&#45;&gt;820 -->
<g id="edge10" class="edge">
<title>object_y&#45;&gt;820</title>
<path fill="none" stroke="red" stroke-width="0.01" d="M206.75,-271.79C206.75,-264.38 206.75,-253 206.75,-241.89"/>
<polygon fill="red" stroke="red" stroke-width="0.01" points="210.25,-241.88 206.75,-231.88 203.25,-241.88 210.25,-241.88"/>
</g>
<!-- object_y&#45;&gt;822 -->
<g id="edge11" class="edge">
<title>object_y&#45;&gt;822</title>
<path fill="none" stroke="red" stroke-width="0.61" d="M179.13,-274.36C149.57,-267.64 101.79,-254.92 63.75,-236.05 59.89,-234.13 55.99,-231.85 52.23,-229.42"/>
<polygon fill="red" stroke="red" stroke-width="0.61" points="54.02,-226.4 43.8,-223.61 50.05,-232.16 54.02,-226.4"/>
</g>
<!-- object_y&#45;&gt;823 -->
<g id="edge12" class="edge">
<title>object_y&#45;&gt;823</title>
<path fill="none" stroke="red" stroke-width="0.75" d="M179.24,-277.55C153.08,-273.54 115.08,-263.13 96.75,-236.05 82.3,-214.71 80.98,-198.45 96.75,-178.07 120.51,-147.34 233.73,-129.49 291.97,-122.2"/>
<polygon fill="red" stroke="red" stroke-width="0.75" points="292.66,-125.64 302.17,-120.96 291.82,-118.69 292.66,-125.64"/>
</g>
<!-- object_y&#45;&gt;824 -->
<g id="edge13" class="edge">
<title>object_y&#45;&gt;824</title>
<path fill="none" stroke="red" stroke-width="0.08" d="M226.26,-271.93C255.74,-259.66 311.97,-236.26 347.58,-221.45"/>
<polygon fill="red" stroke="red" stroke-width="0.08" points="349.14,-224.58 357.03,-217.51 346.46,-218.12 349.14,-224.58"/>
</g>
<!-- object_height -->
<g id="node3" class="node">
<title>object_height</title>
<polygon fill="lightgray" stroke="black" points="485.75,-290.05 405.75,-290.05 405.75,-272.05 485.75,-272.05 485.75,-290.05"/>
<text text-anchor="middle" x="445.75" y="-278.85" font-family="Times,serif" font-size="9.00">object_height</text>
</g>
<!-- 1033 -->
<g id="node6" class="node">
<title>1033</title>
<ellipse fill="white" stroke="black" cx="557.75" cy="-207.06" rx="28.98" ry="28.98"/>
<text text-anchor="middle" x="557.75" y="-204.86" font-family="Times,serif" font-size="9.00">1033</text>
</g>
<!-- object_height&#45;&gt;1033 -->
<g id="edge25" class="edge">
<title>object_height&#45;&gt;1033</title>
<path fill="none" stroke="red" stroke-width="1.06" d="M460.19,-272.02C475.3,-263.5 499.57,-249.43 519.75,-236.05 522.12,-234.48 524.54,-232.82 526.96,-231.12"/>
<polygon fill="red" stroke="red" stroke-width="1.06" points="529,-233.97 535.1,-225.3 524.93,-228.27 529,-233.97"/>
</g>
<!-- object_height&#45;&gt;817 -->
<g id="edge14" class="edge">
<title>object_height&#45;&gt;817</title>
<path fill="none" stroke="red" stroke-width="1.28" d="M426.35,-271.93C397.04,-259.66 341.13,-236.26 305.73,-221.45"/>
<polygon fill="red" stroke="red" stroke-width="1.28" points="306.91,-218.14 296.33,-217.51 304.21,-224.6 306.91,-218.14"/>
</g>
<!-- object_height&#45;&gt;819 -->
<g id="edge15" class="edge">
<title>object_height&#45;&gt;819</title>
<path fill="none" stroke="green" stroke-width="1.07" d="M450.34,-271.79C454.92,-263.55 462.23,-250.39 469.02,-238.16"/>
<polygon fill="green" stroke="green" stroke-width="1.07" points="472.27,-239.53 474.06,-229.09 466.15,-236.13 472.27,-239.53"/>
</g>
<!-- object_height&#45;&gt;820 -->
<g id="edge16" class="edge">
<title>object_height&#45;&gt;820</title>
<path fill="none" stroke="green" stroke-width="1.08" d="M405.52,-277.3C362.55,-273.06 293.41,-262.43 239.75,-236.05 237.09,-234.74 234.48,-233.18 231.94,-231.46"/>
<polygon fill="green" stroke="green" stroke-width="1.08" points="233.83,-228.5 223.75,-225.21 229.58,-234.06 233.83,-228.5"/>
</g>
<!-- object_height&#45;&gt;824 -->
<g id="edge17" class="edge">
<title>object_height&#45;&gt;824</title>
<path fill="none" stroke="red" stroke-width="1.4" d="M438.18,-271.79C429.63,-262.47 415.31,-246.84 402.98,-233.4"/>
<polygon fill="red" stroke="red" stroke-width="1.4" points="405.35,-230.8 396.01,-225.8 400.19,-235.53 405.35,-230.8"/>
</g>
<!-- 1335 -->
<g id="node14" class="node">
<title>1335</title>
<ellipse fill="white" stroke="black" cx="633.75" cy="-207.06" rx="28.98" ry="28.98"/>
<text text-anchor="middle" x="633.75" y="-204.86" font-family="Times,serif" font-size="9.00">1335</text>
</g>
<!-- object_height&#45;&gt;1335 -->
<g id="edge29" class="edge">
<title>object_height&#45;&gt;1335</title>
<path fill="none" stroke="green" stroke-width="2.02" d="M486.01,-272.26C517.05,-265.32 560.49,-253.52 595.75,-236.05 598.21,-234.83 600.68,-233.45 603.11,-231.97"/>
<polygon fill="green" stroke="green" stroke-width="2.02" points="605.27,-234.74 611.68,-226.3 601.41,-228.9 605.27,-234.74"/>
</g>
<!-- jump -->
<g id="node4" class="node">
<title>jump</title>
<ellipse fill="lightblue" stroke="black" cx="326.75" cy="-28.28" rx="28.07" ry="28.07"/>
<text text-anchor="middle" x="326.75" y="-26.08" font-family="Times,serif" font-size="9.00">jump</text>
</g>
<!-- 1304&#45;&gt;818 -->
<g id="edge28" class="edge">
<title>1304&#45;&gt;818</title>
<path fill="none" stroke="red" stroke-width="2.54" d="M156.63,-187.41C161.67,-183.86 167.19,-180.49 172.75,-178.07 250.7,-144 278.4,-163.44 360.75,-142.07 373.69,-138.71 387.69,-134.28 399.88,-130.15"/>
<polygon fill="red" stroke="red" stroke-width="2.54" points="401.32,-133.36 409.63,-126.79 399.03,-126.74 401.32,-133.36"/>
</g>
<!-- 1033&#45;&gt;823 -->
<g id="edge26" class="edge">
<title>1033&#45;&gt;823</title>
<path fill="none" stroke="green" stroke-width="1.1" d="M535.67,-187.83C530.64,-184.25 525.18,-180.77 519.75,-178.07 469.52,-153.06 452.29,-158.86 398.75,-142.07 385.99,-138.07 372.03,-133.5 359.82,-129.45"/>
<polygon fill="green" stroke="green" stroke-width="1.1" points="360.63,-126.03 350.04,-126.19 358.42,-132.67 360.63,-126.03"/>
</g>
<!-- 817&#45;&gt;jump -->
<g id="edge18" class="edge">
<title>817&#45;&gt;jump</title>
<path fill="none" stroke="red" stroke-width="1.99" d="M275.48,-182.03C277.69,-158.67 282.54,-122.43 292.75,-92.57 296.36,-82.02 301.59,-71.11 306.88,-61.39"/>
<polygon fill="red" stroke="red" stroke-width="1.99" points="310.04,-62.92 311.91,-52.49 303.94,-59.47 310.04,-62.92"/>
</g>
<!-- 818&#45;&gt;jump -->
<g id="edge19" class="edge">
<title>818&#45;&gt;jump</title>
<path fill="none" stroke="red" stroke-width="0.93" d="M413.8,-100.76C397.89,-87.7 374.89,-68.81 356.53,-53.74"/>
<polygon fill="red" stroke="red" stroke-width="0.93" points="358.41,-50.75 348.46,-47.11 353.97,-56.16 358.41,-50.75"/>
</g>
<!-- 819&#45;&gt;jump -->
<g id="edge20" class="edge">
<title>819&#45;&gt;jump</title>
<path fill="none" stroke="red" stroke-width="0.05" d="M487.91,-182.22C488.88,-157.33 486.61,-118.37 466.75,-92.57 441.94,-60.34 397.01,-44.05 364.73,-36.15"/>
<polygon fill="red" stroke="red" stroke-width="0.05" points="365.27,-32.68 354.74,-33.87 363.71,-39.5 365.27,-32.68"/>
</g>
<!-- 820&#45;&gt;jump -->
<g id="edge21" class="edge">
<title>820&#45;&gt;jump</title>
<path fill="none" stroke="green" stroke-width="0.8" d="M218.97,-185.16C232.66,-162.08 255.81,-124.02 277.75,-92.57 285.59,-81.33 294.66,-69.35 302.85,-58.88"/>
<polygon fill="green" stroke="green" stroke-width="0.8" points="305.75,-60.86 309.19,-50.85 300.25,-56.53 305.75,-60.86"/>
</g>
<!-- 822&#45;&gt;jump -->
<g id="edge22" class="edge">
<title>822&#45;&gt;jump</title>
<path fill="none" stroke="red" stroke-width="0.87" d="M45.98,-193.63C97.94,-163.22 231.74,-84.9 293.99,-48.46"/>
<polygon fill="red" stroke="red" stroke-width="0.87" points="295.78,-51.47 302.64,-43.4 292.24,-45.43 295.78,-51.47"/>
</g>
<!-- 823&#45;&gt;jump -->
<g id="edge23" class="edge">
<title>823&#45;&gt;jump</title>
<path fill="none" stroke="red" stroke-width="1.63" d="M326.75,-92.54C326.75,-84.58 326.75,-75.5 326.75,-66.76"/>
<polygon fill="red" stroke="red" stroke-width="1.63" points="330.25,-66.73 326.75,-56.73 323.25,-66.73 330.25,-66.73"/>
</g>
<!-- 824&#45;&gt;jump -->
<g id="edge24" class="edge">
<title>824&#45;&gt;jump</title>
<path fill="none" stroke="red" stroke-width="0.24" d="M378.02,-182.03C375.8,-158.67 370.96,-122.43 360.75,-92.57 357.14,-82.02 351.9,-71.11 346.62,-61.39"/>
<polygon fill="red" stroke="red" stroke-width="0.24" points="349.55,-59.47 341.59,-52.49 343.46,-62.92 349.55,-59.47"/>
</g>
<!-- 1335&#45;&gt;818 -->
<g id="edge30" class="edge">
<title>1335&#45;&gt;818</title>
<path fill="none" stroke="red" stroke-width="0.27" d="M611.54,-188.08C606.52,-184.49 601.09,-180.94 595.75,-178.07 553.28,-155.24 500.25,-137.62 466.43,-127.6"/>
<polygon fill="red" stroke="red" stroke-width="0.27" points="467.17,-124.17 456.59,-124.74 465.21,-130.89 467.17,-124.17"/>
</g>
</g>
</svg>
