<?xml version="1.0" encoding="UTF-8" standalone="no"?>
<!DOCTYPE svg PUBLIC "-//W3C//DTD SVG 1.1//EN"
 "http://www.w3.org/Graphics/SVG/1.1/DTD/svg11.dtd">
<!-- Generated by graphviz version 2.43.0 (0)
 -->
<!-- Title: %3 Pages: 1 -->
<svg width="507pt" height="298pt"
 viewBox="0.00 0.00 507.47 298.05" xmlns="http://www.w3.org/2000/svg" xmlns:xlink="http://www.w3.org/1999/xlink">
<g id="graph0" class="graph" transform="scale(1 1) rotate(0) translate(4 294.05)">
<title>%3</title>
<polygon fill="white" stroke="transparent" points="-4,4 -4,-294.05 503.47,-294.05 503.47,4 -4,4"/>
<!-- x_diff -->
<g id="node1" class="node">
<title>x_diff</title>
<polygon fill="lightgray" stroke="black" points="449.75,-290.05 407.75,-290.05 407.75,-272.05 449.75,-272.05 449.75,-290.05"/>
<text text-anchor="middle" x="428.75" y="-278.85" font-family="Times,serif" font-size="9.00">x_diff</text>
</g>
<!-- 482 -->
<g id="node6" class="node">
<title>482</title>
<ellipse fill="white" stroke="black" cx="311.75" cy="-207.06" rx="25" ry="25"/>
<text text-anchor="middle" x="311.75" y="-204.86" font-family="Times,serif" font-size="9.00">482</text>
</g>
<!-- x_diff&#45;&gt;482 -->
<g id="edge1" class="edge">
<title>x_diff&#45;&gt;482</title>
<path fill="none" stroke="red" stroke-width="2.34" d="M415.33,-271.79C397.34,-260.72 364.92,-240.77 341.12,-226.13"/>
<polygon fill="red" stroke="red" stroke-width="2.34" points="342.83,-223.07 332.48,-220.81 339.16,-229.03 342.83,-223.07"/>
</g>
<!-- 485 -->
<g id="node8" class="node">
<title>485</title>
<ellipse fill="white" stroke="black" cx="455.75" cy="-207.06" rx="25" ry="25"/>
<text text-anchor="middle" x="455.75" y="-204.86" font-family="Times,serif" font-size="9.00">485</text>
</g>
<!-- x_diff&#45;&gt;485 -->
<g id="edge2" class="edge">
<title>x_diff&#45;&gt;485</title>
<path fill="none" stroke="red" stroke-width="1.06" d="M431.85,-271.79C434.77,-264 439.34,-251.81 443.71,-240.17"/>
<polygon fill="red" stroke="red" stroke-width="1.06" points="447.05,-241.22 447.28,-230.63 440.49,-238.76 447.05,-241.22"/>
</g>
<!-- 486 -->
<g id="node9" class="node">
<title>486</title>
<ellipse fill="white" stroke="black" cx="249.75" cy="-117.32" rx="25" ry="25"/>
<text text-anchor="middle" x="249.75" y="-115.12" font-family="Times,serif" font-size="9.00">486</text>
</g>
<!-- x_diff&#45;&gt;486 -->
<g id="edge3" class="edge">
<title>x_diff&#45;&gt;486</title>
<path fill="none" stroke="red" stroke-width="1.64" d="M423.49,-271.88C411.4,-253.52 380.01,-208.25 345.75,-178.07 325.91,-160.59 300.38,-144.97 280.63,-134.08"/>
<polygon fill="red" stroke="red" stroke-width="1.64" points="282.19,-130.95 271.73,-129.28 278.87,-137.11 282.19,-130.95"/>
</g>
<!-- 488 -->
<g id="node11" class="node">
<title>488</title>
<ellipse fill="white" stroke="black" cx="361.75" cy="-117.32" rx="25" ry="25"/>
<text text-anchor="middle" x="361.75" y="-115.12" font-family="Times,serif" font-size="9.00">488</text>
</g>
<!-- x_diff&#45;&gt;488 -->
<g id="edge4" class="edge">
<title>x_diff&#45;&gt;488</title>
<path fill="none" stroke="red" stroke-width="2.22" d="M448.34,-271.91C462.7,-264.78 481.12,-252.9 489.75,-236.05 501.49,-213.11 503.59,-199.8 489.75,-178.07 469.27,-145.91 426.48,-130.78 396.01,-123.85"/>
<polygon fill="red" stroke="red" stroke-width="2.22" points="396.71,-120.42 386.2,-121.8 395.28,-127.27 396.71,-120.42"/>
</g>
<!-- object_y -->
<g id="node2" class="node">
<title>object_y</title>
<polygon fill="lightgray" stroke="black" points="267.25,-290.05 212.25,-290.05 212.25,-272.05 267.25,-272.05 267.25,-290.05"/>
<text text-anchor="middle" x="239.75" y="-278.85" font-family="Times,serif" font-size="9.00">object_y</text>
</g>
<!-- 481 -->
<g id="node5" class="node">
<title>481</title>
<ellipse fill="white" stroke="black" cx="182.75" cy="-117.32" rx="25" ry="25"/>
<text text-anchor="middle" x="182.75" y="-115.12" font-family="Times,serif" font-size="9.00">481</text>
</g>
<!-- object_y&#45;&gt;481 -->
<g id="edge5" class="edge">
<title>object_y&#45;&gt;481</title>
<path fill="none" stroke="red" stroke-width="1.27" d="M230.27,-272C221.38,-263.88 208.49,-250.5 201.75,-236.05 189.48,-209.73 184.95,-176.91 183.37,-152.62"/>
<polygon fill="red" stroke="red" stroke-width="1.27" points="186.85,-152.25 182.84,-142.44 179.86,-152.61 186.85,-152.25"/>
</g>
<!-- object_y&#45;&gt;482 -->
<g id="edge6" class="edge">
<title>object_y&#45;&gt;482</title>
<path fill="none" stroke="red" stroke-width="0.34" d="M248.01,-271.79C257.54,-262.25 273.67,-246.13 287.32,-232.49"/>
<polygon fill="red" stroke="red" stroke-width="0.34" points="289.99,-234.76 294.59,-225.22 285.04,-229.81 289.99,-234.76"/>
</g>
<!-- 483 -->
<g id="node7" class="node">
<title>483</title>
<ellipse fill="white" stroke="black" cx="24.75" cy="-207.06" rx="25" ry="25"/>
<text text-anchor="middle" x="24.75" y="-204.86" font-family="Times,serif" font-size="9.00">483</text>
</g>
<!-- object_y&#45;&gt;483 -->
<g id="edge7" class="edge">
<title>object_y&#45;&gt;483</title>
<path fill="none" stroke="red" stroke-width="2.2" d="M212.16,-277.4C175.27,-272.99 108.6,-261.9 57.75,-236.05 55.02,-234.66 52.33,-233.01 49.73,-231.21"/>
<polygon fill="red" stroke="red" stroke-width="2.2" points="51.86,-228.44 41.8,-225.11 47.59,-233.98 51.86,-228.44"/>
</g>
<!-- object_y&#45;&gt;485 -->
<g id="edge8" class="edge">
<title>object_y&#45;&gt;485</title>
<path fill="none" stroke="red" stroke-width="0.02" d="M266.25,-272.02C294.29,-263.45 339.8,-249.28 378.75,-236.05 393.49,-231.04 409.7,-225.2 423.42,-220.15"/>
<polygon fill="red" stroke="red" stroke-width="0.02" points="424.76,-223.39 432.93,-216.64 422.33,-216.82 424.76,-223.39"/>
</g>
<!-- 487 -->
<g id="node10" class="node">
<title>487</title>
<ellipse fill="white" stroke="black" cx="91.75" cy="-207.06" rx="25" ry="25"/>
<text text-anchor="middle" x="91.75" y="-204.86" font-family="Times,serif" font-size="9.00">487</text>
</g>
<!-- object_y&#45;&gt;487 -->
<g id="edge9" class="edge">
<title>object_y&#45;&gt;487</title>
<path fill="none" stroke="red" stroke-width="2.29" d="M223.06,-271.93C198.84,-260.15 153.53,-238.11 123,-223.26"/>
<polygon fill="red" stroke="red" stroke-width="2.29" points="124.17,-219.94 113.65,-218.71 121.11,-226.23 124.17,-219.94"/>
</g>
<!-- object_y&#45;&gt;488 -->
<g id="edge10" class="edge">
<title>object_y&#45;&gt;488</title>
<path fill="none" stroke="green" stroke-width="2.31" d="M267.43,-276.33C292.02,-271.49 326.91,-260.52 345.75,-236.05 364,-212.35 366.71,-177.72 365.63,-152.15"/>
<polygon fill="green" stroke="green" stroke-width="2.31" points="369.12,-151.91 364.99,-142.15 362.13,-152.35 369.12,-151.91"/>
</g>
<!-- 1317 -->
<g id="node12" class="node">
<title>1317</title>
<ellipse fill="white" stroke="black" cx="239.75" cy="-207.06" rx="28.98" ry="28.98"/>
<text text-anchor="middle" x="239.75" y="-204.86" font-family="Times,serif" font-size="9.00">1317</text>
</g>
<!-- object_y&#45;&gt;1317 -->
<g id="edge23" class="edge">
<title>object_y&#45;&gt;1317</title>
<path fill="none" stroke="green" stroke-width="1" d="M239.75,-271.79C239.75,-265.32 239.75,-255.82 239.75,-246.12"/>
<polygon fill="green" stroke="green" stroke-width="1" points="243.25,-246.05 239.75,-236.05 236.25,-246.05 243.25,-246.05"/>
</g>
<!-- object_height -->
<g id="node3" class="node">
<title>object_height</title>
<polygon fill="lightgray" stroke="black" points="158.75,-290.05 78.75,-290.05 78.75,-272.05 158.75,-272.05 158.75,-290.05"/>
<text text-anchor="middle" x="118.75" y="-278.85" font-family="Times,serif" font-size="9.00">object_height</text>
</g>
<!-- object_height&#45;&gt;482 -->
<g id="edge11" class="edge">
<title>object_height&#45;&gt;482</title>
<path fill="none" stroke="green" stroke-width="0.02" d="M159.01,-273.73C192.23,-267.41 239.88,-255.73 277.75,-236.05 280.51,-234.61 283.25,-232.93 285.91,-231.11"/>
<polygon fill="green" stroke="green" stroke-width="0.02" points="288.17,-233.79 294.05,-224.97 283.95,-228.2 288.17,-233.79"/>
</g>
<!-- object_height&#45;&gt;483 -->
<g id="edge12" class="edge">
<title>object_height&#45;&gt;483</title>
<path fill="none" stroke="green" stroke-width="1.5" d="M106.85,-271.88C94.41,-263.24 74.41,-249.09 57.75,-236.05 55.47,-234.27 53.14,-232.39 50.81,-230.49"/>
<polygon fill="green" stroke="green" stroke-width="1.5" points="52.96,-227.72 43.04,-224.01 48.48,-233.1 52.96,-227.72"/>
</g>
<!-- object_height&#45;&gt;486 -->
<g id="edge13" class="edge">
<title>object_height&#45;&gt;486</title>
<path fill="none" stroke="green" stroke-width="0.74" d="M125.43,-271.81C144.14,-248.71 197.69,-182.59 228.06,-145.1"/>
<polygon fill="green" stroke="green" stroke-width="0.74" points="230.95,-147.09 234.52,-137.11 225.51,-142.68 230.95,-147.09"/>
</g>
<!-- object_height&#45;&gt;487 -->
<g id="edge14" class="edge">
<title>object_height&#45;&gt;487</title>
<path fill="none" stroke="green" stroke-width="1.24" d="M115.65,-271.79C112.73,-264 108.16,-251.81 103.79,-240.17"/>
<polygon fill="green" stroke="green" stroke-width="1.24" points="107,-238.76 100.21,-230.63 100.45,-241.22 107,-238.76"/>
</g>
<!-- jump -->
<g id="node4" class="node">
<title>jump</title>
<ellipse fill="lightblue" stroke="black" cx="249.75" cy="-28.28" rx="28.07" ry="28.07"/>
<text text-anchor="middle" x="249.75" y="-26.08" font-family="Times,serif" font-size="9.00">jump</text>
</g>
<!-- 481&#45;&gt;jump -->
<g id="edge15" class="edge">
<title>481&#45;&gt;jump</title>
<path fill="none" stroke="red" stroke-width="2.32" d="M197.62,-97C206.16,-85.91 217.06,-71.74 226.69,-59.24"/>
<polygon fill="red" stroke="red" stroke-width="2.32" points="229.47,-61.37 232.8,-51.31 223.92,-57.1 229.47,-61.37"/>
</g>
<!-- 482&#45;&gt;jump -->
<g id="edge16" class="edge">
<title>482&#45;&gt;jump</title>
<path fill="none" stroke="green" stroke-width="1.66" d="M307.73,-182.49C303.33,-159.17 295.34,-122.68 283.75,-92.57 279.74,-82.16 274.39,-71.3 269.11,-61.58"/>
<polygon fill="green" stroke="green" stroke-width="1.66" points="272.06,-59.68 264.13,-52.65 265.95,-63.09 272.06,-59.68"/>
</g>
<!-- 482&#45;&gt;488 -->
<g id="edge22" class="edge">
<title>482&#45;&gt;488</title>
<path fill="none" stroke="red" stroke-width="0.96" d="M323.6,-185.26C329.9,-174.2 337.77,-160.4 344.72,-148.2"/>
<polygon fill="red" stroke="red" stroke-width="0.96" points="347.9,-149.69 349.81,-139.27 341.82,-146.22 347.9,-149.69"/>
</g>
<!-- 483&#45;&gt;jump -->
<g id="edge17" class="edge">
<title>483&#45;&gt;jump</title>
<path fill="none" stroke="red" stroke-width="0.76" d="M36.44,-185.15C51.22,-160.3 78.76,-118.89 111.75,-92.57 142.29,-68.2 183.74,-50.83 213.22,-40.53"/>
<polygon fill="red" stroke="red" stroke-width="0.76" points="214.37,-43.83 222.72,-37.31 212.13,-37.2 214.37,-43.83"/>
</g>
<!-- 485&#45;&gt;jump -->
<g id="edge18" class="edge">
<title>485&#45;&gt;jump</title>
<path fill="none" stroke="red" stroke-width="1.14" d="M448.78,-183.16C440.07,-157.96 422.9,-117.7 395.75,-92.57 364.92,-64.04 319.21,-47.07 287.17,-38"/>
<polygon fill="red" stroke="red" stroke-width="1.14" points="287.85,-34.56 277.29,-35.33 286.02,-41.32 287.85,-34.56"/>
</g>
<!-- 486&#45;&gt;jump -->
<g id="edge19" class="edge">
<title>486&#45;&gt;jump</title>
<path fill="none" stroke="green" stroke-width="0.5" d="M249.75,-92.54C249.75,-84.58 249.75,-75.5 249.75,-66.76"/>
<polygon fill="green" stroke="green" stroke-width="0.5" points="253.25,-66.73 249.75,-56.73 246.25,-66.73 253.25,-66.73"/>
</g>
<!-- 487&#45;&gt;jump -->
<g id="edge20" class="edge">
<title>487&#45;&gt;jump</title>
<path fill="none" stroke="red" stroke-width="1.04" d="M99.11,-182.98C107.86,-158.37 124.41,-119.31 148.75,-92.57 167.19,-72.3 193.57,-56.07 214.75,-45.12"/>
<polygon fill="red" stroke="red" stroke-width="1.04" points="216.39,-48.22 223.77,-40.61 213.26,-41.96 216.39,-48.22"/>
</g>
<!-- 488&#45;&gt;jump -->
<g id="edge21" class="edge">
<title>488&#45;&gt;jump</title>
<path fill="none" stroke="red" stroke-width="1.58" d="M342.5,-101.36C325.31,-88 299.86,-68.23 279.97,-52.77"/>
<polygon fill="red" stroke="red" stroke-width="1.58" points="281.86,-49.81 271.82,-46.44 277.57,-55.34 281.86,-49.81"/>
</g>
<!-- 1317&#45;&gt;486 -->
<g id="edge24" class="edge">
<title>1317&#45;&gt;486</title>
<path fill="none" stroke="green" stroke-width="1.17" d="M242.97,-177.81C243.9,-169.62 244.93,-160.59 245.9,-152.1"/>
<polygon fill="green" stroke="green" stroke-width="1.17" points="249.38,-152.43 247.04,-142.1 242.43,-151.63 249.38,-152.43"/>
</g>
</g>
</svg>
