<?xml version="1.0" encoding="UTF-8" standalone="no"?>
<!DOCTYPE svg PUBLIC "-//W3C//DTD SVG 1.1//EN"
 "http://www.w3.org/Graphics/SVG/1.1/DTD/svg11.dtd">
<!-- Generated by graphviz version 2.43.0 (0)
 -->
<!-- Title: %3 Pages: 1 -->
<svg width="524pt" height="307pt"
 viewBox="0.00 0.00 524.50 306.53" xmlns="http://www.w3.org/2000/svg" xmlns:xlink="http://www.w3.org/1999/xlink">
<g id="graph0" class="graph" transform="scale(1 1) rotate(0) translate(4 302.53)">
<title>%3</title>
<polygon fill="white" stroke="transparent" points="-4,4 -4,-302.53 520.5,-302.53 520.5,4 -4,4"/>
<!-- x_diff -->
<g id="node1" class="node">
<title>x_diff</title>
<polygon fill="lightgray" stroke="black" points="285.75,-298.53 243.75,-298.53 243.75,-280.53 285.75,-280.53 285.75,-298.53"/>
<text text-anchor="middle" x="264.75" y="-287.33" font-family="Times,serif" font-size="9.00">x_diff</text>
</g>
<!-- 1442 -->
<g id="node5" class="node">
<title>1442</title>
<ellipse fill="white" stroke="black" cx="374.75" cy="-215.54" rx="28.98" ry="28.98"/>
<text text-anchor="middle" x="374.75" y="-213.34" font-family="Times,serif" font-size="9.00">1442</text>
</g>
<!-- x_diff&#45;&gt;1442 -->
<g id="edge23" class="edge">
<title>x_diff&#45;&gt;1442</title>
<path fill="none" stroke="green" stroke-width="0.68" d="M277.37,-280.28C293.04,-270.02 320.36,-252.14 342.09,-237.92"/>
<polygon fill="green" stroke="green" stroke-width="0.68" points="344.25,-240.69 350.7,-232.28 340.42,-234.83 344.25,-240.69"/>
</g>
<!-- 273 -->
<g id="node8" class="node">
<title>273</title>
<ellipse fill="white" stroke="black" cx="24.75" cy="-215.54" rx="25" ry="25"/>
<text text-anchor="middle" x="24.75" y="-213.34" font-family="Times,serif" font-size="9.00">273</text>
</g>
<!-- x_diff&#45;&gt;273 -->
<g id="edge1" class="edge">
<title>x_diff&#45;&gt;273</title>
<path fill="none" stroke="green" stroke-width="0.15" d="M243.41,-285.36C197.44,-278.3 90.56,-260.65 57.75,-244.53 55.09,-243.23 52.47,-241.67 49.94,-239.95"/>
<polygon fill="green" stroke="green" stroke-width="0.15" points="51.82,-236.98 41.75,-233.7 47.58,-242.55 51.82,-236.98"/>
</g>
<!-- 274 -->
<g id="node9" class="node">
<title>274</title>
<ellipse fill="white" stroke="black" cx="91.75" cy="-215.54" rx="25" ry="25"/>
<text text-anchor="middle" x="91.75" y="-213.34" font-family="Times,serif" font-size="9.00">274</text>
</g>
<!-- x_diff&#45;&gt;274 -->
<g id="edge2" class="edge">
<title>x_diff&#45;&gt;274</title>
<path fill="none" stroke="red" stroke-width="0.47" d="M243.3,-284.57C214.88,-278.72 163.79,-266.07 124.75,-244.53 122.22,-243.14 119.71,-241.53 117.26,-239.81"/>
<polygon fill="red" stroke="red" stroke-width="0.47" points="119.33,-236.99 109.28,-233.64 115.05,-242.52 119.33,-236.99"/>
</g>
<!-- 275 -->
<g id="node10" class="node">
<title>275</title>
<ellipse fill="white" stroke="black" cx="343.75" cy="-121.56" rx="25" ry="25"/>
<text text-anchor="middle" x="343.75" y="-119.36" font-family="Times,serif" font-size="9.00">275</text>
</g>
<!-- x_diff&#45;&gt;275 -->
<g id="edge3" class="edge">
<title>x_diff&#45;&gt;275</title>
<path fill="none" stroke="green" stroke-width="2.13" d="M272.35,-280.31C279.86,-271.86 291.27,-258.05 298.75,-244.53 314.51,-216.07 326.79,-180.99 334.51,-155.77"/>
<polygon fill="green" stroke="green" stroke-width="2.13" points="337.93,-156.53 337.44,-145.95 331.23,-154.53 337.93,-156.53"/>
</g>
<!-- 276 -->
<g id="node11" class="node">
<title>276</title>
<ellipse fill="white" stroke="black" cx="446.75" cy="-215.54" rx="25" ry="25"/>
<text text-anchor="middle" x="446.75" y="-213.34" font-family="Times,serif" font-size="9.00">276</text>
</g>
<!-- x_diff&#45;&gt;276 -->
<g id="edge4" class="edge">
<title>x_diff&#45;&gt;276</title>
<path fill="none" stroke="green" stroke-width="0.6" d="M285.86,-285.01C315.53,-279.46 370.62,-266.94 412.75,-244.53 415.5,-243.07 418.23,-241.37 420.88,-239.54"/>
<polygon fill="green" stroke="green" stroke-width="0.6" points="423.15,-242.21 429.01,-233.39 418.92,-236.63 423.15,-242.21"/>
</g>
<!-- 279 -->
<g id="node13" class="node">
<title>279</title>
<ellipse fill="white" stroke="black" cx="264.75" cy="-215.54" rx="25" ry="25"/>
<text text-anchor="middle" x="264.75" y="-213.34" font-family="Times,serif" font-size="9.00">279</text>
</g>
<!-- x_diff&#45;&gt;279 -->
<g id="edge5" class="edge">
<title>x_diff&#45;&gt;279</title>
<path fill="none" stroke="red" stroke-width="0.35" d="M264.75,-280.28C264.75,-272.87 264.75,-261.48 264.75,-250.37"/>
<polygon fill="red" stroke="red" stroke-width="0.35" points="268.25,-250.37 264.75,-240.37 261.25,-250.37 268.25,-250.37"/>
</g>
<!-- 280 -->
<g id="node14" class="node">
<title>280</title>
<ellipse fill="white" stroke="black" cx="158.75" cy="-215.54" rx="25" ry="25"/>
<text text-anchor="middle" x="158.75" y="-213.34" font-family="Times,serif" font-size="9.00">280</text>
</g>
<!-- x_diff&#45;&gt;280 -->
<g id="edge6" class="edge">
<title>x_diff&#45;&gt;280</title>
<path fill="none" stroke="green" stroke-width="0.19" d="M252.59,-280.28C236.82,-269.56 208.8,-250.54 187.47,-236.05"/>
<polygon fill="green" stroke="green" stroke-width="0.19" points="189.33,-233.08 179.09,-230.36 185.39,-238.87 189.33,-233.08"/>
</g>
<!-- object_y -->
<g id="node2" class="node">
<title>object_y</title>
<polygon fill="lightgray" stroke="black" points="186.25,-298.53 131.25,-298.53 131.25,-280.53 186.25,-280.53 186.25,-298.53"/>
<text text-anchor="middle" x="158.75" y="-287.33" font-family="Times,serif" font-size="9.00">object_y</text>
</g>
<!-- object_y&#45;&gt;273 -->
<g id="edge7" class="edge">
<title>object_y&#45;&gt;273</title>
<path fill="none" stroke="green" stroke-width="1.11" d="M134.92,-280.41C113.81,-272.7 82.59,-260.01 57.75,-244.53 55.3,-243.01 52.84,-241.31 50.43,-239.52"/>
<polygon fill="green" stroke="green" stroke-width="1.11" points="52.52,-236.72 42.51,-233.24 48.17,-242.2 52.52,-236.72"/>
</g>
<!-- object_y&#45;&gt;274 -->
<g id="edge8" class="edge">
<title>object_y&#45;&gt;274</title>
<path fill="none" stroke="green" stroke-width="0.6" d="M151.06,-280.28C142.39,-270.95 127.84,-255.33 115.33,-241.88"/>
<polygon fill="green" stroke="green" stroke-width="0.6" points="117.63,-239.22 108.26,-234.28 112.51,-243.99 117.63,-239.22"/>
</g>
<!-- object_y&#45;&gt;275 -->
<g id="edge9" class="edge">
<title>object_y&#45;&gt;275</title>
<path fill="none" stroke="green" stroke-width="0.45" d="M165.46,-280.25C172.47,-271.51 183.67,-257.27 192.75,-244.53 210.63,-219.44 207.36,-206.61 230.75,-186.55 260.03,-161.43 277.02,-170.99 309.75,-150.55 312.39,-148.9 315.05,-147.07 317.65,-145.16"/>
<polygon fill="green" stroke="green" stroke-width="0.45" points="319.97,-147.79 325.71,-138.88 315.67,-142.27 319.97,-147.79"/>
</g>
<!-- object_y&#45;&gt;279 -->
<g id="edge10" class="edge">
<title>object_y&#45;&gt;279</title>
<path fill="none" stroke="red" stroke-width="1.6" d="M171.7,-280.26C185.27,-271.53 207.17,-257.3 225.75,-244.53 229.3,-242.09 233.02,-239.49 236.67,-236.9"/>
<polygon fill="red" stroke="red" stroke-width="1.6" points="238.92,-239.6 245.02,-230.94 234.85,-233.91 238.92,-239.6"/>
</g>
<!-- object_y&#45;&gt;280 -->
<g id="edge11" class="edge">
<title>object_y&#45;&gt;280</title>
<path fill="none" stroke="green" stroke-width="0.29" d="M158.75,-280.28C158.75,-272.87 158.75,-261.48 158.75,-250.37"/>
<polygon fill="green" stroke="green" stroke-width="0.29" points="162.25,-250.37 158.75,-240.37 155.25,-250.37 162.25,-250.37"/>
</g>
<!-- object_height -->
<g id="node3" class="node">
<title>object_height</title>
<polygon fill="lightgray" stroke="black" points="486.75,-298.53 406.75,-298.53 406.75,-280.53 486.75,-280.53 486.75,-298.53"/>
<text text-anchor="middle" x="446.75" y="-287.33" font-family="Times,serif" font-size="9.00">object_height</text>
</g>
<!-- object_height&#45;&gt;276 -->
<g id="edge12" class="edge">
<title>object_height&#45;&gt;276</title>
<path fill="none" stroke="green" stroke-width="0.6" d="M446.75,-280.28C446.75,-272.87 446.75,-261.48 446.75,-250.37"/>
<polygon fill="green" stroke="green" stroke-width="0.6" points="450.25,-250.37 446.75,-240.37 443.25,-250.37 450.25,-250.37"/>
</g>
<!-- 277 -->
<g id="node12" class="node">
<title>277</title>
<ellipse fill="white" stroke="black" cx="491.75" cy="-121.56" rx="25" ry="25"/>
<text text-anchor="middle" x="491.75" y="-119.36" font-family="Times,serif" font-size="9.00">277</text>
</g>
<!-- object_height&#45;&gt;277 -->
<g id="edge13" class="edge">
<title>object_height&#45;&gt;277</title>
<path fill="none" stroke="green" stroke-width="0.6" d="M455.43,-280.37C463.53,-272.17 475.18,-258.73 480.75,-244.53 491.83,-216.3 493.97,-181.67 493.7,-156.53"/>
<polygon fill="green" stroke="green" stroke-width="0.6" points="497.2,-156.3 493.46,-146.38 490.2,-156.46 497.2,-156.3"/>
</g>
<!-- object_height&#45;&gt;279 -->
<g id="edge14" class="edge">
<title>object_height&#45;&gt;279</title>
<path fill="none" stroke="red" stroke-width="0.02" d="M426.22,-280.42C394.74,-267.96 334.23,-244.03 296.89,-229.26"/>
<polygon fill="red" stroke="red" stroke-width="0.02" points="298.06,-225.96 287.47,-225.53 295.48,-232.46 298.06,-225.96"/>
</g>
<!-- jump -->
<g id="node4" class="node">
<title>jump</title>
<ellipse fill="lightblue" stroke="black" cx="233.75" cy="-28.28" rx="28.07" ry="28.07"/>
<text text-anchor="middle" x="233.75" y="-26.08" font-family="Times,serif" font-size="9.00">jump</text>
</g>
<!-- 1442&#45;&gt;275 -->
<g id="edge24" class="edge">
<title>1442&#45;&gt;275</title>
<path fill="none" stroke="green" stroke-width="3.03" d="M365.78,-187.94C362.3,-177.62 358.29,-165.71 354.65,-154.9"/>
<polygon fill="green" stroke="green" stroke-width="3.03" points="357.95,-153.72 351.43,-145.37 351.31,-155.96 357.95,-153.72"/>
</g>
<!-- 1518 -->
<g id="node6" class="node">
<title>1518</title>
<ellipse fill="white" stroke="black" cx="195.75" cy="-121.56" rx="28.98" ry="28.98"/>
<text text-anchor="middle" x="195.75" y="-119.36" font-family="Times,serif" font-size="9.00">1518</text>
</g>
<!-- 1518&#45;&gt;jump -->
<g id="edge26" class="edge">
<title>1518&#45;&gt;jump</title>
<path fill="none" stroke="green" stroke-width="0.49" d="M206.54,-94.65C210.49,-85.14 215.04,-74.22 219.27,-64.06"/>
<polygon fill="green" stroke="green" stroke-width="0.49" points="222.58,-65.21 223.2,-54.63 216.12,-62.52 222.58,-65.21"/>
</g>
<!-- 1071 -->
<g id="node7" class="node">
<title>1071</title>
<ellipse fill="white" stroke="black" cx="271.75" cy="-121.56" rx="28.98" ry="28.98"/>
<text text-anchor="middle" x="271.75" y="-119.36" font-family="Times,serif" font-size="9.00">1071</text>
</g>
<!-- 1071&#45;&gt;jump -->
<g id="edge22" class="edge">
<title>1071&#45;&gt;jump</title>
<path fill="none" stroke="red" stroke-width="3.19" d="M260.96,-94.65C257,-85.14 252.46,-74.22 248.23,-64.06"/>
<polygon fill="red" stroke="red" stroke-width="3.19" points="251.38,-62.52 244.3,-54.63 244.91,-65.21 251.38,-62.52"/>
</g>
<!-- 273&#45;&gt;jump -->
<g id="edge15" class="edge">
<title>273&#45;&gt;jump</title>
<path fill="none" stroke="red" stroke-width="0.11" d="M35.23,-192.68C48.84,-166.16 74.8,-121.43 107.75,-92.57 134.23,-69.37 170.73,-52.26 197.63,-41.72"/>
<polygon fill="red" stroke="red" stroke-width="0.11" points="198.97,-44.96 207.07,-38.14 196.48,-38.42 198.97,-44.96"/>
</g>
<!-- 274&#45;&gt;jump -->
<g id="edge16" class="edge">
<title>274&#45;&gt;jump</title>
<path fill="none" stroke="red" stroke-width="1.27" d="M97.46,-191.4C104.8,-165.25 119.56,-122.45 143.75,-92.57 159.03,-73.69 181.35,-57.94 199.93,-46.88"/>
<polygon fill="red" stroke="red" stroke-width="1.27" points="201.78,-49.86 208.71,-41.84 198.29,-43.79 201.78,-49.86"/>
</g>
<!-- 275&#45;&gt;jump -->
<g id="edge17" class="edge">
<title>275&#45;&gt;jump</title>
<path fill="none" stroke="red" stroke-width="4.59" d="M325.09,-105.08C308.06,-90.95 282.63,-69.85 262.92,-53.49"/>
<polygon fill="red" stroke="red" stroke-width="4.59" points="265.4,-50.33 255.14,-47.04 260.27,-56.51 265.4,-50.33"/>
</g>
<!-- 276&#45;&gt;jump -->
<g id="edge18" class="edge">
<title>276&#45;&gt;jump</title>
<path fill="none" stroke="green" stroke-width="0.16" d="M439.01,-191.89C428.79,-164.99 408.43,-120.3 377.75,-92.57 347.13,-64.89 302.47,-47.84 271.02,-38.51"/>
<polygon fill="green" stroke="green" stroke-width="0.16" points="271.89,-35.11 261.31,-35.75 269.98,-41.85 271.89,-35.11"/>
</g>
<!-- 277&#45;&gt;jump -->
<g id="edge19" class="edge">
<title>277&#45;&gt;jump</title>
<path fill="none" stroke="green" stroke-width="0.28" d="M470.78,-108.33C461.21,-103.05 449.61,-97.07 438.75,-92.57 381.68,-68.93 312.53,-49.36 270.89,-38.51"/>
<polygon fill="green" stroke="green" stroke-width="0.28" points="271.74,-35.11 261.18,-36.01 269.99,-41.89 271.74,-35.11"/>
</g>
<!-- 279&#45;&gt;1518 -->
<g id="edge25" class="edge">
<title>279&#45;&gt;1518</title>
<path fill="none" stroke="green" stroke-width="1" d="M250.12,-195.04C241.07,-182.98 229.27,-167.25 218.97,-153.52"/>
<polygon fill="green" stroke="green" stroke-width="1" points="221.59,-151.18 212.79,-145.28 215.99,-155.38 221.59,-151.18"/>
</g>
<!-- 279&#45;&gt;1071 -->
<g id="edge21" class="edge">
<title>279&#45;&gt;1071</title>
<path fill="none" stroke="red" stroke-width="1.29" d="M266.55,-190.85C267.24,-181.77 268.05,-171.15 268.82,-161.03"/>
<polygon fill="red" stroke="red" stroke-width="1.29" points="272.33,-160.99 269.6,-150.75 265.35,-160.46 272.33,-160.99"/>
</g>
<!-- 280&#45;&gt;jump -->
<g id="edge20" class="edge">
<title>280&#45;&gt;jump</title>
<path fill="none" stroke="red" stroke-width="0.01" d="M152.84,-191.26C147.62,-165.73 142.92,-124.21 157.75,-92.57 166.6,-73.68 184.17,-58.46 200.19,-47.69"/>
<polygon fill="red" stroke="red" stroke-width="0.01" points="202.31,-50.49 208.86,-42.17 198.55,-44.59 202.31,-50.49"/>
</g>
</g>
</svg>
