<?xml version="1.0" encoding="UTF-8" standalone="no"?>
<!DOCTYPE svg PUBLIC "-//W3C//DTD SVG 1.1//EN"
 "http://www.w3.org/Graphics/SVG/1.1/DTD/svg11.dtd">
<!-- Generated by graphviz version 2.43.0 (0)
 -->
<!-- Title: %3 Pages: 1 -->
<svg width="526pt" height="298pt"
 viewBox="0.00 0.00 526.50 298.05" xmlns="http://www.w3.org/2000/svg" xmlns:xlink="http://www.w3.org/1999/xlink">
<g id="graph0" class="graph" transform="scale(1 1) rotate(0) translate(4 294.05)">
<title>%3</title>
<polygon fill="white" stroke="transparent" points="-4,4 -4,-294.05 522.5,-294.05 522.5,4 -4,4"/>
<!-- x_diff -->
<g id="node1" class="node">
<title>x_diff</title>
<polygon fill="lightgray" stroke="black" points="187.75,-216.06 145.75,-216.06 145.75,-198.06 187.75,-198.06 187.75,-216.06"/>
<text text-anchor="middle" x="166.75" y="-204.86" font-family="Times,serif" font-size="9.00">x_diff</text>
</g>
<!-- 465 -->
<g id="node6" class="node">
<title>465</title>
<ellipse fill="white" stroke="black" cx="292.75" cy="-117.32" rx="25" ry="25"/>
<text text-anchor="middle" x="292.75" y="-115.12" font-family="Times,serif" font-size="9.00">465</text>
</g>
<!-- x_diff&#45;&gt;465 -->
<g id="edge1" class="edge">
<title>x_diff&#45;&gt;465</title>
<path fill="none" stroke="red" stroke-width="0.36" d="M178.55,-198.06C196.26,-186.02 230.74,-162.48 259.75,-142.07 261.35,-140.94 262.99,-139.78 264.65,-138.6"/>
<polygon fill="red" stroke="red" stroke-width="0.36" points="266.8,-141.36 272.9,-132.7 262.73,-135.67 266.8,-141.36"/>
</g>
<!-- 466 -->
<g id="node7" class="node">
<title>466</title>
<ellipse fill="white" stroke="black" cx="426.75" cy="-117.32" rx="25" ry="25"/>
<text text-anchor="middle" x="426.75" y="-115.12" font-family="Times,serif" font-size="9.00">466</text>
</g>
<!-- x_diff&#45;&gt;466 -->
<g id="edge2" class="edge">
<title>x_diff&#45;&gt;466</title>
<path fill="none" stroke="red" stroke-width="1.1" d="M184.06,-197.98C197.63,-191.89 217.1,-183.65 234.75,-178.07 303.83,-156.2 327.69,-171.82 393.75,-142.07 395.58,-141.24 397.42,-140.3 399.23,-139.29"/>
<polygon fill="red" stroke="red" stroke-width="1.1" points="401.41,-142.06 408,-133.76 397.68,-136.13 401.41,-142.06"/>
</g>
<!-- 467 -->
<g id="node8" class="node">
<title>467</title>
<ellipse fill="white" stroke="black" cx="91.75" cy="-117.32" rx="25" ry="25"/>
<text text-anchor="middle" x="91.75" y="-115.12" font-family="Times,serif" font-size="9.00">467</text>
</g>
<!-- x_diff&#45;&gt;467 -->
<g id="edge3" class="edge">
<title>x_diff&#45;&gt;467</title>
<path fill="none" stroke="green" stroke-width="0.41" d="M159.83,-197.96C149.58,-185.97 129.89,-162.94 114.31,-144.71"/>
<polygon fill="green" stroke="green" stroke-width="0.41" points="116.65,-142.06 107.49,-136.74 111.33,-146.61 116.65,-142.06"/>
</g>
<!-- 468 -->
<g id="node9" class="node">
<title>468</title>
<ellipse fill="white" stroke="black" cx="158.75" cy="-117.32" rx="25" ry="25"/>
<text text-anchor="middle" x="158.75" y="-115.12" font-family="Times,serif" font-size="9.00">468</text>
</g>
<!-- x_diff&#45;&gt;468 -->
<g id="edge4" class="edge">
<title>x_diff&#45;&gt;468</title>
<path fill="none" stroke="green" stroke-width="0.12" d="M166.01,-197.96C165.06,-187.56 163.36,-168.86 161.84,-152.2"/>
<polygon fill="green" stroke="green" stroke-width="0.12" points="165.32,-151.82 160.92,-142.18 158.35,-152.45 165.32,-151.82"/>
</g>
<!-- 469 -->
<g id="node10" class="node">
<title>469</title>
<ellipse fill="white" stroke="black" cx="24.75" cy="-117.32" rx="25" ry="25"/>
<text text-anchor="middle" x="24.75" y="-115.12" font-family="Times,serif" font-size="9.00">469</text>
</g>
<!-- x_diff&#45;&gt;469 -->
<g id="edge5" class="edge">
<title>x_diff&#45;&gt;469</title>
<path fill="none" stroke="red" stroke-width="0.02" d="M152.03,-197.99C130.84,-186.25 90.66,-163.5 57.75,-142.07 56.11,-141 54.43,-139.88 52.76,-138.74"/>
<polygon fill="red" stroke="red" stroke-width="0.02" points="54.64,-135.79 44.43,-132.94 50.63,-141.53 54.64,-135.79"/>
</g>
<!-- 470 -->
<g id="node11" class="node">
<title>470</title>
<ellipse fill="white" stroke="black" cx="225.75" cy="-117.32" rx="25" ry="25"/>
<text text-anchor="middle" x="225.75" y="-115.12" font-family="Times,serif" font-size="9.00">470</text>
</g>
<!-- x_diff&#45;&gt;470 -->
<g id="edge6" class="edge">
<title>x_diff&#45;&gt;470</title>
<path fill="none" stroke="green" stroke-width="1.4" d="M172.19,-197.96C179.94,-186.44 194.54,-164.73 206.54,-146.89"/>
<polygon fill="green" stroke="green" stroke-width="1.4" points="209.5,-148.75 212.18,-138.5 203.69,-144.85 209.5,-148.75"/>
</g>
<!-- 472 -->
<g id="node13" class="node">
<title>472</title>
<ellipse fill="white" stroke="black" cx="359.75" cy="-117.32" rx="25" ry="25"/>
<text text-anchor="middle" x="359.75" y="-115.12" font-family="Times,serif" font-size="9.00">472</text>
</g>
<!-- x_diff&#45;&gt;472 -->
<g id="edge7" class="edge">
<title>x_diff&#45;&gt;472</title>
<path fill="none" stroke="red" stroke-width="0.36" d="M186.06,-198C199.65,-192.36 218.28,-184.68 234.75,-178.07 275.5,-161.71 288.18,-163.05 326.75,-142.07 328.52,-141.1 330.3,-140.06 332.07,-138.97"/>
<polygon fill="red" stroke="red" stroke-width="0.36" points="334.33,-141.67 340.74,-133.23 330.47,-135.83 334.33,-141.67"/>
</g>
<!-- object_y -->
<g id="node2" class="node">
<title>object_y</title>
<polygon fill="lightgray" stroke="black" points="311.25,-290.05 256.25,-290.05 256.25,-272.05 311.25,-272.05 311.25,-290.05"/>
<text text-anchor="middle" x="283.75" y="-278.85" font-family="Times,serif" font-size="9.00">object_y</text>
</g>
<!-- 1064 -->
<g id="node5" class="node">
<title>1064</title>
<ellipse fill="white" stroke="black" cx="446.75" cy="-207.06" rx="28.98" ry="28.98"/>
<text text-anchor="middle" x="446.75" y="-204.86" font-family="Times,serif" font-size="9.00">1064</text>
</g>
<!-- object_y&#45;&gt;1064 -->
<g id="edge30" class="edge">
<title>object_y&#45;&gt;1064</title>
<path fill="none" stroke="green" stroke-width="1" d="M311.17,-271.95C335.97,-264.16 373.19,-251.35 403.75,-236.05 407.32,-234.26 410.96,-232.24 414.53,-230.12"/>
<polygon fill="green" stroke="green" stroke-width="1" points="416.56,-232.99 423.21,-224.74 412.87,-227.04 416.56,-232.99"/>
</g>
<!-- object_y&#45;&gt;465 -->
<g id="edge8" class="edge">
<title>object_y&#45;&gt;465</title>
<path fill="none" stroke="green" stroke-width="1.37" d="M297.93,-272.02C309.72,-264.46 325.67,-251.92 332.75,-236.05 343.25,-212.51 340.24,-202.72 332.75,-178.07 329.1,-166.06 322.15,-154.26 315.05,-144.37"/>
<polygon fill="green" stroke="green" stroke-width="1.37" points="317.69,-142.06 308.85,-136.21 312.11,-146.29 317.69,-142.06"/>
</g>
<!-- object_y&#45;&gt;467 -->
<g id="edge9" class="edge">
<title>object_y&#45;&gt;467</title>
<path fill="none" stroke="red" stroke-width="0.61" d="M256.01,-280.43C220.21,-279.36 158.34,-271.97 122.75,-236.05 101.05,-214.14 94.01,-178.97 91.98,-152.76"/>
<polygon fill="red" stroke="red" stroke-width="0.61" points="95.45,-152.28 91.39,-142.5 88.47,-152.68 95.45,-152.28"/>
</g>
<!-- object_y&#45;&gt;468 -->
<g id="edge10" class="edge">
<title>object_y&#45;&gt;468</title>
<path fill="none" stroke="green" stroke-width="0.68" d="M256.09,-280.83C221.73,-280.11 164.27,-273.01 136.75,-236.05 117.73,-210.5 129.35,-173.37 141.75,-147.67"/>
<polygon fill="green" stroke="green" stroke-width="0.68" points="144.87,-149.26 146.3,-138.76 138.63,-146.07 144.87,-149.26"/>
</g>
<!-- object_y&#45;&gt;469 -->
<g id="edge11" class="edge">
<title>object_y&#45;&gt;469</title>
<path fill="none" stroke="green" stroke-width="0.15" d="M255.93,-280.34C216,-279.39 141.86,-272.36 92.75,-236.05 64.01,-214.8 45.48,-177.5 35.14,-150.58"/>
<polygon fill="green" stroke="green" stroke-width="0.15" points="38.42,-149.36 31.69,-141.17 31.85,-151.77 38.42,-149.36"/>
</g>
<!-- object_y&#45;&gt;470 -->
<g id="edge12" class="edge">
<title>object_y&#45;&gt;470</title>
<path fill="none" stroke="green" stroke-width="0.31" d="M269.86,-271.88C258.26,-264.23 242.43,-251.64 234.75,-236.05 221.97,-210.1 220.54,-176.98 221.84,-152.49"/>
<polygon fill="green" stroke="green" stroke-width="0.31" points="225.35,-152.45 222.56,-142.23 218.37,-151.96 225.35,-152.45"/>
</g>
<!-- 471 -->
<g id="node12" class="node">
<title>471</title>
<ellipse fill="white" stroke="black" cx="493.75" cy="-117.32" rx="25" ry="25"/>
<text text-anchor="middle" x="493.75" y="-115.12" font-family="Times,serif" font-size="9.00">471</text>
</g>
<!-- object_y&#45;&gt;471 -->
<g id="edge13" class="edge">
<title>object_y&#45;&gt;471</title>
<path fill="none" stroke="green" stroke-width="0.7" d="M311.32,-277.99C360.96,-273.68 462.3,-261.86 484.75,-236.05 504.49,-213.35 504.56,-177.97 501.01,-151.92"/>
<polygon fill="green" stroke="green" stroke-width="0.7" points="504.42,-151.07 499.39,-141.75 497.51,-152.17 504.42,-151.07"/>
</g>
<!-- object_y&#45;&gt;472 -->
<g id="edge14" class="edge">
<title>object_y&#45;&gt;472</title>
<path fill="none" stroke="green" stroke-width="0.46" d="M305.48,-271.92C320.92,-264.91 340.64,-253.19 350.75,-236.05 365.7,-210.71 366.71,-176.79 364.72,-151.86"/>
<polygon fill="green" stroke="green" stroke-width="0.46" points="368.19,-151.39 363.72,-141.79 361.23,-152.08 368.19,-151.39"/>
</g>
<!-- object_height -->
<g id="node3" class="node">
<title>object_height</title>
<polygon fill="lightgray" stroke="black" points="323.75,-216.06 243.75,-216.06 243.75,-198.06 323.75,-198.06 323.75,-216.06"/>
<text text-anchor="middle" x="283.75" y="-204.86" font-family="Times,serif" font-size="9.00">object_height</text>
</g>
<!-- object_height&#45;&gt;465 -->
<g id="edge15" class="edge">
<title>object_height&#45;&gt;465</title>
<path fill="none" stroke="green" stroke-width="0.16" d="M284.58,-197.96C285.65,-187.56 287.56,-168.86 289.27,-152.2"/>
<polygon fill="green" stroke="green" stroke-width="0.16" points="292.76,-152.48 290.3,-142.18 285.8,-151.77 292.76,-152.48"/>
</g>
<!-- object_height&#45;&gt;466 -->
<g id="edge16" class="edge">
<title>object_height&#45;&gt;466</title>
<path fill="none" stroke="green" stroke-width="0.64" d="M298.61,-198.01C320.01,-186.3 360.57,-163.58 393.75,-142.07 395.39,-141 397.07,-139.89 398.75,-138.75"/>
<polygon fill="green" stroke="green" stroke-width="0.64" points="400.87,-141.54 407.07,-132.95 396.87,-135.79 400.87,-141.54"/>
</g>
<!-- object_height&#45;&gt;467 -->
<g id="edge17" class="edge">
<title>object_height&#45;&gt;467</title>
<path fill="none" stroke="red" stroke-width="1.13" d="M258.39,-197.98C226.28,-187.27 169.71,-166.82 124.75,-142.07 122.99,-141.1 121.21,-140.05 119.44,-138.95"/>
<polygon fill="red" stroke="red" stroke-width="1.13" points="121.05,-135.82 110.78,-133.19 117.17,-141.64 121.05,-135.82"/>
</g>
<!-- object_height&#45;&gt;468 -->
<g id="edge18" class="edge">
<title>object_height&#45;&gt;468</title>
<path fill="none" stroke="green" stroke-width="0.08" d="M272.09,-198.04C254.58,-185.97 220.5,-162.41 191.75,-142.07 190.15,-140.93 188.51,-139.77 186.86,-138.59"/>
<polygon fill="green" stroke="green" stroke-width="0.08" points="188.77,-135.66 178.61,-132.69 184.7,-141.35 188.77,-135.66"/>
</g>
<!-- object_height&#45;&gt;470 -->
<g id="edge19" class="edge">
<title>object_height&#45;&gt;470</title>
<path fill="none" stroke="green" stroke-width="1.61" d="M278.4,-197.96C270.78,-186.44 256.43,-164.73 244.64,-146.89"/>
<polygon fill="green" stroke="green" stroke-width="1.61" points="247.53,-144.91 239.09,-138.5 241.69,-148.77 247.53,-144.91"/>
</g>
<!-- object_height&#45;&gt;471 -->
<g id="edge20" class="edge">
<title>object_height&#45;&gt;471</title>
<path fill="none" stroke="red" stroke-width="1.67" d="M313.62,-198.02C349.68,-187.7 411.62,-167.98 460.75,-142.07 462.53,-141.13 464.32,-140.1 466.1,-139.03"/>
<polygon fill="red" stroke="red" stroke-width="1.67" points="468.35,-141.73 474.78,-133.32 464.51,-135.88 468.35,-141.73"/>
</g>
<!-- object_height&#45;&gt;472 -->
<g id="edge21" class="edge">
<title>object_height&#45;&gt;472</title>
<path fill="none" stroke="green" stroke-width="1.39" d="M290.76,-197.96C301.15,-185.97 321.1,-162.94 336.88,-144.71"/>
<polygon fill="green" stroke="green" stroke-width="1.39" points="339.89,-146.59 343.79,-136.74 334.6,-142 339.89,-146.59"/>
</g>
<!-- jump -->
<g id="node4" class="node">
<title>jump</title>
<ellipse fill="lightblue" stroke="black" cx="258.75" cy="-28.28" rx="28.07" ry="28.07"/>
<text text-anchor="middle" x="258.75" y="-26.08" font-family="Times,serif" font-size="9.00">jump</text>
</g>
<!-- 1064&#45;&gt;466 -->
<g id="edge31" class="edge">
<title>1064&#45;&gt;466</title>
<path fill="none" stroke="green" stroke-width="2.61" d="M440.42,-178.3C438.5,-169.85 436.36,-160.48 434.36,-151.71"/>
<polygon fill="green" stroke="green" stroke-width="2.61" points="437.73,-150.74 432.1,-141.77 430.91,-152.3 437.73,-150.74"/>
</g>
<!-- 465&#45;&gt;jump -->
<g id="edge22" class="edge">
<title>465&#45;&gt;jump</title>
<path fill="none" stroke="green" stroke-width="0.29" d="M283.99,-93.9C280.51,-84.99 276.42,-74.52 272.56,-64.63"/>
<polygon fill="green" stroke="green" stroke-width="0.29" points="275.7,-63.05 268.8,-55.01 269.18,-65.6 275.7,-63.05"/>
</g>
<!-- 466&#45;&gt;jump -->
<g id="edge23" class="edge">
<title>466&#45;&gt;jump</title>
<path fill="none" stroke="green" stroke-width="1.38" d="M407.26,-101.39C402.91,-98.31 398.25,-95.21 393.75,-92.57 361.2,-73.45 321.94,-55.58 294.16,-43.74"/>
<polygon fill="green" stroke="green" stroke-width="1.38" points="295.42,-40.47 284.85,-39.81 292.7,-46.92 295.42,-40.47"/>
</g>
<!-- 467&#45;&gt;jump -->
<g id="edge24" class="edge">
<title>467&#45;&gt;jump</title>
<path fill="none" stroke="red" stroke-width="0.88" d="M111.25,-101.4C115.59,-98.32 120.25,-95.22 124.75,-92.57 157.07,-73.52 196.04,-55.64 223.6,-43.78"/>
<polygon fill="red" stroke="red" stroke-width="0.88" points="225.02,-46.98 232.85,-39.84 222.28,-40.54 225.02,-46.98"/>
</g>
<!-- 468&#45;&gt;jump -->
<g id="edge25" class="edge">
<title>468&#45;&gt;jump</title>
<path fill="none" stroke="red" stroke-width="1.23" d="M177.09,-100.35C191.82,-87.53 212.78,-69.29 229.77,-54.5"/>
<polygon fill="red" stroke="red" stroke-width="1.23" points="232.51,-56.76 237.75,-47.56 227.91,-51.48 232.51,-56.76"/>
</g>
<!-- 469&#45;&gt;jump -->
<g id="edge26" class="edge">
<title>469&#45;&gt;jump</title>
<path fill="none" stroke="green" stroke-width="0.21" d="M43.64,-101.17C48.1,-98.04 52.95,-94.97 57.75,-92.57 111.72,-65.53 179.63,-47.05 221.08,-37.34"/>
<polygon fill="green" stroke="green" stroke-width="0.21" points="222.06,-40.7 231.03,-35.06 220.5,-33.88 222.06,-40.7"/>
</g>
<!-- 470&#45;&gt;jump -->
<g id="edge27" class="edge">
<title>470&#45;&gt;jump</title>
<path fill="none" stroke="green" stroke-width="0.79" d="M234.25,-93.9C237.63,-84.99 241.6,-74.52 245.35,-64.63"/>
<polygon fill="green" stroke="green" stroke-width="0.79" points="248.72,-65.6 248.99,-55.01 242.18,-63.12 248.72,-65.6"/>
</g>
<!-- 471&#45;&gt;jump -->
<g id="edge28" class="edge">
<title>471&#45;&gt;jump</title>
<path fill="none" stroke="green" stroke-width="0.17" d="M474.86,-101.16C470.4,-98.04 465.55,-94.97 460.75,-92.57 406.36,-65.37 337.88,-46.89 296.26,-37.22"/>
<polygon fill="green" stroke="green" stroke-width="0.17" points="296.8,-33.76 286.28,-34.96 295.25,-40.59 296.8,-33.76"/>
</g>
<!-- 472&#45;&gt;jump -->
<g id="edge29" class="edge">
<title>472&#45;&gt;jump</title>
<path fill="none" stroke="red" stroke-width="2.93" d="M341.22,-100.35C326.21,-87.42 304.79,-68.96 287.55,-54.1"/>
<polygon fill="red" stroke="red" stroke-width="2.93" points="289.81,-51.43 279.95,-47.56 285.24,-56.74 289.81,-51.43"/>
</g>
</g>
</svg>
