<?xml version="1.0" encoding="UTF-8" standalone="no"?>
<!DOCTYPE svg PUBLIC "-//W3C//DTD SVG 1.1//EN"
 "http://www.w3.org/Graphics/SVG/1.1/DTD/svg11.dtd">
<!-- Generated by graphviz version 2.43.0 (0)
 -->
<!-- Title: %3 Pages: 1 -->
<svg width="330pt" height="298pt"
 viewBox="0.00 0.00 329.74 298.05" xmlns="http://www.w3.org/2000/svg" xmlns:xlink="http://www.w3.org/1999/xlink">
<g id="graph0" class="graph" transform="scale(1 1) rotate(0) translate(4 294.05)">
<title>%3</title>
<polygon fill="white" stroke="transparent" points="-4,4 -4,-294.05 325.74,-294.05 325.74,4 -4,4"/>
<!-- x_diff -->
<g id="node1" class="node">
<title>x_diff</title>
<polygon fill="lightgray" stroke="black" points="211.99,-290.05 169.99,-290.05 169.99,-272.05 211.99,-272.05 211.99,-290.05"/>
<text text-anchor="middle" x="190.99" y="-278.85" font-family="Times,serif" font-size="9.00">x_diff</text>
</g>
<!-- 330 -->
<g id="node5" class="node">
<title>330</title>
<ellipse fill="white" stroke="black" cx="296.99" cy="-117.32" rx="25" ry="25"/>
<text text-anchor="middle" x="296.99" y="-115.12" font-family="Times,serif" font-size="9.00">330</text>
</g>
<!-- x_diff&#45;&gt;330 -->
<g id="edge1" class="edge">
<title>x_diff&#45;&gt;330</title>
<path fill="none" stroke="green" stroke-width="0.11" d="M212,-277.84C236.6,-274.01 276.34,-263.67 294.99,-236.05 311.68,-211.33 309.99,-176.55 305.46,-151.2"/>
<polygon fill="green" stroke="green" stroke-width="0.11" points="308.87,-150.42 303.46,-141.31 302.01,-151.81 308.87,-150.42"/>
</g>
<!-- 331 -->
<g id="node6" class="node">
<title>331</title>
<ellipse fill="white" stroke="black" cx="229.99" cy="-117.32" rx="25" ry="25"/>
<text text-anchor="middle" x="229.99" y="-115.12" font-family="Times,serif" font-size="9.00">331</text>
</g>
<!-- x_diff&#45;&gt;331 -->
<g id="edge2" class="edge">
<title>x_diff&#45;&gt;331</title>
<path fill="none" stroke="green" stroke-width="0.09" d="M212.3,-275.78C232.9,-270.4 262.99,-258.94 276.99,-236.05 290.44,-214.06 285.42,-202.42 276.99,-178.07 272.43,-164.88 263.61,-152.39 254.84,-142.28"/>
<polygon fill="green" stroke="green" stroke-width="0.09" points="257.24,-139.71 247.9,-134.71 252.08,-144.44 257.24,-139.71"/>
</g>
<!-- 335 -->
<g id="node9" class="node">
<title>335</title>
<ellipse fill="white" stroke="black" cx="95.99" cy="-117.32" rx="25" ry="25"/>
<text text-anchor="middle" x="95.99" y="-115.12" font-family="Times,serif" font-size="9.00">335</text>
</g>
<!-- x_diff&#45;&gt;335 -->
<g id="edge3" class="edge">
<title>x_diff&#45;&gt;335</title>
<path fill="none" stroke="red" stroke-width="0.69" d="M169.95,-275.35C149.9,-269.67 120.67,-258.02 105.99,-236.05 89.54,-211.42 88.46,-177.13 90.65,-151.9"/>
<polygon fill="red" stroke="red" stroke-width="0.69" points="94.16,-152.02 91.76,-141.7 87.2,-151.27 94.16,-152.02"/>
</g>
<!-- 1495 -->
<g id="node10" class="node">
<title>1495</title>
<ellipse fill="white" stroke="black" cx="28.99" cy="-207.06" rx="28.98" ry="28.98"/>
<text text-anchor="middle" x="28.99" y="-204.86" font-family="Times,serif" font-size="9.00">1495</text>
</g>
<!-- x_diff&#45;&gt;1495 -->
<g id="edge17" class="edge">
<title>x_diff&#45;&gt;1495</title>
<path fill="none" stroke="green" stroke-width="1" d="M169.76,-273.78C145.49,-266.26 104.86,-252.56 71.99,-236.05 68.42,-234.26 64.78,-232.23 61.21,-230.11"/>
<polygon fill="green" stroke="green" stroke-width="1" points="62.88,-227.03 52.54,-224.73 59.19,-232.98 62.88,-227.03"/>
</g>
<!-- object_y -->
<g id="node2" class="node">
<title>object_y</title>
<polygon fill="lightgray" stroke="black" points="169.49,-216.06 114.49,-216.06 114.49,-198.06 169.49,-198.06 169.49,-216.06"/>
<text text-anchor="middle" x="141.99" y="-204.86" font-family="Times,serif" font-size="9.00">object_y</text>
</g>
<!-- object_y&#45;&gt;330 -->
<g id="edge4" class="edge">
<title>object_y&#45;&gt;330</title>
<path fill="none" stroke="red" stroke-width="0.62" d="M151.27,-198.01C158.5,-192 168.95,-183.87 178.99,-178.07 214.51,-157.53 228.23,-162.17 263.99,-142.07 265.74,-141.08 267.52,-140.02 269.28,-138.91"/>
<polygon fill="red" stroke="red" stroke-width="0.62" points="271.56,-141.6 277.93,-133.13 267.67,-135.78 271.56,-141.6"/>
</g>
<!-- object_y&#45;&gt;331 -->
<g id="edge5" class="edge">
<title>object_y&#45;&gt;331</title>
<path fill="none" stroke="green" stroke-width="1.7" d="M150.11,-197.96C162.55,-185.56 186.81,-161.37 205.35,-142.89"/>
<polygon fill="green" stroke="green" stroke-width="1.7" points="208.28,-144.9 212.89,-135.36 203.34,-139.95 208.28,-144.9"/>
</g>
<!-- 332 -->
<g id="node7" class="node">
<title>332</title>
<ellipse fill="white" stroke="black" cx="162.99" cy="-117.32" rx="25" ry="25"/>
<text text-anchor="middle" x="162.99" y="-115.12" font-family="Times,serif" font-size="9.00">332</text>
</g>
<!-- object_y&#45;&gt;332 -->
<g id="edge6" class="edge">
<title>object_y&#45;&gt;332</title>
<path fill="none" stroke="red" stroke-width="1.59" d="M143.93,-197.96C146.44,-187.49 150.95,-168.61 154.96,-151.86"/>
<polygon fill="red" stroke="red" stroke-width="1.59" points="158.45,-152.34 157.37,-141.8 151.64,-150.71 158.45,-152.34"/>
</g>
<!-- 334 -->
<g id="node8" class="node">
<title>334</title>
<ellipse fill="white" stroke="black" cx="28.99" cy="-117.32" rx="25" ry="25"/>
<text text-anchor="middle" x="28.99" y="-115.12" font-family="Times,serif" font-size="9.00">334</text>
</g>
<!-- object_y&#45;&gt;334 -->
<g id="edge7" class="edge">
<title>object_y&#45;&gt;334</title>
<path fill="none" stroke="red" stroke-width="0.17" d="M131.56,-197.96C114.65,-184.83 80.7,-158.47 56.5,-139.67"/>
<polygon fill="red" stroke="red" stroke-width="0.17" points="58.43,-136.74 48.38,-133.38 54.14,-142.27 58.43,-136.74"/>
</g>
<!-- object_y&#45;&gt;335 -->
<g id="edge8" class="edge">
<title>object_y&#45;&gt;335</title>
<path fill="none" stroke="green" stroke-width="1.85" d="M137.75,-197.96C131.93,-186.86 121.16,-166.32 112.01,-148.88"/>
<polygon fill="green" stroke="green" stroke-width="1.85" points="114.88,-146.82 107.14,-139.58 108.68,-150.07 114.88,-146.82"/>
</g>
<!-- object_height -->
<g id="node3" class="node">
<title>object_height</title>
<polygon fill="lightgray" stroke="black" points="267.99,-216.06 187.99,-216.06 187.99,-198.06 267.99,-198.06 267.99,-216.06"/>
<text text-anchor="middle" x="227.99" y="-204.86" font-family="Times,serif" font-size="9.00">object_height</text>
</g>
<!-- object_height&#45;&gt;330 -->
<g id="edge9" class="edge">
<title>object_height&#45;&gt;330</title>
<path fill="none" stroke="red" stroke-width="0.46" d="M234.36,-197.96C243.67,-186.11 261.46,-163.5 275.7,-145.39"/>
<polygon fill="red" stroke="red" stroke-width="0.46" points="278.53,-147.46 281.96,-137.44 273.02,-143.13 278.53,-147.46"/>
</g>
<!-- object_height&#45;&gt;331 -->
<g id="edge10" class="edge">
<title>object_height&#45;&gt;331</title>
<path fill="none" stroke="red" stroke-width="0.67" d="M228.18,-197.96C228.41,-187.56 228.84,-168.86 229.22,-152.2"/>
<polygon fill="red" stroke="red" stroke-width="0.67" points="232.72,-152.25 229.45,-142.18 225.72,-152.09 232.72,-152.25"/>
</g>
<!-- object_height&#45;&gt;332 -->
<g id="edge11" class="edge">
<title>object_height&#45;&gt;332</title>
<path fill="none" stroke="red" stroke-width="0.55" d="M221.99,-197.96C213.35,-186.29 196.97,-164.18 183.66,-146.21"/>
<polygon fill="red" stroke="red" stroke-width="0.55" points="186.18,-143.74 177.42,-137.79 180.56,-147.91 186.18,-143.74"/>
</g>
<!-- object_height&#45;&gt;335 -->
<g id="edge12" class="edge">
<title>object_height&#45;&gt;335</title>
<path fill="none" stroke="green" stroke-width="0.44" d="M215.04,-197.98C196,-186.03 159.42,-162.83 128.99,-142.07 127.37,-140.96 125.72,-139.82 124.05,-138.66"/>
<polygon fill="green" stroke="green" stroke-width="0.44" points="125.96,-135.71 115.77,-132.8 121.91,-141.43 125.96,-135.71"/>
</g>
<!-- jump -->
<g id="node4" class="node">
<title>jump</title>
<ellipse fill="lightblue" stroke="black" cx="128.99" cy="-28.28" rx="28.07" ry="28.07"/>
<text text-anchor="middle" x="128.99" y="-26.08" font-family="Times,serif" font-size="9.00">jump</text>
</g>
<!-- 331&#45;&gt;jump -->
<g id="edge13" class="edge">
<title>331&#45;&gt;jump</title>
<path fill="none" stroke="red" stroke-width="1.24" d="M211.47,-100.35C196.45,-87.42 175.04,-68.96 157.79,-54.1"/>
<polygon fill="red" stroke="red" stroke-width="1.24" points="160.06,-51.43 150.2,-47.56 155.49,-56.74 160.06,-51.43"/>
</g>
<!-- 332&#45;&gt;jump -->
<g id="edge14" class="edge">
<title>332&#45;&gt;jump</title>
<path fill="none" stroke="green" stroke-width="0.53" d="M154.24,-93.9C150.75,-84.99 146.66,-74.52 142.8,-64.63"/>
<polygon fill="green" stroke="green" stroke-width="0.53" points="145.94,-63.05 139.04,-55.01 139.42,-65.6 145.94,-63.05"/>
</g>
<!-- 334&#45;&gt;jump -->
<g id="edge15" class="edge">
<title>334&#45;&gt;jump</title>
<path fill="none" stroke="green" stroke-width="0.76" d="M47.33,-100.35C62.06,-87.53 83.02,-69.29 100.02,-54.5"/>
<polygon fill="green" stroke="green" stroke-width="0.76" points="102.75,-56.76 108,-47.56 98.16,-51.48 102.75,-56.76"/>
</g>
<!-- 335&#45;&gt;jump -->
<g id="edge16" class="edge">
<title>335&#45;&gt;jump</title>
<path fill="none" stroke="green" stroke-width="3.55" d="M104.49,-93.9C107.87,-84.99 111.84,-74.52 115.59,-64.63"/>
<polygon fill="green" stroke="green" stroke-width="3.55" points="118.96,-65.6 119.24,-55.01 112.42,-63.12 118.96,-65.6"/>
</g>
<!-- 1495&#45;&gt;334 -->
<g id="edge18" class="edge">
<title>1495&#45;&gt;334</title>
<path fill="none" stroke="red" stroke-width="1.18" d="M28.99,-177.81C28.99,-169.62 28.99,-160.59 28.99,-152.1"/>
<polygon fill="red" stroke="red" stroke-width="1.18" points="32.49,-152.1 28.99,-142.1 25.49,-152.1 32.49,-152.1"/>
</g>
</g>
</svg>
