<?xml version="1.0" encoding="UTF-8" standalone="no"?>
<!DOCTYPE svg PUBLIC "-//W3C//DTD SVG 1.1//EN"
 "http://www.w3.org/Graphics/SVG/1.1/DTD/svg11.dtd">
<!-- Generated by graphviz version 2.43.0 (0)
 -->
<!-- Title: %3 Pages: 1 -->
<svg width="609pt" height="307pt"
 viewBox="0.00 0.00 609.09 306.53" xmlns="http://www.w3.org/2000/svg" xmlns:xlink="http://www.w3.org/1999/xlink">
<g id="graph0" class="graph" transform="scale(1 1) rotate(0) translate(4 302.53)">
<title>%3</title>
<polygon fill="white" stroke="transparent" points="-4,4 -4,-302.53 605.09,-302.53 605.09,4 -4,4"/>
<!-- x_diff -->
<g id="node1" class="node">
<title>x_diff</title>
<polygon fill="lightgray" stroke="black" points="296.75,-298.53 254.75,-298.53 254.75,-280.53 296.75,-280.53 296.75,-298.53"/>
<text text-anchor="middle" x="275.75" y="-287.33" font-family="Times,serif" font-size="9.00">x_diff</text>
</g>
<!-- 704 -->
<g id="node5" class="node">
<title>704</title>
<ellipse fill="white" stroke="black" cx="282.75" cy="-215.54" rx="25" ry="25"/>
<text text-anchor="middle" x="282.75" y="-213.34" font-family="Times,serif" font-size="9.00">704</text>
</g>
<!-- x_diff&#45;&gt;704 -->
<g id="edge5" class="edge">
<title>x_diff&#45;&gt;704</title>
<path fill="none" stroke="green" stroke-width="2.04" d="M276.55,-280.28C277.27,-272.87 278.38,-261.48 279.46,-250.37"/>
<polygon fill="green" stroke="green" stroke-width="2.04" points="282.95,-250.66 280.43,-240.37 275.98,-249.98 282.95,-250.66"/>
</g>
<!-- 1056 -->
<g id="node6" class="node">
<title>1056</title>
<ellipse fill="white" stroke="black" cx="96.75" cy="-215.54" rx="28.98" ry="28.98"/>
<text text-anchor="middle" x="96.75" y="-213.34" font-family="Times,serif" font-size="9.00">1056</text>
</g>
<!-- x_diff&#45;&gt;1056 -->
<g id="edge25" class="edge">
<title>x_diff&#45;&gt;1056</title>
<path fill="none" stroke="red" stroke-width="0.91" d="M254.35,-283.49C226.98,-276.61 178.5,-263.01 139.75,-244.53 136.14,-242.81 132.48,-240.84 128.89,-238.75"/>
<polygon fill="red" stroke="red" stroke-width="0.91" points="130.55,-235.66 120.2,-233.4 126.88,-241.62 130.55,-235.66"/>
</g>
<!-- 1093 -->
<g id="node7" class="node">
<title>1093</title>
<ellipse fill="white" stroke="black" cx="210.75" cy="-215.54" rx="28.98" ry="28.98"/>
<text text-anchor="middle" x="210.75" y="-213.34" font-family="Times,serif" font-size="9.00">1093</text>
</g>
<!-- x_diff&#45;&gt;1093 -->
<g id="edge27" class="edge">
<title>x_diff&#45;&gt;1093</title>
<path fill="none" stroke="green" stroke-width="0.53" d="M268.29,-280.28C260.56,-271.71 248.03,-257.83 236.63,-245.21"/>
<polygon fill="green" stroke="green" stroke-width="0.53" points="239.03,-242.65 229.74,-237.57 233.84,-247.34 239.03,-242.65"/>
</g>
<!-- 698 -->
<g id="node10" class="node">
<title>698</title>
<ellipse fill="white" stroke="black" cx="24.75" cy="-215.54" rx="25" ry="25"/>
<text text-anchor="middle" x="24.75" y="-213.34" font-family="Times,serif" font-size="9.00">698</text>
</g>
<!-- x_diff&#45;&gt;698 -->
<g id="edge1" class="edge">
<title>x_diff&#45;&gt;698</title>
<path fill="none" stroke="green" stroke-width="0.39" d="M254.65,-287.63C214.59,-285.2 125.56,-276.35 58.75,-244.53 55.78,-243.12 52.85,-241.39 50.03,-239.49"/>
<polygon fill="green" stroke="green" stroke-width="0.39" points="52.06,-236.64 41.96,-233.44 47.86,-242.24 52.06,-236.64"/>
</g>
<!-- 700 -->
<g id="node12" class="node">
<title>700</title>
<ellipse fill="white" stroke="black" cx="388.75" cy="-215.54" rx="25" ry="25"/>
<text text-anchor="middle" x="388.75" y="-213.34" font-family="Times,serif" font-size="9.00">700</text>
</g>
<!-- x_diff&#45;&gt;700 -->
<g id="edge2" class="edge">
<title>x_diff&#45;&gt;700</title>
<path fill="none" stroke="red" stroke-width="1.6" d="M288.71,-280.28C305.91,-269.32 336.75,-249.67 359.66,-235.07"/>
<polygon fill="red" stroke="red" stroke-width="1.6" points="361.76,-237.88 368.32,-229.56 358,-231.98 361.76,-237.88"/>
</g>
<!-- 701 -->
<g id="node13" class="node">
<title>701</title>
<ellipse fill="white" stroke="black" cx="455.75" cy="-215.54" rx="25" ry="25"/>
<text text-anchor="middle" x="455.75" y="-213.34" font-family="Times,serif" font-size="9.00">701</text>
</g>
<!-- x_diff&#45;&gt;701 -->
<g id="edge3" class="edge">
<title>x_diff&#45;&gt;701</title>
<path fill="none" stroke="green" stroke-width="1.1" d="M296.91,-282.72C334.84,-272.22 411.54,-250.62 422.75,-244.53 425.44,-243.08 428.1,-241.37 430.69,-239.54"/>
<polygon fill="green" stroke="green" stroke-width="1.1" points="432.85,-242.3 438.59,-233.39 428.55,-236.77 432.85,-242.3"/>
</g>
<!-- 703 -->
<g id="node14" class="node">
<title>703</title>
<ellipse fill="white" stroke="black" cx="522.75" cy="-215.54" rx="25" ry="25"/>
<text text-anchor="middle" x="522.75" y="-213.34" font-family="Times,serif" font-size="9.00">703</text>
</g>
<!-- x_diff&#45;&gt;703 -->
<g id="edge4" class="edge">
<title>x_diff&#45;&gt;703</title>
<path fill="none" stroke="green" stroke-width="0.14" d="M297.05,-282.86C300.29,-282.05 303.61,-281.25 306.75,-280.53 387.58,-262.17 415.07,-280.5 489.75,-244.53 492.41,-243.25 495.04,-241.7 497.58,-239.99"/>
<polygon fill="green" stroke="green" stroke-width="0.14" points="499.93,-242.6 505.78,-233.76 495.7,-237.03 499.93,-242.6"/>
</g>
<!-- object_y -->
<g id="node2" class="node">
<title>object_y</title>
<polygon fill="lightgray" stroke="black" points="370.25,-298.53 315.25,-298.53 315.25,-280.53 370.25,-280.53 370.25,-298.53"/>
<text text-anchor="middle" x="342.75" y="-287.33" font-family="Times,serif" font-size="9.00">object_y</text>
</g>
<!-- object_y&#45;&gt;704 -->
<g id="edge12" class="edge">
<title>object_y&#45;&gt;704</title>
<path fill="none" stroke="red" stroke-width="0.44" d="M335.87,-280.28C328.32,-271.22 315.83,-256.23 304.85,-243.06"/>
<polygon fill="red" stroke="red" stroke-width="0.44" points="307.36,-240.61 298.27,-235.16 301.98,-245.09 307.36,-240.61"/>
</g>
<!-- 697 -->
<g id="node9" class="node">
<title>697</title>
<ellipse fill="white" stroke="black" cx="191.75" cy="-121.56" rx="25" ry="25"/>
<text text-anchor="middle" x="191.75" y="-119.36" font-family="Times,serif" font-size="9.00">697</text>
</g>
<!-- object_y&#45;&gt;697 -->
<g id="edge6" class="edge">
<title>object_y&#45;&gt;697</title>
<path fill="none" stroke="red" stroke-width="2.07" d="M315.19,-282.33C268.2,-271.61 177.17,-250.24 172.75,-244.53 152.54,-218.42 163.54,-179.56 175.5,-152.75"/>
<polygon fill="red" stroke="red" stroke-width="2.07" points="178.78,-154 179.89,-143.47 172.45,-151.01 178.78,-154"/>
</g>
<!-- object_y&#45;&gt;698 -->
<g id="edge7" class="edge">
<title>object_y&#45;&gt;698</title>
<path fill="none" stroke="green" stroke-width="1.32" d="M314.91,-282.3C311.82,-281.67 308.72,-281.07 305.75,-280.53 196.58,-260.8 160.19,-289.44 58.75,-244.53 55.74,-243.2 52.79,-241.53 49.95,-239.67"/>
<polygon fill="green" stroke="green" stroke-width="1.32" points="51.98,-236.81 41.86,-233.66 47.8,-242.43 51.98,-236.81"/>
</g>
<!-- 699 -->
<g id="node11" class="node">
<title>699</title>
<ellipse fill="white" stroke="black" cx="335.75" cy="-121.56" rx="25" ry="25"/>
<text text-anchor="middle" x="335.75" y="-119.36" font-family="Times,serif" font-size="9.00">699</text>
</g>
<!-- object_y&#45;&gt;699 -->
<g id="edge8" class="edge">
<title>object_y&#45;&gt;699</title>
<path fill="none" stroke="green" stroke-width="0.6" d="M342.41,-280.53C341.48,-258.52 338.85,-196.13 337.19,-156.67"/>
<polygon fill="green" stroke="green" stroke-width="0.6" points="340.67,-156.28 336.76,-146.44 333.68,-156.58 340.67,-156.28"/>
</g>
<!-- object_y&#45;&gt;700 -->
<g id="edge9" class="edge">
<title>object_y&#45;&gt;700</title>
<path fill="none" stroke="red" stroke-width="0.21" d="M348.03,-280.28C353.47,-271.75 362.28,-257.97 370.31,-245.39"/>
<polygon fill="red" stroke="red" stroke-width="0.21" points="373.27,-247.27 375.7,-236.96 367.37,-243.5 373.27,-247.27"/>
</g>
<!-- object_y&#45;&gt;701 -->
<g id="edge10" class="edge">
<title>object_y&#45;&gt;701</title>
<path fill="none" stroke="red" stroke-width="1.88" d="M359.56,-280.53C376.16,-272.34 401.99,-258.83 422.75,-244.53 425.13,-242.9 427.53,-241.12 429.91,-239.28"/>
<polygon fill="red" stroke="red" stroke-width="1.88" points="432.2,-241.93 437.77,-232.92 427.79,-236.49 432.2,-241.93"/>
</g>
<!-- object_y&#45;&gt;703 -->
<g id="edge11" class="edge">
<title>object_y&#45;&gt;703</title>
<path fill="none" stroke="green" stroke-width="0.15" d="M370.34,-283.81C400.91,-277.79 451,-265.56 489.75,-244.53 492.44,-243.08 495.1,-241.37 497.69,-239.54"/>
<polygon fill="green" stroke="green" stroke-width="0.15" points="499.85,-242.3 505.59,-233.39 495.55,-236.77 499.85,-242.3"/>
</g>
<!-- object_height -->
<g id="node3" class="node">
<title>object_height</title>
<polygon fill="lightgray" stroke="black" points="528.75,-298.53 448.75,-298.53 448.75,-280.53 528.75,-280.53 528.75,-298.53"/>
<text text-anchor="middle" x="488.75" y="-287.33" font-family="Times,serif" font-size="9.00">object_height</text>
</g>
<!-- object_height&#45;&gt;704 -->
<g id="edge18" class="edge">
<title>object_height&#45;&gt;704</title>
<path fill="none" stroke="green" stroke-width="0.39" d="M462.92,-280.51C435.83,-271.98 392.09,-257.91 354.75,-244.53 341.6,-239.82 327.23,-234.31 314.81,-229.43"/>
<polygon fill="green" stroke="green" stroke-width="0.39" points="315.92,-226.1 305.33,-225.68 313.34,-232.61 315.92,-226.1"/>
</g>
<!-- object_height&#45;&gt;697 -->
<g id="edge13" class="edge">
<title>object_height&#45;&gt;697</title>
<path fill="none" stroke="green" stroke-width="0.27" d="M511.85,-280.42C527.61,-273.53 547.27,-261.95 556.75,-244.53 569.06,-221.9 573.65,-206.01 556.75,-186.55 519.22,-143.35 357.9,-161.62 301.75,-150.55 275.88,-145.45 247,-138.03 225.33,-132.12"/>
<polygon fill="green" stroke="green" stroke-width="0.27" points="226.18,-128.72 215.61,-129.43 224.32,-135.47 226.18,-128.72"/>
</g>
<!-- object_height&#45;&gt;699 -->
<g id="edge14" class="edge">
<title>object_height&#45;&gt;699</title>
<path fill="none" stroke="red" stroke-width="0.43" d="M528.93,-281.96C550.89,-276.1 576.28,-265.09 589.75,-244.53 603.87,-222.98 605.59,-206.88 589.75,-186.55 582.9,-177.76 437.63,-144.92 369.92,-130.01"/>
<polygon fill="red" stroke="red" stroke-width="0.43" points="370.27,-126.5 359.76,-127.77 368.77,-133.34 370.27,-126.5"/>
</g>
<!-- object_height&#45;&gt;700 -->
<g id="edge15" class="edge">
<title>object_height&#45;&gt;700</title>
<path fill="none" stroke="green" stroke-width="1.34" d="M475.33,-280.4C461.56,-271.9 439.69,-257.95 421.75,-244.53 419.44,-242.8 417.07,-240.96 414.73,-239.08"/>
<polygon fill="green" stroke="green" stroke-width="1.34" points="416.87,-236.31 406.92,-232.64 412.41,-241.71 416.87,-236.31"/>
</g>
<!-- object_height&#45;&gt;701 -->
<g id="edge16" class="edge">
<title>object_height&#45;&gt;701</title>
<path fill="none" stroke="red" stroke-width="1.28" d="M484.96,-280.28C481.3,-272.29 475.52,-259.68 470.07,-247.78"/>
<polygon fill="red" stroke="red" stroke-width="1.28" points="473.16,-246.13 465.81,-238.49 466.8,-249.04 473.16,-246.13"/>
</g>
<!-- object_height&#45;&gt;703 -->
<g id="edge17" class="edge">
<title>object_height&#45;&gt;703</title>
<path fill="none" stroke="red" stroke-width="0.31" d="M492.65,-280.28C496.45,-272.23 502.46,-259.5 508.12,-247.52"/>
<polygon fill="red" stroke="red" stroke-width="0.31" points="511.42,-248.72 512.53,-238.19 505.09,-245.73 511.42,-248.72"/>
</g>
<!-- jump -->
<g id="node4" class="node">
<title>jump</title>
<ellipse fill="lightblue" stroke="black" cx="335.75" cy="-28.28" rx="28.07" ry="28.07"/>
<text text-anchor="middle" x="335.75" y="-26.08" font-family="Times,serif" font-size="9.00">jump</text>
</g>
<!-- 704&#45;&gt;jump -->
<g id="edge24" class="edge">
<title>704&#45;&gt;jump</title>
<path fill="none" stroke="green" stroke-width="0.78" d="M284.08,-190.6C286.03,-165.59 290.7,-125.48 301.75,-92.57 305.3,-82 310.51,-71.09 315.8,-61.37"/>
<polygon fill="green" stroke="green" stroke-width="0.78" points="318.96,-62.89 320.84,-52.46 312.87,-59.44 318.96,-62.89"/>
</g>
<!-- 1056&#45;&gt;697 -->
<g id="edge26" class="edge">
<title>1056&#45;&gt;697</title>
<path fill="none" stroke="green" stroke-width="0.83" d="M117.36,-194.58C131.99,-180.42 151.7,-161.34 167.15,-146.37"/>
<polygon fill="green" stroke="green" stroke-width="0.83" points="169.61,-148.87 174.36,-139.4 164.74,-143.84 169.61,-148.87"/>
</g>
<!-- 1093&#45;&gt;699 -->
<g id="edge28" class="edge">
<title>1093&#45;&gt;699</title>
<path fill="none" stroke="green" stroke-width="1.24" d="M233.65,-197.67C238.63,-194 243.87,-190.15 248.75,-186.55 268.42,-172.07 290.61,-155.75 307.65,-143.22"/>
<polygon fill="green" stroke="green" stroke-width="1.24" points="310.07,-145.79 316.05,-137.04 305.92,-140.15 310.07,-145.79"/>
</g>
<!-- 1138 -->
<g id="node8" class="node">
<title>1138</title>
<ellipse fill="white" stroke="black" cx="509.75" cy="-121.56" rx="28.98" ry="28.98"/>
<text text-anchor="middle" x="509.75" y="-119.36" font-family="Times,serif" font-size="9.00">1138</text>
</g>
<!-- 1138&#45;&gt;jump -->
<g id="edge30" class="edge">
<title>1138&#45;&gt;jump</title>
<path fill="none" stroke="green" stroke-width="1.15" d="M484.45,-107.29C454.12,-91.38 403.19,-64.66 369.52,-47"/>
<polygon fill="green" stroke="green" stroke-width="1.15" points="371,-43.82 360.52,-42.28 367.75,-50.02 371,-43.82"/>
</g>
<!-- 697&#45;&gt;jump -->
<g id="edge19" class="edge">
<title>697&#45;&gt;jump</title>
<path fill="none" stroke="green" stroke-width="0.38" d="M212.38,-107.48C236.24,-92.36 275.8,-67.28 303.68,-49.61"/>
<polygon fill="green" stroke="green" stroke-width="0.38" points="305.71,-52.47 312.29,-44.16 301.97,-46.55 305.71,-52.47"/>
</g>
<!-- 698&#45;&gt;jump -->
<g id="edge20" class="edge">
<title>698&#45;&gt;jump</title>
<path fill="none" stroke="red" stroke-width="0.29" d="M40.57,-195.93C63.82,-169.6 109.7,-121.49 157.75,-92.57 202.7,-65.51 260.97,-47.56 298.37,-37.9"/>
<polygon fill="red" stroke="red" stroke-width="0.29" points="299.49,-41.22 308.33,-35.39 297.78,-34.44 299.49,-41.22"/>
</g>
<!-- 699&#45;&gt;jump -->
<g id="edge21" class="edge">
<title>699&#45;&gt;jump</title>
<path fill="none" stroke="green" stroke-width="0.45" d="M335.75,-96.58C335.75,-87.48 335.75,-76.89 335.75,-66.85"/>
<polygon fill="green" stroke="green" stroke-width="0.45" points="339.25,-66.65 335.75,-56.65 332.25,-66.65 339.25,-66.65"/>
</g>
<!-- 700&#45;&gt;jump -->
<g id="edge22" class="edge">
<title>700&#45;&gt;jump</title>
<path fill="none" stroke="green" stroke-width="0.33" d="M387.41,-190.6C385.47,-165.59 380.79,-125.48 369.75,-92.57 366.2,-82 360.98,-71.09 355.69,-61.37"/>
<polygon fill="green" stroke="green" stroke-width="0.33" points="358.63,-59.44 350.66,-52.46 352.53,-62.89 358.63,-59.44"/>
</g>
<!-- 701&#45;&gt;jump -->
<g id="edge23" class="edge">
<title>701&#45;&gt;jump</title>
<path fill="none" stroke="red" stroke-width="2.52" d="M445.61,-192.59C433.65,-167.53 412.49,-125.73 389.75,-92.57 381.42,-80.42 371.15,-67.91 361.82,-57.25"/>
<polygon fill="red" stroke="red" stroke-width="2.52" points="364.17,-54.63 354.91,-49.49 358.95,-59.29 364.17,-54.63"/>
</g>
<!-- 703&#45;&gt;1138 -->
<g id="edge29" class="edge">
<title>703&#45;&gt;1138</title>
<path fill="none" stroke="green" stroke-width="0.37" d="M519.4,-190.85C518.09,-181.59 516.56,-170.74 515.1,-160.44"/>
<polygon fill="green" stroke="green" stroke-width="0.37" points="518.55,-159.83 513.69,-150.42 511.62,-160.81 518.55,-159.83"/>
</g>
</g>
</svg>
