<?xml version="1.0" encoding="UTF-8" standalone="no"?>
<!DOCTYPE svg PUBLIC "-//W3C//DTD SVG 1.1//EN"
 "http://www.w3.org/Graphics/SVG/1.1/DTD/svg11.dtd">
<!-- Generated by graphviz version 2.43.0 (0)
 -->
<!-- Title: %3 Pages: 1 -->
<svg width="367pt" height="307pt"
 viewBox="0.00 0.00 367.28 306.53" xmlns="http://www.w3.org/2000/svg" xmlns:xlink="http://www.w3.org/1999/xlink">
<g id="graph0" class="graph" transform="scale(1 1) rotate(0) translate(4 302.53)">
<title>%3</title>
<polygon fill="white" stroke="transparent" points="-4,4 -4,-302.53 363.28,-302.53 363.28,4 -4,4"/>
<!-- x_diff -->
<g id="node1" class="node">
<title>x_diff</title>
<polygon fill="lightgray" stroke="black" points="309.53,-298.53 267.53,-298.53 267.53,-280.53 309.53,-280.53 309.53,-298.53"/>
<text text-anchor="middle" x="288.53" y="-287.33" font-family="Times,serif" font-size="9.00">x_diff</text>
</g>
<!-- 1129 -->
<g id="node5" class="node">
<title>1129</title>
<ellipse fill="white" stroke="black" cx="190.53" cy="-215.54" rx="28.98" ry="28.98"/>
<text text-anchor="middle" x="190.53" y="-213.34" font-family="Times,serif" font-size="9.00">1129</text>
</g>
<!-- x_diff&#45;&gt;1129 -->
<g id="edge13" class="edge">
<title>x_diff&#45;&gt;1129</title>
<path fill="none" stroke="red" stroke-width="0.59" d="M277.47,-280.43C265.42,-271.61 245.6,-257.08 228.53,-244.53 226.24,-242.85 223.87,-241.11 221.49,-239.36"/>
<polygon fill="red" stroke="red" stroke-width="0.59" points="223.56,-236.53 213.43,-233.42 219.41,-242.17 223.56,-236.53"/>
</g>
<!-- 497 -->
<g id="node6" class="node">
<title>497</title>
<ellipse fill="white" stroke="black" cx="334.53" cy="-121.56" rx="25" ry="25"/>
<text text-anchor="middle" x="334.53" y="-119.36" font-family="Times,serif" font-size="9.00">497</text>
</g>
<!-- x_diff&#45;&gt;497 -->
<g id="edge1" class="edge">
<title>x_diff&#45;&gt;497</title>
<path fill="none" stroke="green" stroke-width="2.21" d="M299.54,-280.52C309.4,-272.62 323.25,-259.56 329.53,-244.53 341.25,-216.47 341.4,-181.54 339.27,-156.26"/>
<polygon fill="green" stroke="green" stroke-width="2.21" points="342.73,-155.67 338.24,-146.07 335.76,-156.37 342.73,-155.67"/>
</g>
<!-- 499 -->
<g id="node8" class="node">
<title>499</title>
<ellipse fill="white" stroke="black" cx="186.53" cy="-121.56" rx="25" ry="25"/>
<text text-anchor="middle" x="186.53" y="-119.36" font-family="Times,serif" font-size="9.00">499</text>
</g>
<!-- x_diff&#45;&gt;499 -->
<g id="edge2" class="edge">
<title>x_diff&#45;&gt;499</title>
<path fill="none" stroke="green" stroke-width="0.08" d="M292.05,-280.45C299.39,-262.27 314.24,-217.34 296.53,-186.55 280.22,-158.19 245.97,-141.23 220,-131.97"/>
<polygon fill="green" stroke="green" stroke-width="0.08" points="221.09,-128.64 210.5,-128.79 218.87,-135.28 221.09,-128.64"/>
</g>
<!-- 501 -->
<g id="node10" class="node">
<title>501</title>
<ellipse fill="white" stroke="black" cx="262.53" cy="-215.54" rx="25" ry="25"/>
<text text-anchor="middle" x="262.53" y="-213.34" font-family="Times,serif" font-size="9.00">501</text>
</g>
<!-- x_diff&#45;&gt;501 -->
<g id="edge3" class="edge">
<title>x_diff&#45;&gt;501</title>
<path fill="none" stroke="red" stroke-width="3.31" d="M285.55,-280.28C282.73,-272.49 278.33,-260.3 274.13,-248.66"/>
<polygon fill="red" stroke="red" stroke-width="3.31" points="277.37,-247.33 270.68,-239.11 270.79,-249.71 277.37,-247.33"/>
</g>
<!-- object_y -->
<g id="node2" class="node">
<title>object_y</title>
<polygon fill="lightgray" stroke="black" points="70.03,-298.53 15.03,-298.53 15.03,-280.53 70.03,-280.53 70.03,-298.53"/>
<text text-anchor="middle" x="42.53" y="-287.33" font-family="Times,serif" font-size="9.00">object_y</text>
</g>
<!-- 498 -->
<g id="node7" class="node">
<title>498</title>
<ellipse fill="white" stroke="black" cx="42.53" cy="-215.54" rx="25" ry="25"/>
<text text-anchor="middle" x="42.53" y="-213.34" font-family="Times,serif" font-size="9.00">498</text>
</g>
<!-- object_y&#45;&gt;498 -->
<g id="edge4" class="edge">
<title>object_y&#45;&gt;498</title>
<path fill="none" stroke="red" stroke-width="0.49" d="M42.53,-280.28C42.53,-272.87 42.53,-261.48 42.53,-250.37"/>
<polygon fill="red" stroke="red" stroke-width="0.49" points="46.03,-250.37 42.53,-240.37 39.03,-250.37 46.03,-250.37"/>
</g>
<!-- object_y&#45;&gt;499 -->
<g id="edge5" class="edge">
<title>object_y&#45;&gt;499</title>
<path fill="none" stroke="red" stroke-width="1.07" d="M49.47,-280.53C69.93,-256.95 130.6,-187.02 163.95,-148.59"/>
<polygon fill="red" stroke="red" stroke-width="1.07" points="166.71,-150.74 170.62,-140.89 161.43,-146.15 166.71,-150.74"/>
</g>
<!-- 500 -->
<g id="node9" class="node">
<title>500</title>
<ellipse fill="white" stroke="black" cx="114.53" cy="-121.56" rx="25" ry="25"/>
<text text-anchor="middle" x="114.53" y="-119.36" font-family="Times,serif" font-size="9.00">500</text>
</g>
<!-- object_y&#45;&gt;500 -->
<g id="edge6" class="edge">
<title>object_y&#45;&gt;500</title>
<path fill="none" stroke="green" stroke-width="0.54" d="M33.56,-280.47C25.25,-272.35 13.46,-258.97 8.53,-244.53 0.2,-220.15 -5.02,-208.47 8.53,-186.55 27.34,-156.12 50.53,-170.04 80.53,-150.55 83.14,-148.86 85.78,-146.99 88.37,-145.06"/>
<polygon fill="green" stroke="green" stroke-width="0.54" points="90.7,-147.68 96.4,-138.75 86.38,-142.17 90.7,-147.68"/>
</g>
<!-- object_height -->
<g id="node3" class="node">
<title>object_height</title>
<polygon fill="lightgray" stroke="black" points="173.53,-298.53 93.53,-298.53 93.53,-280.53 173.53,-280.53 173.53,-298.53"/>
<text text-anchor="middle" x="133.53" y="-287.33" font-family="Times,serif" font-size="9.00">object_height</text>
</g>
<!-- object_height&#45;&gt;498 -->
<g id="edge7" class="edge">
<title>object_height&#45;&gt;498</title>
<path fill="none" stroke="red" stroke-width="0.25" d="M123.09,-280.28C110.13,-270.03 87.56,-252.17 69.59,-237.95"/>
<polygon fill="red" stroke="red" stroke-width="0.25" points="71.73,-235.18 61.72,-231.72 67.39,-240.67 71.73,-235.18"/>
</g>
<!-- object_height&#45;&gt;499 -->
<g id="edge8" class="edge">
<title>object_height&#45;&gt;499</title>
<path fill="none" stroke="red" stroke-width="0.37" d="M134.2,-280.39C135.83,-262.81 140.76,-220.21 152.53,-186.55 156.67,-174.7 162.75,-162.37 168.62,-151.73"/>
<polygon fill="red" stroke="red" stroke-width="0.37" points="171.76,-153.29 173.68,-142.87 165.68,-149.82 171.76,-153.29"/>
</g>
<!-- object_height&#45;&gt;501 -->
<g id="edge9" class="edge">
<title>object_height&#45;&gt;501</title>
<path fill="none" stroke="red" stroke-width="0.99" d="M155.08,-280.39C174.88,-272.5 204.68,-259.53 228.53,-244.53 231.16,-242.88 233.82,-241.04 236.42,-239.12"/>
<polygon fill="red" stroke="red" stroke-width="0.99" points="238.74,-241.75 244.47,-232.84 234.43,-236.23 238.74,-241.75"/>
</g>
<!-- jump -->
<g id="node4" class="node">
<title>jump</title>
<ellipse fill="lightblue" stroke="black" cx="262.53" cy="-28.28" rx="28.07" ry="28.07"/>
<text text-anchor="middle" x="262.53" y="-26.08" font-family="Times,serif" font-size="9.00">jump</text>
</g>
<!-- 1129&#45;&gt;499 -->
<g id="edge15" class="edge">
<title>1129&#45;&gt;499</title>
<path fill="none" stroke="red" stroke-width="0" d="M189.31,-186.45C188.9,-177.06 188.44,-166.49 188.01,-156.69"/>
<polygon fill="red" stroke="red" stroke-width="0" points="191.5,-156.29 187.57,-146.45 184.51,-156.6 191.5,-156.29"/>
</g>
<!-- 1129&#45;&gt;500 -->
<g id="edge14" class="edge">
<title>1129&#45;&gt;500</title>
<path fill="none" stroke="green" stroke-width="1.42" d="M172.52,-192.74C161.66,-179.6 147.75,-162.77 136.28,-148.88"/>
<polygon fill="green" stroke="green" stroke-width="1.42" points="138.91,-146.58 129.85,-141.1 133.52,-151.04 138.91,-146.58"/>
</g>
<!-- 497&#45;&gt;jump -->
<g id="edge10" class="edge">
<title>497&#45;&gt;jump</title>
<path fill="none" stroke="red" stroke-width="1.84" d="M319.61,-101.65C309.9,-89.34 297.03,-73.02 285.97,-59"/>
<polygon fill="red" stroke="red" stroke-width="1.84" points="288.65,-56.74 279.7,-51.06 283.15,-61.08 288.65,-56.74"/>
</g>
<!-- 498&#45;&gt;500 -->
<g id="edge12" class="edge">
<title>498&#45;&gt;500</title>
<path fill="none" stroke="green" stroke-width="0.35" d="M57.45,-195.48C67.78,-182.29 81.68,-164.52 93.18,-149.83"/>
<polygon fill="green" stroke="green" stroke-width="0.35" points="96.22,-151.63 99.63,-141.59 90.71,-147.31 96.22,-151.63"/>
</g>
<!-- 1366 -->
<g id="node11" class="node">
<title>1366</title>
<ellipse fill="white" stroke="black" cx="42.53" cy="-121.56" rx="28.98" ry="28.98"/>
<text text-anchor="middle" x="42.53" y="-119.36" font-family="Times,serif" font-size="9.00">1366</text>
</g>
<!-- 498&#45;&gt;1366 -->
<g id="edge16" class="edge">
<title>498&#45;&gt;1366</title>
<path fill="none" stroke="red" stroke-width="0.59" d="M42.53,-190.38C42.53,-181.37 42.53,-170.91 42.53,-160.94"/>
<polygon fill="red" stroke="red" stroke-width="0.59" points="46.03,-160.81 42.53,-150.81 39.03,-160.81 46.03,-160.81"/>
</g>
<!-- 501&#45;&gt;jump -->
<g id="edge11" class="edge">
<title>501&#45;&gt;jump</title>
<path fill="none" stroke="green" stroke-width="2.92" d="M262.53,-190.7C262.53,-159.39 262.53,-104.07 262.53,-67.04"/>
<polygon fill="green" stroke="green" stroke-width="2.92" points="266.03,-66.64 262.53,-56.64 259.03,-66.64 266.03,-66.64"/>
</g>
<!-- 1366&#45;&gt;jump -->
<g id="edge17" class="edge">
<title>1366&#45;&gt;jump</title>
<path fill="none" stroke="red" stroke-width="1.96" d="M64.7,-102.52C69.73,-98.92 75.16,-95.39 80.53,-92.57 128.01,-67.56 187.45,-49.04 225.22,-38.7"/>
<polygon fill="red" stroke="red" stroke-width="1.96" points="226.52,-41.98 235.27,-36.01 224.7,-35.22 226.52,-41.98"/>
</g>
</g>
</svg>
