<?xml version="1.0" encoding="UTF-8" standalone="no"?>
<!DOCTYPE svg PUBLIC "-//W3C//DTD SVG 1.1//EN"
 "http://www.w3.org/Graphics/SVG/1.1/DTD/svg11.dtd">
<!-- Generated by graphviz version 2.43.0 (0)
 -->
<!-- Title: %3 Pages: 1 -->
<svg width="334pt" height="290pt"
 viewBox="0.00 0.00 333.95 289.56" xmlns="http://www.w3.org/2000/svg" xmlns:xlink="http://www.w3.org/1999/xlink">
<g id="graph0" class="graph" transform="scale(1 1) rotate(0) translate(4 285.56)">
<title>%3</title>
<polygon fill="white" stroke="transparent" points="-4,4 -4,-285.56 329.95,-285.56 329.95,4 -4,4"/>
<!-- x_diff -->
<g id="node1" class="node">
<title>x_diff</title>
<polygon fill="lightgray" stroke="black" points="184.75,-281.56 142.75,-281.56 142.75,-263.56 184.75,-263.56 184.75,-281.56"/>
<text text-anchor="middle" x="163.75" y="-270.36" font-family="Times,serif" font-size="9.00">x_diff</text>
</g>
<!-- 225 -->
<g id="node5" class="node">
<title>225</title>
<ellipse fill="white" stroke="black" cx="82.75" cy="-202.81" rx="25" ry="25"/>
<text text-anchor="middle" x="82.75" y="-200.61" font-family="Times,serif" font-size="9.00">225</text>
</g>
<!-- x_diff&#45;&gt;225 -->
<g id="edge1" class="edge">
<title>x_diff&#45;&gt;225</title>
<path fill="none" stroke="red" stroke-width="2.01" d="M154.14,-263.53C143.08,-254.27 124.44,-238.69 108.99,-225.76"/>
<polygon fill="red" stroke="red" stroke-width="2.01" points="111.17,-223.02 101.25,-219.29 106.68,-228.39 111.17,-223.02"/>
</g>
<!-- 226 -->
<g id="node6" class="node">
<title>226</title>
<ellipse fill="white" stroke="black" cx="283.75" cy="-202.81" rx="25" ry="25"/>
<text text-anchor="middle" x="283.75" y="-200.61" font-family="Times,serif" font-size="9.00">226</text>
</g>
<!-- x_diff&#45;&gt;226 -->
<g id="edge2" class="edge">
<title>x_diff&#45;&gt;226</title>
<path fill="none" stroke="green" stroke-width="1.03" d="M181.85,-263.42C199.76,-255.13 227.75,-241.54 250.75,-227.56 252.42,-226.55 254.12,-225.47 255.82,-224.36"/>
<polygon fill="green" stroke="green" stroke-width="1.03" points="257.91,-227.17 264.2,-218.64 253.96,-221.39 257.91,-227.17"/>
</g>
<!-- 227 -->
<g id="node7" class="node">
<title>227</title>
<ellipse fill="white" stroke="black" cx="216.75" cy="-202.81" rx="25" ry="25"/>
<text text-anchor="middle" x="216.75" y="-200.61" font-family="Times,serif" font-size="9.00">227</text>
</g>
<!-- x_diff&#45;&gt;227 -->
<g id="edge3" class="edge">
<title>x_diff&#45;&gt;227</title>
<path fill="none" stroke="red" stroke-width="0.01" d="M170.04,-263.53C176.36,-255.44 186.48,-242.51 195.68,-230.75"/>
<polygon fill="red" stroke="red" stroke-width="0.01" points="198.44,-232.9 201.84,-222.87 192.92,-228.59 198.44,-232.9"/>
</g>
<!-- 232 -->
<g id="node10" class="node">
<title>232</title>
<ellipse fill="white" stroke="black" cx="149.75" cy="-202.81" rx="25" ry="25"/>
<text text-anchor="middle" x="149.75" y="-200.61" font-family="Times,serif" font-size="9.00">232</text>
</g>
<!-- x_diff&#45;&gt;232 -->
<g id="edge4" class="edge">
<title>x_diff&#45;&gt;232</title>
<path fill="none" stroke="green" stroke-width="0.5" d="M162.09,-263.53C160.72,-256.92 158.69,-247.08 156.67,-237.29"/>
<polygon fill="green" stroke="green" stroke-width="0.5" points="160.04,-236.32 154.59,-227.24 153.19,-237.74 160.04,-236.32"/>
</g>
<!-- object_y -->
<g id="node2" class="node">
<title>object_y</title>
<polygon fill="lightgray" stroke="black" points="110.25,-281.56 55.25,-281.56 55.25,-263.56 110.25,-263.56 110.25,-281.56"/>
<text text-anchor="middle" x="82.75" y="-270.36" font-family="Times,serif" font-size="9.00">object_y</text>
</g>
<!-- object_y&#45;&gt;225 -->
<g id="edge5" class="edge">
<title>object_y&#45;&gt;225</title>
<path fill="none" stroke="red" stroke-width="0.35" d="M82.75,-263.53C82.75,-257.09 82.75,-247.59 82.75,-238.06"/>
<polygon fill="red" stroke="red" stroke-width="0.35" points="86.25,-237.84 82.75,-227.84 79.25,-237.84 86.25,-237.84"/>
</g>
<!-- object_y&#45;&gt;227 -->
<g id="edge6" class="edge">
<title>object_y&#45;&gt;227</title>
<path fill="none" stroke="green" stroke-width="0.19" d="M105.07,-263.42C125.98,-255.43 157.82,-242.32 183.75,-227.56 185.5,-226.57 187.27,-225.5 189.03,-224.39"/>
<polygon fill="green" stroke="green" stroke-width="0.19" points="191.31,-227.07 197.66,-218.59 187.41,-221.26 191.31,-227.07"/>
</g>
<!-- 229 -->
<g id="node8" class="node">
<title>229</title>
<ellipse fill="white" stroke="black" cx="24.75" cy="-117.32" rx="25" ry="25"/>
<text text-anchor="middle" x="24.75" y="-115.12" font-family="Times,serif" font-size="9.00">229</text>
</g>
<!-- object_y&#45;&gt;229 -->
<g id="edge7" class="edge">
<title>object_y&#45;&gt;229</title>
<path fill="none" stroke="red" stroke-width="1.12" d="M60.31,-263.5C44.72,-256.59 25.13,-244.95 15.75,-227.56 3.05,-204.04 7,-173.43 13.15,-150.6"/>
<polygon fill="red" stroke="red" stroke-width="1.12" points="16.59,-151.3 16.08,-140.71 9.88,-149.31 16.59,-151.3"/>
</g>
<!-- 230 -->
<g id="node9" class="node">
<title>230</title>
<ellipse fill="white" stroke="black" cx="163.75" cy="-117.32" rx="25" ry="25"/>
<text text-anchor="middle" x="163.75" y="-115.12" font-family="Times,serif" font-size="9.00">230</text>
</g>
<!-- object_y&#45;&gt;230 -->
<g id="edge8" class="edge">
<title>object_y&#45;&gt;230</title>
<path fill="none" stroke="red" stroke-width="1.36" d="M73.78,-263.5C65.47,-255.38 53.68,-242 48.75,-227.56 41.64,-206.74 37.33,-196.87 48.75,-178.07 66.15,-149.42 102.24,-133.88 129.38,-125.89"/>
<polygon fill="red" stroke="red" stroke-width="1.36" points="130.55,-129.2 139.28,-123.19 128.71,-122.45 130.55,-129.2"/>
</g>
<!-- object_y&#45;&gt;232 -->
<g id="edge9" class="edge">
<title>object_y&#45;&gt;232</title>
<path fill="none" stroke="red" stroke-width="0.06" d="M90.7,-263.53C99.25,-254.88 113.28,-240.69 125.52,-228.32"/>
<polygon fill="red" stroke="red" stroke-width="0.06" points="128.29,-230.49 132.84,-220.91 123.32,-225.56 128.29,-230.49"/>
</g>
<!-- object_height -->
<g id="node3" class="node">
<title>object_height</title>
<polygon fill="lightgray" stroke="black" points="309.75,-281.56 229.75,-281.56 229.75,-263.56 309.75,-263.56 309.75,-281.56"/>
<text text-anchor="middle" x="269.75" y="-270.36" font-family="Times,serif" font-size="9.00">object_height</text>
</g>
<!-- object_height&#45;&gt;226 -->
<g id="edge10" class="edge">
<title>object_height&#45;&gt;226</title>
<path fill="none" stroke="green" stroke-width="0.76" d="M271.41,-263.53C272.78,-256.92 274.81,-247.08 276.83,-237.29"/>
<polygon fill="green" stroke="green" stroke-width="0.76" points="280.31,-237.74 278.91,-227.24 273.46,-236.32 280.31,-237.74"/>
</g>
<!-- object_height&#45;&gt;227 -->
<g id="edge11" class="edge">
<title>object_height&#45;&gt;227</title>
<path fill="none" stroke="green" stroke-width="0.74" d="M263.46,-263.53C257.13,-255.44 247.02,-242.51 237.82,-230.75"/>
<polygon fill="green" stroke="green" stroke-width="0.74" points="240.57,-228.59 231.66,-222.87 235.06,-232.9 240.57,-228.59"/>
</g>
<!-- object_height&#45;&gt;230 -->
<g id="edge12" class="edge">
<title>object_height&#45;&gt;230</title>
<path fill="none" stroke="red" stroke-width="1.37" d="M283.65,-263.47C295.21,-255.85 310.83,-243.29 317.75,-227.56 326.61,-207.43 330.18,-196.22 317.75,-178.07 291.13,-139.19 235.26,-125.61 198.64,-120.86"/>
<polygon fill="red" stroke="red" stroke-width="1.37" points="198.73,-117.35 188.4,-119.7 197.94,-124.3 198.73,-117.35"/>
</g>
<!-- object_height&#45;&gt;232 -->
<g id="edge13" class="edge">
<title>object_height&#45;&gt;232</title>
<path fill="none" stroke="green" stroke-width="1.8" d="M251.65,-263.42C233.74,-255.13 205.75,-241.54 182.75,-227.56 181.07,-226.55 179.38,-225.47 177.68,-224.36"/>
<polygon fill="green" stroke="green" stroke-width="1.8" points="179.53,-221.39 169.3,-218.64 175.59,-227.17 179.53,-221.39"/>
</g>
<!-- jump -->
<g id="node4" class="node">
<title>jump</title>
<ellipse fill="lightblue" stroke="black" cx="163.75" cy="-28.28" rx="28.07" ry="28.07"/>
<text text-anchor="middle" x="163.75" y="-26.08" font-family="Times,serif" font-size="9.00">jump</text>
</g>
<!-- 225&#45;&gt;jump -->
<g id="edge14" class="edge">
<title>225&#45;&gt;jump</title>
<path fill="none" stroke="green" stroke-width="1.3" d="M91.73,-179.38C100.8,-157.12 115.48,-122.13 129.75,-92.57 134.56,-82.61 140.11,-71.96 145.32,-62.29"/>
<polygon fill="green" stroke="green" stroke-width="1.3" points="148.47,-63.83 150.17,-53.37 142.32,-60.48 148.47,-63.83"/>
</g>
<!-- 226&#45;&gt;jump -->
<g id="edge15" class="edge">
<title>226&#45;&gt;jump</title>
<path fill="none" stroke="green" stroke-width="1.42" d="M272.03,-180.69C259.3,-158.25 237.93,-122.01 216.75,-92.57 208.21,-80.7 198.06,-68.25 188.94,-57.55"/>
<polygon fill="green" stroke="green" stroke-width="1.42" points="191.4,-55.04 182.21,-49.76 186.1,-59.61 191.4,-55.04"/>
</g>
<!-- 227&#45;&gt;jump -->
<g id="edge16" class="edge">
<title>227&#45;&gt;jump</title>
<path fill="none" stroke="red" stroke-width="1.03" d="M214.8,-177.82C212.46,-155.31 207.55,-120.95 197.75,-92.57 194.11,-82.03 188.86,-71.13 183.58,-61.41"/>
<polygon fill="red" stroke="red" stroke-width="1.03" points="186.51,-59.49 178.55,-52.5 180.42,-62.93 186.51,-59.49"/>
</g>
<!-- 227&#45;&gt;230 -->
<g id="edge19" class="edge">
<title>227&#45;&gt;230</title>
<path fill="none" stroke="red" stroke-width="0.57" d="M203.92,-181.6C197.39,-171.32 189.34,-158.64 182.17,-147.33"/>
<polygon fill="red" stroke="red" stroke-width="0.57" points="184.96,-145.2 176.64,-138.63 179.05,-148.95 184.96,-145.2"/>
</g>
<!-- 229&#45;&gt;jump -->
<g id="edge17" class="edge">
<title>229&#45;&gt;jump</title>
<path fill="none" stroke="green" stroke-width="0.58" d="M45.56,-103.29C68.28,-89.06 104.97,-66.09 131.45,-49.51"/>
<polygon fill="green" stroke="green" stroke-width="0.58" points="133.38,-52.43 140,-44.16 129.67,-46.5 133.38,-52.43"/>
</g>
<!-- 230&#45;&gt;jump -->
<g id="edge18" class="edge">
<title>230&#45;&gt;jump</title>
<path fill="none" stroke="red" stroke-width="1.14" d="M163.75,-92.54C163.75,-84.58 163.75,-75.5 163.75,-66.76"/>
<polygon fill="red" stroke="red" stroke-width="1.14" points="167.25,-66.73 163.75,-56.73 160.25,-66.73 167.25,-66.73"/>
</g>
</g>
</svg>
