<?xml version="1.0" encoding="UTF-8" standalone="no"?>
<!DOCTYPE svg PUBLIC "-//W3C//DTD SVG 1.1//EN"
 "http://www.w3.org/Graphics/SVG/1.1/DTD/svg11.dtd">
<!-- Generated by graphviz version 2.43.0 (0)
 -->
<!-- Title: %3 Pages: 1 -->
<svg width="628pt" height="384pt"
 viewBox="0.00 0.00 627.68 383.55" xmlns="http://www.w3.org/2000/svg" xmlns:xlink="http://www.w3.org/1999/xlink">
<g id="graph0" class="graph" transform="scale(1 1) rotate(0) translate(4 379.55)">
<title>%3</title>
<polygon fill="white" stroke="transparent" points="-4,4 -4,-379.55 623.68,-379.55 623.68,4 -4,4"/>
<!-- x_diff -->
<g id="node1" class="node">
<title>x_diff</title>
<polygon fill="lightgray" stroke="black" points="310.58,-375.55 268.58,-375.55 268.58,-357.55 310.58,-357.55 310.58,-375.55"/>
<text text-anchor="middle" x="289.58" y="-364.35" font-family="Times,serif" font-size="9.00">x_diff</text>
</g>
<!-- 529 -->
<g id="node6" class="node">
<title>529</title>
<ellipse fill="white" stroke="black" cx="331.58" cy="-292.55" rx="25" ry="25"/>
<text text-anchor="middle" x="331.58" y="-290.35" font-family="Times,serif" font-size="9.00">529</text>
</g>
<!-- x_diff&#45;&gt;529 -->
<g id="edge1" class="edge">
<title>x_diff&#45;&gt;529</title>
<path fill="none" stroke="green" stroke-width="0.4" d="M294.4,-357.29C299.29,-348.91 307.14,-335.44 314.38,-323.03"/>
<polygon fill="green" stroke="green" stroke-width="0.4" points="317.47,-324.68 319.49,-314.28 311.43,-321.15 317.47,-324.68"/>
</g>
<!-- 530 -->
<g id="node7" class="node">
<title>530</title>
<ellipse fill="white" stroke="black" cx="91.58" cy="-292.55" rx="25" ry="25"/>
<text text-anchor="middle" x="91.58" y="-290.35" font-family="Times,serif" font-size="9.00">530</text>
</g>
<!-- x_diff&#45;&gt;530 -->
<g id="edge2" class="edge">
<title>x_diff&#45;&gt;530</title>
<path fill="none" stroke="green" stroke-width="0.71" d="M268.44,-362.95C235.96,-358.31 172.52,-346.63 124.58,-321.55 121.87,-320.13 119.19,-318.46 116.59,-316.64"/>
<polygon fill="green" stroke="green" stroke-width="0.71" points="118.73,-313.87 108.68,-310.52 114.45,-319.41 118.73,-313.87"/>
</g>
<!-- 531 -->
<g id="node8" class="node">
<title>531</title>
<ellipse fill="white" stroke="black" cx="460.58" cy="-117.32" rx="25" ry="25"/>
<text text-anchor="middle" x="460.58" y="-115.12" font-family="Times,serif" font-size="9.00">531</text>
</g>
<!-- x_diff&#45;&gt;531 -->
<g id="edge3" class="edge">
<title>x_diff&#45;&gt;531</title>
<path fill="none" stroke="red" stroke-width="0.49" d="M310.77,-362.39C348.47,-356.3 424.85,-341.76 441.58,-321.55 481.31,-273.52 475.41,-195.54 467.83,-151.45"/>
<polygon fill="red" stroke="red" stroke-width="0.49" points="471.26,-150.73 466,-141.53 464.37,-152 471.26,-150.73"/>
</g>
<!-- 532 -->
<g id="node9" class="node">
<title>532</title>
<ellipse fill="white" stroke="black" cx="158.58" cy="-292.55" rx="25" ry="25"/>
<text text-anchor="middle" x="158.58" y="-290.35" font-family="Times,serif" font-size="9.00">532</text>
</g>
<!-- x_diff&#45;&gt;532 -->
<g id="edge4" class="edge">
<title>x_diff&#45;&gt;532</title>
<path fill="none" stroke="red" stroke-width="0.85" d="M268.45,-358.05C247.99,-350.34 216.5,-337.27 191.58,-321.55 189.14,-320.01 186.68,-318.3 184.28,-316.5"/>
<polygon fill="red" stroke="red" stroke-width="0.85" points="186.37,-313.7 176.37,-310.22 182.02,-319.18 186.37,-313.7"/>
</g>
<!-- 533 -->
<g id="node10" class="node">
<title>533</title>
<ellipse fill="white" stroke="black" cx="225.58" cy="-292.55" rx="25" ry="25"/>
<text text-anchor="middle" x="225.58" y="-290.35" font-family="Times,serif" font-size="9.00">533</text>
</g>
<!-- x_diff&#45;&gt;533 -->
<g id="edge5" class="edge">
<title>x_diff&#45;&gt;533</title>
<path fill="none" stroke="red" stroke-width="0.59" d="M282.24,-357.29C274,-348.03 260.24,-332.55 248.34,-319.16"/>
<polygon fill="red" stroke="red" stroke-width="0.59" points="250.87,-316.74 241.61,-311.59 245.64,-321.39 250.87,-316.74"/>
</g>
<!-- 534 -->
<g id="node11" class="node">
<title>534</title>
<ellipse fill="white" stroke="black" cx="513.58" cy="-202.81" rx="25" ry="25"/>
<text text-anchor="middle" x="513.58" y="-200.61" font-family="Times,serif" font-size="9.00">534</text>
</g>
<!-- x_diff&#45;&gt;534 -->
<g id="edge6" class="edge">
<title>x_diff&#45;&gt;534</title>
<path fill="none" stroke="red" stroke-width="0.39" d="M310.86,-361.69C356.87,-353.18 462.44,-332.68 474.58,-321.55 497.97,-300.09 507.36,-264.3 511.11,-237.8"/>
<polygon fill="red" stroke="red" stroke-width="0.39" points="514.59,-238.15 512.32,-227.8 507.64,-237.3 514.59,-238.15"/>
</g>
<!-- 535 -->
<g id="node12" class="node">
<title>535</title>
<ellipse fill="white" stroke="black" cx="551.58" cy="-292.55" rx="25" ry="25"/>
<text text-anchor="middle" x="551.58" y="-290.35" font-family="Times,serif" font-size="9.00">535</text>
</g>
<!-- x_diff&#45;&gt;535 -->
<g id="edge7" class="edge">
<title>x_diff&#45;&gt;535</title>
<path fill="none" stroke="red" stroke-width="0.29" d="M310.77,-361.89C362.83,-352.85 494.06,-329.56 512.58,-321.55 516.73,-319.75 520.88,-317.45 524.84,-314.95"/>
<polygon fill="red" stroke="red" stroke-width="0.29" points="526.87,-317.8 533.13,-309.26 522.9,-312.03 526.87,-317.8"/>
</g>
<!-- 536 -->
<g id="node13" class="node">
<title>536</title>
<ellipse fill="white" stroke="black" cx="278.58" cy="-202.81" rx="25" ry="25"/>
<text text-anchor="middle" x="278.58" y="-200.61" font-family="Times,serif" font-size="9.00">536</text>
</g>
<!-- x_diff&#45;&gt;536 -->
<g id="edge8" class="edge">
<title>x_diff&#45;&gt;536</title>
<path fill="none" stroke="green" stroke-width="1.15" d="M289.02,-357.3C287.54,-335.65 283.5,-276.2 280.9,-237.96"/>
<polygon fill="green" stroke="green" stroke-width="1.15" points="284.38,-237.53 280.21,-227.79 277.4,-238 284.38,-237.53"/>
</g>
<!-- object_y -->
<g id="node2" class="node">
<title>object_y</title>
<polygon fill="lightgray" stroke="black" points="119.08,-375.55 64.08,-375.55 64.08,-357.55 119.08,-357.55 119.08,-375.55"/>
<text text-anchor="middle" x="91.58" y="-364.35" font-family="Times,serif" font-size="9.00">object_y</text>
</g>
<!-- object_y&#45;&gt;529 -->
<g id="edge9" class="edge">
<title>object_y&#45;&gt;529</title>
<path fill="none" stroke="red" stroke-width="0.37" d="M119.21,-359.34C152.73,-351.57 210.82,-337.35 259.58,-321.55 272.87,-317.24 287.26,-311.8 299.66,-306.87"/>
<polygon fill="red" stroke="red" stroke-width="0.37" points="301.15,-310.04 309.12,-303.05 298.53,-303.55 301.15,-310.04"/>
</g>
<!-- object_y&#45;&gt;530 -->
<g id="edge10" class="edge">
<title>object_y&#45;&gt;530</title>
<path fill="none" stroke="red" stroke-width="1.33" d="M91.58,-357.29C91.58,-349.88 91.58,-338.49 91.58,-327.38"/>
<polygon fill="red" stroke="red" stroke-width="1.33" points="95.08,-327.38 91.58,-317.38 88.08,-327.38 95.08,-327.38"/>
</g>
<!-- object_y&#45;&gt;531 -->
<g id="edge11" class="edge">
<title>object_y&#45;&gt;531</title>
<path fill="none" stroke="red" stroke-width="2.75" d="M63.81,-358.49C45.18,-352.16 22.03,-340.8 10.58,-321.55 -2.6,-299.4 -4.19,-284.68 10.58,-263.56 59.83,-193.13 329.59,-140.74 426.17,-124"/>
<polygon fill="red" stroke="red" stroke-width="2.75" points="427.01,-127.41 436.28,-122.27 425.83,-120.51 427.01,-127.41"/>
</g>
<!-- object_y&#45;&gt;532 -->
<g id="edge12" class="edge">
<title>object_y&#45;&gt;532</title>
<path fill="none" stroke="red" stroke-width="0.56" d="M99.26,-357.29C107.94,-347.96 122.48,-332.34 134.99,-318.9"/>
<polygon fill="red" stroke="red" stroke-width="0.56" points="137.82,-321 142.07,-311.3 132.69,-316.23 137.82,-321"/>
</g>
<!-- object_y&#45;&gt;533 -->
<g id="edge13" class="edge">
<title>object_y&#45;&gt;533</title>
<path fill="none" stroke="red" stroke-width="0.63" d="M115.41,-357.42C136.51,-349.71 167.74,-337.02 192.58,-321.55 195.03,-320.02 197.49,-318.32 199.9,-316.53"/>
<polygon fill="red" stroke="red" stroke-width="0.63" points="202.15,-319.21 207.81,-310.26 197.8,-313.73 202.15,-319.21"/>
</g>
<!-- object_y&#45;&gt;534 -->
<g id="edge14" class="edge">
<title>object_y&#45;&gt;534</title>
<path fill="none" stroke="green" stroke-width="0.36" d="M82.61,-357.49C74.3,-349.36 62.51,-335.98 57.58,-321.55 49.25,-297.16 40.58,-282.93 57.58,-263.56 61.07,-259.58 372.83,-221.06 478.79,-208.07"/>
<polygon fill="green" stroke="green" stroke-width="0.36" points="479.45,-211.51 488.96,-206.82 478.6,-204.56 479.45,-211.51"/>
</g>
<!-- object_y&#45;&gt;536 -->
<g id="edge15" class="edge">
<title>object_y&#45;&gt;536</title>
<path fill="none" stroke="red" stroke-width="1.48" d="M69.13,-357.49C53.55,-350.57 33.96,-338.94 24.58,-321.55 12.34,-298.87 8.58,-283.76 24.58,-263.56 51.5,-229.57 180.18,-213.01 243.39,-206.81"/>
<polygon fill="red" stroke="red" stroke-width="1.48" points="244.04,-210.27 253.67,-205.84 243.38,-203.3 244.04,-210.27"/>
</g>
<!-- object_height -->
<g id="node3" class="node">
<title>object_height</title>
<polygon fill="lightgray" stroke="black" points="431.58,-375.55 351.58,-375.55 351.58,-357.55 431.58,-357.55 431.58,-375.55"/>
<text text-anchor="middle" x="391.58" y="-364.35" font-family="Times,serif" font-size="9.00">object_height</text>
</g>
<!-- 1006 -->
<g id="node5" class="node">
<title>1006</title>
<ellipse fill="white" stroke="black" cx="403.58" cy="-292.55" rx="28.98" ry="28.98"/>
<text text-anchor="middle" x="403.58" y="-290.35" font-family="Times,serif" font-size="9.00">1006</text>
</g>
<!-- object_height&#45;&gt;1006 -->
<g id="edge31" class="edge">
<title>object_height&#45;&gt;1006</title>
<path fill="none" stroke="green" stroke-width="0.97" d="M392.95,-357.29C394.04,-350.76 395.64,-341.16 397.27,-331.37"/>
<polygon fill="green" stroke="green" stroke-width="0.97" points="400.77,-331.66 398.97,-321.22 393.87,-330.51 400.77,-331.66"/>
</g>
<!-- object_height&#45;&gt;529 -->
<g id="edge16" class="edge">
<title>object_height&#45;&gt;529</title>
<path fill="none" stroke="green" stroke-width="1.87" d="M384.7,-357.29C377.15,-348.23 364.65,-333.24 353.68,-320.07"/>
<polygon fill="green" stroke="green" stroke-width="1.87" points="356.19,-317.62 347.1,-312.18 350.81,-322.1 356.19,-317.62"/>
</g>
<!-- object_height&#45;&gt;530 -->
<g id="edge17" class="edge">
<title>object_height&#45;&gt;530</title>
<path fill="none" stroke="green" stroke-width="0.84" d="M351.53,-360.15C282.1,-350.62 144.83,-330.92 124.58,-321.55 121.89,-320.3 119.25,-318.78 116.71,-317.09"/>
<polygon fill="green" stroke="green" stroke-width="0.84" points="118.58,-314.13 108.49,-310.89 114.37,-319.71 118.58,-314.13"/>
</g>
<!-- object_height&#45;&gt;531 -->
<g id="edge18" class="edge">
<title>object_height&#45;&gt;531</title>
<path fill="none" stroke="green" stroke-width="0.55" d="M431.72,-363.18C487.51,-358.95 584.07,-347.93 605.58,-321.55 659.13,-255.86 546.28,-171.95 489.98,-135.98"/>
<polygon fill="green" stroke="green" stroke-width="0.55" points="491.8,-132.98 481.47,-130.63 488.07,-138.91 491.8,-132.98"/>
</g>
<!-- object_height&#45;&gt;532 -->
<g id="edge19" class="edge">
<title>object_height&#45;&gt;532</title>
<path fill="none" stroke="green" stroke-width="0.94" d="M351.26,-359.05C301.25,-350.58 219.21,-335.24 191.58,-321.55 188.93,-320.23 186.31,-318.66 183.78,-316.94"/>
<polygon fill="green" stroke="green" stroke-width="0.94" points="185.66,-313.98 175.59,-310.69 181.42,-319.54 185.66,-313.98"/>
</g>
<!-- object_height&#45;&gt;533 -->
<g id="edge20" class="edge">
<title>object_height&#45;&gt;533</title>
<path fill="none" stroke="red" stroke-width="1.88" d="M372.86,-357.43C344.84,-345.28 291.66,-322.21 257.45,-307.38"/>
<polygon fill="red" stroke="red" stroke-width="1.88" points="258.48,-304.01 247.92,-303.24 255.7,-310.43 258.48,-304.01"/>
</g>
<!-- object_height&#45;&gt;534 -->
<g id="edge21" class="edge">
<title>object_height&#45;&gt;534</title>
<path fill="none" stroke="red" stroke-width="3.32" d="M431.89,-362.21C482.99,-357.05 566.72,-345.16 585.58,-321.55 601.66,-301.41 596.53,-286.89 585.58,-263.56 576.98,-245.25 559.7,-230.61 544.23,-220.41"/>
<polygon fill="red" stroke="red" stroke-width="3.32" points="545.75,-217.23 535.41,-214.92 542.05,-223.18 545.75,-217.23"/>
</g>
<!-- object_height&#45;&gt;535 -->
<g id="edge22" class="edge">
<title>object_height&#45;&gt;535</title>
<path fill="none" stroke="green" stroke-width="1.12" d="M420.38,-357.51C445.51,-349.94 482.53,-337.41 512.58,-321.55 516.39,-319.53 520.26,-317.19 524,-314.73"/>
<polygon fill="green" stroke="green" stroke-width="1.12" points="526.2,-317.47 532.42,-308.89 522.21,-311.72 526.2,-317.47"/>
</g>
<!-- jump -->
<g id="node4" class="node">
<title>jump</title>
<ellipse fill="lightblue" stroke="black" cx="311.58" cy="-28.28" rx="28.07" ry="28.07"/>
<text text-anchor="middle" x="311.58" y="-26.08" font-family="Times,serif" font-size="9.00">jump</text>
</g>
<!-- 1006&#45;&gt;536 -->
<g id="edge32" class="edge">
<title>1006&#45;&gt;536</title>
<path fill="none" stroke="red" stroke-width="0.91" d="M380.76,-274.56C375.78,-270.9 370.52,-267.08 365.58,-263.56 346.25,-249.82 324.23,-234.7 307.17,-223.11"/>
<polygon fill="red" stroke="red" stroke-width="0.91" points="308.99,-220.11 298.75,-217.39 305.06,-225.9 308.99,-220.11"/>
</g>
<!-- 529&#45;&gt;jump -->
<g id="edge23" class="edge">
<title>529&#45;&gt;jump</title>
<path fill="none" stroke="red" stroke-width="0.91" d="M329.77,-267.82C326.28,-222.09 318.61,-121.48 314.43,-66.67"/>
<polygon fill="red" stroke="red" stroke-width="0.91" points="317.92,-66.37 313.67,-56.67 310.94,-66.91 317.92,-66.37"/>
</g>
<!-- 530&#45;&gt;jump -->
<g id="edge24" class="edge">
<title>530&#45;&gt;jump</title>
<path fill="none" stroke="green" stroke-width="0.74" d="M102.18,-269.94C121.87,-231.25 167.09,-148.95 221.58,-92.57 238.35,-75.22 260.48,-59.58 278.6,-48.19"/>
<polygon fill="green" stroke="green" stroke-width="0.74" points="280.45,-51.17 287.14,-42.95 276.78,-45.2 280.45,-51.17"/>
</g>
<!-- 531&#45;&gt;jump -->
<g id="edge25" class="edge">
<title>531&#45;&gt;jump</title>
<path fill="none" stroke="red" stroke-width="0.74" d="M439.55,-104.03C414.86,-89.61 373.63,-65.53 344.65,-48.6"/>
<polygon fill="red" stroke="red" stroke-width="0.74" points="346.11,-45.4 335.71,-43.38 342.58,-51.45 346.11,-45.4"/>
</g>
<!-- 532&#45;&gt;jump -->
<g id="edge26" class="edge">
<title>532&#45;&gt;jump</title>
<path fill="none" stroke="red" stroke-width="0.25" d="M166.83,-268.91C181.3,-230.73 213.53,-151.91 253.58,-92.57 262.45,-79.42 273.97,-66.27 284.41,-55.38"/>
<polygon fill="red" stroke="red" stroke-width="0.25" points="286.91,-57.83 291.41,-48.24 281.91,-52.93 286.91,-57.83"/>
</g>
<!-- 533&#45;&gt;jump -->
<g id="edge27" class="edge">
<title>533&#45;&gt;jump</title>
<path fill="none" stroke="green" stroke-width="0.64" d="M227.77,-267.67C230.33,-244.42 235.42,-208.27 244.58,-178.07 257.08,-136.85 278.37,-92.11 293.59,-62.57"/>
<polygon fill="green" stroke="green" stroke-width="0.64" points="296.78,-64.02 298.3,-53.54 290.57,-60.79 296.78,-64.02"/>
</g>
<!-- 534&#45;&gt;jump -->
<g id="edge28" class="edge">
<title>534&#45;&gt;jump</title>
<path fill="none" stroke="red" stroke-width="0.9" d="M515.95,-178.05C517.03,-153.76 514.79,-116.32 494.58,-92.57 458.43,-50.08 392.25,-36.09 350.17,-31.5"/>
<polygon fill="red" stroke="red" stroke-width="0.9" points="350.31,-27.99 340.02,-30.52 349.64,-34.96 350.31,-27.99"/>
</g>
<!-- 534&#45;&gt;531 -->
<g id="edge34" class="edge">
<title>534&#45;&gt;531</title>
<path fill="none" stroke="green" stroke-width="1.78" d="M500.75,-181.6C494.22,-171.32 486.17,-158.64 478.99,-147.33"/>
<polygon fill="green" stroke="green" stroke-width="1.78" points="481.79,-145.2 473.47,-138.63 475.88,-148.95 481.79,-145.2"/>
</g>
<!-- 535&#45;&gt;jump -->
<g id="edge29" class="edge">
<title>535&#45;&gt;jump</title>
<path fill="none" stroke="red" stroke-width="1.75" d="M555.65,-267.93C561.38,-226.07 566.33,-138.9 518.58,-92.57 472.66,-48.02 396.27,-34.74 350.25,-30.83"/>
<polygon fill="red" stroke="red" stroke-width="1.75" points="350.3,-27.33 340.07,-30.08 349.79,-34.31 350.3,-27.33"/>
</g>
<!-- 535&#45;&gt;534 -->
<g id="edge33" class="edge">
<title>535&#45;&gt;534</title>
<path fill="none" stroke="red" stroke-width="1.71" d="M541.99,-269.41C537.53,-259.13 532.15,-246.71 527.28,-235.45"/>
<polygon fill="red" stroke="red" stroke-width="1.71" points="530.35,-233.73 523.16,-225.95 523.93,-236.52 530.35,-233.73"/>
</g>
<!-- 536&#45;&gt;jump -->
<g id="edge30" class="edge">
<title>536&#45;&gt;jump</title>
<path fill="none" stroke="red" stroke-width="1.7" d="M283.1,-178.19C288.62,-149.33 298.02,-100.19 304.5,-66.3"/>
<polygon fill="red" stroke="red" stroke-width="1.7" points="307.97,-66.79 306.41,-56.31 301.09,-65.48 307.97,-66.79"/>
</g>
</g>
</svg>
