<?xml version="1.0" encoding="UTF-8" standalone="no"?>
<!DOCTYPE svg PUBLIC "-//W3C//DTD SVG 1.1//EN"
 "http://www.w3.org/Graphics/SVG/1.1/DTD/svg11.dtd">
<!-- Generated by graphviz version 2.43.0 (0)
 -->
<!-- Title: %3 Pages: 1 -->
<svg width="459pt" height="298pt"
 viewBox="0.00 0.00 459.50 298.05" xmlns="http://www.w3.org/2000/svg" xmlns:xlink="http://www.w3.org/1999/xlink">
<g id="graph0" class="graph" transform="scale(1 1) rotate(0) translate(4 294.05)">
<title>%3</title>
<polygon fill="white" stroke="transparent" points="-4,4 -4,-294.05 455.5,-294.05 455.5,4 -4,4"/>
<!-- x_diff -->
<g id="node1" class="node">
<title>x_diff</title>
<polygon fill="lightgray" stroke="black" points="181.75,-216.06 139.75,-216.06 139.75,-198.06 181.75,-198.06 181.75,-216.06"/>
<text text-anchor="middle" x="160.75" y="-204.86" font-family="Times,serif" font-size="9.00">x_diff</text>
</g>
<!-- 521 -->
<g id="node5" class="node">
<title>521</title>
<ellipse fill="white" stroke="black" cx="426.75" cy="-117.32" rx="25" ry="25"/>
<text text-anchor="middle" x="426.75" y="-115.12" font-family="Times,serif" font-size="9.00">521</text>
</g>
<!-- x_diff&#45;&gt;521 -->
<g id="edge1" class="edge">
<title>x_diff&#45;&gt;521</title>
<path fill="none" stroke="green" stroke-width="0.54" d="M167.23,-197.83C172.76,-191.4 181.32,-182.78 190.75,-178.07 272.73,-137.13 309.34,-177.72 393.75,-142.07 395.6,-141.28 397.45,-140.38 399.28,-139.39"/>
<polygon fill="green" stroke="green" stroke-width="0.54" points="401.42,-142.18 408.08,-133.93 397.73,-136.23 401.42,-142.18"/>
</g>
<!-- 522 -->
<g id="node6" class="node">
<title>522</title>
<ellipse fill="white" stroke="black" cx="359.75" cy="-117.32" rx="25" ry="25"/>
<text text-anchor="middle" x="359.75" y="-115.12" font-family="Times,serif" font-size="9.00">522</text>
</g>
<!-- x_diff&#45;&gt;522 -->
<g id="edge2" class="edge">
<title>x_diff&#45;&gt;522</title>
<path fill="none" stroke="green" stroke-width="1.21" d="M167.33,-198.04C172.94,-191.72 181.52,-183.16 190.75,-178.07 245.48,-147.83 270.21,-168.77 326.75,-142.07 328.57,-141.21 330.39,-140.24 332.19,-139.21"/>
<polygon fill="green" stroke="green" stroke-width="1.21" points="334.39,-141.96 340.94,-133.63 330.63,-136.06 334.39,-141.96"/>
</g>
<!-- 523 -->
<g id="node7" class="node">
<title>523</title>
<ellipse fill="white" stroke="black" cx="225.75" cy="-117.32" rx="25" ry="25"/>
<text text-anchor="middle" x="225.75" y="-115.12" font-family="Times,serif" font-size="9.00">523</text>
</g>
<!-- x_diff&#45;&gt;523 -->
<g id="edge3" class="edge">
<title>x_diff&#45;&gt;523</title>
<path fill="none" stroke="red" stroke-width="0.23" d="M166.75,-197.96C175.39,-186.29 191.77,-164.18 205.08,-146.21"/>
<polygon fill="red" stroke="red" stroke-width="0.23" points="208.18,-147.91 211.32,-137.79 202.56,-143.74 208.18,-147.91"/>
</g>
<!-- 525 -->
<g id="node8" class="node">
<title>525</title>
<ellipse fill="white" stroke="black" cx="292.75" cy="-117.32" rx="25" ry="25"/>
<text text-anchor="middle" x="292.75" y="-115.12" font-family="Times,serif" font-size="9.00">525</text>
</g>
<!-- x_diff&#45;&gt;525 -->
<g id="edge4" class="edge">
<title>x_diff&#45;&gt;525</title>
<path fill="none" stroke="red" stroke-width="0.9" d="M168.39,-197.82C174.16,-191.88 182.49,-183.91 190.75,-178.07 218.98,-158.09 230.3,-160.21 259.75,-142.07 261.42,-141.04 263.11,-139.95 264.8,-138.84"/>
<polygon fill="red" stroke="red" stroke-width="0.9" points="266.9,-141.65 273.17,-133.1 262.94,-135.87 266.9,-141.65"/>
</g>
<!-- 526 -->
<g id="node9" class="node">
<title>526</title>
<ellipse fill="white" stroke="black" cx="91.75" cy="-117.32" rx="25" ry="25"/>
<text text-anchor="middle" x="91.75" y="-115.12" font-family="Times,serif" font-size="9.00">526</text>
</g>
<!-- x_diff&#45;&gt;526 -->
<g id="edge5" class="edge">
<title>x_diff&#45;&gt;526</title>
<path fill="none" stroke="green" stroke-width="0.5" d="M154.38,-197.96C145.07,-186.11 127.28,-163.5 113.04,-145.39"/>
<polygon fill="green" stroke="green" stroke-width="0.5" points="115.72,-143.13 106.78,-137.44 110.21,-147.46 115.72,-143.13"/>
</g>
<!-- 527 -->
<g id="node10" class="node">
<title>527</title>
<ellipse fill="white" stroke="black" cx="24.75" cy="-117.32" rx="25" ry="25"/>
<text text-anchor="middle" x="24.75" y="-115.12" font-family="Times,serif" font-size="9.00">527</text>
</g>
<!-- x_diff&#45;&gt;527 -->
<g id="edge6" class="edge">
<title>x_diff&#45;&gt;527</title>
<path fill="none" stroke="red" stroke-width="0.6" d="M146.9,-197.86C126.94,-185.96 89.06,-163.03 57.75,-142.07 56.12,-140.98 54.46,-139.84 52.79,-138.69"/>
<polygon fill="red" stroke="red" stroke-width="0.6" points="54.68,-135.74 44.49,-132.85 50.66,-141.47 54.68,-135.74"/>
</g>
<!-- 528 -->
<g id="node11" class="node">
<title>528</title>
<ellipse fill="white" stroke="black" cx="158.75" cy="-117.32" rx="25" ry="25"/>
<text text-anchor="middle" x="158.75" y="-115.12" font-family="Times,serif" font-size="9.00">528</text>
</g>
<!-- x_diff&#45;&gt;528 -->
<g id="edge7" class="edge">
<title>x_diff&#45;&gt;528</title>
<path fill="none" stroke="red" stroke-width="0.57" d="M160.56,-197.96C160.33,-187.56 159.9,-168.86 159.52,-152.2"/>
<polygon fill="red" stroke="red" stroke-width="0.57" points="163.02,-152.09 159.29,-142.18 156.02,-152.25 163.02,-152.09"/>
</g>
<!-- object_y -->
<g id="node2" class="node">
<title>object_y</title>
<polygon fill="lightgray" stroke="black" points="246.25,-290.05 191.25,-290.05 191.25,-272.05 246.25,-272.05 246.25,-290.05"/>
<text text-anchor="middle" x="218.75" y="-278.85" font-family="Times,serif" font-size="9.00">object_y</text>
</g>
<!-- object_y&#45;&gt;521 -->
<g id="edge8" class="edge">
<title>object_y&#45;&gt;521</title>
<path fill="none" stroke="green" stroke-width="0.01" d="M246.55,-280.23C282.88,-278.96 346.35,-271.37 384.75,-236.05 408.3,-214.39 418.65,-178.63 423.2,-152.2"/>
<polygon fill="green" stroke="green" stroke-width="0.01" points="426.67,-152.63 424.72,-142.22 419.75,-151.57 426.67,-152.63"/>
</g>
<!-- object_y&#45;&gt;522 -->
<g id="edge9" class="edge">
<title>object_y&#45;&gt;522</title>
<path fill="none" stroke="green" stroke-width="0.69" d="M246.52,-280.76C280.69,-279.94 337.51,-272.7 364.75,-236.05 382.85,-211.69 378.3,-176.04 371.27,-150.36"/>
<polygon fill="green" stroke="green" stroke-width="0.69" points="374.6,-149.29 368.38,-140.71 367.89,-151.29 374.6,-149.29"/>
</g>
<!-- object_y&#45;&gt;526 -->
<g id="edge10" class="edge">
<title>object_y&#45;&gt;526</title>
<path fill="none" stroke="green" stroke-width="0.96" d="M190.84,-274.94C168.09,-269.31 136.88,-257.98 118.75,-236.05 99.37,-212.61 93.28,-177.95 91.65,-152.3"/>
<polygon fill="green" stroke="green" stroke-width="0.96" points="95.14,-152.1 91.2,-142.26 88.15,-152.41 95.14,-152.1"/>
</g>
<!-- object_y&#45;&gt;527 -->
<g id="edge11" class="edge">
<title>object_y&#45;&gt;527</title>
<path fill="none" stroke="red" stroke-width="1.28" d="M191.21,-276.43C163.2,-271.51 119.88,-260.37 90.75,-236.05 63.79,-213.55 45.78,-177.05 35.47,-150.65"/>
<polygon fill="red" stroke="red" stroke-width="1.28" points="38.68,-149.22 31.9,-141.08 32.12,-151.67 38.68,-149.22"/>
</g>
<!-- object_y&#45;&gt;528 -->
<g id="edge12" class="edge">
<title>object_y&#45;&gt;528</title>
<path fill="none" stroke="red" stroke-width="1.58" d="M191.23,-274.41C170.64,-268.59 143.86,-257.26 130.75,-236.05 114,-208.95 126.92,-172.65 140.23,-147.56"/>
<polygon fill="red" stroke="red" stroke-width="1.58" points="143.45,-148.96 145.29,-138.53 137.35,-145.54 143.45,-148.96"/>
</g>
<!-- 1274 -->
<g id="node12" class="node">
<title>1274</title>
<ellipse fill="white" stroke="black" cx="326.75" cy="-207.06" rx="28.98" ry="28.98"/>
<text text-anchor="middle" x="326.75" y="-204.86" font-family="Times,serif" font-size="9.00">1274</text>
</g>
<!-- object_y&#45;&gt;1274 -->
<g id="edge27" class="edge">
<title>object_y&#45;&gt;1274</title>
<path fill="none" stroke="green" stroke-width="1" d="M232.36,-271.9C246.6,-263.28 269.53,-249.14 288.75,-236.05 291.1,-234.45 293.51,-232.77 295.92,-231.06"/>
<polygon fill="green" stroke="green" stroke-width="1" points="297.97,-233.89 304.04,-225.21 293.88,-228.22 297.97,-233.89"/>
</g>
<!-- object_height -->
<g id="node3" class="node">
<title>object_height</title>
<polygon fill="lightgray" stroke="black" points="279.75,-216.06 199.75,-216.06 199.75,-198.06 279.75,-198.06 279.75,-216.06"/>
<text text-anchor="middle" x="239.75" y="-204.86" font-family="Times,serif" font-size="9.00">object_height</text>
</g>
<!-- object_height&#45;&gt;521 -->
<g id="edge13" class="edge">
<title>object_height&#45;&gt;521</title>
<path fill="none" stroke="red" stroke-width="2.65" d="M252.3,-198.01C262,-192.01 275.89,-183.88 288.75,-178.07 333.7,-157.74 349.92,-164.72 393.75,-142.07 395.54,-141.14 397.33,-140.13 399.12,-139.06"/>
<polygon fill="red" stroke="red" stroke-width="2.65" points="401.36,-141.78 407.82,-133.38 397.53,-135.92 401.36,-141.78"/>
</g>
<!-- object_height&#45;&gt;522 -->
<g id="edge14" class="edge">
<title>object_height&#45;&gt;522</title>
<path fill="none" stroke="green" stroke-width="0.71" d="M250.82,-197.96C269.07,-184.62 305.99,-157.62 331.76,-138.78"/>
<polygon fill="green" stroke="green" stroke-width="0.71" points="334.03,-141.46 340.03,-132.73 329.9,-135.81 334.03,-141.46"/>
</g>
<!-- object_height&#45;&gt;523 -->
<g id="edge15" class="edge">
<title>object_height&#45;&gt;523</title>
<path fill="none" stroke="red" stroke-width="1.4" d="M238.46,-197.96C236.79,-187.49 233.77,-168.61 231.1,-151.86"/>
<polygon fill="red" stroke="red" stroke-width="1.4" points="234.53,-151.12 229.5,-141.8 227.62,-152.23 234.53,-151.12"/>
</g>
<!-- object_height&#45;&gt;525 -->
<g id="edge16" class="edge">
<title>object_height&#45;&gt;525</title>
<path fill="none" stroke="red" stroke-width="2.52" d="M244.64,-197.96C251.49,-186.62 264.31,-165.4 274.99,-147.72"/>
<polygon fill="red" stroke="red" stroke-width="2.52" points="278.16,-149.23 280.34,-138.86 272.17,-145.61 278.16,-149.23"/>
</g>
<!-- object_height&#45;&gt;526 -->
<g id="edge17" class="edge">
<title>object_height&#45;&gt;526</title>
<path fill="none" stroke="red" stroke-width="0.48" d="M225.64,-197.9C215.87,-192.28 202.55,-184.66 190.75,-178.07 161.57,-161.78 153.03,-159.86 124.75,-142.07 123.09,-141.02 121.4,-139.93 119.72,-138.8"/>
<polygon fill="red" stroke="red" stroke-width="0.48" points="121.59,-135.84 111.37,-133.04 117.61,-141.6 121.59,-135.84"/>
</g>
<!-- object_height&#45;&gt;527 -->
<g id="edge18" class="edge">
<title>object_height&#45;&gt;527</title>
<path fill="none" stroke="green" stroke-width="0.28" d="M227.71,-198.02C218.05,-191.86 203.97,-183.53 190.75,-178.07 134.15,-154.69 113.05,-168.38 57.75,-142.07 55.93,-141.2 54.11,-140.24 52.31,-139.2"/>
<polygon fill="green" stroke="green" stroke-width="0.28" points="53.88,-136.05 43.57,-133.61 50.11,-141.95 53.88,-136.05"/>
</g>
<!-- object_height&#45;&gt;528 -->
<g id="edge19" class="edge">
<title>object_height&#45;&gt;528</title>
<path fill="none" stroke="red" stroke-width="0.53" d="M232.27,-197.96C220.96,-185.71 199.03,-161.95 182.04,-143.55"/>
<polygon fill="red" stroke="red" stroke-width="0.53" points="184.47,-141.02 175.12,-136.05 179.33,-145.77 184.47,-141.02"/>
</g>
<!-- jump -->
<g id="node4" class="node">
<title>jump</title>
<ellipse fill="lightblue" stroke="black" cx="225.75" cy="-28.28" rx="28.07" ry="28.07"/>
<text text-anchor="middle" x="225.75" y="-26.08" font-family="Times,serif" font-size="9.00">jump</text>
</g>
<!-- 521&#45;&gt;jump -->
<g id="edge20" class="edge">
<title>521&#45;&gt;jump</title>
<path fill="none" stroke="red" stroke-width="0.86" d="M407.76,-101.36C403.31,-98.23 398.48,-95.1 393.75,-92.57 350.74,-69.52 297.51,-50.99 262.64,-40.08"/>
<polygon fill="red" stroke="red" stroke-width="0.86" points="263.47,-36.67 252.88,-37.07 261.41,-43.36 263.47,-36.67"/>
</g>
<!-- 522&#45;&gt;jump -->
<g id="edge21" class="edge">
<title>522&#45;&gt;jump</title>
<path fill="none" stroke="red" stroke-width="1.55" d="M340,-101.79C335.67,-98.7 331.08,-95.48 326.75,-92.57 304.26,-77.45 278.35,-61.24 258.41,-49.01"/>
<polygon fill="red" stroke="red" stroke-width="1.55" points="260.05,-45.92 249.7,-43.69 256.41,-51.89 260.05,-45.92"/>
</g>
<!-- 523&#45;&gt;jump -->
<g id="edge22" class="edge">
<title>523&#45;&gt;jump</title>
<path fill="none" stroke="red" stroke-width="1.64" d="M225.75,-92.54C225.75,-84.58 225.75,-75.5 225.75,-66.76"/>
<polygon fill="red" stroke="red" stroke-width="1.64" points="229.25,-66.73 225.75,-56.73 222.25,-66.73 229.25,-66.73"/>
</g>
<!-- 525&#45;&gt;jump -->
<g id="edge23" class="edge">
<title>525&#45;&gt;jump</title>
<path fill="none" stroke="green" stroke-width="1.16" d="M277.88,-97C269.34,-85.91 258.43,-71.74 248.81,-59.24"/>
<polygon fill="green" stroke="green" stroke-width="1.16" points="251.58,-57.1 242.7,-51.31 246.03,-61.37 251.58,-57.1"/>
</g>
<!-- 526&#45;&gt;jump -->
<g id="edge24" class="edge">
<title>526&#45;&gt;jump</title>
<path fill="none" stroke="green" stroke-width="2.49" d="M111.5,-101.79C115.83,-98.7 120.41,-95.48 124.75,-92.57 147.24,-77.45 173.15,-61.24 193.09,-49.01"/>
<polygon fill="green" stroke="green" stroke-width="2.49" points="195.09,-51.89 201.8,-43.69 191.44,-45.92 195.09,-51.89"/>
</g>
<!-- 527&#45;&gt;jump -->
<g id="edge25" class="edge">
<title>527&#45;&gt;jump</title>
<path fill="none" stroke="green" stroke-width="1.2" d="M43.74,-101.36C48.19,-98.23 53.02,-95.1 57.75,-92.57 100.75,-69.52 153.98,-50.99 188.85,-40.08"/>
<polygon fill="green" stroke="green" stroke-width="1.2" points="190.09,-43.36 198.62,-37.07 188.03,-36.67 190.09,-43.36"/>
</g>
<!-- 528&#45;&gt;jump -->
<g id="edge26" class="edge">
<title>528&#45;&gt;jump</title>
<path fill="none" stroke="green" stroke-width="0.4" d="M173.62,-97C182.16,-85.91 193.06,-71.74 202.69,-59.24"/>
<polygon fill="green" stroke="green" stroke-width="0.4" points="205.47,-61.37 208.8,-51.31 199.92,-57.1 205.47,-61.37"/>
</g>
<!-- 1274&#45;&gt;525 -->
<g id="edge28" class="edge">
<title>1274&#45;&gt;525</title>
<path fill="none" stroke="red" stroke-width="1.08" d="M316.55,-179.73C312.94,-170.42 308.84,-159.84 305.07,-150.12"/>
<polygon fill="red" stroke="red" stroke-width="1.08" points="308.33,-148.83 301.45,-140.77 301.8,-151.36 308.33,-148.83"/>
</g>
</g>
</svg>
