<?xml version="1.0" encoding="UTF-8" standalone="no"?>
<!DOCTYPE svg PUBLIC "-//W3C//DTD SVG 1.1//EN"
 "http://www.w3.org/Graphics/SVG/1.1/DTD/svg11.dtd">
<!-- Generated by graphviz version 2.43.0 (0)
 -->
<!-- Title: %3 Pages: 1 -->
<svg width="440pt" height="290pt"
 viewBox="0.00 0.00 440.32 289.56" xmlns="http://www.w3.org/2000/svg" xmlns:xlink="http://www.w3.org/1999/xlink">
<g id="graph0" class="graph" transform="scale(1 1) rotate(0) translate(4 285.56)">
<title>%3</title>
<polygon fill="white" stroke="transparent" points="-4,4 -4,-285.56 436.32,-285.56 436.32,4 -4,4"/>
<!-- x_diff -->
<g id="node1" class="node">
<title>x_diff</title>
<polygon fill="lightgray" stroke="black" points="143.57,-281.56 101.57,-281.56 101.57,-263.56 143.57,-263.56 143.57,-281.56"/>
<text text-anchor="middle" x="122.57" y="-270.36" font-family="Times,serif" font-size="9.00">x_diff</text>
</g>
<!-- jump -->
<g id="node4" class="node">
<title>jump</title>
<ellipse fill="lightblue" stroke="black" cx="268.57" cy="-28.28" rx="28.07" ry="28.07"/>
<text text-anchor="middle" x="268.57" y="-26.08" font-family="Times,serif" font-size="9.00">jump</text>
</g>
<!-- x_diff&#45;&gt;jump -->
<g id="edge23" class="edge">
<title>x_diff&#45;&gt;jump</title>
<path fill="none" stroke="green" stroke-width="1.73" d="M101.4,-270.28C74.61,-267.39 29.45,-258 8.57,-227.56 -3.87,-209.42 -1.43,-197.66 8.57,-178.07 52.59,-91.8 170.15,-52.31 230.97,-37.19"/>
<polygon fill="green" stroke="green" stroke-width="1.73" points="232.01,-40.54 240.93,-34.81 230.39,-33.73 232.01,-40.54"/>
</g>
<!-- 818 -->
<g id="node5" class="node">
<title>818</title>
<ellipse fill="white" stroke="black" cx="362.57" cy="-202.81" rx="25" ry="25"/>
<text text-anchor="middle" x="362.57" y="-200.61" font-family="Times,serif" font-size="9.00">818</text>
</g>
<!-- x_diff&#45;&gt;818 -->
<g id="edge1" class="edge">
<title>x_diff&#45;&gt;818</title>
<path fill="none" stroke="green" stroke-width="2.97" d="M143.66,-267.32C194.64,-257.04 321,-231.35 329.57,-227.56 331.41,-226.75 333.25,-225.82 335.06,-224.82"/>
<polygon fill="green" stroke="green" stroke-width="2.97" points="337.23,-227.59 343.84,-219.31 333.51,-221.66 337.23,-227.59"/>
</g>
<!-- 819 -->
<g id="node6" class="node">
<title>819</title>
<ellipse fill="white" stroke="black" cx="242.57" cy="-117.32" rx="25" ry="25"/>
<text text-anchor="middle" x="242.57" y="-115.12" font-family="Times,serif" font-size="9.00">819</text>
</g>
<!-- x_diff&#45;&gt;819 -->
<g id="edge2" class="edge">
<title>x_diff&#45;&gt;819</title>
<path fill="none" stroke="green" stroke-width="0.89" d="M101.21,-269.07C77.17,-264.99 39.18,-254.44 21.57,-227.56 9.51,-209.16 8.2,-195.53 21.57,-178.07 44.1,-148.64 151.07,-130.38 207.51,-122.63"/>
<polygon fill="green" stroke="green" stroke-width="0.89" points="208.31,-126.06 217.76,-121.27 207.38,-119.12 208.31,-126.06"/>
</g>
<!-- 820 -->
<g id="node7" class="node">
<title>820</title>
<ellipse fill="white" stroke="black" cx="122.57" cy="-202.81" rx="25" ry="25"/>
<text text-anchor="middle" x="122.57" y="-200.61" font-family="Times,serif" font-size="9.00">820</text>
</g>
<!-- x_diff&#45;&gt;820 -->
<g id="edge3" class="edge">
<title>x_diff&#45;&gt;820</title>
<path fill="none" stroke="green" stroke-width="1.85" d="M122.57,-263.53C122.57,-257.09 122.57,-247.59 122.57,-238.06"/>
<polygon fill="green" stroke="green" stroke-width="1.85" points="126.07,-237.84 122.57,-227.84 119.07,-237.84 126.07,-237.84"/>
</g>
<!-- 821 -->
<g id="node8" class="node">
<title>821</title>
<ellipse fill="white" stroke="black" cx="189.57" cy="-202.81" rx="25" ry="25"/>
<text text-anchor="middle" x="189.57" y="-200.61" font-family="Times,serif" font-size="9.00">821</text>
</g>
<!-- x_diff&#45;&gt;821 -->
<g id="edge4" class="edge">
<title>x_diff&#45;&gt;821</title>
<path fill="none" stroke="green" stroke-width="0.5" d="M130.52,-263.53C139.07,-254.88 153.1,-240.69 165.34,-228.32"/>
<polygon fill="green" stroke="green" stroke-width="0.5" points="168.12,-230.49 172.66,-220.91 163.14,-225.56 168.12,-230.49"/>
</g>
<!-- 823 -->
<g id="node10" class="node">
<title>823</title>
<ellipse fill="white" stroke="black" cx="55.57" cy="-202.81" rx="25" ry="25"/>
<text text-anchor="middle" x="55.57" y="-200.61" font-family="Times,serif" font-size="9.00">823</text>
</g>
<!-- x_diff&#45;&gt;823 -->
<g id="edge5" class="edge">
<title>x_diff&#45;&gt;823</title>
<path fill="none" stroke="green" stroke-width="1.6" d="M114.62,-263.53C106.07,-254.88 92.04,-240.69 79.8,-228.32"/>
<polygon fill="green" stroke="green" stroke-width="1.6" points="82,-225.56 72.48,-220.91 77.02,-230.49 82,-225.56"/>
</g>
<!-- 824 -->
<g id="node11" class="node">
<title>824</title>
<ellipse fill="white" stroke="black" cx="295.57" cy="-202.81" rx="25" ry="25"/>
<text text-anchor="middle" x="295.57" y="-200.61" font-family="Times,serif" font-size="9.00">824</text>
</g>
<!-- x_diff&#45;&gt;824 -->
<g id="edge6" class="edge">
<title>x_diff&#45;&gt;824</title>
<path fill="none" stroke="green" stroke-width="1.67" d="M143.09,-263.53C172.87,-251.86 228.34,-230.14 263.53,-216.36"/>
<polygon fill="green" stroke="green" stroke-width="1.67" points="264.85,-219.61 272.88,-212.7 262.29,-213.09 264.85,-219.61"/>
</g>
<!-- object_y -->
<g id="node2" class="node">
<title>object_y</title>
<polygon fill="lightgray" stroke="black" points="227.07,-281.56 172.07,-281.56 172.07,-263.56 227.07,-263.56 227.07,-281.56"/>
<text text-anchor="middle" x="199.57" y="-270.36" font-family="Times,serif" font-size="9.00">object_y</text>
</g>
<!-- object_y&#45;&gt;818 -->
<g id="edge7" class="edge">
<title>object_y&#45;&gt;818</title>
<path fill="none" stroke="green" stroke-width="0.57" d="M227.16,-264.8C254.15,-257.59 295.99,-244.84 329.57,-227.56 331.36,-226.64 333.16,-225.63 334.94,-224.57"/>
<polygon fill="green" stroke="green" stroke-width="0.57" points="337.18,-227.28 343.64,-218.89 333.36,-221.42 337.18,-227.28"/>
</g>
<!-- object_y&#45;&gt;819 -->
<g id="edge8" class="edge">
<title>object_y&#45;&gt;819</title>
<path fill="none" stroke="red" stroke-width="1.01" d="M205.02,-263.51C210.55,-254.96 218.92,-240.87 223.57,-227.56 232.07,-203.2 236.88,-174.39 239.53,-152.48"/>
<polygon fill="red" stroke="red" stroke-width="1.01" points="243.03,-152.65 240.67,-142.32 236.08,-151.87 243.03,-152.65"/>
</g>
<!-- object_y&#45;&gt;820 -->
<g id="edge9" class="edge">
<title>object_y&#45;&gt;820</title>
<path fill="none" stroke="green" stroke-width="0.56" d="M190.43,-263.53C180.15,-254.48 162.98,-239.37 148.48,-226.62"/>
<polygon fill="green" stroke="green" stroke-width="0.56" points="150.59,-223.8 140.77,-219.83 145.96,-229.06 150.59,-223.8"/>
</g>
<!-- object_y&#45;&gt;821 -->
<g id="edge10" class="edge">
<title>object_y&#45;&gt;821</title>
<path fill="none" stroke="red" stroke-width="2.13" d="M198.38,-263.53C197.42,-256.97 195.98,-247.24 194.54,-237.52"/>
<polygon fill="red" stroke="red" stroke-width="2.13" points="197.99,-236.92 193.07,-227.54 191.07,-237.94 197.99,-236.92"/>
</g>
<!-- object_y&#45;&gt;823 -->
<g id="edge11" class="edge">
<title>object_y&#45;&gt;823</title>
<path fill="none" stroke="green" stroke-width="0.06" d="M174.09,-263.47C151.06,-255.7 116.58,-242.89 88.57,-227.56 86.8,-226.6 85.02,-225.55 83.25,-224.46"/>
<polygon fill="green" stroke="green" stroke-width="0.06" points="84.86,-221.32 74.59,-218.71 80.99,-227.16 84.86,-221.32"/>
</g>
<!-- object_y&#45;&gt;824 -->
<g id="edge12" class="edge">
<title>object_y&#45;&gt;824</title>
<path fill="none" stroke="red" stroke-width="0.07" d="M210.96,-263.53C224.74,-253.8 248.44,-237.08 267.25,-223.8"/>
<polygon fill="red" stroke="red" stroke-width="0.07" points="269.35,-226.6 275.5,-217.98 265.31,-220.88 269.35,-226.6"/>
</g>
<!-- object_height -->
<g id="node3" class="node">
<title>object_height</title>
<polygon fill="lightgray" stroke="black" points="335.57,-281.56 255.57,-281.56 255.57,-263.56 335.57,-263.56 335.57,-281.56"/>
<text text-anchor="middle" x="295.57" y="-270.36" font-family="Times,serif" font-size="9.00">object_height</text>
</g>
<!-- object_height&#45;&gt;818 -->
<g id="edge13" class="edge">
<title>object_height&#45;&gt;818</title>
<path fill="none" stroke="green" stroke-width="1.54" d="M303.52,-263.53C312.07,-254.88 326.1,-240.69 338.34,-228.32"/>
<polygon fill="green" stroke="green" stroke-width="1.54" points="341.12,-230.49 345.66,-220.91 336.14,-225.56 341.12,-230.49"/>
</g>
<!-- object_height&#45;&gt;820 -->
<g id="edge14" class="edge">
<title>object_height&#45;&gt;820</title>
<path fill="none" stroke="green" stroke-width="1.05" d="M259.25,-263.54C230.25,-256.35 189.06,-244.33 155.57,-227.56 153.77,-226.66 151.96,-225.67 150.17,-224.61"/>
<polygon fill="green" stroke="green" stroke-width="1.05" points="151.75,-221.47 141.46,-218.97 147.95,-227.34 151.75,-221.47"/>
</g>
<!-- object_height&#45;&gt;821 -->
<g id="edge15" class="edge">
<title>object_height&#45;&gt;821</title>
<path fill="none" stroke="red" stroke-width="0.64" d="M282.99,-263.53C267.25,-253.47 239.8,-235.92 218.72,-222.45"/>
<polygon fill="red" stroke="red" stroke-width="0.64" points="220.44,-219.39 210.12,-216.95 216.67,-225.29 220.44,-219.39"/>
</g>
<!-- 822 -->
<g id="node9" class="node">
<title>822</title>
<ellipse fill="white" stroke="black" cx="407.57" cy="-117.32" rx="25" ry="25"/>
<text text-anchor="middle" x="407.57" y="-115.12" font-family="Times,serif" font-size="9.00">822</text>
</g>
<!-- object_height&#45;&gt;822 -->
<g id="edge16" class="edge">
<title>object_height&#45;&gt;822</title>
<path fill="none" stroke="green" stroke-width="1.13" d="M335.76,-264.26C357.29,-258.17 382.26,-247.19 396.57,-227.56 412.25,-206.06 414.1,-175.52 412.54,-152.19"/>
<polygon fill="green" stroke="green" stroke-width="1.13" points="416.01,-151.68 411.62,-142.04 409.04,-152.32 416.01,-151.68"/>
</g>
<!-- object_height&#45;&gt;824 -->
<g id="edge17" class="edge">
<title>object_height&#45;&gt;824</title>
<path fill="none" stroke="red" stroke-width="0.51" d="M295.57,-263.53C295.57,-257.09 295.57,-247.59 295.57,-238.06"/>
<polygon fill="red" stroke="red" stroke-width="0.51" points="299.07,-237.84 295.57,-227.84 292.07,-237.84 299.07,-237.84"/>
</g>
<!-- 818&#45;&gt;jump -->
<g id="edge18" class="edge">
<title>818&#45;&gt;jump</title>
<path fill="none" stroke="red" stroke-width="1.21" d="M351.04,-180.66C334.93,-151.09 305.52,-97.11 286.53,-62.25"/>
<polygon fill="red" stroke="red" stroke-width="1.21" points="289.56,-60.49 281.7,-53.39 283.41,-63.84 289.56,-60.49"/>
</g>
<!-- 819&#45;&gt;jump -->
<g id="edge19" class="edge">
<title>819&#45;&gt;jump</title>
<path fill="none" stroke="red" stroke-width="0.95" d="M249.4,-93.45C251.97,-84.85 254.96,-74.86 257.8,-65.35"/>
<polygon fill="red" stroke="red" stroke-width="0.95" points="261.17,-66.28 260.68,-55.7 254.46,-64.28 261.17,-66.28"/>
</g>
<!-- 822&#45;&gt;jump -->
<g id="edge20" class="edge">
<title>822&#45;&gt;jump</title>
<path fill="none" stroke="green" stroke-width="0.26" d="M386.76,-103.29C364.03,-89.06 327.35,-66.09 300.87,-49.51"/>
<polygon fill="green" stroke="green" stroke-width="0.26" points="302.65,-46.5 292.32,-44.16 298.94,-52.43 302.65,-46.5"/>
</g>
<!-- 823&#45;&gt;jump -->
<g id="edge21" class="edge">
<title>823&#45;&gt;jump</title>
<path fill="none" stroke="green" stroke-width="2.76" d="M74.47,-186.5C111.66,-156.38 194.57,-89.22 239.04,-53.2"/>
<polygon fill="green" stroke="green" stroke-width="2.76" points="241.31,-55.87 246.88,-46.85 236.91,-50.43 241.31,-55.87"/>
</g>
<!-- 824&#45;&gt;jump -->
<g id="edge22" class="edge">
<title>824&#45;&gt;jump</title>
<path fill="none" stroke="red" stroke-width="0.92" d="M291.87,-178.19C287.36,-149.33 279.67,-100.19 274.36,-66.3"/>
<polygon fill="red" stroke="red" stroke-width="0.92" points="277.8,-65.65 272.8,-56.31 270.89,-66.73 277.8,-65.65"/>
</g>
<!-- 824&#45;&gt;819 -->
<g id="edge24" class="edge">
<title>824&#45;&gt;819</title>
<path fill="none" stroke="green" stroke-width="0.87" d="M282.74,-181.6C276.21,-171.32 268.16,-158.64 260.99,-147.33"/>
<polygon fill="green" stroke="green" stroke-width="0.87" points="263.78,-145.2 255.46,-138.63 257.87,-148.95 263.78,-145.2"/>
</g>
</g>
</svg>
