<?xml version="1.0" encoding="UTF-8" standalone="no"?>
<!DOCTYPE svg PUBLIC "-//W3C//DTD SVG 1.1//EN"
 "http://www.w3.org/Graphics/SVG/1.1/DTD/svg11.dtd">
<!-- Generated by graphviz version 2.43.0 (0)
 -->
<!-- Title: %3 Pages: 1 -->
<svg width="459pt" height="204pt"
 viewBox="0.00 0.00 459.50 204.07" xmlns="http://www.w3.org/2000/svg" xmlns:xlink="http://www.w3.org/1999/xlink">
<g id="graph0" class="graph" transform="scale(1 1) rotate(0) translate(4 200.07)">
<title>%3</title>
<polygon fill="white" stroke="transparent" points="-4,4 -4,-200.07 455.5,-200.07 455.5,4 -4,4"/>
<!-- x_diff -->
<g id="node1" class="node">
<title>x_diff</title>
<polygon fill="lightgray" stroke="black" points="319.75,-196.07 277.75,-196.07 277.75,-178.07 319.75,-178.07 319.75,-196.07"/>
<text text-anchor="middle" x="298.75" y="-184.87" font-family="Times,serif" font-size="9.00">x_diff</text>
</g>
<!-- 352 -->
<g id="node5" class="node">
<title>352</title>
<ellipse fill="white" stroke="black" cx="225.75" cy="-117.32" rx="25" ry="25"/>
<text text-anchor="middle" x="225.75" y="-115.12" font-family="Times,serif" font-size="9.00">352</text>
</g>
<!-- x_diff&#45;&gt;352 -->
<g id="edge7" class="edge">
<title>x_diff&#45;&gt;352</title>
<path fill="none" stroke="green" stroke-width="1.46" d="M290.09,-178.03C280.55,-169.18 264.78,-154.54 251.24,-141.97"/>
<polygon fill="green" stroke="green" stroke-width="1.46" points="253.3,-139.11 243.58,-134.87 248.53,-144.24 253.3,-139.11"/>
</g>
<!-- 345 -->
<g id="node6" class="node">
<title>345</title>
<ellipse fill="white" stroke="black" cx="292.75" cy="-117.32" rx="25" ry="25"/>
<text text-anchor="middle" x="292.75" y="-115.12" font-family="Times,serif" font-size="9.00">345</text>
</g>
<!-- x_diff&#45;&gt;345 -->
<g id="edge1" class="edge">
<title>x_diff&#45;&gt;345</title>
<path fill="none" stroke="red" stroke-width="0.47" d="M298.04,-178.03C297.46,-171.47 296.59,-161.74 295.73,-152.02"/>
<polygon fill="red" stroke="red" stroke-width="0.47" points="299.22,-151.69 294.85,-142.04 292.25,-152.31 299.22,-151.69"/>
</g>
<!-- 346 -->
<g id="node7" class="node">
<title>346</title>
<ellipse fill="white" stroke="black" cx="359.75" cy="-117.32" rx="25" ry="25"/>
<text text-anchor="middle" x="359.75" y="-115.12" font-family="Times,serif" font-size="9.00">346</text>
</g>
<!-- x_diff&#45;&gt;346 -->
<g id="edge2" class="edge">
<title>x_diff&#45;&gt;346</title>
<path fill="none" stroke="red" stroke-width="1.24" d="M305.99,-178.03C313.55,-169.63 325.8,-156.02 336.7,-143.92"/>
<polygon fill="red" stroke="red" stroke-width="1.24" points="339.51,-146.02 343.6,-136.25 334.31,-141.34 339.51,-146.02"/>
</g>
<!-- 347 -->
<g id="node8" class="node">
<title>347</title>
<ellipse fill="white" stroke="black" cx="24.75" cy="-117.32" rx="25" ry="25"/>
<text text-anchor="middle" x="24.75" y="-115.12" font-family="Times,serif" font-size="9.00">347</text>
</g>
<!-- x_diff&#45;&gt;347 -->
<g id="edge3" class="edge">
<title>x_diff&#45;&gt;347</title>
<path fill="none" stroke="red" stroke-width="0.66" d="M277.5,-180.14C274.57,-179.4 271.59,-178.69 268.75,-178.07 175.8,-157.79 145.5,-178.8 57.75,-142.07 55.89,-141.29 54.04,-140.39 52.22,-139.41"/>
<polygon fill="red" stroke="red" stroke-width="0.66" points="53.76,-136.25 43.41,-133.96 50.07,-142.2 53.76,-136.25"/>
</g>
<!-- 348 -->
<g id="node9" class="node">
<title>348</title>
<ellipse fill="white" stroke="black" cx="426.75" cy="-117.32" rx="25" ry="25"/>
<text text-anchor="middle" x="426.75" y="-115.12" font-family="Times,serif" font-size="9.00">348</text>
</g>
<!-- x_diff&#45;&gt;348 -->
<g id="edge4" class="edge">
<title>x_diff&#45;&gt;348</title>
<path fill="none" stroke="green" stroke-width="0.01" d="M318.95,-178.03C338.58,-169.92 368.95,-156.55 393.75,-142.07 395.44,-141.08 397.15,-140.02 398.86,-138.93"/>
<polygon fill="green" stroke="green" stroke-width="0.01" points="400.93,-141.76 407.27,-133.26 397.02,-135.95 400.93,-141.76"/>
</g>
<!-- 349 -->
<g id="node10" class="node">
<title>349</title>
<ellipse fill="white" stroke="black" cx="91.75" cy="-117.32" rx="25" ry="25"/>
<text text-anchor="middle" x="91.75" y="-115.12" font-family="Times,serif" font-size="9.00">349</text>
</g>
<!-- x_diff&#45;&gt;349 -->
<g id="edge5" class="edge">
<title>x_diff&#45;&gt;349</title>
<path fill="none" stroke="red" stroke-width="1.36" d="M277.45,-180.34C274.53,-179.57 271.57,-178.79 268.75,-178.07 204.88,-161.57 184.59,-169.83 124.75,-142.07 122.92,-141.22 121.1,-140.27 119.29,-139.24"/>
<polygon fill="red" stroke="red" stroke-width="1.36" points="120.85,-136.09 110.53,-133.68 117.1,-142 120.85,-136.09"/>
</g>
<!-- 350 -->
<g id="node11" class="node">
<title>350</title>
<ellipse fill="white" stroke="black" cx="158.75" cy="-117.32" rx="25" ry="25"/>
<text text-anchor="middle" x="158.75" y="-115.12" font-family="Times,serif" font-size="9.00">350</text>
</g>
<!-- x_diff&#45;&gt;350 -->
<g id="edge6" class="edge">
<title>x_diff&#45;&gt;350</title>
<path fill="none" stroke="green" stroke-width="0.61" d="M277.57,-179.02C255.49,-171.29 220.19,-157.86 191.75,-142.07 189.99,-141.09 188.21,-140.04 186.45,-138.93"/>
<polygon fill="green" stroke="green" stroke-width="0.61" points="188.06,-135.8 177.79,-133.17 184.17,-141.63 188.06,-135.8"/>
</g>
<!-- object_y -->
<g id="node2" class="node">
<title>object_y</title>
<polygon fill="lightgray" stroke="black" points="161.25,-196.07 106.25,-196.07 106.25,-178.07 161.25,-178.07 161.25,-196.07"/>
<text text-anchor="middle" x="133.75" y="-184.87" font-family="Times,serif" font-size="9.00">object_y</text>
</g>
<!-- object_y&#45;&gt;352 -->
<g id="edge13" class="edge">
<title>object_y&#45;&gt;352</title>
<path fill="none" stroke="green" stroke-width="0.48" d="M144.66,-178.03C157.67,-168.45 179.89,-152.09 197.79,-138.91"/>
<polygon fill="green" stroke="green" stroke-width="0.48" points="200.19,-141.49 206.17,-132.74 196.04,-135.85 200.19,-141.49"/>
</g>
<!-- object_y&#45;&gt;345 -->
<g id="edge8" class="edge">
<title>object_y&#45;&gt;345</title>
<path fill="none" stroke="green" stroke-width="0.5" d="M161.73,-178.81C187.91,-171.44 227.69,-158.75 259.75,-142.07 261.53,-141.14 263.33,-140.12 265.11,-139.05"/>
<polygon fill="green" stroke="green" stroke-width="0.5" points="267.36,-141.76 273.8,-133.36 263.52,-135.91 267.36,-141.76"/>
</g>
<!-- object_y&#45;&gt;346 -->
<g id="edge9" class="edge">
<title>object_y&#45;&gt;346</title>
<path fill="none" stroke="red" stroke-width="2.19" d="M161.29,-180.09C212.78,-168.87 319.17,-145.49 326.75,-142.07 328.58,-141.24 330.42,-140.3 332.23,-139.29"/>
<polygon fill="red" stroke="red" stroke-width="2.19" points="334.41,-142.05 341,-133.76 330.67,-136.13 334.41,-142.05"/>
</g>
<!-- object_y&#45;&gt;347 -->
<g id="edge10" class="edge">
<title>object_y&#45;&gt;347</title>
<path fill="none" stroke="red" stroke-width="0.15" d="M118.92,-178.05C103.41,-169.54 78.49,-155.48 57.75,-142.07 56.1,-141 54.43,-139.89 52.75,-138.75"/>
<polygon fill="red" stroke="red" stroke-width="0.15" points="54.63,-135.8 44.42,-132.96 50.63,-141.54 54.63,-135.8"/>
</g>
<!-- object_y&#45;&gt;349 -->
<g id="edge11" class="edge">
<title>object_y&#45;&gt;349</title>
<path fill="none" stroke="red" stroke-width="0.15" d="M128.77,-178.03C124.07,-170.45 116.74,-158.62 109.83,-147.49"/>
<polygon fill="red" stroke="red" stroke-width="0.15" points="112.69,-145.46 104.45,-138.8 106.74,-149.15 112.69,-145.46"/>
</g>
<!-- object_y&#45;&gt;350 -->
<g id="edge12" class="edge">
<title>object_y&#45;&gt;350</title>
<path fill="none" stroke="red" stroke-width="0.54" d="M136.71,-178.03C139.26,-171.12 143.11,-160.69 146.89,-150.47"/>
<polygon fill="red" stroke="red" stroke-width="0.54" points="150.26,-151.44 150.43,-140.85 143.69,-149.02 150.26,-151.44"/>
</g>
<!-- object_height -->
<g id="node3" class="node">
<title>object_height</title>
<polygon fill="lightgray" stroke="black" points="259.75,-196.07 179.75,-196.07 179.75,-178.07 259.75,-178.07 259.75,-196.07"/>
<text text-anchor="middle" x="219.75" y="-184.87" font-family="Times,serif" font-size="9.00">object_height</text>
</g>
<!-- object_height&#45;&gt;352 -->
<g id="edge20" class="edge">
<title>object_height&#45;&gt;352</title>
<path fill="none" stroke="green" stroke-width="1.07" d="M220.46,-178.03C221.04,-171.47 221.9,-161.74 222.76,-152.02"/>
<polygon fill="green" stroke="green" stroke-width="1.07" points="226.25,-152.31 223.65,-142.04 219.28,-151.69 226.25,-152.31"/>
</g>
<!-- object_height&#45;&gt;345 -->
<g id="edge14" class="edge">
<title>object_height&#45;&gt;345</title>
<path fill="none" stroke="red" stroke-width="1.79" d="M228.41,-178.03C237.94,-169.18 253.72,-154.54 267.26,-141.97"/>
<polygon fill="red" stroke="red" stroke-width="1.79" points="269.96,-144.24 274.91,-134.87 265.2,-139.11 269.96,-144.24"/>
</g>
<!-- object_height&#45;&gt;346 -->
<g id="edge15" class="edge">
<title>object_height&#45;&gt;346</title>
<path fill="none" stroke="green" stroke-width="0.67" d="M243.86,-177.98C266.05,-170.12 299.53,-157.18 326.75,-142.07 328.51,-141.09 330.28,-140.04 332.05,-138.93"/>
<polygon fill="green" stroke="green" stroke-width="0.67" points="334.32,-141.63 340.7,-133.17 330.44,-135.8 334.32,-141.63"/>
</g>
<!-- object_height&#45;&gt;347 -->
<g id="edge16" class="edge">
<title>object_height&#45;&gt;347</title>
<path fill="none" stroke="green" stroke-width="0.21" d="M179.73,-179.35C146.05,-172.74 97.22,-160.86 57.75,-142.07 55.93,-141.2 54.11,-140.23 52.31,-139.2"/>
<polygon fill="green" stroke="green" stroke-width="0.21" points="53.88,-136.05 43.57,-133.61 50.11,-141.94 53.88,-136.05"/>
</g>
<!-- object_height&#45;&gt;348 -->
<g id="edge17" class="edge">
<title>object_height&#45;&gt;348</title>
<path fill="none" stroke="green" stroke-width="1.08" d="M258.49,-178.04C302.1,-168.7 369.95,-153.15 393.75,-142.07 395.57,-141.22 397.4,-140.26 399.21,-139.24"/>
<polygon fill="green" stroke="green" stroke-width="1.08" points="401.4,-141.99 407.96,-133.67 397.64,-136.08 401.4,-141.99"/>
</g>
<!-- object_height&#45;&gt;349 -->
<g id="edge18" class="edge">
<title>object_height&#45;&gt;349</title>
<path fill="none" stroke="green" stroke-width="0.51" d="M199.54,-178.03C179.92,-169.92 149.54,-156.55 124.75,-142.07 123.06,-141.08 121.35,-140.02 119.64,-138.93"/>
<polygon fill="green" stroke="green" stroke-width="0.51" points="121.48,-135.95 111.23,-133.26 117.57,-141.76 121.48,-135.95"/>
</g>
<!-- object_height&#45;&gt;350 -->
<g id="edge19" class="edge">
<title>object_height&#45;&gt;350</title>
<path fill="none" stroke="red" stroke-width="0.24" d="M212.51,-178.03C204.95,-169.63 192.7,-156.02 181.8,-143.92"/>
<polygon fill="red" stroke="red" stroke-width="0.24" points="184.19,-141.34 174.89,-136.25 178.98,-146.02 184.19,-141.34"/>
</g>
<!-- jump -->
<g id="node4" class="node">
<title>jump</title>
<ellipse fill="lightblue" stroke="black" cx="225.75" cy="-28.28" rx="28.07" ry="28.07"/>
<text text-anchor="middle" x="225.75" y="-26.08" font-family="Times,serif" font-size="9.00">jump</text>
</g>
<!-- 352&#45;&gt;jump -->
<g id="edge27" class="edge">
<title>352&#45;&gt;jump</title>
<path fill="none" stroke="green" stroke-width="0.19" d="M225.75,-92.54C225.75,-84.58 225.75,-75.5 225.75,-66.76"/>
<polygon fill="green" stroke="green" stroke-width="0.19" points="229.25,-66.73 225.75,-56.73 222.25,-66.73 229.25,-66.73"/>
</g>
<!-- 345&#45;&gt;jump -->
<g id="edge21" class="edge">
<title>345&#45;&gt;jump</title>
<path fill="none" stroke="red" stroke-width="1.05" d="M277.88,-97C269.34,-85.91 258.43,-71.74 248.81,-59.24"/>
<polygon fill="red" stroke="red" stroke-width="1.05" points="251.58,-57.1 242.7,-51.31 246.03,-61.37 251.58,-57.1"/>
</g>
<!-- 346&#45;&gt;jump -->
<g id="edge22" class="edge">
<title>346&#45;&gt;jump</title>
<path fill="none" stroke="red" stroke-width="1.18" d="M340,-101.79C335.67,-98.7 331.08,-95.48 326.75,-92.57 304.26,-77.45 278.35,-61.24 258.41,-49.01"/>
<polygon fill="red" stroke="red" stroke-width="1.18" points="260.05,-45.92 249.7,-43.69 256.41,-51.89 260.05,-45.92"/>
</g>
<!-- 347&#45;&gt;jump -->
<g id="edge23" class="edge">
<title>347&#45;&gt;jump</title>
<path fill="none" stroke="green" stroke-width="0.15" d="M43.74,-101.36C48.19,-98.23 53.02,-95.1 57.75,-92.57 100.75,-69.52 153.98,-50.99 188.85,-40.08"/>
<polygon fill="green" stroke="green" stroke-width="0.15" points="190.09,-43.36 198.62,-37.07 188.03,-36.67 190.09,-43.36"/>
</g>
<!-- 348&#45;&gt;jump -->
<g id="edge24" class="edge">
<title>348&#45;&gt;jump</title>
<path fill="none" stroke="green" stroke-width="0.7" d="M407.76,-101.36C403.31,-98.23 398.48,-95.1 393.75,-92.57 350.74,-69.52 297.51,-50.99 262.64,-40.08"/>
<polygon fill="green" stroke="green" stroke-width="0.7" points="263.47,-36.67 252.88,-37.07 261.41,-43.36 263.47,-36.67"/>
</g>
<!-- 349&#45;&gt;jump -->
<g id="edge25" class="edge">
<title>349&#45;&gt;jump</title>
<path fill="none" stroke="green" stroke-width="0.84" d="M111.5,-101.79C115.83,-98.7 120.41,-95.48 124.75,-92.57 147.24,-77.45 173.15,-61.24 193.09,-49.01"/>
<polygon fill="green" stroke="green" stroke-width="0.84" points="195.09,-51.89 201.8,-43.69 191.44,-45.92 195.09,-51.89"/>
</g>
<!-- 350&#45;&gt;jump -->
<g id="edge26" class="edge">
<title>350&#45;&gt;jump</title>
<path fill="none" stroke="red" stroke-width="1.47" d="M173.62,-97C182.16,-85.91 193.06,-71.74 202.69,-59.24"/>
<polygon fill="red" stroke="red" stroke-width="1.47" points="205.47,-61.37 208.8,-51.31 199.92,-57.1 205.47,-61.37"/>
</g>
</g>
</svg>
