<?xml version="1.0" encoding="UTF-8" standalone="no"?>
<!DOCTYPE svg PUBLIC "-//W3C//DTD SVG 1.1//EN"
 "http://www.w3.org/Graphics/SVG/1.1/DTD/svg11.dtd">
<!-- Generated by graphviz version 2.43.0 (0)
 -->
<!-- Title: %3 Pages: 1 -->
<svg width="489pt" height="290pt"
 viewBox="0.00 0.00 488.82 289.56" xmlns="http://www.w3.org/2000/svg" xmlns:xlink="http://www.w3.org/1999/xlink">
<g id="graph0" class="graph" transform="scale(1 1) rotate(0) translate(4 285.56)">
<title>%3</title>
<polygon fill="white" stroke="transparent" points="-4,4 -4,-285.56 484.82,-285.56 484.82,4 -4,4"/>
<!-- x_diff -->
<g id="node1" class="node">
<title>x_diff</title>
<polygon fill="lightgray" stroke="black" points="381.75,-281.56 339.75,-281.56 339.75,-263.56 381.75,-263.56 381.75,-281.56"/>
<text text-anchor="middle" x="360.75" y="-270.36" font-family="Times,serif" font-size="9.00">x_diff</text>
</g>
<!-- 649 -->
<g id="node5" class="node">
<title>649</title>
<ellipse fill="white" stroke="black" cx="436.75" cy="-202.81" rx="25" ry="25"/>
<text text-anchor="middle" x="436.75" y="-200.61" font-family="Times,serif" font-size="9.00">649</text>
</g>
<!-- x_diff&#45;&gt;649 -->
<g id="edge1" class="edge">
<title>x_diff&#45;&gt;649</title>
<path fill="none" stroke="red" stroke-width="1.22" d="M369.77,-263.53C379.85,-254.54 396.64,-239.57 410.89,-226.87"/>
<polygon fill="red" stroke="red" stroke-width="1.22" points="413.35,-229.36 418.48,-220.1 408.69,-224.14 413.35,-229.36"/>
</g>
<!-- 650 -->
<g id="node6" class="node">
<title>650</title>
<ellipse fill="white" stroke="black" cx="115.75" cy="-117.32" rx="25" ry="25"/>
<text text-anchor="middle" x="115.75" y="-115.12" font-family="Times,serif" font-size="9.00">650</text>
</g>
<!-- x_diff&#45;&gt;650 -->
<g id="edge2" class="edge">
<title>x_diff&#45;&gt;650</title>
<path fill="none" stroke="red" stroke-width="1.17" d="M382.1,-269.92C408.08,-266.65 450.92,-256.86 470.75,-227.56 483.08,-209.35 484.95,-194.86 470.75,-178.07 429.95,-129.83 232.18,-120.52 150.82,-118.73"/>
<polygon fill="red" stroke="red" stroke-width="1.17" points="150.66,-115.23 140.59,-118.54 150.52,-122.23 150.66,-115.23"/>
</g>
<!-- 652 -->
<g id="node7" class="node">
<title>652</title>
<ellipse fill="white" stroke="black" cx="168.75" cy="-202.81" rx="25" ry="25"/>
<text text-anchor="middle" x="168.75" y="-200.61" font-family="Times,serif" font-size="9.00">652</text>
</g>
<!-- x_diff&#45;&gt;652 -->
<g id="edge3" class="edge">
<title>x_diff&#45;&gt;652</title>
<path fill="none" stroke="green" stroke-width="0.99" d="M339.68,-266.71C302.38,-257.96 226.35,-239.35 201.75,-227.56 199.93,-226.69 198.12,-225.72 196.31,-224.69"/>
<polygon fill="green" stroke="green" stroke-width="0.99" points="197.88,-221.53 187.58,-219.09 194.11,-227.43 197.88,-221.53"/>
</g>
<!-- 654 -->
<g id="node9" class="node">
<title>654</title>
<ellipse fill="white" stroke="black" cx="235.75" cy="-202.81" rx="25" ry="25"/>
<text text-anchor="middle" x="235.75" y="-200.61" font-family="Times,serif" font-size="9.00">654</text>
</g>
<!-- x_diff&#45;&gt;654 -->
<g id="edge4" class="edge">
<title>x_diff&#45;&gt;654</title>
<path fill="none" stroke="green" stroke-width="2.07" d="M341.2,-263.43C322.22,-255.24 292.81,-241.82 268.75,-227.56 267.06,-226.56 265.36,-225.5 263.65,-224.41"/>
<polygon fill="green" stroke="green" stroke-width="2.07" points="265.5,-221.43 255.26,-218.72 261.57,-227.23 265.5,-221.43"/>
</g>
<!-- 655 -->
<g id="node10" class="node">
<title>655</title>
<ellipse fill="white" stroke="black" cx="302.75" cy="-202.81" rx="25" ry="25"/>
<text text-anchor="middle" x="302.75" y="-200.61" font-family="Times,serif" font-size="9.00">655</text>
</g>
<!-- x_diff&#45;&gt;655 -->
<g id="edge5" class="edge">
<title>x_diff&#45;&gt;655</title>
<path fill="none" stroke="green" stroke-width="0.75" d="M353.87,-263.53C346.78,-255.25 335.35,-241.89 325.09,-229.91"/>
<polygon fill="green" stroke="green" stroke-width="0.75" points="327.74,-227.63 318.58,-222.31 322.42,-232.18 327.74,-227.63"/>
</g>
<!-- 656 -->
<g id="node11" class="node">
<title>656</title>
<ellipse fill="white" stroke="black" cx="369.75" cy="-202.81" rx="25" ry="25"/>
<text text-anchor="middle" x="369.75" y="-200.61" font-family="Times,serif" font-size="9.00">656</text>
</g>
<!-- x_diff&#45;&gt;656 -->
<g id="edge6" class="edge">
<title>x_diff&#45;&gt;656</title>
<path fill="none" stroke="green" stroke-width="1.48" d="M361.82,-263.53C362.69,-256.97 363.98,-247.24 365.27,-237.52"/>
<polygon fill="green" stroke="green" stroke-width="1.48" points="368.75,-237.91 366.6,-227.54 361.81,-236.99 368.75,-237.91"/>
</g>
<!-- object_y -->
<g id="node2" class="node">
<title>object_y</title>
<polygon fill="lightgray" stroke="black" points="214.25,-281.56 159.25,-281.56 159.25,-263.56 214.25,-263.56 214.25,-281.56"/>
<text text-anchor="middle" x="186.75" y="-270.36" font-family="Times,serif" font-size="9.00">object_y</text>
</g>
<!-- object_y&#45;&gt;649 -->
<g id="edge7" class="edge">
<title>object_y&#45;&gt;649</title>
<path fill="none" stroke="red" stroke-width="2.3" d="M214.62,-265.49C217.7,-264.83 220.79,-264.18 223.75,-263.56 303.62,-246.94 328.95,-260.13 403.75,-227.56 405.59,-226.76 407.44,-225.84 409.25,-224.84"/>
<polygon fill="red" stroke="red" stroke-width="2.3" points="411.42,-227.62 418.04,-219.35 407.71,-221.68 411.42,-227.62"/>
</g>
<!-- object_y&#45;&gt;650 -->
<g id="edge8" class="edge">
<title>object_y&#45;&gt;650</title>
<path fill="none" stroke="red" stroke-width="0.43" d="M158.9,-265.28C139.17,-259.21 114.1,-247.86 101.75,-227.56 87.49,-204.12 93.61,-172.63 101.75,-149.49"/>
<polygon fill="red" stroke="red" stroke-width="0.43" points="105.03,-150.71 105.31,-140.12 98.48,-148.23 105.03,-150.71"/>
</g>
<!-- object_y&#45;&gt;652 -->
<g id="edge9" class="edge">
<title>object_y&#45;&gt;652</title>
<path fill="none" stroke="green" stroke-width="0.61" d="M184.61,-263.53C182.83,-256.8 180.15,-246.72 177.5,-236.75"/>
<polygon fill="green" stroke="green" stroke-width="0.61" points="180.84,-235.71 174.89,-226.94 174.08,-237.5 180.84,-235.71"/>
</g>
<!-- 653 -->
<g id="node8" class="node">
<title>653</title>
<ellipse fill="white" stroke="black" cx="24.75" cy="-202.81" rx="25" ry="25"/>
<text text-anchor="middle" x="24.75" y="-200.61" font-family="Times,serif" font-size="9.00">653</text>
</g>
<!-- object_y&#45;&gt;653 -->
<g id="edge10" class="edge">
<title>object_y&#45;&gt;653</title>
<path fill="none" stroke="red" stroke-width="0.74" d="M159.23,-263.49C133.87,-255.64 95.47,-242.7 63.75,-227.56 60.4,-225.97 56.98,-224.16 53.62,-222.28"/>
<polygon fill="red" stroke="red" stroke-width="0.74" points="55.35,-219.24 44.96,-217.19 51.81,-225.27 55.35,-219.24"/>
</g>
<!-- object_y&#45;&gt;654 -->
<g id="edge11" class="edge">
<title>object_y&#45;&gt;654</title>
<path fill="none" stroke="green" stroke-width="1.13" d="M192.56,-263.53C198.27,-255.63 207.32,-243.12 215.66,-231.58"/>
<polygon fill="green" stroke="green" stroke-width="1.13" points="218.53,-233.59 221.56,-223.44 212.86,-229.49 218.53,-233.59"/>
</g>
<!-- object_y&#45;&gt;655 -->
<g id="edge12" class="edge">
<title>object_y&#45;&gt;655</title>
<path fill="none" stroke="green" stroke-width="0.3" d="M203.66,-263.45C220.7,-255.07 247.58,-241.33 269.75,-227.56 271.41,-226.53 273.1,-225.44 274.8,-224.32"/>
<polygon fill="green" stroke="green" stroke-width="0.3" points="276.9,-227.13 283.16,-218.58 272.93,-221.36 276.9,-227.13"/>
</g>
<!-- object_y&#45;&gt;656 -->
<g id="edge13" class="edge">
<title>object_y&#45;&gt;656</title>
<path fill="none" stroke="red" stroke-width="1.92" d="M214.31,-264.67C251.37,-255.2 315.11,-238.14 336.75,-227.56 338.56,-226.68 340.37,-225.7 342.17,-224.65"/>
<polygon fill="red" stroke="red" stroke-width="1.92" points="344.38,-227.39 350.9,-219.03 340.59,-221.5 344.38,-227.39"/>
</g>
<!-- object_height -->
<g id="node3" class="node">
<title>object_height</title>
<polygon fill="lightgray" stroke="black" points="312.75,-281.56 232.75,-281.56 232.75,-263.56 312.75,-263.56 312.75,-281.56"/>
<text text-anchor="middle" x="272.75" y="-270.36" font-family="Times,serif" font-size="9.00">object_height</text>
</g>
<!-- object_height&#45;&gt;649 -->
<g id="edge14" class="edge">
<title>object_height&#45;&gt;649</title>
<path fill="none" stroke="green" stroke-width="2.78" d="M305.33,-263.55C332.52,-256.19 371.83,-243.93 403.75,-227.56 405.54,-226.65 407.34,-225.64 409.13,-224.57"/>
<polygon fill="green" stroke="green" stroke-width="2.78" points="411.36,-227.29 417.83,-218.9 407.54,-221.43 411.36,-227.29"/>
</g>
<!-- object_height&#45;&gt;650 -->
<g id="edge15" class="edge">
<title>object_height&#45;&gt;650</title>
<path fill="none" stroke="green" stroke-width="1.57" d="M232.62,-263.59C196.69,-255.62 147.72,-242.44 134.75,-227.56 116.89,-207.09 112.95,-175.99 113.01,-152.2"/>
<polygon fill="green" stroke="green" stroke-width="1.57" points="116.51,-152.27 113.26,-142.18 109.51,-152.09 116.51,-152.27"/>
</g>
<!-- object_height&#45;&gt;652 -->
<g id="edge16" class="edge">
<title>object_height&#45;&gt;652</title>
<path fill="none" stroke="green" stroke-width="0.62" d="M259.23,-263.56C244.81,-254.95 221.4,-240.7 201.75,-227.56 200.12,-226.47 198.46,-225.34 196.79,-224.19"/>
<polygon fill="green" stroke="green" stroke-width="0.62" points="198.68,-221.24 188.49,-218.36 194.65,-226.97 198.68,-221.24"/>
</g>
<!-- object_height&#45;&gt;653 -->
<g id="edge17" class="edge">
<title>object_height&#45;&gt;653</title>
<path fill="none" stroke="green" stroke-width="0.04" d="M239.52,-263.51C204.98,-255.02 149.39,-241.03 101.75,-227.56 87.37,-223.5 71.59,-218.69 58.08,-214.47"/>
<polygon fill="green" stroke="green" stroke-width="0.04" points="58.84,-211.04 48.25,-211.38 56.74,-217.72 58.84,-211.04"/>
</g>
<!-- object_height&#45;&gt;654 -->
<g id="edge18" class="edge">
<title>object_height&#45;&gt;654</title>
<path fill="none" stroke="red" stroke-width="1.02" d="M268.36,-263.53C264.32,-256.13 258.08,-244.7 252.13,-233.8"/>
<polygon fill="red" stroke="red" stroke-width="1.02" points="255.12,-231.98 247.25,-224.88 248.98,-235.34 255.12,-231.98"/>
</g>
<!-- object_height&#45;&gt;655 -->
<g id="edge19" class="edge">
<title>object_height&#45;&gt;655</title>
<path fill="none" stroke="green" stroke-width="2.42" d="M276.31,-263.53C279.45,-256.44 284.23,-245.64 288.86,-235.17"/>
<polygon fill="green" stroke="green" stroke-width="2.42" points="292.18,-236.32 293.03,-225.76 285.78,-233.48 292.18,-236.32"/>
</g>
<!-- object_height&#45;&gt;656 -->
<g id="edge20" class="edge">
<title>object_height&#45;&gt;656</title>
<path fill="none" stroke="red" stroke-width="0.91" d="M284.6,-263.53C297.48,-254.77 318.66,-240.29 336.75,-227.56 338.35,-226.44 339.99,-225.27 341.65,-224.1"/>
<polygon fill="red" stroke="red" stroke-width="0.91" points="343.8,-226.86 349.9,-218.2 339.73,-221.17 343.8,-226.86"/>
</g>
<!-- jump -->
<g id="node4" class="node">
<title>jump</title>
<ellipse fill="lightblue" stroke="black" cx="235.75" cy="-28.28" rx="28.07" ry="28.07"/>
<text text-anchor="middle" x="235.75" y="-26.08" font-family="Times,serif" font-size="9.00">jump</text>
</g>
<!-- 649&#45;&gt;jump -->
<g id="edge21" class="edge">
<title>649&#45;&gt;jump</title>
<path fill="none" stroke="red" stroke-width="0.27" d="M419.24,-184.61C396.61,-162.61 355.71,-123.65 318.75,-92.57 302.01,-78.5 282.62,-63.63 266.78,-51.85"/>
<polygon fill="red" stroke="red" stroke-width="0.27" points="268.52,-48.77 258.39,-45.64 264.35,-54.4 268.52,-48.77"/>
</g>
<!-- 650&#45;&gt;jump -->
<g id="edge22" class="edge">
<title>650&#45;&gt;jump</title>
<path fill="none" stroke="red" stroke-width="0.17" d="M135.56,-101.95C154.37,-88.31 182.92,-67.6 204.74,-51.77"/>
<polygon fill="red" stroke="red" stroke-width="0.17" points="207,-54.46 213.04,-45.76 202.89,-48.79 207,-54.46"/>
</g>
<!-- 652&#45;&gt;jump -->
<g id="edge23" class="edge">
<title>652&#45;&gt;jump</title>
<path fill="none" stroke="red" stroke-width="0.99" d="M177.37,-179.61C188.66,-150.54 208.59,-99.22 221.98,-64.74"/>
<polygon fill="red" stroke="red" stroke-width="0.99" points="225.38,-65.64 225.74,-55.05 218.86,-63.11 225.38,-65.64"/>
</g>
<!-- 653&#45;&gt;jump -->
<g id="edge24" class="edge">
<title>653&#45;&gt;jump</title>
<path fill="none" stroke="green" stroke-width="1.61" d="M31.5,-178.79C39.73,-154.4 55.84,-116.22 81.75,-92.57 114.83,-62.37 164.29,-45.54 198.18,-36.96"/>
<polygon fill="green" stroke="green" stroke-width="1.61" points="199.26,-40.3 208.16,-34.56 197.62,-33.5 199.26,-40.3"/>
</g>
<!-- 653&#45;&gt;650 -->
<g id="edge28" class="edge">
<title>653&#45;&gt;650</title>
<path fill="none" stroke="red" stroke-width="0.38" d="M42.73,-185.32C56.31,-172.85 75.14,-155.58 90.28,-141.69"/>
<polygon fill="red" stroke="red" stroke-width="0.38" points="92.81,-144.12 97.81,-134.78 88.07,-138.96 92.81,-144.12"/>
</g>
<!-- 654&#45;&gt;jump -->
<g id="edge25" class="edge">
<title>654&#45;&gt;jump</title>
<path fill="none" stroke="green" stroke-width="0.43" d="M235.75,-177.83C235.75,-149.17 235.75,-100.88 235.75,-67.16"/>
<polygon fill="green" stroke="green" stroke-width="0.43" points="239.25,-66.77 235.75,-56.77 232.25,-66.77 239.25,-66.77"/>
</g>
<!-- 655&#45;&gt;jump -->
<g id="edge26" class="edge">
<title>655&#45;&gt;jump</title>
<path fill="none" stroke="green" stroke-width="0.67" d="M294.13,-179.61C282.84,-150.54 262.91,-99.22 249.52,-64.74"/>
<polygon fill="green" stroke="green" stroke-width="0.67" points="252.64,-63.11 245.76,-55.05 246.11,-65.64 252.64,-63.11"/>
</g>
<!-- 656&#45;&gt;jump -->
<g id="edge27" class="edge">
<title>656&#45;&gt;jump</title>
<path fill="none" stroke="red" stroke-width="1.57" d="M354.9,-182.69C331.68,-152.8 286.61,-94.77 259.04,-59.28"/>
<polygon fill="red" stroke="red" stroke-width="1.57" points="261.67,-56.95 252.77,-51.2 256.14,-61.25 261.67,-56.95"/>
</g>
</g>
</svg>
