<?xml version="1.0" encoding="UTF-8" standalone="no"?>
<!DOCTYPE svg PUBLIC "-//W3C//DTD SVG 1.1//EN"
 "http://www.w3.org/Graphics/SVG/1.1/DTD/svg11.dtd">
<!-- Generated by graphviz version 2.43.0 (0)
 -->
<!-- Title: %3 Pages: 1 -->
<svg width="576pt" height="563pt"
 viewBox="0.00 0.00 575.80 563.03" xmlns="http://www.w3.org/2000/svg" xmlns:xlink="http://www.w3.org/1999/xlink">
<g id="graph0" class="graph" transform="scale(1 1) rotate(0) translate(4 559.03)">
<title>%3</title>
<polygon fill="white" stroke="transparent" points="-4,4 -4,-559.03 571.8,-559.03 571.8,4 -4,4"/>
<!-- x_diff -->
<g id="node1" class="node">
<title>x_diff</title>
<polygon fill="lightgray" stroke="black" points="324.75,-555.03 282.75,-555.03 282.75,-537.03 324.75,-537.03 324.75,-555.03"/>
<text text-anchor="middle" x="303.75" y="-543.83" font-family="Times,serif" font-size="9.00">x_diff</text>
</g>
<!-- 833 -->
<g id="node5" class="node">
<title>833</title>
<ellipse fill="white" stroke="black" cx="303.75" cy="-476.28" rx="25" ry="25"/>
<text text-anchor="middle" x="303.75" y="-474.08" font-family="Times,serif" font-size="9.00">833</text>
</g>
<!-- x_diff&#45;&gt;833 -->
<g id="edge1" class="edge">
<title>x_diff&#45;&gt;833</title>
<path fill="none" stroke="red" stroke-width="4.13" d="M303.75,-536.99C303.75,-530.55 303.75,-521.06 303.75,-511.52"/>
<polygon fill="red" stroke="red" stroke-width="4.13" points="307.36,-511.3 303.75,-501.3 300.13,-511.3 307.36,-511.3"/>
</g>
<!-- 834 -->
<g id="node6" class="node">
<title>834</title>
<ellipse fill="white" stroke="black" cx="24.75" cy="-476.28" rx="25" ry="25"/>
<text text-anchor="middle" x="24.75" y="-474.08" font-family="Times,serif" font-size="9.00">834</text>
</g>
<!-- x_diff&#45;&gt;834 -->
<g id="edge2" class="edge">
<title>x_diff&#45;&gt;834</title>
<path fill="none" stroke="red" stroke-width="0.37" d="M282.71,-541.34C245.09,-534.58 163.96,-519.2 96.75,-501.03 83.84,-497.54 69.85,-493.08 57.65,-488.97"/>
<polygon fill="red" stroke="red" stroke-width="0.37" points="58.5,-485.56 47.9,-485.63 56.23,-492.18 58.5,-485.56"/>
</g>
<!-- 835 -->
<g id="node7" class="node">
<title>835</title>
<ellipse fill="white" stroke="black" cx="337.75" cy="-202.81" rx="25" ry="25"/>
<text text-anchor="middle" x="337.75" y="-200.61" font-family="Times,serif" font-size="9.00">835</text>
</g>
<!-- x_diff&#45;&gt;835 -->
<g id="edge3" class="edge">
<title>x_diff&#45;&gt;835</title>
<path fill="none" stroke="green" stroke-width="2.18" d="M325.07,-537.32C340.73,-530.42 360.92,-518.65 370.75,-501.03 422.17,-408.83 405.25,-364.92 375.75,-263.56 372.38,-252 366.02,-240.53 359.46,-230.78"/>
<polygon fill="green" stroke="green" stroke-width="2.18" points="362.11,-228.47 353.45,-222.36 356.41,-232.53 362.11,-228.47"/>
</g>
<!-- 836 -->
<g id="node8" class="node">
<title>836</title>
<ellipse fill="white" stroke="black" cx="130.75" cy="-476.28" rx="25" ry="25"/>
<text text-anchor="middle" x="130.75" y="-474.08" font-family="Times,serif" font-size="9.00">836</text>
</g>
<!-- x_diff&#45;&gt;836 -->
<g id="edge4" class="edge">
<title>x_diff&#45;&gt;836</title>
<path fill="none" stroke="red" stroke-width="0.73" d="M283.22,-536.99C253.44,-525.33 197.98,-503.61 162.79,-489.82"/>
<polygon fill="red" stroke="red" stroke-width="0.73" points="164.03,-486.55 153.44,-486.16 161.47,-493.07 164.03,-486.55"/>
</g>
<!-- 837 -->
<g id="node9" class="node">
<title>837</title>
<ellipse fill="white" stroke="black" cx="280.75" cy="-117.32" rx="25" ry="25"/>
<text text-anchor="middle" x="280.75" y="-115.12" font-family="Times,serif" font-size="9.00">837</text>
</g>
<!-- x_diff&#45;&gt;837 -->
<g id="edge5" class="edge">
<title>x_diff&#45;&gt;837</title>
<path fill="none" stroke="green" stroke-width="0.08" d="M312.72,-536.97C321.02,-528.84 332.82,-515.46 337.75,-501.03 344.86,-480.21 340.87,-473.31 337.75,-451.53 329.22,-391.95 311.05,-380.66 299.75,-321.55 288.51,-262.76 283.83,-193.07 281.95,-152.47"/>
<polygon fill="green" stroke="green" stroke-width="0.08" points="285.44,-152.14 281.51,-142.3 278.44,-152.45 285.44,-152.14"/>
</g>
<!-- 838 -->
<g id="node10" class="node">
<title>838</title>
<ellipse fill="white" stroke="black" cx="447.75" cy="-476.28" rx="25" ry="25"/>
<text text-anchor="middle" x="447.75" y="-474.08" font-family="Times,serif" font-size="9.00">838</text>
</g>
<!-- x_diff&#45;&gt;838 -->
<g id="edge6" class="edge">
<title>x_diff&#45;&gt;838</title>
<path fill="none" stroke="green" stroke-width="1.09" d="M325.09,-537.17C346.61,-529 380.58,-515.4 408.75,-501.03 412.05,-499.34 415.45,-497.48 418.79,-495.56"/>
<polygon fill="green" stroke="green" stroke-width="1.09" points="420.62,-498.55 427.43,-490.44 417.05,-492.53 420.62,-498.55"/>
</g>
<!-- 839 -->
<g id="node11" class="node">
<title>839</title>
<ellipse fill="white" stroke="black" cx="236.75" cy="-476.28" rx="25" ry="25"/>
<text text-anchor="middle" x="236.75" y="-474.08" font-family="Times,serif" font-size="9.00">839</text>
</g>
<!-- x_diff&#45;&gt;839 -->
<g id="edge7" class="edge">
<title>x_diff&#45;&gt;839</title>
<path fill="none" stroke="red" stroke-width="0.83" d="M295.8,-536.99C287.25,-528.34 273.22,-514.16 260.98,-501.78"/>
<polygon fill="red" stroke="red" stroke-width="0.83" points="263.18,-499.03 253.66,-494.38 258.2,-503.95 263.18,-499.03"/>
</g>
<!-- object_y -->
<g id="node2" class="node">
<title>object_y</title>
<polygon fill="lightgray" stroke="black" points="211.25,-555.03 156.25,-555.03 156.25,-537.03 211.25,-537.03 211.25,-555.03"/>
<text text-anchor="middle" x="183.75" y="-543.83" font-family="Times,serif" font-size="9.00">object_y</text>
</g>
<!-- object_y&#45;&gt;833 -->
<g id="edge8" class="edge">
<title>object_y&#45;&gt;833</title>
<path fill="none" stroke="green" stroke-width="0.95" d="M201.85,-536.88C219.76,-528.59 247.75,-515 270.75,-501.03 272.42,-500.01 274.12,-498.93 275.82,-497.82"/>
<polygon fill="green" stroke="green" stroke-width="0.95" points="277.91,-500.64 284.2,-492.11 273.96,-494.85 277.91,-500.64"/>
</g>
<!-- object_y&#45;&gt;834 -->
<g id="edge9" class="edge">
<title>object_y&#45;&gt;834</title>
<path fill="none" stroke="green" stroke-width="1.27" d="M157.4,-537.01C132.67,-529.11 94.93,-516.06 63.75,-501.03 60.41,-499.42 56.99,-497.6 53.63,-495.71"/>
<polygon fill="green" stroke="green" stroke-width="1.27" points="55.37,-492.67 44.97,-490.62 51.82,-498.71 55.37,-492.67"/>
</g>
<!-- object_y&#45;&gt;836 -->
<g id="edge10" class="edge">
<title>object_y&#45;&gt;836</title>
<path fill="none" stroke="green" stroke-width="0.23" d="M177.46,-536.99C171.13,-528.9 161.02,-515.97 151.82,-504.21"/>
<polygon fill="green" stroke="green" stroke-width="0.23" points="154.57,-502.05 145.66,-496.33 149.06,-506.37 154.57,-502.05"/>
</g>
<!-- object_y&#45;&gt;837 -->
<g id="edge11" class="edge">
<title>object_y&#45;&gt;837</title>
<path fill="none" stroke="red" stroke-width="0.63" d="M156.11,-539.18C135.81,-533.27 109.6,-521.93 96.75,-501.03 85.23,-482.29 91.26,-472.83 96.75,-451.53 128.84,-327.01 218.46,-199.27 259.61,-145.14"/>
<polygon fill="red" stroke="red" stroke-width="0.63" points="262.47,-147.17 265.78,-137.1 256.91,-142.91 262.47,-147.17"/>
</g>
<!-- object_y&#45;&gt;838 -->
<g id="edge12" class="edge">
<title>object_y&#45;&gt;838</title>
<path fill="none" stroke="red" stroke-width="0.63" d="M211.5,-537.9C260.28,-525.39 361.19,-499.49 413.95,-485.95"/>
<polygon fill="red" stroke="red" stroke-width="0.63" points="415.01,-489.29 423.83,-483.42 413.27,-482.51 415.01,-489.29"/>
</g>
<!-- object_y&#45;&gt;839 -->
<g id="edge13" class="edge">
<title>object_y&#45;&gt;839</title>
<path fill="none" stroke="red" stroke-width="0.51" d="M190.04,-536.99C196.36,-528.9 206.48,-515.97 215.68,-504.21"/>
<polygon fill="red" stroke="red" stroke-width="0.51" points="218.44,-506.37 221.84,-496.33 212.92,-502.05 218.44,-506.37"/>
</g>
<!-- 1061 -->
<g id="node13" class="node">
<title>1061</title>
<ellipse fill="white" stroke="black" cx="337.75" cy="-292.55" rx="28.98" ry="28.98"/>
<text text-anchor="middle" x="337.75" y="-290.35" font-family="Times,serif" font-size="9.00">1061</text>
</g>
<!-- object_y&#45;&gt;1061 -->
<g id="edge26" class="edge">
<title>object_y&#45;&gt;1061</title>
<path fill="none" stroke="red" stroke-width="0.34" d="M184.05,-536.83C184.94,-520.01 188.52,-480.71 202.75,-451.53 228.85,-398.02 277.39,-347.86 308.6,-318.96"/>
<polygon fill="red" stroke="red" stroke-width="0.34" points="311.11,-321.41 316.14,-312.08 306.39,-316.24 311.11,-321.41"/>
</g>
<!-- object_height -->
<g id="node3" class="node">
<title>object_height</title>
<polygon fill="lightgray" stroke="black" points="513.75,-555.03 433.75,-555.03 433.75,-537.03 513.75,-537.03 513.75,-555.03"/>
<text text-anchor="middle" x="473.75" y="-543.83" font-family="Times,serif" font-size="9.00">object_height</text>
</g>
<!-- object_height&#45;&gt;833 -->
<g id="edge14" class="edge">
<title>object_height&#45;&gt;833</title>
<path fill="none" stroke="red" stroke-width="1.33" d="M453.58,-536.99C424.6,-525.44 370.87,-504.03 336.25,-490.23"/>
<polygon fill="red" stroke="red" stroke-width="1.33" points="337.18,-486.83 326.6,-486.38 334.59,-493.34 337.18,-486.83"/>
</g>
<!-- object_height&#45;&gt;837 -->
<g id="edge15" class="edge">
<title>object_height&#45;&gt;837</title>
<path fill="none" stroke="red" stroke-width="0.95" d="M483.22,-537.01C492.6,-528.72 506.95,-515.03 516.75,-501.03 554.77,-446.69 583.67,-418.59 557.75,-357.55 509.3,-243.46 373.86,-164.34 312.12,-133.14"/>
<polygon fill="red" stroke="red" stroke-width="0.95" points="313.39,-129.86 302.87,-128.54 310.27,-136.12 313.39,-129.86"/>
</g>
<!-- object_height&#45;&gt;838 -->
<g id="edge16" class="edge">
<title>object_height&#45;&gt;838</title>
<path fill="none" stroke="red" stroke-width="1.66" d="M470.66,-536.99C467.97,-529.96 463.86,-519.27 459.87,-508.87"/>
<polygon fill="red" stroke="red" stroke-width="1.66" points="463.13,-507.6 456.28,-499.52 456.6,-510.11 463.13,-507.6"/>
</g>
<!-- object_height&#45;&gt;839 -->
<g id="edge17" class="edge">
<title>object_height&#45;&gt;839</title>
<path fill="none" stroke="red" stroke-width="1.67" d="M433.52,-541.27C391.25,-536.22 323.55,-524.93 269.75,-501.03 267.91,-500.21 266.07,-499.28 264.26,-498.27"/>
<polygon fill="red" stroke="red" stroke-width="1.67" points="265.81,-495.12 255.48,-492.76 262.09,-501.04 265.81,-495.12"/>
</g>
<!-- 840 -->
<g id="node12" class="node">
<title>840</title>
<ellipse fill="white" stroke="black" cx="447.75" cy="-386.54" rx="25" ry="25"/>
<text text-anchor="middle" x="447.75" y="-384.34" font-family="Times,serif" font-size="9.00">840</text>
</g>
<!-- object_height&#45;&gt;840 -->
<g id="edge18" class="edge">
<title>object_height&#45;&gt;840</title>
<path fill="none" stroke="red" stroke-width="0.71" d="M476.2,-536.88C480.77,-520.47 489.43,-482.35 481.75,-451.53 478.69,-439.26 472.79,-426.75 466.75,-416.09"/>
<polygon fill="red" stroke="red" stroke-width="0.71" points="469.61,-414.05 461.48,-407.25 463.59,-417.63 469.61,-414.05"/>
</g>
<!-- 1091 -->
<g id="node14" class="node">
<title>1091</title>
<ellipse fill="white" stroke="black" cx="519.75" cy="-386.54" rx="28.98" ry="28.98"/>
<text text-anchor="middle" x="519.75" y="-384.34" font-family="Times,serif" font-size="9.00">1091</text>
</g>
<!-- object_height&#45;&gt;1091 -->
<g id="edge28" class="edge">
<title>object_height&#45;&gt;1091</title>
<path fill="none" stroke="red" stroke-width="0.95" d="M478.89,-536.91C484.11,-528.31 492.08,-514.19 496.75,-501.03 505.39,-476.65 511.16,-448.12 514.75,-425.76"/>
<polygon fill="red" stroke="red" stroke-width="0.95" points="518.25,-426.06 516.3,-415.65 511.33,-425 518.25,-426.06"/>
</g>
<!-- jump -->
<g id="node4" class="node">
<title>jump</title>
<ellipse fill="lightblue" stroke="black" cx="201.75" cy="-28.28" rx="28.07" ry="28.07"/>
<text text-anchor="middle" x="201.75" y="-26.08" font-family="Times,serif" font-size="9.00">jump</text>
</g>
<!-- 833&#45;&gt;jump -->
<g id="edge19" class="edge">
<title>833&#45;&gt;jump</title>
<path fill="none" stroke="green" stroke-width="1.87" d="M286.45,-458.5C257.34,-428.4 201.75,-361.93 201.75,-293.55 201.75,-293.55 201.75,-293.55 201.75,-201.81 201.75,-155.4 201.75,-101.95 201.75,-67"/>
<polygon fill="green" stroke="green" stroke-width="1.87" points="205.25,-66.77 201.75,-56.77 198.25,-66.77 205.25,-66.77"/>
</g>
<!-- 834&#45;&gt;jump -->
<g id="edge20" class="edge">
<title>834&#45;&gt;jump</title>
<path fill="none" stroke="green" stroke-width="1.43" d="M24.75,-451.46C24.75,-416.74 24.75,-350.19 24.75,-293.55 24.75,-293.55 24.75,-293.55 24.75,-201.81 24.75,-148.04 39.19,-131.05 76.75,-92.57 101.26,-67.45 137.85,-50.54 165.11,-40.57"/>
<polygon fill="green" stroke="green" stroke-width="1.43" points="166.42,-43.82 174.7,-37.21 164.1,-37.22 166.42,-43.82"/>
</g>
<!-- 835&#45;&gt;jump -->
<g id="edge21" class="edge">
<title>835&#45;&gt;jump</title>
<path fill="none" stroke="green" stroke-width="0.72" d="M338.22,-177.79C337.51,-153.98 333.12,-117.56 314.75,-92.57 296.06,-67.14 263.89,-50.57 238.64,-40.79"/>
<polygon fill="green" stroke="green" stroke-width="0.72" points="239.6,-37.41 229,-37.25 237.18,-43.98 239.6,-37.41"/>
</g>
<!-- 835&#45;&gt;837 -->
<g id="edge30" class="edge">
<title>835&#45;&gt;837</title>
<path fill="none" stroke="green" stroke-width="1.43" d="M324.24,-182.03C317.05,-171.5 308.09,-158.36 300.16,-146.76"/>
<polygon fill="green" stroke="green" stroke-width="1.43" points="302.89,-144.54 294.36,-138.25 297.1,-148.48 302.89,-144.54"/>
</g>
<!-- 836&#45;&gt;jump -->
<g id="edge22" class="edge">
<title>836&#45;&gt;jump</title>
<path fill="none" stroke="green" stroke-width="2.45" d="M117.64,-454.95C97.88,-422.3 62.75,-355.54 62.75,-293.55 62.75,-293.55 62.75,-293.55 62.75,-201.81 62.75,-134.12 128.43,-77.97 169.5,-49.47"/>
<polygon fill="green" stroke="green" stroke-width="2.45" points="171.53,-52.32 177.85,-43.82 167.61,-46.53 171.53,-52.32"/>
</g>
<!-- 837&#45;&gt;jump -->
<g id="edge23" class="edge">
<title>837&#45;&gt;jump</title>
<path fill="none" stroke="green" stroke-width="1.06" d="M264.38,-98.28C253.65,-86.46 239.41,-70.77 227.21,-57.34"/>
<polygon fill="green" stroke="green" stroke-width="1.06" points="229.62,-54.79 220.31,-49.73 224.44,-59.49 229.62,-54.79"/>
</g>
<!-- 838&#45;&gt;840 -->
<g id="edge32" class="edge">
<title>838&#45;&gt;840</title>
<path fill="none" stroke="green" stroke-width="0.15" d="M447.75,-451.3C447.75,-442.11 447.75,-431.45 447.75,-421.5"/>
<polygon fill="green" stroke="green" stroke-width="0.15" points="451.25,-421.48 447.75,-411.48 444.25,-421.48 451.25,-421.48"/>
</g>
<!-- 839&#45;&gt;jump -->
<g id="edge24" class="edge">
<title>839&#45;&gt;jump</title>
<path fill="none" stroke="red" stroke-width="1" d="M219.19,-458.58C208.48,-447.4 195.42,-431.79 187.75,-415.53 164.19,-365.55 163.75,-348.81 163.75,-293.55 163.75,-293.55 163.75,-293.55 163.75,-201.81 163.75,-153.52 178.12,-99.37 189.19,-64.83"/>
<polygon fill="red" stroke="red" stroke-width="1" points="192.56,-65.79 192.36,-55.2 185.91,-63.61 192.56,-65.79"/>
</g>
<!-- 840&#45;&gt;jump -->
<g id="edge25" class="edge">
<title>840&#45;&gt;jump</title>
<path fill="none" stroke="green" stroke-width="0.23" d="M445.08,-361.77C437.78,-307.29 412.73,-171.96 337.75,-92.57 311.08,-64.33 269.33,-47.52 239.11,-38.4"/>
<polygon fill="green" stroke="green" stroke-width="0.23" points="239.93,-34.99 229.35,-35.6 238,-41.72 239.93,-34.99"/>
</g>
<!-- 840&#45;&gt;1061 -->
<g id="edge31" class="edge">
<title>840&#45;&gt;1061</title>
<path fill="none" stroke="red" stroke-width="0.44" d="M429.09,-369.93C412.17,-355.79 386.95,-334.7 367.3,-318.27"/>
<polygon fill="red" stroke="red" stroke-width="0.44" points="369.45,-315.5 359.53,-311.77 364.95,-320.87 369.45,-315.5"/>
</g>
<!-- 1061&#45;&gt;835 -->
<g id="edge27" class="edge">
<title>1061&#45;&gt;835</title>
<path fill="none" stroke="green" stroke-width="0.58" d="M337.75,-263.31C337.75,-255.12 337.75,-246.09 337.75,-237.6"/>
<polygon fill="green" stroke="green" stroke-width="0.58" points="341.25,-237.59 337.75,-227.59 334.25,-237.59 341.25,-237.59"/>
</g>
<!-- 1091&#45;&gt;835 -->
<g id="edge29" class="edge">
<title>1091&#45;&gt;835</title>
<path fill="none" stroke="green" stroke-width="0.81" d="M501.32,-363.58C479.95,-338.52 443.21,-296.71 408.75,-263.56 394.9,-250.24 378.55,-236.37 365.03,-225.35"/>
<polygon fill="green" stroke="green" stroke-width="0.81" points="367.01,-222.44 357.03,-218.88 362.61,-227.89 367.01,-222.44"/>
</g>
</g>
</svg>
