<?xml version="1.0" encoding="UTF-8" standalone="no"?>
<!DOCTYPE svg PUBLIC "-//W3C//DTD SVG 1.1//EN"
 "http://www.w3.org/Graphics/SVG/1.1/DTD/svg11.dtd">
<!-- Generated by graphviz version 2.43.0 (0)
 -->
<!-- Title: %3 Pages: 1 -->
<svg width="508pt" height="298pt"
 viewBox="0.00 0.00 508.50 298.05" xmlns="http://www.w3.org/2000/svg" xmlns:xlink="http://www.w3.org/1999/xlink">
<g id="graph0" class="graph" transform="scale(1 1) rotate(0) translate(4 294.05)">
<title>%3</title>
<polygon fill="white" stroke="transparent" points="-4,4 -4,-294.05 504.5,-294.05 504.5,4 -4,4"/>
<!-- x_diff -->
<g id="node1" class="node">
<title>x_diff</title>
<polygon fill="lightgray" stroke="black" points="189.75,-290.05 147.75,-290.05 147.75,-272.05 189.75,-272.05 189.75,-290.05"/>
<text text-anchor="middle" x="168.75" y="-278.85" font-family="Times,serif" font-size="9.00">x_diff</text>
</g>
<!-- 385 -->
<g id="node5" class="node">
<title>385</title>
<ellipse fill="white" stroke="black" cx="24.75" cy="-211.3" rx="25" ry="25"/>
<text text-anchor="middle" x="24.75" y="-209.1" font-family="Times,serif" font-size="9.00">385</text>
</g>
<!-- x_diff&#45;&gt;385 -->
<g id="edge1" class="edge">
<title>x_diff&#45;&gt;385</title>
<path fill="none" stroke="red" stroke-width="1.37" d="M147.41,-272.19C125.89,-264.02 91.92,-250.42 63.75,-236.05 60.45,-234.36 57.05,-232.5 53.71,-230.59"/>
<polygon fill="red" stroke="red" stroke-width="1.37" points="55.45,-227.55 45.06,-225.46 51.88,-233.57 55.45,-227.55"/>
</g>
<!-- 386 -->
<g id="node6" class="node">
<title>386</title>
<ellipse fill="white" stroke="black" cx="369.75" cy="-211.3" rx="25" ry="25"/>
<text text-anchor="middle" x="369.75" y="-209.1" font-family="Times,serif" font-size="9.00">386</text>
</g>
<!-- x_diff&#45;&gt;386 -->
<g id="edge2" class="edge">
<title>x_diff&#45;&gt;386</title>
<path fill="none" stroke="red" stroke-width="1.54" d="M190.05,-274.35C192.97,-273.58 195.93,-272.79 198.75,-272.05 260.04,-255.88 279.39,-263.02 336.75,-236.05 338.57,-235.19 340.39,-234.23 342.2,-233.2"/>
<polygon fill="red" stroke="red" stroke-width="1.54" points="344.4,-235.95 350.95,-227.63 340.63,-230.05 344.4,-235.95"/>
</g>
<!-- 387 -->
<g id="node7" class="node">
<title>387</title>
<ellipse fill="white" stroke="black" cx="115.75" cy="-121.56" rx="25" ry="25"/>
<text text-anchor="middle" x="115.75" y="-119.36" font-family="Times,serif" font-size="9.00">387</text>
</g>
<!-- x_diff&#45;&gt;387 -->
<g id="edge3" class="edge">
<title>x_diff&#45;&gt;387</title>
<path fill="none" stroke="green" stroke-width="0.1" d="M147.61,-272.56C131.83,-265.73 111.4,-253.93 101.75,-236.05 88.14,-210.83 94.33,-177.96 102.32,-154.09"/>
<polygon fill="green" stroke="green" stroke-width="0.1" points="105.69,-155.05 105.8,-144.46 99.11,-152.67 105.69,-155.05"/>
</g>
<!-- 388 -->
<g id="node8" class="node">
<title>388</title>
<ellipse fill="white" stroke="black" cx="168.75" cy="-211.3" rx="25" ry="25"/>
<text text-anchor="middle" x="168.75" y="-209.1" font-family="Times,serif" font-size="9.00">388</text>
</g>
<!-- x_diff&#45;&gt;388 -->
<g id="edge4" class="edge">
<title>x_diff&#45;&gt;388</title>
<path fill="none" stroke="red" stroke-width="0.25" d="M168.75,-272.01C168.75,-265.58 168.75,-256.08 168.75,-246.54"/>
<polygon fill="red" stroke="red" stroke-width="0.25" points="172.25,-246.32 168.75,-236.32 165.25,-246.32 172.25,-246.32"/>
</g>
<!-- 390 -->
<g id="node9" class="node">
<title>390</title>
<ellipse fill="white" stroke="black" cx="235.75" cy="-211.3" rx="25" ry="25"/>
<text text-anchor="middle" x="235.75" y="-209.1" font-family="Times,serif" font-size="9.00">390</text>
</g>
<!-- x_diff&#45;&gt;390 -->
<g id="edge5" class="edge">
<title>x_diff&#45;&gt;390</title>
<path fill="none" stroke="green" stroke-width="0.22" d="M176.7,-272.01C185.25,-263.36 199.28,-249.18 211.52,-236.8"/>
<polygon fill="green" stroke="green" stroke-width="0.22" points="214.29,-238.97 218.84,-229.4 209.32,-234.05 214.29,-238.97"/>
</g>
<!-- 391 -->
<g id="node10" class="node">
<title>391</title>
<ellipse fill="white" stroke="black" cx="302.75" cy="-211.3" rx="25" ry="25"/>
<text text-anchor="middle" x="302.75" y="-209.1" font-family="Times,serif" font-size="9.00">391</text>
</g>
<!-- x_diff&#45;&gt;391 -->
<g id="edge6" class="edge">
<title>x_diff&#45;&gt;391</title>
<path fill="none" stroke="green" stroke-width="1.17" d="M189.88,-272.36C210.76,-264.42 243.32,-251.09 269.75,-236.05 271.5,-235.05 273.27,-233.99 275.03,-232.87"/>
<polygon fill="green" stroke="green" stroke-width="1.17" points="277.31,-235.56 283.66,-227.08 273.41,-229.75 277.31,-235.56"/>
</g>
<!-- object_y -->
<g id="node2" class="node">
<title>object_y</title>
<polygon fill="lightgray" stroke="black" points="379.25,-290.05 324.25,-290.05 324.25,-272.05 379.25,-272.05 379.25,-290.05"/>
<text text-anchor="middle" x="351.75" y="-278.85" font-family="Times,serif" font-size="9.00">object_y</text>
</g>
<!-- object_y&#45;&gt;386 -->
<g id="edge7" class="edge">
<title>object_y&#45;&gt;386</title>
<path fill="none" stroke="red" stroke-width="1" d="M353.88,-272.01C355.67,-265.28 358.35,-255.2 361,-245.23"/>
<polygon fill="red" stroke="red" stroke-width="1" points="364.42,-245.99 363.6,-235.43 357.65,-244.19 364.42,-245.99"/>
</g>
<!-- object_y&#45;&gt;387 -->
<g id="edge8" class="edge">
<title>object_y&#45;&gt;387</title>
<path fill="none" stroke="red" stroke-width="1.17" d="M367.27,-271.94C379.72,-264.48 396.29,-252.14 403.75,-236.05 413,-216.09 417.51,-203.71 403.75,-186.55 395.73,-176.56 224.31,-143.09 149.81,-128.95"/>
<polygon fill="red" stroke="red" stroke-width="1.17" points="150.45,-125.51 139.97,-127.09 149.15,-132.39 150.45,-125.51"/>
</g>
<!-- object_y&#45;&gt;388 -->
<g id="edge9" class="edge">
<title>object_y&#45;&gt;388</title>
<path fill="none" stroke="green" stroke-width="0.86" d="M324.17,-274.89C293.28,-268.46 242.22,-255.83 201.75,-236.05 199.94,-235.17 198.13,-234.18 196.33,-233.14"/>
<polygon fill="green" stroke="green" stroke-width="0.86" points="197.9,-229.99 187.6,-227.52 194.12,-235.88 197.9,-229.99"/>
</g>
<!-- object_y&#45;&gt;390 -->
<g id="edge10" class="edge">
<title>object_y&#45;&gt;390</title>
<path fill="none" stroke="green" stroke-width="1.08" d="M334.84,-271.93C317.8,-263.56 290.92,-249.81 268.75,-236.05 267.08,-235.02 265.39,-233.93 263.7,-232.81"/>
<polygon fill="green" stroke="green" stroke-width="1.08" points="265.57,-229.84 255.34,-227.07 261.6,-235.61 265.57,-229.84"/>
</g>
<!-- object_y&#45;&gt;391 -->
<g id="edge11" class="edge">
<title>object_y&#45;&gt;391</title>
<path fill="none" stroke="red" stroke-width="0.66" d="M345.94,-272.01C340.22,-264.11 331.18,-251.6 322.83,-240.07"/>
<polygon fill="red" stroke="red" stroke-width="0.66" points="325.64,-237.98 316.94,-231.92 319.97,-242.08 325.64,-237.98"/>
</g>
<!-- 392 -->
<g id="node11" class="node">
<title>392</title>
<ellipse fill="white" stroke="black" cx="475.75" cy="-211.3" rx="25" ry="25"/>
<text text-anchor="middle" x="475.75" y="-209.1" font-family="Times,serif" font-size="9.00">392</text>
</g>
<!-- object_y&#45;&gt;392 -->
<g id="edge12" class="edge">
<title>object_y&#45;&gt;392</title>
<path fill="none" stroke="red" stroke-width="0.33" d="M368.22,-271.95C385.48,-263.36 413.29,-249.24 436.75,-236.05 439.81,-234.33 442.99,-232.49 446.14,-230.62"/>
<polygon fill="red" stroke="red" stroke-width="0.33" points="448.09,-233.54 454.86,-225.39 444.48,-227.54 448.09,-233.54"/>
</g>
<!-- object_height -->
<g id="node3" class="node">
<title>object_height</title>
<polygon fill="lightgray" stroke="black" points="287.75,-290.05 207.75,-290.05 207.75,-272.05 287.75,-272.05 287.75,-290.05"/>
<text text-anchor="middle" x="247.75" y="-278.85" font-family="Times,serif" font-size="9.00">object_height</text>
</g>
<!-- object_height&#45;&gt;385 -->
<g id="edge13" class="edge">
<title>object_height&#45;&gt;385</title>
<path fill="none" stroke="red" stroke-width="0.94" d="M220.82,-271.99C191.52,-263.21 143.28,-248.71 101.75,-236.05 87.46,-231.69 71.69,-226.84 58.17,-222.66"/>
<polygon fill="red" stroke="red" stroke-width="0.94" points="58.91,-219.23 48.33,-219.62 56.85,-225.91 58.91,-219.23"/>
</g>
<!-- object_height&#45;&gt;386 -->
<g id="edge14" class="edge">
<title>object_height&#45;&gt;386</title>
<path fill="none" stroke="green" stroke-width="0.01" d="M266.28,-271.97C284.62,-263.73 313.26,-250.17 336.75,-236.05 338.43,-235.04 340.13,-233.97 341.83,-232.86"/>
<polygon fill="green" stroke="green" stroke-width="0.01" points="343.92,-235.68 350.21,-227.16 339.98,-229.89 343.92,-235.68"/>
</g>
<!-- object_height&#45;&gt;387 -->
<g id="edge15" class="edge">
<title>object_height&#45;&gt;387</title>
<path fill="none" stroke="green" stroke-width="0.26" d="M217.86,-272.04C188.16,-263.47 145.54,-249.32 134.75,-236.05 116.77,-213.94 112.93,-181.24 113.05,-156.61"/>
<polygon fill="green" stroke="green" stroke-width="0.26" points="116.55,-156.7 113.32,-146.61 109.55,-156.51 116.55,-156.7"/>
</g>
<!-- object_height&#45;&gt;388 -->
<g id="edge16" class="edge">
<title>object_height&#45;&gt;388</title>
<path fill="none" stroke="red" stroke-width="1.14" d="M238.38,-272.01C227.75,-262.9 209.98,-247.66 195.05,-234.85"/>
<polygon fill="red" stroke="red" stroke-width="1.14" points="196.98,-231.9 187.11,-228.04 192.42,-237.21 196.98,-231.9"/>
</g>
<!-- object_height&#45;&gt;390 -->
<g id="edge17" class="edge">
<title>object_height&#45;&gt;390</title>
<path fill="none" stroke="green" stroke-width="0.18" d="M246.33,-272.01C245.15,-265.4 243.41,-255.57 241.68,-245.77"/>
<polygon fill="green" stroke="green" stroke-width="0.18" points="245.09,-244.96 239.9,-235.72 238.2,-246.18 245.09,-244.96"/>
</g>
<!-- object_height&#45;&gt;391 -->
<g id="edge18" class="edge">
<title>object_height&#45;&gt;391</title>
<path fill="none" stroke="green" stroke-width="1.21" d="M254.27,-272.01C260.89,-263.87 271.48,-250.81 281.08,-238.99"/>
<polygon fill="green" stroke="green" stroke-width="1.21" points="283.92,-241.04 287.51,-231.07 278.49,-236.63 283.92,-241.04"/>
</g>
<!-- object_height&#45;&gt;392 -->
<g id="edge19" class="edge">
<title>object_height&#45;&gt;392</title>
<path fill="none" stroke="red" stroke-width="5.27" d="M277.77,-272C309.26,-263.46 360.15,-249.38 403.75,-236.05 416.53,-232.14 430.51,-227.59 442.71,-223.53"/>
<polygon fill="red" stroke="red" stroke-width="5.27" points="444.47,-227.8 452.48,-220.26 441.54,-219.07 444.47,-227.8"/>
</g>
<!-- jump -->
<g id="node4" class="node">
<title>jump</title>
<ellipse fill="lightblue" stroke="black" cx="235.75" cy="-28.28" rx="28.07" ry="28.07"/>
<text text-anchor="middle" x="235.75" y="-26.08" font-family="Times,serif" font-size="9.00">jump</text>
</g>
<!-- 385&#45;&gt;jump -->
<g id="edge20" class="edge">
<title>385&#45;&gt;jump</title>
<path fill="none" stroke="green" stroke-width="1.02" d="M30.61,-186.93C38.29,-160.74 54.13,-118.55 81.75,-92.57 114.37,-61.87 163.93,-45.15 197.97,-36.73"/>
<polygon fill="green" stroke="green" stroke-width="1.02" points="199.06,-40.07 208,-34.38 197.46,-33.26 199.06,-40.07"/>
</g>
<!-- 385&#45;&gt;387 -->
<g id="edge26" class="edge">
<title>385&#45;&gt;387</title>
<path fill="none" stroke="green" stroke-width="1.62" d="M42.29,-193.38C56.14,-180.03 75.63,-161.24 91.05,-146.37"/>
<polygon fill="green" stroke="green" stroke-width="1.62" points="93.49,-148.89 98.26,-139.43 88.63,-143.85 93.49,-148.89"/>
</g>
<!-- 386&#45;&gt;jump -->
<g id="edge21" class="edge">
<title>386&#45;&gt;jump</title>
<path fill="none" stroke="green" stroke-width="0.12" d="M367.85,-186.43C364.76,-160.94 356.69,-120.47 335.75,-92.57 319.31,-70.67 292.89,-54.42 271.33,-43.87"/>
<polygon fill="green" stroke="green" stroke-width="0.12" points="272.66,-40.63 262.12,-39.56 269.7,-46.97 272.66,-40.63"/>
</g>
<!-- 387&#45;&gt;jump -->
<g id="edge22" class="edge">
<title>387&#45;&gt;jump</title>
<path fill="none" stroke="red" stroke-width="1.07" d="M135.03,-105.89C154.06,-91.42 183.45,-69.07 205.58,-52.23"/>
<polygon fill="red" stroke="red" stroke-width="1.07" points="207.82,-54.92 213.66,-46.08 203.59,-49.35 207.82,-54.92"/>
</g>
<!-- 388&#45;&gt;jump -->
<g id="edge23" class="edge">
<title>388&#45;&gt;jump</title>
<path fill="none" stroke="red" stroke-width="1.6" d="M177.1,-187.74C188.51,-156.9 209.11,-101.26 222.61,-64.79"/>
<polygon fill="red" stroke="red" stroke-width="1.6" points="226.02,-65.65 226.21,-55.05 219.46,-63.22 226.02,-65.65"/>
</g>
<!-- 390&#45;&gt;jump -->
<g id="edge24" class="edge">
<title>390&#45;&gt;jump</title>
<path fill="none" stroke="green" stroke-width="0.37" d="M235.75,-186.26C235.75,-155.71 235.75,-102.65 235.75,-66.77"/>
<polygon fill="green" stroke="green" stroke-width="0.37" points="239.25,-66.68 235.75,-56.68 232.25,-66.68 239.25,-66.68"/>
</g>
<!-- 1296 -->
<g id="node12" class="node">
<title>1296</title>
<ellipse fill="white" stroke="black" cx="297.75" cy="-121.56" rx="28.98" ry="28.98"/>
<text text-anchor="middle" x="297.75" y="-119.36" font-family="Times,serif" font-size="9.00">1296</text>
</g>
<!-- 391&#45;&gt;1296 -->
<g id="edge27" class="edge">
<title>391&#45;&gt;1296</title>
<path fill="none" stroke="green" stroke-width="1" d="M301.38,-186.32C300.93,-178.37 300.41,-169.32 299.92,-160.58"/>
<polygon fill="green" stroke="green" stroke-width="1" points="303.41,-160.33 299.34,-150.55 296.42,-160.73 303.41,-160.33"/>
</g>
<!-- 392&#45;&gt;jump -->
<g id="edge25" class="edge">
<title>392&#45;&gt;jump</title>
<path fill="none" stroke="green" stroke-width="0.91" d="M460.97,-191.22C440.83,-166.17 402.69,-121.94 362.75,-92.57 334.29,-71.64 297.87,-54.3 271.33,-43.1"/>
<polygon fill="green" stroke="green" stroke-width="0.91" points="272.61,-39.84 262.04,-39.25 269.94,-46.31 272.61,-39.84"/>
</g>
<!-- 1296&#45;&gt;jump -->
<g id="edge28" class="edge">
<title>1296&#45;&gt;jump</title>
<path fill="none" stroke="green" stroke-width="0.64" d="M281.78,-97.05C274.22,-85.92 265.08,-72.46 256.94,-60.49"/>
<polygon fill="green" stroke="green" stroke-width="0.64" points="259.75,-58.39 251.23,-52.08 253.96,-62.32 259.75,-58.39"/>
</g>
</g>
</svg>
