<?xml version="1.0" encoding="UTF-8" standalone="no"?>
<!DOCTYPE svg PUBLIC "-//W3C//DTD SVG 1.1//EN"
 "http://www.w3.org/Graphics/SVG/1.1/DTD/svg11.dtd">
<!-- Generated by graphviz version 2.43.0 (0)
 -->
<!-- Title: %3 Pages: 1 -->
<svg width="506pt" height="307pt"
 viewBox="0.00 0.00 506.34 306.53" xmlns="http://www.w3.org/2000/svg" xmlns:xlink="http://www.w3.org/1999/xlink">
<g id="graph0" class="graph" transform="scale(1 1) rotate(0) translate(4 302.53)">
<title>%3</title>
<polygon fill="white" stroke="transparent" points="-4,4 -4,-302.53 502.34,-302.53 502.34,4 -4,4"/>
<!-- x_diff -->
<g id="node1" class="node">
<title>x_diff</title>
<polygon fill="lightgray" stroke="black" points="219.35,-298.53 177.35,-298.53 177.35,-280.53 219.35,-280.53 219.35,-298.53"/>
<text text-anchor="middle" x="198.35" y="-287.33" font-family="Times,serif" font-size="9.00">x_diff</text>
</g>
<!-- 896 -->
<g id="node5" class="node">
<title>896</title>
<ellipse fill="white" stroke="black" cx="87.35" cy="-121.56" rx="25" ry="25"/>
<text text-anchor="middle" x="87.35" y="-119.36" font-family="Times,serif" font-size="9.00">896</text>
</g>
<!-- x_diff&#45;&gt;896 -->
<g id="edge6" class="edge">
<title>x_diff&#45;&gt;896</title>
<path fill="none" stroke="red" stroke-width="0.46" d="M192.79,-280.44C186.75,-271.63 176.81,-257.11 168.35,-244.53 146.99,-212.79 122.75,-176.21 106.39,-151.45"/>
<polygon fill="red" stroke="red" stroke-width="0.46" points="109.18,-149.31 100.75,-142.9 103.33,-153.17 109.18,-149.31"/>
</g>
<!-- 890 -->
<g id="node9" class="node">
<title>890</title>
<ellipse fill="white" stroke="black" cx="154.35" cy="-121.56" rx="25" ry="25"/>
<text text-anchor="middle" x="154.35" y="-119.36" font-family="Times,serif" font-size="9.00">890</text>
</g>
<!-- x_diff&#45;&gt;890 -->
<g id="edge1" class="edge">
<title>x_diff&#45;&gt;890</title>
<path fill="none" stroke="red" stroke-width="1.91" d="M196.23,-280.53C190.34,-258.31 173.53,-194.92 163.09,-155.53"/>
<polygon fill="red" stroke="red" stroke-width="1.91" points="166.46,-154.6 160.52,-145.83 159.7,-156.39 166.46,-154.6"/>
</g>
<!-- 892 -->
<g id="node10" class="node">
<title>892</title>
<ellipse fill="white" stroke="black" cx="43.35" cy="-215.54" rx="25" ry="25"/>
<text text-anchor="middle" x="43.35" y="-213.34" font-family="Times,serif" font-size="9.00">892</text>
</g>
<!-- x_diff&#45;&gt;892 -->
<g id="edge2" class="edge">
<title>x_diff&#45;&gt;892</title>
<path fill="none" stroke="green" stroke-width="2.43" d="M180.87,-280.42C155.18,-268.49 106.83,-246.03 74.85,-231.17"/>
<polygon fill="green" stroke="green" stroke-width="2.43" points="76.04,-227.87 65.5,-226.83 73.09,-234.22 76.04,-227.87"/>
</g>
<!-- 893 -->
<g id="node11" class="node">
<title>893</title>
<ellipse fill="white" stroke="black" cx="225.35" cy="-215.54" rx="25" ry="25"/>
<text text-anchor="middle" x="225.35" y="-213.34" font-family="Times,serif" font-size="9.00">893</text>
</g>
<!-- x_diff&#45;&gt;893 -->
<g id="edge3" class="edge">
<title>x_diff&#45;&gt;893</title>
<path fill="none" stroke="red" stroke-width="0.82" d="M201.45,-280.28C204.37,-272.49 208.94,-260.3 213.31,-248.66"/>
<polygon fill="red" stroke="red" stroke-width="0.82" points="216.65,-249.71 216.88,-239.11 210.09,-247.25 216.65,-249.71"/>
</g>
<!-- 894 -->
<g id="node12" class="node">
<title>894</title>
<ellipse fill="white" stroke="black" cx="292.35" cy="-215.54" rx="25" ry="25"/>
<text text-anchor="middle" x="292.35" y="-213.34" font-family="Times,serif" font-size="9.00">894</text>
</g>
<!-- x_diff&#45;&gt;894 -->
<g id="edge4" class="edge">
<title>x_diff&#45;&gt;894</title>
<path fill="none" stroke="green" stroke-width="0.31" d="M210.25,-280.37C222.69,-271.73 242.69,-257.57 259.35,-244.53 261.62,-242.75 263.96,-240.88 266.28,-238.97"/>
<polygon fill="green" stroke="green" stroke-width="0.31" points="268.62,-241.59 274.06,-232.5 264.14,-236.21 268.62,-241.59"/>
</g>
<!-- 895 -->
<g id="node13" class="node">
<title>895</title>
<ellipse fill="white" stroke="black" cx="359.35" cy="-215.54" rx="25" ry="25"/>
<text text-anchor="middle" x="359.35" y="-213.34" font-family="Times,serif" font-size="9.00">895</text>
</g>
<!-- x_diff&#45;&gt;895 -->
<g id="edge5" class="edge">
<title>x_diff&#45;&gt;895</title>
<path fill="none" stroke="green" stroke-width="1.66" d="M219.76,-283.77C246.05,-277.36 291.42,-264.4 326.35,-244.53 328.86,-243.11 331.36,-241.48 333.8,-239.74"/>
<polygon fill="green" stroke="green" stroke-width="1.66" points="336.02,-242.44 341.76,-233.54 331.72,-236.92 336.02,-242.44"/>
</g>
<!-- object_y -->
<g id="node2" class="node">
<title>object_y</title>
<polygon fill="lightgray" stroke="black" points="123.85,-298.53 68.85,-298.53 68.85,-280.53 123.85,-280.53 123.85,-298.53"/>
<text text-anchor="middle" x="96.35" y="-287.33" font-family="Times,serif" font-size="9.00">object_y</text>
</g>
<!-- object_y&#45;&gt;896 -->
<g id="edge11" class="edge">
<title>object_y&#45;&gt;896</title>
<path fill="none" stroke="red" stroke-width="0.38" d="M68.71,-282.68C48.41,-276.78 22.2,-265.44 9.35,-244.53 -4.15,-222.58 -1.67,-209.85 9.35,-186.55 19.17,-165.79 39.4,-149.5 56.79,-138.56"/>
<polygon fill="red" stroke="red" stroke-width="0.38" points="58.77,-141.46 65.56,-133.33 55.18,-135.45 58.77,-141.46"/>
</g>
<!-- object_y&#45;&gt;890 -->
<g id="edge7" class="edge">
<title>object_y&#45;&gt;890</title>
<path fill="none" stroke="red" stroke-width="0.58" d="M99.15,-280.53C106.95,-258.19 129.3,-194.24 143.05,-154.89"/>
<polygon fill="red" stroke="red" stroke-width="0.58" points="146.43,-155.82 146.43,-145.22 139.83,-153.51 146.43,-155.82"/>
</g>
<!-- object_y&#45;&gt;892 -->
<g id="edge8" class="edge">
<title>object_y&#45;&gt;892</title>
<path fill="none" stroke="green" stroke-width="0.42" d="M90.27,-280.28C83.8,-271.49 73.21,-257.11 63.73,-244.23"/>
<polygon fill="green" stroke="green" stroke-width="0.42" points="66.46,-242.04 57.72,-236.06 60.83,-246.19 66.46,-242.04"/>
</g>
<!-- object_y&#45;&gt;893 -->
<g id="edge9" class="edge">
<title>object_y&#45;&gt;893</title>
<path fill="none" stroke="green" stroke-width="0.79" d="M111.15,-280.28C131.51,-268.91 168.65,-248.19 195.04,-233.46"/>
<polygon fill="green" stroke="green" stroke-width="0.79" points="196.86,-236.45 203.88,-228.52 193.45,-230.34 196.86,-236.45"/>
</g>
<!-- object_y&#45;&gt;894 -->
<g id="edge10" class="edge">
<title>object_y&#45;&gt;894</title>
<path fill="none" stroke="green" stroke-width="1.14" d="M123.94,-284.86C157.49,-279.57 215.1,-267.77 259.35,-244.53 262.06,-243.11 264.73,-241.44 267.33,-239.62"/>
<polygon fill="green" stroke="green" stroke-width="1.14" points="269.48,-242.39 275.24,-233.5 265.19,-236.85 269.48,-242.39"/>
</g>
<!-- object_height -->
<g id="node3" class="node">
<title>object_height</title>
<polygon fill="lightgray" stroke="black" points="399.35,-298.53 319.35,-298.53 319.35,-280.53 399.35,-280.53 399.35,-298.53"/>
<text text-anchor="middle" x="359.35" y="-287.33" font-family="Times,serif" font-size="9.00">object_height</text>
</g>
<!-- object_height&#45;&gt;896 -->
<g id="edge15" class="edge">
<title>object_height&#45;&gt;896</title>
<path fill="none" stroke="green" stroke-width="0.73" d="M368.32,-280.47C376.63,-272.35 388.42,-258.97 393.35,-244.53 401.67,-220.15 410.34,-205.93 393.35,-186.55 353.01,-140.54 176.29,-175.35 120.35,-150.55 117.64,-149.35 114.99,-147.86 112.44,-146.19"/>
<polygon fill="green" stroke="green" stroke-width="0.73" points="114.31,-143.22 104.21,-140.02 110.11,-148.82 114.31,-143.22"/>
</g>
<!-- 1528 -->
<g id="node8" class="node">
<title>1528</title>
<ellipse fill="white" stroke="black" cx="469.35" cy="-215.54" rx="28.98" ry="28.98"/>
<text text-anchor="middle" x="469.35" y="-213.34" font-family="Times,serif" font-size="9.00">1528</text>
</g>
<!-- object_height&#45;&gt;1528 -->
<g id="edge22" class="edge">
<title>object_height&#45;&gt;1528</title>
<path fill="none" stroke="green" stroke-width="1" d="M371.97,-280.28C387.64,-270.02 414.96,-252.14 436.69,-237.92"/>
<polygon fill="green" stroke="green" stroke-width="1" points="438.85,-240.69 445.3,-232.28 435.02,-234.83 438.85,-240.69"/>
</g>
<!-- object_height&#45;&gt;893 -->
<g id="edge12" class="edge">
<title>object_height&#45;&gt;893</title>
<path fill="none" stroke="red" stroke-width="0.22" d="M335.52,-280.41C314.41,-272.7 283.19,-260.01 258.35,-244.53 255.9,-243.01 253.44,-241.31 251.03,-239.52"/>
<polygon fill="red" stroke="red" stroke-width="0.22" points="253.12,-236.72 243.11,-233.24 248.77,-242.2 253.12,-236.72"/>
</g>
<!-- object_height&#45;&gt;894 -->
<g id="edge13" class="edge">
<title>object_height&#45;&gt;894</title>
<path fill="none" stroke="green" stroke-width="2.1" d="M351.66,-280.28C342.99,-270.95 328.45,-255.33 315.93,-241.88"/>
<polygon fill="green" stroke="green" stroke-width="2.1" points="318.23,-239.22 308.86,-234.28 313.11,-243.99 318.23,-239.22"/>
</g>
<!-- object_height&#45;&gt;895 -->
<g id="edge14" class="edge">
<title>object_height&#45;&gt;895</title>
<path fill="none" stroke="green" stroke-width="1.06" d="M359.35,-280.28C359.35,-272.87 359.35,-261.48 359.35,-250.37"/>
<polygon fill="green" stroke="green" stroke-width="1.06" points="362.85,-250.37 359.35,-240.37 355.85,-250.37 362.85,-250.37"/>
</g>
<!-- jump -->
<g id="node4" class="node">
<title>jump</title>
<ellipse fill="lightblue" stroke="black" cx="226.35" cy="-28.28" rx="28.07" ry="28.07"/>
<text text-anchor="middle" x="226.35" y="-26.08" font-family="Times,serif" font-size="9.00">jump</text>
</g>
<!-- 1164 -->
<g id="node6" class="node">
<title>1164</title>
<ellipse fill="white" stroke="black" cx="302.35" cy="-121.56" rx="28.98" ry="28.98"/>
<text text-anchor="middle" x="302.35" y="-119.36" font-family="Times,serif" font-size="9.00">1164</text>
</g>
<!-- 1164&#45;&gt;jump -->
<g id="edge20" class="edge">
<title>1164&#45;&gt;jump</title>
<path fill="none" stroke="red" stroke-width="0.38" d="M283.95,-98.46C273.91,-86.41 261.36,-71.33 250.53,-58.33"/>
<polygon fill="red" stroke="red" stroke-width="0.38" points="253.14,-55.99 244.05,-50.55 247.76,-60.47 253.14,-55.99"/>
</g>
<!-- 1548 -->
<g id="node7" class="node">
<title>1548</title>
<ellipse fill="white" stroke="black" cx="226.35" cy="-121.56" rx="28.98" ry="28.98"/>
<text text-anchor="middle" x="226.35" y="-119.36" font-family="Times,serif" font-size="9.00">1548</text>
</g>
<!-- 1548&#45;&gt;jump -->
<g id="edge25" class="edge">
<title>1548&#45;&gt;jump</title>
<path fill="none" stroke="green" stroke-width="1.27" d="M226.35,-92.18C226.35,-84.14 226.35,-75.27 226.35,-66.78"/>
<polygon fill="green" stroke="green" stroke-width="1.27" points="229.85,-66.71 226.35,-56.71 222.85,-66.71 229.85,-66.71"/>
</g>
<!-- 1528&#45;&gt;890 -->
<g id="edge23" class="edge">
<title>1528&#45;&gt;890</title>
<path fill="none" stroke="green" stroke-width="2.04" d="M446.67,-197.22C440.38,-193.14 433.34,-189.21 426.35,-186.55 326.36,-148.51 286.06,-194.12 188.35,-150.55 185.35,-149.21 182.39,-147.53 179.56,-145.67"/>
<polygon fill="green" stroke="green" stroke-width="2.04" points="181.58,-142.81 171.47,-139.65 177.41,-148.43 181.58,-142.81"/>
</g>
<!-- 890&#45;&gt;jump -->
<g id="edge16" class="edge">
<title>890&#45;&gt;jump</title>
<path fill="none" stroke="red" stroke-width="0.67" d="M169.27,-101.65C178.98,-89.34 191.85,-73.02 202.91,-59"/>
<polygon fill="red" stroke="red" stroke-width="0.67" points="205.73,-61.08 209.17,-51.06 200.23,-56.74 205.73,-61.08"/>
</g>
<!-- 892&#45;&gt;jump -->
<g id="edge17" class="edge">
<title>892&#45;&gt;jump</title>
<path fill="none" stroke="red" stroke-width="1.54" d="M38.41,-191.28C34.17,-164.62 31.72,-120.96 53.35,-92.57 85.17,-50.79 147.35,-36.57 187.85,-31.75"/>
<polygon fill="red" stroke="red" stroke-width="1.54" points="188.32,-35.22 197.89,-30.69 187.58,-28.25 188.32,-35.22"/>
</g>
<!-- 892&#45;&gt;896 -->
<g id="edge21" class="edge">
<title>892&#45;&gt;896</title>
<path fill="none" stroke="green" stroke-width="0.27" d="M53.78,-192.74C59.42,-180.95 66.49,-166.18 72.68,-153.23"/>
<polygon fill="green" stroke="green" stroke-width="0.27" points="75.84,-154.73 77,-144.2 69.52,-151.71 75.84,-154.73"/>
</g>
<!-- 893&#45;&gt;1164 -->
<g id="edge19" class="edge">
<title>893&#45;&gt;1164</title>
<path fill="none" stroke="green" stroke-width="1.01" d="M240.93,-195.93C251.46,-183.35 265.59,-166.47 277.64,-152.08"/>
<polygon fill="green" stroke="green" stroke-width="1.01" points="280.35,-154.3 284.08,-144.38 274.98,-149.8 280.35,-154.3"/>
</g>
<!-- 893&#45;&gt;1548 -->
<g id="edge24" class="edge">
<title>893&#45;&gt;1548</title>
<path fill="none" stroke="green" stroke-width="0.02" d="M225.61,-190.38C225.71,-181.37 225.82,-170.91 225.93,-160.94"/>
<polygon fill="green" stroke="green" stroke-width="0.02" points="229.43,-160.84 226.04,-150.81 222.43,-160.77 229.43,-160.84"/>
</g>
<!-- 895&#45;&gt;jump -->
<g id="edge18" class="edge">
<title>895&#45;&gt;jump</title>
<path fill="none" stroke="red" stroke-width="0.24" d="M361.5,-190.73C362.65,-164.37 360.71,-121.74 340.35,-92.57 321.97,-66.23 288.95,-49.65 263.16,-40.1"/>
<polygon fill="red" stroke="red" stroke-width="0.24" points="264.27,-36.78 253.68,-36.78 261.96,-43.39 264.27,-36.78"/>
</g>
</g>
</svg>
