<?xml version="1.0" encoding="UTF-8" standalone="no"?>
<!DOCTYPE svg PUBLIC "-//W3C//DTD SVG 1.1//EN"
 "http://www.w3.org/Graphics/SVG/1.1/DTD/svg11.dtd">
<!-- Generated by graphviz version 2.43.0 (0)
 -->
<!-- Title: %3 Pages: 1 -->
<svg width="526pt" height="204pt"
 viewBox="0.00 0.00 526.50 204.07" xmlns="http://www.w3.org/2000/svg" xmlns:xlink="http://www.w3.org/1999/xlink">
<g id="graph0" class="graph" transform="scale(1 1) rotate(0) translate(4 200.07)">
<title>%3</title>
<polygon fill="white" stroke="transparent" points="-4,4 -4,-200.07 522.5,-200.07 522.5,4 -4,4"/>
<!-- x_diff -->
<g id="node1" class="node">
<title>x_diff</title>
<polygon fill="lightgray" stroke="black" points="371.75,-196.07 329.75,-196.07 329.75,-178.07 371.75,-178.07 371.75,-196.07"/>
<text text-anchor="middle" x="350.75" y="-184.87" font-family="Times,serif" font-size="9.00">x_diff</text>
</g>
<!-- 418 -->
<g id="node6" class="node">
<title>418</title>
<ellipse fill="white" stroke="black" cx="426.75" cy="-117.32" rx="25" ry="25"/>
<text text-anchor="middle" x="426.75" y="-115.12" font-family="Times,serif" font-size="9.00">418</text>
</g>
<!-- x_diff&#45;&gt;418 -->
<g id="edge1" class="edge">
<title>x_diff&#45;&gt;418</title>
<path fill="none" stroke="red" stroke-width="0.74" d="M359.77,-178.03C369.85,-169.04 386.64,-154.07 400.89,-141.37"/>
<polygon fill="red" stroke="red" stroke-width="0.74" points="403.35,-143.87 408.48,-134.6 398.69,-138.64 403.35,-143.87"/>
</g>
<!-- 419 -->
<g id="node7" class="node">
<title>419</title>
<ellipse fill="white" stroke="black" cx="91.75" cy="-117.32" rx="25" ry="25"/>
<text text-anchor="middle" x="91.75" y="-115.12" font-family="Times,serif" font-size="9.00">419</text>
</g>
<!-- x_diff&#45;&gt;419 -->
<g id="edge2" class="edge">
<title>x_diff&#45;&gt;419</title>
<path fill="none" stroke="green" stroke-width="1.4" d="M329.49,-180.18C326.57,-179.43 323.59,-178.7 320.75,-178.07 234.34,-158.64 206.23,-176.78 124.75,-142.07 122.9,-141.28 121.05,-140.37 119.23,-139.38"/>
<polygon fill="green" stroke="green" stroke-width="1.4" points="120.77,-136.22 110.43,-133.91 117.08,-142.16 120.77,-136.22"/>
</g>
<!-- 420 -->
<g id="node8" class="node">
<title>420</title>
<ellipse fill="white" stroke="black" cx="158.75" cy="-117.32" rx="25" ry="25"/>
<text text-anchor="middle" x="158.75" y="-115.12" font-family="Times,serif" font-size="9.00">420</text>
</g>
<!-- x_diff&#45;&gt;420 -->
<g id="edge3" class="edge">
<title>x_diff&#45;&gt;420</title>
<path fill="none" stroke="red" stroke-width="1.19" d="M329.68,-180.45C287.92,-169.28 198.08,-145.1 191.75,-142.07 189.93,-141.2 188.12,-140.23 186.31,-139.19"/>
<polygon fill="red" stroke="red" stroke-width="1.19" points="187.88,-136.04 177.58,-133.59 184.11,-141.93 187.88,-136.04"/>
</g>
<!-- 421 -->
<g id="node9" class="node">
<title>421</title>
<ellipse fill="white" stroke="black" cx="225.75" cy="-117.32" rx="25" ry="25"/>
<text text-anchor="middle" x="225.75" y="-115.12" font-family="Times,serif" font-size="9.00">421</text>
</g>
<!-- x_diff&#45;&gt;421 -->
<g id="edge4" class="edge">
<title>x_diff&#45;&gt;421</title>
<path fill="none" stroke="green" stroke-width="1.22" d="M331.2,-177.93C312.22,-169.75 282.81,-156.33 258.75,-142.07 257.06,-141.07 255.36,-140.01 253.65,-138.91"/>
<polygon fill="green" stroke="green" stroke-width="1.22" points="255.5,-135.93 245.26,-133.22 251.57,-141.73 255.5,-135.93"/>
</g>
<!-- 422 -->
<g id="node10" class="node">
<title>422</title>
<ellipse fill="white" stroke="black" cx="493.75" cy="-117.32" rx="25" ry="25"/>
<text text-anchor="middle" x="493.75" y="-115.12" font-family="Times,serif" font-size="9.00">422</text>
</g>
<!-- x_diff&#45;&gt;422 -->
<g id="edge5" class="edge">
<title>x_diff&#45;&gt;422</title>
<path fill="none" stroke="green" stroke-width="0.54" d="M372.12,-179.25C394.8,-171.63 431.36,-158.2 460.75,-142.07 462.51,-141.1 464.29,-140.05 466.06,-138.95"/>
<polygon fill="green" stroke="green" stroke-width="0.54" points="468.33,-141.65 474.72,-133.2 464.46,-135.82 468.33,-141.65"/>
</g>
<!-- 423 -->
<g id="node11" class="node">
<title>423</title>
<ellipse fill="white" stroke="black" cx="292.75" cy="-117.32" rx="25" ry="25"/>
<text text-anchor="middle" x="292.75" y="-115.12" font-family="Times,serif" font-size="9.00">423</text>
</g>
<!-- x_diff&#45;&gt;423 -->
<g id="edge6" class="edge">
<title>x_diff&#45;&gt;423</title>
<path fill="none" stroke="red" stroke-width="1.09" d="M343.87,-178.03C336.78,-169.75 325.35,-156.4 315.09,-144.42"/>
<polygon fill="red" stroke="red" stroke-width="1.09" points="317.74,-142.13 308.58,-136.81 312.42,-146.68 317.74,-142.13"/>
</g>
<!-- 424 -->
<g id="node12" class="node">
<title>424</title>
<ellipse fill="white" stroke="black" cx="359.75" cy="-117.32" rx="25" ry="25"/>
<text text-anchor="middle" x="359.75" y="-115.12" font-family="Times,serif" font-size="9.00">424</text>
</g>
<!-- x_diff&#45;&gt;424 -->
<g id="edge7" class="edge">
<title>x_diff&#45;&gt;424</title>
<path fill="none" stroke="red" stroke-width="0.63" d="M351.82,-178.03C352.69,-171.47 353.98,-161.74 355.27,-152.02"/>
<polygon fill="red" stroke="red" stroke-width="0.63" points="358.75,-152.41 356.6,-142.04 351.81,-151.49 358.75,-152.41"/>
</g>
<!-- object_y -->
<g id="node2" class="node">
<title>object_y</title>
<polygon fill="lightgray" stroke="black" points="204.25,-196.07 149.25,-196.07 149.25,-178.07 204.25,-178.07 204.25,-196.07"/>
<text text-anchor="middle" x="176.75" y="-184.87" font-family="Times,serif" font-size="9.00">object_y</text>
</g>
<!-- 417 -->
<g id="node5" class="node">
<title>417</title>
<ellipse fill="white" stroke="black" cx="24.75" cy="-117.32" rx="25" ry="25"/>
<text text-anchor="middle" x="24.75" y="-115.12" font-family="Times,serif" font-size="9.00">417</text>
</g>
<!-- object_y&#45;&gt;417 -->
<g id="edge8" class="edge">
<title>object_y&#45;&gt;417</title>
<path fill="none" stroke="green" stroke-width="2.03" d="M148.91,-178.12C124.2,-170.52 87.5,-157.9 57.75,-142.07 55.97,-141.12 54.18,-140.09 52.41,-139.01"/>
<polygon fill="green" stroke="green" stroke-width="2.03" points="54,-135.87 43.73,-133.29 50.15,-141.72 54,-135.87"/>
</g>
<!-- object_y&#45;&gt;419 -->
<g id="edge9" class="edge">
<title>object_y&#45;&gt;419</title>
<path fill="none" stroke="green" stroke-width="0.14" d="M166.66,-178.03C154.98,-168.72 135.25,-152.99 118.97,-140.01"/>
<polygon fill="green" stroke="green" stroke-width="0.14" points="120.83,-137.02 110.83,-133.53 116.47,-142.5 120.83,-137.02"/>
</g>
<!-- object_y&#45;&gt;420 -->
<g id="edge10" class="edge">
<title>object_y&#45;&gt;420</title>
<path fill="none" stroke="red" stroke-width="0.26" d="M174.61,-178.03C172.83,-171.3 170.15,-161.22 167.5,-151.25"/>
<polygon fill="red" stroke="red" stroke-width="0.26" points="170.84,-150.21 164.89,-141.44 164.08,-152.01 170.84,-150.21"/>
</g>
<!-- object_y&#45;&gt;421 -->
<g id="edge11" class="edge">
<title>object_y&#45;&gt;421</title>
<path fill="none" stroke="green" stroke-width="1.24" d="M182.56,-178.03C188.27,-170.13 197.32,-157.62 205.66,-146.09"/>
<polygon fill="green" stroke="green" stroke-width="1.24" points="208.53,-148.1 211.56,-137.94 202.86,-143.99 208.53,-148.1"/>
</g>
<!-- object_y&#45;&gt;423 -->
<g id="edge12" class="edge">
<title>object_y&#45;&gt;423</title>
<path fill="none" stroke="red" stroke-width="0.95" d="M193.66,-177.95C210.7,-169.58 237.58,-155.83 259.75,-142.07 261.41,-141.03 263.1,-139.94 264.8,-138.83"/>
<polygon fill="red" stroke="red" stroke-width="0.95" points="266.9,-141.63 273.16,-133.08 262.93,-135.86 266.9,-141.63"/>
</g>
<!-- object_y&#45;&gt;424 -->
<g id="edge13" class="edge">
<title>object_y&#45;&gt;424</title>
<path fill="none" stroke="green" stroke-width="1.38" d="M204.32,-180.91C235.22,-174.47 286.27,-161.85 326.75,-142.07 328.56,-141.18 330.37,-140.2 332.17,-139.16"/>
<polygon fill="green" stroke="green" stroke-width="1.38" points="334.38,-141.89 340.9,-133.54 330.59,-136.01 334.38,-141.89"/>
</g>
<!-- object_height -->
<g id="node3" class="node">
<title>object_height</title>
<polygon fill="lightgray" stroke="black" points="311.75,-196.07 231.75,-196.07 231.75,-178.07 311.75,-178.07 311.75,-196.07"/>
<text text-anchor="middle" x="271.75" y="-184.87" font-family="Times,serif" font-size="9.00">object_height</text>
</g>
<!-- object_height&#45;&gt;417 -->
<g id="edge14" class="edge">
<title>object_height&#45;&gt;417</title>
<path fill="none" stroke="red" stroke-width="1.47" d="M231.52,-179.86C178.51,-171.33 88.4,-155.51 57.75,-142.07 55.91,-141.26 54.07,-140.34 52.25,-139.33"/>
<polygon fill="red" stroke="red" stroke-width="1.47" points="53.8,-136.17 43.46,-133.83 50.08,-142.11 53.8,-136.17"/>
</g>
<!-- object_height&#45;&gt;418 -->
<g id="edge15" class="edge">
<title>object_height&#45;&gt;418</title>
<path fill="none" stroke="red" stroke-width="0.81" d="M301.05,-178.01C326.38,-170.46 363.57,-157.97 393.75,-142.07 395.53,-141.13 397.32,-140.1 399.1,-139.03"/>
<polygon fill="red" stroke="red" stroke-width="0.81" points="401.35,-141.74 407.79,-133.32 397.51,-135.89 401.35,-141.74"/>
</g>
<!-- object_height&#45;&gt;420 -->
<g id="edge16" class="edge">
<title>object_height&#45;&gt;420</title>
<path fill="none" stroke="red" stroke-width="0.2" d="M255.79,-178.02C239.4,-169.58 213.33,-155.69 191.75,-142.07 190.09,-141.02 188.41,-139.92 186.72,-138.79"/>
<polygon fill="red" stroke="red" stroke-width="0.2" points="188.59,-135.83 178.37,-133.03 184.61,-141.59 188.59,-135.83"/>
</g>
<!-- object_height&#45;&gt;421 -->
<g id="edge17" class="edge">
<title>object_height&#45;&gt;421</title>
<path fill="none" stroke="red" stroke-width="0.94" d="M266.29,-178.03C261.02,-170.26 252.72,-158.04 245,-146.67"/>
<polygon fill="red" stroke="red" stroke-width="0.94" points="247.78,-144.53 239.27,-138.23 241.99,-148.47 247.78,-144.53"/>
</g>
<!-- object_height&#45;&gt;422 -->
<g id="edge18" class="edge">
<title>object_height&#45;&gt;422</title>
<path fill="none" stroke="red" stroke-width="1.39" d="M312.16,-178.59C359.44,-169.52 434.6,-153.94 460.75,-142.07 462.58,-141.23 464.41,-140.29 466.22,-139.28"/>
<polygon fill="red" stroke="red" stroke-width="1.39" points="468.41,-142.04 474.99,-133.74 464.67,-136.12 468.41,-142.04"/>
</g>
<!-- object_height&#45;&gt;423 -->
<g id="edge19" class="edge">
<title>object_height&#45;&gt;423</title>
<path fill="none" stroke="green" stroke-width="1.26" d="M274.24,-178.03C276.36,-171.18 279.57,-160.85 282.71,-150.7"/>
<polygon fill="green" stroke="green" stroke-width="1.26" points="286.05,-151.73 285.67,-141.15 279.37,-149.66 286.05,-151.73"/>
</g>
<!-- object_height&#45;&gt;424 -->
<g id="edge20" class="edge">
<title>object_height&#45;&gt;424</title>
<path fill="none" stroke="green" stroke-width="1.52" d="M282.19,-178.03C294.47,-168.57 315.35,-152.5 332.36,-139.41"/>
<polygon fill="green" stroke="green" stroke-width="1.52" points="334.55,-142.14 340.34,-133.26 330.28,-136.59 334.55,-142.14"/>
</g>
<!-- jump -->
<g id="node4" class="node">
<title>jump</title>
<ellipse fill="lightblue" stroke="black" cx="258.75" cy="-28.28" rx="28.07" ry="28.07"/>
<text text-anchor="middle" x="258.75" y="-26.08" font-family="Times,serif" font-size="9.00">jump</text>
</g>
<!-- 417&#45;&gt;jump -->
<g id="edge21" class="edge">
<title>417&#45;&gt;jump</title>
<path fill="none" stroke="green" stroke-width="0.09" d="M43.64,-101.17C48.1,-98.04 52.95,-94.97 57.75,-92.57 111.72,-65.53 179.63,-47.05 221.08,-37.34"/>
<polygon fill="green" stroke="green" stroke-width="0.09" points="222.06,-40.7 231.03,-35.06 220.5,-33.88 222.06,-40.7"/>
</g>
<!-- 418&#45;&gt;jump -->
<g id="edge22" class="edge">
<title>418&#45;&gt;jump</title>
<path fill="none" stroke="green" stroke-width="0.2" d="M407.26,-101.39C402.91,-98.31 398.25,-95.21 393.75,-92.57 361.2,-73.45 321.94,-55.58 294.16,-43.74"/>
<polygon fill="green" stroke="green" stroke-width="0.2" points="295.42,-40.47 284.85,-39.81 292.7,-46.92 295.42,-40.47"/>
</g>
<!-- 419&#45;&gt;jump -->
<g id="edge23" class="edge">
<title>419&#45;&gt;jump</title>
<path fill="none" stroke="green" stroke-width="0.38" d="M111.25,-101.4C115.59,-98.32 120.25,-95.22 124.75,-92.57 157.07,-73.52 196.04,-55.64 223.6,-43.78"/>
<polygon fill="green" stroke="green" stroke-width="0.38" points="225.02,-46.98 232.85,-39.84 222.28,-40.54 225.02,-46.98"/>
</g>
<!-- 420&#45;&gt;jump -->
<g id="edge24" class="edge">
<title>420&#45;&gt;jump</title>
<path fill="none" stroke="red" stroke-width="0.29" d="M177.09,-100.35C191.82,-87.53 212.78,-69.29 229.77,-54.5"/>
<polygon fill="red" stroke="red" stroke-width="0.29" points="232.51,-56.76 237.75,-47.56 227.91,-51.48 232.51,-56.76"/>
</g>
<!-- 421&#45;&gt;jump -->
<g id="edge25" class="edge">
<title>421&#45;&gt;jump</title>
<path fill="none" stroke="red" stroke-width="0.4" d="M234.25,-93.9C237.63,-84.99 241.6,-74.52 245.35,-64.63"/>
<polygon fill="red" stroke="red" stroke-width="0.4" points="248.72,-65.6 248.99,-55.01 242.18,-63.12 248.72,-65.6"/>
</g>
<!-- 422&#45;&gt;jump -->
<g id="edge26" class="edge">
<title>422&#45;&gt;jump</title>
<path fill="none" stroke="red" stroke-width="0.4" d="M474.86,-101.16C470.4,-98.04 465.55,-94.97 460.75,-92.57 406.36,-65.37 337.88,-46.89 296.26,-37.22"/>
<polygon fill="red" stroke="red" stroke-width="0.4" points="296.8,-33.76 286.28,-34.96 295.25,-40.59 296.8,-33.76"/>
</g>
<!-- 423&#45;&gt;jump -->
<g id="edge27" class="edge">
<title>423&#45;&gt;jump</title>
<path fill="none" stroke="green" stroke-width="0.47" d="M283.99,-93.9C280.51,-84.99 276.42,-74.52 272.56,-64.63"/>
<polygon fill="green" stroke="green" stroke-width="0.47" points="275.7,-63.05 268.8,-55.01 269.18,-65.6 275.7,-63.05"/>
</g>
<!-- 424&#45;&gt;jump -->
<g id="edge28" class="edge">
<title>424&#45;&gt;jump</title>
<path fill="none" stroke="green" stroke-width="0.89" d="M341.22,-100.35C326.21,-87.42 304.79,-68.96 287.55,-54.1"/>
<polygon fill="green" stroke="green" stroke-width="0.89" points="289.81,-51.43 279.95,-47.56 285.24,-56.74 289.81,-51.43"/>
</g>
</g>
</svg>
