<?xml version="1.0" encoding="UTF-8" standalone="no"?>
<!DOCTYPE svg PUBLIC "-//W3C//DTD SVG 1.1//EN"
 "http://www.w3.org/Graphics/SVG/1.1/DTD/svg11.dtd">
<!-- Generated by graphviz version 2.43.0 (0)
 -->
<!-- Title: %3 Pages: 1 -->
<svg width="490pt" height="290pt"
 viewBox="0.00 0.00 489.59 289.56" xmlns="http://www.w3.org/2000/svg" xmlns:xlink="http://www.w3.org/1999/xlink">
<g id="graph0" class="graph" transform="scale(1 1) rotate(0) translate(4 285.56)">
<title>%3</title>
<polygon fill="white" stroke="transparent" points="-4,4 -4,-285.56 485.59,-285.56 485.59,4 -4,4"/>
<!-- x_diff -->
<g id="node1" class="node">
<title>x_diff</title>
<polygon fill="lightgray" stroke="black" points="198.84,-281.56 156.84,-281.56 156.84,-263.56 198.84,-263.56 198.84,-281.56"/>
<text text-anchor="middle" x="177.84" y="-270.36" font-family="Times,serif" font-size="9.00">x_diff</text>
</g>
<!-- 265 -->
<g id="node5" class="node">
<title>265</title>
<ellipse fill="white" stroke="black" cx="43.84" cy="-202.81" rx="25" ry="25"/>
<text text-anchor="middle" x="43.84" y="-200.61" font-family="Times,serif" font-size="9.00">265</text>
</g>
<!-- x_diff&#45;&gt;265 -->
<g id="edge1" class="edge">
<title>x_diff&#45;&gt;265</title>
<path fill="none" stroke="red" stroke-width="3.02" d="M156.71,-263.88C135.83,-255.93 103.27,-242.6 76.84,-227.56 75.09,-226.57 73.33,-225.5 71.56,-224.39"/>
<polygon fill="red" stroke="red" stroke-width="3.02" points="73.18,-221.26 62.93,-218.59 69.28,-227.07 73.18,-221.26"/>
</g>
<!-- 266 -->
<g id="node6" class="node">
<title>266</title>
<ellipse fill="white" stroke="black" cx="110.84" cy="-202.81" rx="25" ry="25"/>
<text text-anchor="middle" x="110.84" y="-200.61" font-family="Times,serif" font-size="9.00">266</text>
</g>
<!-- x_diff&#45;&gt;266 -->
<g id="edge2" class="edge">
<title>x_diff&#45;&gt;266</title>
<path fill="none" stroke="red" stroke-width="0.97" d="M169.89,-263.53C161.34,-254.88 147.31,-240.69 135.08,-228.32"/>
<polygon fill="red" stroke="red" stroke-width="0.97" points="137.27,-225.56 127.75,-220.91 132.3,-230.49 137.27,-225.56"/>
</g>
<!-- 267 -->
<g id="node7" class="node">
<title>267</title>
<ellipse fill="white" stroke="black" cx="177.84" cy="-202.81" rx="25" ry="25"/>
<text text-anchor="middle" x="177.84" y="-200.61" font-family="Times,serif" font-size="9.00">267</text>
</g>
<!-- x_diff&#45;&gt;267 -->
<g id="edge3" class="edge">
<title>x_diff&#45;&gt;267</title>
<path fill="none" stroke="red" stroke-width="0.25" d="M177.84,-263.53C177.84,-257.09 177.84,-247.59 177.84,-238.06"/>
<polygon fill="red" stroke="red" stroke-width="0.25" points="181.34,-237.84 177.84,-227.84 174.34,-237.84 181.34,-237.84"/>
</g>
<!-- 268 -->
<g id="node8" class="node">
<title>268</title>
<ellipse fill="white" stroke="black" cx="244.84" cy="-202.81" rx="25" ry="25"/>
<text text-anchor="middle" x="244.84" y="-200.61" font-family="Times,serif" font-size="9.00">268</text>
</g>
<!-- x_diff&#45;&gt;268 -->
<g id="edge4" class="edge">
<title>x_diff&#45;&gt;268</title>
<path fill="none" stroke="green" stroke-width="1.49" d="M185.79,-263.53C194.35,-254.88 208.37,-240.69 220.61,-228.32"/>
<polygon fill="green" stroke="green" stroke-width="1.49" points="223.39,-230.49 227.93,-220.91 218.41,-225.56 223.39,-230.49"/>
</g>
<!-- 270 -->
<g id="node9" class="node">
<title>270</title>
<ellipse fill="white" stroke="black" cx="350.84" cy="-202.81" rx="25" ry="25"/>
<text text-anchor="middle" x="350.84" y="-200.61" font-family="Times,serif" font-size="9.00">270</text>
</g>
<!-- x_diff&#45;&gt;270 -->
<g id="edge5" class="edge">
<title>x_diff&#45;&gt;270</title>
<path fill="none" stroke="red" stroke-width="1.35" d="M199.09,-265.24C231.44,-255.5 291.44,-236.97 311.84,-227.56 315.21,-226.01 318.64,-224.23 322.01,-222.37"/>
<polygon fill="red" stroke="red" stroke-width="1.35" points="323.82,-225.37 330.68,-217.3 320.28,-219.32 323.82,-225.37"/>
</g>
<!-- 272 -->
<g id="node11" class="node">
<title>272</title>
<ellipse fill="white" stroke="black" cx="297.84" cy="-117.32" rx="25" ry="25"/>
<text text-anchor="middle" x="297.84" y="-115.12" font-family="Times,serif" font-size="9.00">272</text>
</g>
<!-- x_diff&#45;&gt;272 -->
<g id="edge6" class="edge">
<title>x_diff&#45;&gt;272</title>
<path fill="none" stroke="red" stroke-width="1.26" d="M199.13,-264.94C225.6,-256.27 268.56,-240.65 278.84,-227.56 295.45,-206.43 299.59,-175.85 299.93,-152.42"/>
<polygon fill="red" stroke="red" stroke-width="1.26" points="303.43,-152.19 299.85,-142.22 296.43,-152.24 303.43,-152.19"/>
</g>
<!-- object_y -->
<g id="node2" class="node">
<title>object_y</title>
<polygon fill="lightgray" stroke="black" points="138.34,-281.56 83.34,-281.56 83.34,-263.56 138.34,-263.56 138.34,-281.56"/>
<text text-anchor="middle" x="110.84" y="-270.36" font-family="Times,serif" font-size="9.00">object_y</text>
</g>
<!-- object_y&#45;&gt;265 -->
<g id="edge7" class="edge">
<title>object_y&#45;&gt;265</title>
<path fill="none" stroke="green" stroke-width="0.76" d="M102.89,-263.53C94.34,-254.88 80.31,-240.69 68.08,-228.32"/>
<polygon fill="green" stroke="green" stroke-width="0.76" points="70.27,-225.56 60.75,-220.91 65.3,-230.49 70.27,-225.56"/>
</g>
<!-- object_y&#45;&gt;266 -->
<g id="edge8" class="edge">
<title>object_y&#45;&gt;266</title>
<path fill="none" stroke="red" stroke-width="1.03" d="M110.84,-263.53C110.84,-257.09 110.84,-247.59 110.84,-238.06"/>
<polygon fill="red" stroke="red" stroke-width="1.03" points="114.34,-237.84 110.84,-227.84 107.34,-237.84 114.34,-237.84"/>
</g>
<!-- object_y&#45;&gt;267 -->
<g id="edge9" class="edge">
<title>object_y&#45;&gt;267</title>
<path fill="none" stroke="red" stroke-width="0.35" d="M118.79,-263.53C127.35,-254.88 141.37,-240.69 153.61,-228.32"/>
<polygon fill="red" stroke="red" stroke-width="0.35" points="156.39,-230.49 160.93,-220.91 151.41,-225.56 156.39,-230.49"/>
</g>
<!-- object_y&#45;&gt;268 -->
<g id="edge10" class="edge">
<title>object_y&#45;&gt;268</title>
<path fill="none" stroke="green" stroke-width="0.63" d="M133.17,-263.42C154.08,-255.43 185.91,-242.32 211.84,-227.56 213.59,-226.57 215.36,-225.5 217.12,-224.39"/>
<polygon fill="green" stroke="green" stroke-width="0.63" points="219.4,-227.07 225.76,-218.59 215.5,-221.26 219.4,-227.07"/>
</g>
<!-- object_y&#45;&gt;272 -->
<g id="edge11" class="edge">
<title>object_y&#45;&gt;272</title>
<path fill="none" stroke="red" stroke-width="0.29" d="M83.2,-267.91C59.25,-263.12 25.98,-252.2 9.84,-227.56 -2.21,-209.16 -4.04,-195.13 9.84,-178.07 41.42,-139.26 193.38,-124.86 262.94,-120.23"/>
<polygon fill="red" stroke="red" stroke-width="0.29" points="263.22,-123.72 272.97,-119.6 262.77,-116.74 263.22,-123.72"/>
</g>
<!-- object_height -->
<g id="node3" class="node">
<title>object_height</title>
<polygon fill="lightgray" stroke="black" points="296.84,-281.56 216.84,-281.56 216.84,-263.56 296.84,-263.56 296.84,-281.56"/>
<text text-anchor="middle" x="256.84" y="-270.36" font-family="Times,serif" font-size="9.00">object_height</text>
</g>
<!-- object_height&#45;&gt;265 -->
<g id="edge12" class="edge">
<title>object_height&#45;&gt;265</title>
<path fill="none" stroke="red" stroke-width="0.77" d="M216.76,-263.63C171.65,-254.38 101.46,-238.91 76.84,-227.56 75.02,-226.72 73.19,-225.77 71.38,-224.75"/>
<polygon fill="red" stroke="red" stroke-width="0.77" points="72.94,-221.6 62.62,-219.2 69.19,-227.51 72.94,-221.6"/>
</g>
<!-- object_height&#45;&gt;266 -->
<g id="edge13" class="edge">
<title>object_height&#45;&gt;266</title>
<path fill="none" stroke="red" stroke-width="2.05" d="M230.89,-263.54C207.44,-255.82 172.33,-243.04 143.84,-227.56 142.07,-226.6 140.29,-225.56 138.52,-224.47"/>
<polygon fill="red" stroke="red" stroke-width="2.05" points="140.12,-221.34 129.85,-218.73 136.26,-227.17 140.12,-221.34"/>
</g>
<!-- object_height&#45;&gt;267 -->
<g id="edge14" class="edge">
<title>object_height&#45;&gt;267</title>
<path fill="none" stroke="green" stroke-width="0.18" d="M247.47,-263.53C236.85,-254.42 219.07,-239.17 204.14,-226.37"/>
<polygon fill="green" stroke="green" stroke-width="0.18" points="206.07,-223.41 196.2,-219.56 201.51,-228.72 206.07,-223.41"/>
</g>
<!-- object_height&#45;&gt;268 -->
<g id="edge15" class="edge">
<title>object_height&#45;&gt;268</title>
<path fill="none" stroke="red" stroke-width="0.13" d="M255.42,-263.53C254.25,-256.92 252.51,-247.08 250.77,-237.29"/>
<polygon fill="red" stroke="red" stroke-width="0.13" points="254.18,-236.47 248.99,-227.24 247.29,-237.7 254.18,-236.47"/>
</g>
<!-- object_height&#45;&gt;270 -->
<g id="edge16" class="edge">
<title>object_height&#45;&gt;270</title>
<path fill="none" stroke="green" stroke-width="0.39" d="M267.99,-263.53C281.37,-253.89 304.28,-237.38 322.62,-224.16"/>
<polygon fill="green" stroke="green" stroke-width="0.39" points="325.13,-226.66 331.19,-217.98 321.04,-220.98 325.13,-226.66"/>
</g>
<!-- 271 -->
<g id="node10" class="node">
<title>271</title>
<ellipse fill="white" stroke="black" cx="456.84" cy="-202.81" rx="25" ry="25"/>
<text text-anchor="middle" x="456.84" y="-200.61" font-family="Times,serif" font-size="9.00">271</text>
</g>
<!-- object_height&#45;&gt;271 -->
<g id="edge17" class="edge">
<title>object_height&#45;&gt;271</title>
<path fill="none" stroke="red" stroke-width="0.43" d="M296.93,-263.88C330.16,-256.75 378.19,-244.65 417.84,-227.56 421.25,-226.1 424.71,-224.37 428.09,-222.54"/>
<polygon fill="red" stroke="red" stroke-width="0.43" points="429.88,-225.55 436.78,-217.51 426.37,-219.49 429.88,-225.55"/>
</g>
<!-- object_height&#45;&gt;272 -->
<g id="edge18" class="edge">
<title>object_height&#45;&gt;272</title>
<path fill="none" stroke="green" stroke-width="0.08" d="M297,-269.56C326.61,-265.73 365.05,-255.3 384.84,-227.56 397.62,-209.66 395.09,-197.53 384.84,-178.07 373.33,-156.19 349.78,-140.78 330.09,-131.09"/>
<polygon fill="green" stroke="green" stroke-width="0.08" points="331.35,-127.81 320.8,-126.79 328.41,-134.17 331.35,-127.81"/>
</g>
<!-- jump -->
<g id="node4" class="node">
<title>jump</title>
<ellipse fill="lightblue" stroke="black" cx="244.84" cy="-28.28" rx="28.07" ry="28.07"/>
<text text-anchor="middle" x="244.84" y="-26.08" font-family="Times,serif" font-size="9.00">jump</text>
</g>
<!-- 265&#45;&gt;jump -->
<g id="edge19" class="edge">
<title>265&#45;&gt;jump</title>
<path fill="none" stroke="green" stroke-width="1" d="M60.32,-183.87C81.3,-161.43 119.13,-122.36 154.84,-92.57 173.08,-77.36 194.83,-62 212.38,-50.22"/>
<polygon fill="green" stroke="green" stroke-width="1" points="214.74,-52.85 221.13,-44.4 210.87,-47.02 214.74,-52.85"/>
</g>
<!-- 266&#45;&gt;jump -->
<g id="edge20" class="edge">
<title>266&#45;&gt;jump</title>
<path fill="none" stroke="green" stroke-width="2.5" d="M125.69,-182.69C148.91,-152.8 193.98,-94.77 221.55,-59.28"/>
<polygon fill="green" stroke="green" stroke-width="2.5" points="224.45,-61.25 227.82,-51.2 218.92,-56.95 224.45,-61.25"/>
</g>
<!-- 268&#45;&gt;jump -->
<g id="edge21" class="edge">
<title>268&#45;&gt;jump</title>
<path fill="none" stroke="red" stroke-width="0.45" d="M244.84,-177.83C244.84,-149.17 244.84,-100.88 244.84,-67.16"/>
<polygon fill="red" stroke="red" stroke-width="0.45" points="248.34,-66.77 244.84,-56.77 241.34,-66.77 248.34,-66.77"/>
</g>
<!-- 271&#45;&gt;jump -->
<g id="edge22" class="edge">
<title>271&#45;&gt;jump</title>
<path fill="none" stroke="green" stroke-width="0.35" d="M439.06,-185.37C415.2,-163.53 371.26,-124.03 331.84,-92.57 313.82,-78.18 292.94,-62.95 276.16,-51.04"/>
<polygon fill="green" stroke="green" stroke-width="0.35" points="277.98,-48.04 267.79,-45.13 273.94,-53.76 277.98,-48.04"/>
</g>
<!-- 271&#45;&gt;272 -->
<g id="edge24" class="edge">
<title>271&#45;&gt;272</title>
<path fill="none" stroke="green" stroke-width="1.12" d="M435.98,-188.67C430.17,-185.12 423.81,-181.36 417.84,-178.07 388.34,-161.78 353.83,-144.8 329.41,-133.13"/>
<polygon fill="green" stroke="green" stroke-width="1.12" points="330.79,-129.91 320.25,-128.77 327.78,-136.23 330.79,-129.91"/>
</g>
<!-- 272&#45;&gt;jump -->
<g id="edge23" class="edge">
<title>272&#45;&gt;jump</title>
<path fill="none" stroke="red" stroke-width="1.15" d="M285.28,-95.69C279.1,-85.54 271.5,-73.06 264.56,-61.67"/>
<polygon fill="red" stroke="red" stroke-width="1.15" points="267.38,-59.56 259.19,-52.84 261.4,-63.2 267.38,-59.56"/>
</g>
</g>
</svg>
