<?xml version="1.0" encoding="UTF-8" standalone="no"?>
<!DOCTYPE svg PUBLIC "-//W3C//DTD SVG 1.1//EN"
 "http://www.w3.org/Graphics/SVG/1.1/DTD/svg11.dtd">
<!-- Generated by graphviz version 2.43.0 (0)
 -->
<!-- Title: %3 Pages: 1 -->
<svg width="546pt" height="204pt"
 viewBox="0.00 0.00 545.58 204.07" xmlns="http://www.w3.org/2000/svg" xmlns:xlink="http://www.w3.org/1999/xlink">
<g id="graph0" class="graph" transform="scale(1 1) rotate(0) translate(4 200.07)">
<title>%3</title>
<polygon fill="white" stroke="transparent" points="-4,4 -4,-200.07 541.58,-200.07 541.58,4 -4,4"/>
<!-- x_diff -->
<g id="node1" class="node">
<title>x_diff</title>
<polygon fill="lightgray" stroke="black" points="332.83,-196.07 290.83,-196.07 290.83,-178.07 332.83,-178.07 332.83,-196.07"/>
<text text-anchor="middle" x="311.83" y="-184.87" font-family="Times,serif" font-size="9.00">x_diff</text>
</g>
<!-- 593 -->
<g id="node5" class="node">
<title>593</title>
<ellipse fill="white" stroke="black" cx="177.83" cy="-117.32" rx="25" ry="25"/>
<text text-anchor="middle" x="177.83" y="-115.12" font-family="Times,serif" font-size="9.00">593</text>
</g>
<!-- x_diff&#45;&gt;593 -->
<g id="edge1" class="edge">
<title>x_diff&#45;&gt;593</title>
<path fill="none" stroke="red" stroke-width="0.36" d="M290.7,-178.38C269.82,-170.44 237.26,-157.11 210.83,-142.07 209.08,-141.07 207.31,-140 205.55,-138.89"/>
<polygon fill="red" stroke="red" stroke-width="0.36" points="207.17,-135.76 196.91,-133.09 203.27,-141.57 207.17,-135.76"/>
</g>
<!-- 594 -->
<g id="node6" class="node">
<title>594</title>
<ellipse fill="white" stroke="black" cx="512.83" cy="-117.32" rx="25" ry="25"/>
<text text-anchor="middle" x="512.83" y="-115.12" font-family="Times,serif" font-size="9.00">594</text>
</g>
<!-- x_diff&#45;&gt;594 -->
<g id="edge2" class="edge">
<title>x_diff&#45;&gt;594</title>
<path fill="none" stroke="red" stroke-width="0.27" d="M332.84,-183.11C365.51,-177.95 429.91,-165.57 479.83,-142.07 481.65,-141.21 483.47,-140.25 485.28,-139.22"/>
<polygon fill="red" stroke="red" stroke-width="0.27" points="487.47,-141.97 494.03,-133.64 483.71,-136.07 487.47,-141.97"/>
</g>
<!-- 595 -->
<g id="node7" class="node">
<title>595</title>
<ellipse fill="white" stroke="black" cx="445.83" cy="-117.32" rx="25" ry="25"/>
<text text-anchor="middle" x="445.83" y="-115.12" font-family="Times,serif" font-size="9.00">595</text>
</g>
<!-- x_diff&#45;&gt;595 -->
<g id="edge3" class="edge">
<title>x_diff&#45;&gt;595</title>
<path fill="none" stroke="red" stroke-width="1.32" d="M332.96,-178.38C353.84,-170.44 386.4,-157.11 412.83,-142.07 414.58,-141.07 416.34,-140 418.11,-138.89"/>
<polygon fill="red" stroke="red" stroke-width="1.32" points="420.39,-141.57 426.74,-133.09 416.49,-135.76 420.39,-141.57"/>
</g>
<!-- 596 -->
<g id="node8" class="node">
<title>596</title>
<ellipse fill="white" stroke="black" cx="244.83" cy="-117.32" rx="25" ry="25"/>
<text text-anchor="middle" x="244.83" y="-115.12" font-family="Times,serif" font-size="9.00">596</text>
</g>
<!-- x_diff&#45;&gt;596 -->
<g id="edge4" class="edge">
<title>x_diff&#45;&gt;596</title>
<path fill="none" stroke="red" stroke-width="1.58" d="M303.88,-178.03C295.32,-169.38 281.3,-155.19 269.06,-142.82"/>
<polygon fill="red" stroke="red" stroke-width="1.58" points="271.26,-140.07 261.74,-135.42 266.28,-144.99 271.26,-140.07"/>
</g>
<!-- 597 -->
<g id="node9" class="node">
<title>597</title>
<ellipse fill="white" stroke="black" cx="311.83" cy="-117.32" rx="25" ry="25"/>
<text text-anchor="middle" x="311.83" y="-115.12" font-family="Times,serif" font-size="9.00">597</text>
</g>
<!-- x_diff&#45;&gt;597 -->
<g id="edge5" class="edge">
<title>x_diff&#45;&gt;597</title>
<path fill="none" stroke="red" stroke-width="0.7" d="M311.83,-178.03C311.83,-171.59 311.83,-162.1 311.83,-152.56"/>
<polygon fill="red" stroke="red" stroke-width="0.7" points="315.33,-152.34 311.83,-142.34 308.33,-152.34 315.33,-152.34"/>
</g>
<!-- 598 -->
<g id="node10" class="node">
<title>598</title>
<ellipse fill="white" stroke="black" cx="43.83" cy="-117.32" rx="25" ry="25"/>
<text text-anchor="middle" x="43.83" y="-115.12" font-family="Times,serif" font-size="9.00">598</text>
</g>
<!-- x_diff&#45;&gt;598 -->
<g id="edge6" class="edge">
<title>x_diff&#45;&gt;598</title>
<path fill="none" stroke="red" stroke-width="1.23" d="M290.58,-180.16C287.65,-179.41 284.67,-178.69 281.83,-178.07 191.5,-158.13 162.07,-177.99 76.83,-142.07 74.97,-141.28 73.12,-140.38 71.3,-139.4"/>
<polygon fill="red" stroke="red" stroke-width="1.23" points="72.84,-136.23 62.5,-133.94 69.15,-142.18 72.84,-136.23"/>
</g>
<!-- 599 -->
<g id="node11" class="node">
<title>599</title>
<ellipse fill="white" stroke="black" cx="110.83" cy="-117.32" rx="25" ry="25"/>
<text text-anchor="middle" x="110.83" y="-115.12" font-family="Times,serif" font-size="9.00">599</text>
</g>
<!-- x_diff&#45;&gt;599 -->
<g id="edge7" class="edge">
<title>x_diff&#45;&gt;599</title>
<path fill="none" stroke="green" stroke-width="0.59" d="M290.53,-180.37C287.6,-179.59 284.64,-178.81 281.83,-178.07 220.54,-161.9 201.19,-169.04 143.83,-142.07 142.01,-141.21 140.18,-140.25 138.38,-139.22"/>
<polygon fill="green" stroke="green" stroke-width="0.59" points="139.94,-136.07 129.63,-133.64 136.18,-141.97 139.94,-136.07"/>
</g>
<!-- 600 -->
<g id="node12" class="node">
<title>600</title>
<ellipse fill="white" stroke="black" cx="378.83" cy="-117.32" rx="25" ry="25"/>
<text text-anchor="middle" x="378.83" y="-115.12" font-family="Times,serif" font-size="9.00">600</text>
</g>
<!-- x_diff&#45;&gt;600 -->
<g id="edge8" class="edge">
<title>x_diff&#45;&gt;600</title>
<path fill="none" stroke="red" stroke-width="0.19" d="M319.78,-178.03C328.33,-169.38 342.36,-155.19 354.59,-142.82"/>
<polygon fill="red" stroke="red" stroke-width="0.19" points="357.37,-144.99 361.92,-135.42 352.4,-140.07 357.37,-144.99"/>
</g>
<!-- object_y -->
<g id="node2" class="node">
<title>object_y</title>
<polygon fill="lightgray" stroke="black" points="272.33,-196.07 217.33,-196.07 217.33,-178.07 272.33,-178.07 272.33,-196.07"/>
<text text-anchor="middle" x="244.83" y="-184.87" font-family="Times,serif" font-size="9.00">object_y</text>
</g>
<!-- object_y&#45;&gt;593 -->
<g id="edge9" class="edge">
<title>object_y&#45;&gt;593</title>
<path fill="none" stroke="green" stroke-width="1" d="M236.88,-178.03C228.32,-169.38 214.3,-155.19 202.06,-142.82"/>
<polygon fill="green" stroke="green" stroke-width="1" points="204.26,-140.07 194.74,-135.42 199.28,-144.99 204.26,-140.07"/>
</g>
<!-- object_y&#45;&gt;594 -->
<g id="edge10" class="edge">
<title>object_y&#45;&gt;594</title>
<path fill="none" stroke="green" stroke-width="0.3" d="M272.69,-179.94C275.77,-179.29 278.86,-178.66 281.83,-178.07 369.55,-160.61 397.51,-177.05 479.83,-142.07 481.68,-141.28 483.53,-140.37 485.35,-139.38"/>
<polygon fill="green" stroke="green" stroke-width="0.3" points="487.5,-142.17 494.15,-133.92 483.81,-136.22 487.5,-142.17"/>
</g>
<!-- object_y&#45;&gt;595 -->
<g id="edge11" class="edge">
<title>object_y&#45;&gt;595</title>
<path fill="none" stroke="red" stroke-width="0.57" d="M272.6,-180.09C313.56,-171.06 388,-153.75 412.83,-142.07 414.65,-141.21 416.47,-140.25 418.28,-139.22"/>
<polygon fill="red" stroke="red" stroke-width="0.57" points="420.47,-141.97 427.03,-133.64 416.71,-136.07 420.47,-141.97"/>
</g>
<!-- object_y&#45;&gt;596 -->
<g id="edge12" class="edge">
<title>object_y&#45;&gt;596</title>
<path fill="none" stroke="red" stroke-width="0.04" d="M244.83,-178.03C244.83,-171.59 244.83,-162.1 244.83,-152.56"/>
<polygon fill="red" stroke="red" stroke-width="0.04" points="248.33,-152.34 244.83,-142.34 241.33,-152.34 248.33,-152.34"/>
</g>
<!-- object_y&#45;&gt;597 -->
<g id="edge13" class="edge">
<title>object_y&#45;&gt;597</title>
<path fill="none" stroke="green" stroke-width="0.27" d="M252.78,-178.03C261.33,-169.38 275.36,-155.19 287.59,-142.82"/>
<polygon fill="green" stroke="green" stroke-width="0.27" points="290.37,-144.99 294.92,-135.42 285.4,-140.07 290.37,-144.99"/>
</g>
<!-- object_y&#45;&gt;598 -->
<g id="edge14" class="edge">
<title>object_y&#45;&gt;598</title>
<path fill="none" stroke="red" stroke-width="1.28" d="M217.05,-180.09C176.09,-171.06 101.65,-153.75 76.83,-142.07 75.01,-141.21 73.18,-140.25 71.38,-139.22"/>
<polygon fill="red" stroke="red" stroke-width="1.28" points="72.94,-136.07 62.63,-133.64 69.18,-141.97 72.94,-136.07"/>
</g>
<!-- object_y&#45;&gt;599 -->
<g id="edge15" class="edge">
<title>object_y&#45;&gt;599</title>
<path fill="none" stroke="red" stroke-width="0.41" d="M222.51,-177.92C201.59,-169.93 169.76,-156.82 143.83,-142.07 142.08,-141.07 140.31,-140 138.55,-138.89"/>
<polygon fill="red" stroke="red" stroke-width="0.41" points="140.17,-135.76 129.91,-133.09 136.27,-141.57 140.17,-135.76"/>
</g>
<!-- object_y&#45;&gt;600 -->
<g id="edge16" class="edge">
<title>object_y&#45;&gt;600</title>
<path fill="none" stroke="green" stroke-width="0.23" d="M267.15,-177.92C288.06,-169.93 319.9,-156.82 345.83,-142.07 347.58,-141.07 349.34,-140 351.11,-138.89"/>
<polygon fill="green" stroke="green" stroke-width="0.23" points="353.39,-141.57 359.74,-133.09 349.49,-135.76 353.39,-141.57"/>
</g>
<!-- object_height -->
<g id="node3" class="node">
<title>object_height</title>
<polygon fill="lightgray" stroke="black" points="198.83,-196.07 118.83,-196.07 118.83,-178.07 198.83,-178.07 198.83,-196.07"/>
<text text-anchor="middle" x="158.83" y="-184.87" font-family="Times,serif" font-size="9.00">object_height</text>
</g>
<!-- jump -->
<g id="node4" class="node">
<title>jump</title>
<ellipse fill="lightblue" stroke="black" cx="210.83" cy="-28.28" rx="28.07" ry="28.07"/>
<text text-anchor="middle" x="210.83" y="-26.08" font-family="Times,serif" font-size="9.00">jump</text>
</g>
<!-- object_height&#45;&gt;jump -->
<g id="edge30" class="edge">
<title>object_height&#45;&gt;jump</title>
<path fill="none" stroke="green" stroke-width="0.43" d="M118.56,-186.52C83.56,-184.5 34.69,-175.34 9.83,-142.07 -3.34,-124.44 -3.18,-110.31 9.83,-92.57 47.05,-41.83 124.98,-30.71 172.12,-28.87"/>
<polygon fill="green" stroke="green" stroke-width="0.43" points="172.36,-32.36 182.26,-28.59 172.17,-25.36 172.36,-32.36"/>
</g>
<!-- object_height&#45;&gt;593 -->
<g id="edge17" class="edge">
<title>object_height&#45;&gt;593</title>
<path fill="none" stroke="green" stroke-width="0.69" d="M161.08,-178.03C162.97,-171.3 165.8,-161.22 168.59,-151.25"/>
<polygon fill="green" stroke="green" stroke-width="0.69" points="172.01,-152.02 171.34,-141.44 165.27,-150.13 172.01,-152.02"/>
</g>
<!-- object_height&#45;&gt;596 -->
<g id="edge18" class="edge">
<title>object_height&#45;&gt;596</title>
<path fill="none" stroke="red" stroke-width="0.36" d="M169.03,-178.03C180.93,-168.66 201.07,-152.79 217.6,-139.76"/>
<polygon fill="red" stroke="red" stroke-width="0.36" points="220.17,-142.2 225.86,-133.26 215.84,-136.7 220.17,-142.2"/>
</g>
<!-- object_height&#45;&gt;597 -->
<g id="edge19" class="edge">
<title>object_height&#45;&gt;597</title>
<path fill="none" stroke="green" stroke-width="0.44" d="M187.4,-178.01C212.31,-170.42 249.03,-157.87 278.83,-142.07 280.61,-141.12 282.4,-140.1 284.17,-139.02"/>
<polygon fill="green" stroke="green" stroke-width="0.44" points="286.43,-141.72 292.86,-133.3 282.58,-135.88 286.43,-141.72"/>
</g>
<!-- object_height&#45;&gt;598 -->
<g id="edge20" class="edge">
<title>object_height&#45;&gt;598</title>
<path fill="none" stroke="green" stroke-width="1.04" d="M142.13,-177.92C125.3,-169.52 98.75,-155.76 76.83,-142.07 75.17,-141.03 73.48,-139.94 71.79,-138.82"/>
<polygon fill="green" stroke="green" stroke-width="1.04" points="73.65,-135.85 63.43,-133.07 69.69,-141.62 73.65,-135.85"/>
</g>
<!-- object_height&#45;&gt;599 -->
<g id="edge21" class="edge">
<title>object_height&#45;&gt;599</title>
<path fill="none" stroke="red" stroke-width="1.64" d="M153.13,-178.03C147.59,-170.21 138.85,-157.86 130.74,-146.42"/>
<polygon fill="red" stroke="red" stroke-width="1.64" points="133.37,-144.08 124.73,-137.94 127.66,-148.12 133.37,-144.08"/>
</g>
<!-- object_height&#45;&gt;600 -->
<g id="edge22" class="edge">
<title>object_height&#45;&gt;600</title>
<path fill="none" stroke="green" stroke-width="0.2" d="M199.23,-178.48C246.03,-169.36 320.03,-153.82 345.83,-142.07 347.66,-141.23 349.49,-140.29 351.3,-139.27"/>
<polygon fill="green" stroke="green" stroke-width="0.2" points="353.48,-142.03 360.07,-133.73 349.74,-136.12 353.48,-142.03"/>
</g>
<!-- 593&#45;&gt;jump -->
<g id="edge23" class="edge">
<title>593&#45;&gt;jump</title>
<path fill="none" stroke="green" stroke-width="2.79" d="M186.33,-93.9C189.71,-84.99 193.68,-74.52 197.43,-64.63"/>
<polygon fill="green" stroke="green" stroke-width="2.79" points="200.8,-65.6 201.07,-55.01 194.26,-63.12 200.8,-65.6"/>
</g>
<!-- 594&#45;&gt;jump -->
<g id="edge24" class="edge">
<title>594&#45;&gt;jump</title>
<path fill="none" stroke="green" stroke-width="0.17" d="M494.07,-100.9C489.6,-97.79 484.71,-94.79 479.83,-92.57 402.26,-57.24 302.8,-40.47 249.19,-33.51"/>
<polygon fill="green" stroke="green" stroke-width="0.17" points="249.46,-30.02 239.1,-32.25 248.59,-36.96 249.46,-30.02"/>
</g>
<!-- 595&#45;&gt;jump -->
<g id="edge25" class="edge">
<title>595&#45;&gt;jump</title>
<path fill="none" stroke="red" stroke-width="1.19" d="M426.94,-101.16C422.48,-98.04 417.63,-94.97 412.83,-92.57 358.44,-65.37 289.96,-46.89 248.34,-37.22"/>
<polygon fill="red" stroke="red" stroke-width="1.19" points="248.88,-33.76 238.36,-34.96 247.33,-40.59 248.88,-33.76"/>
</g>
<!-- 596&#45;&gt;jump -->
<g id="edge26" class="edge">
<title>596&#45;&gt;jump</title>
<path fill="none" stroke="green" stroke-width="1.23" d="M236.07,-93.9C232.59,-84.99 228.5,-74.52 224.63,-64.63"/>
<polygon fill="green" stroke="green" stroke-width="1.23" points="227.78,-63.05 220.88,-55.01 221.26,-65.6 227.78,-63.05"/>
</g>
<!-- 597&#45;&gt;jump -->
<g id="edge27" class="edge">
<title>597&#45;&gt;jump</title>
<path fill="none" stroke="red" stroke-width="2.47" d="M293.3,-100.35C278.29,-87.42 256.87,-68.96 239.62,-54.1"/>
<polygon fill="red" stroke="red" stroke-width="2.47" points="241.89,-51.43 232.03,-47.56 237.32,-56.74 241.89,-51.43"/>
</g>
<!-- 598&#45;&gt;jump -->
<g id="edge28" class="edge">
<title>598&#45;&gt;jump</title>
<path fill="none" stroke="red" stroke-width="0.74" d="M63.33,-101.4C67.67,-98.32 72.33,-95.22 76.83,-92.57 109.15,-73.52 148.12,-55.64 175.68,-43.78"/>
<polygon fill="red" stroke="red" stroke-width="0.74" points="177.1,-46.98 184.93,-39.84 174.36,-40.54 177.1,-46.98"/>
</g>
<!-- 599&#45;&gt;jump -->
<g id="edge29" class="edge">
<title>599&#45;&gt;jump</title>
<path fill="none" stroke="red" stroke-width="1.19" d="M129.17,-100.35C143.9,-87.53 164.86,-69.29 181.85,-54.5"/>
<polygon fill="red" stroke="red" stroke-width="1.19" points="184.59,-56.76 189.83,-47.56 179.99,-51.48 184.59,-56.76"/>
</g>
</g>
</svg>
